<?xml version="1.0" encoding="UTF-8" standalone="no"?>
<!-- Created with Inkscape (http://www.inkscape.org/) -->

<svg
   width="23.45812mm"
   height="12.018962mm"
   viewBox="0 0 88.660615 45.425998"
   version="1.1"
   id="svg1"
   xml:space="preserve"
   xmlns="http://www.w3.org/2000/svg"
   xmlns:svg="http://www.w3.org/2000/svg"><defs
     id="defs1"><clipPath
       id="clip2_6491_7676-8-4-9-6"><rect
         width="94"
         height="54.421101"
         fill="#ffffff"
         transform="translate(40,168.842)"
         id="rect26-6-4-6-1"
         x="0"
         y="0" /></clipPath></defs><g
     id="layer10"
     style="display:inline"
     transform="translate(-388.00078,-656.72107)"><g
       clip-path="url(#clip2_6491_7676-8-4-9-6)"
       id="g9-2-0-7-4"
       transform="matrix(0.99999998,0,0,-0.99999998,344.76879,874.53407)"
       style="fill:#060622;fill-opacity:1"><path
         d="m 46.0646,195.102 6.109,-6.091 c 19.533,-19.476 51.2444,-19.476 70.7774,0 l 6.109,6.091 -6.109,6.091 c -19.533,19.476 -51.2444,19.476 -70.7774,0 z"
         stroke="#d4af37"
         stroke-width="4"
         stroke-miterlimit="10"
         id="path7-4-6-8-2"
         style="fill:#060622;fill-opacity:1" /><path
         d="m 87.62,215.813 c 11.473,0 20.774,-9.274 20.774,-20.713 0,-11.44 -9.301,-20.713 -20.774,-20.713 -11.4731,0 -20.7738,9.273 -20.7738,20.713 0,11.439 9.3007,20.713 20.7738,20.713 z"
         stroke="#d4af37"
         stroke-width="4"
         stroke-miterlimit="10"
         id="path8-8-6-8-0"
         style="fill:#060622;fill-opacity:1" /><path
         d="m 90.134485,207.33334 c 4.4472,0 8.0523,-3.595 8.0523,-8.029 0,-4.434 -3.6051,-8.029 -8.0523,-8.029 -4.4471,0 -8.0523,3.595 -8.0523,8.029 0,4.434 3.6052,8.029 8.0523,8.029 z"
         stroke="#d4af37"
         stroke-width="4"
         stroke-miterlimit="10"
         id="path9-6-1-2-9"
         style="fill:#060622;fill-opacity:1" /></g></g></svg>
