<?xml version="1.0" encoding="UTF-8" standalone="no"?>
<!-- Created with Inkscape (http://www.inkscape.org/) -->

<svg
   width="23.458103mm"
   height="12.018989mm"
   viewBox="0 0 88.66055 45.426099"
   version="1.1"
   id="svg1"
   xml:space="preserve"
   xmlns="http://www.w3.org/2000/svg"
   xmlns:svg="http://www.w3.org/2000/svg"><defs
     id="defs1"><clipPath
       id="clip0_6491_7676"><rect
         width="94"
         height="54.421101"
         fill="#ffffff"
         transform="translate(40,40)"
         id="rect24"
         x="0"
         y="0" /></clipPath></defs><g
     id="layer1"
     transform="translate(-388.00081,-656.72102)"><g
       clip-path="url(#clip0_6491_7676)"
       id="g3"
       transform="translate(344.76878,612.3711)"
       style="fill:none"><path
         d="m 46.0646,67.062986 6.109,-6.0912 c 19.533,-19.4758 51.2444,-19.4758 70.7774,0 l 6.109,6.0912 -6.109,6.0911 c -19.533,19.4759 -51.2444,19.4759 -70.7774,0 z"
         stroke="#d4af37"
         stroke-width="4"
         stroke-miterlimit="10"
         id="path1" /><path
         d="m 87.5622,87.776023 c 11.473,0 20.774,-9.2735 20.774,-20.713 0,-11.4395 -9.301,-20.7131 -20.774,-20.7131 -11.4731,0 -20.7738,9.2736 -20.7738,20.7131 0,11.4395 9.3007,20.713 20.7738,20.713 z"
         stroke="#d4af37"
         stroke-width="4"
         stroke-miterlimit="10"
         id="path2" /><path
         d="m 87.5623,75.091723 c 4.4472,0 8.0523,-3.5946 8.0523,-8.0287 0,-4.4342 -3.6051,-8.0288 -8.0523,-8.0288 -4.4471,0 -8.0523,3.5946 -8.0523,8.0288 0,4.4341 3.6052,8.0287 8.0523,8.0287 z"
         stroke="#d4af37"
         stroke-width="4"
         stroke-miterlimit="10"
         id="path3" /></g></g></svg>
