<svg width="94" height="56" viewBox="0 0 94 56" fill="none" xmlns="http://www.w3.org/2000/svg">
<g clip-path="url(#clip0_6491_7705)">
<path d="M6.06445 27.207L12.1735 21.1159C31.7065 1.63999 63.4179 1.63999 82.951 21.1159L89.0599 27.207L82.9509 33.2982C63.4179 52.7741 31.7065 52.7741 12.1735 33.2982L6.06445 27.207Z" stroke="#D4AF37" stroke-width="4" stroke-miterlimit="10"/>
<path d="M47.62 47.9183C59.093 47.9183 68.3938 38.6447 68.3938 27.2052C68.3938 15.7657 59.093 6.49219 47.62 6.49219C36.1469 6.49219 26.8462 15.7657 26.8462 27.2052C26.8462 38.6447 36.1469 47.9183 47.62 47.9183Z" stroke="#D4AF37" stroke-width="4" stroke-miterlimit="10"/>
<path d="M47 33C49.7614 33 52 30.7614 52 28C52 25.2386 49.7614 23 47 23C44.2386 23 42 25.2386 42 28C42 30.7614 44.2386 33 47 33Z" stroke="#D4AF37" stroke-width="4" stroke-miterlimit="10"/>
</g>
<defs>
<clipPath id="clip0_6491_7705">
<rect width="94" height="54.4211" fill="white" transform="translate(0 0.947266)"/>
</clipPath>
</defs>
</svg>
