<svg width="299" height="48" viewBox="0 0 299 48" fill="none" xmlns="http://www.w3.org/2000/svg">
<g clip-path="url(#clip0_6707_4064)">
<rect width="299" height="48" rx="8" fill="#D4AF37" fill-opacity="0.25"/>
<path d="M14 2H8C4.78979 2 2.16843 4.52111 2.00781 7.69141L2 8V40C2 43.3137 4.68629 46 8 46H249V48H8L7.58789 47.9893C3.49764 47.7817 0.218304 44.5024 0.0107422 40.4121L0 40V8C4.99297e-07 3.71994 3.36114 0.225231 7.58789 0.0107422L8 0H14V2ZM291.412 0.0107422C295.639 0.225233 299 3.71995 299 8V40L298.989 40.4121C298.782 44.5024 295.502 47.7817 291.412 47.9893L291 48H265V46H291C294.314 46 297 43.3137 297 40V8C297 4.6863 294.314 2 291 2H43V0H291L291.412 0.0107422ZM32 2H19V0H32V2Z" fill="#D4AF37"/>
<path d="M272 24H286M286 24L279 17M286 24L279 31" stroke="#D4AF37" stroke-width="2" stroke-linecap="round" stroke-linejoin="round"/>
<path d="M134.439 25.724V27.642C134.29 27.8007 134.075 27.9733 133.795 28.16C133.515 28.3467 133.179 28.524 132.787 28.692C132.404 28.8507 131.975 28.9813 131.499 29.084C131.032 29.1867 130.538 29.238 130.015 29.238C129.231 29.238 128.522 29.126 127.887 28.902C127.252 28.6687 126.706 28.3327 126.249 27.894C125.792 27.446 125.437 26.9 125.185 26.256C124.942 25.6027 124.821 24.8607 124.821 24.03C124.821 23.1993 124.947 22.462 125.199 21.818C125.451 21.174 125.806 20.628 126.263 20.18C126.73 19.732 127.271 19.3913 127.887 19.158C128.503 18.9247 129.18 18.808 129.917 18.808C130.636 18.808 131.219 18.9433 131.667 19.214C132.115 19.4753 132.465 19.8393 132.717 20.306C132.969 20.7633 133.16 21.2953 133.291 21.902L132.535 21.426L132.801 18.99H134.187V22.294H132.591C132.46 21.8833 132.297 21.524 132.101 21.216C131.914 20.8987 131.681 20.656 131.401 20.488C131.13 20.3107 130.799 20.222 130.407 20.222C130.043 20.222 129.735 20.3013 129.483 20.46C129.231 20.6187 129.026 20.8567 128.867 21.174C128.708 21.482 128.592 21.874 128.517 22.35C128.452 22.826 128.419 23.386 128.419 24.03C128.419 24.73 128.456 25.3227 128.531 25.808C128.615 26.2933 128.736 26.6853 128.895 26.984C129.063 27.2733 129.264 27.488 129.497 27.628C129.73 27.7587 129.996 27.824 130.295 27.824C130.454 27.824 130.594 27.81 130.715 27.782C130.846 27.7447 130.962 27.698 131.065 27.642C131.168 27.586 131.256 27.5253 131.331 27.46V25.724C131.331 25.5 131.261 25.3553 131.121 25.29C130.99 25.2247 130.822 25.192 130.617 25.192H130.351V23.932H135.167V25.192H134.957C134.789 25.192 134.658 25.2247 134.565 25.29C134.481 25.3553 134.439 25.5 134.439 25.724ZM141.106 24.422V25.444C140.779 25.5093 140.504 25.584 140.28 25.668C140.056 25.7427 139.874 25.8313 139.734 25.934C139.594 26.0273 139.487 26.13 139.412 26.242C139.337 26.3447 139.286 26.4613 139.258 26.592C139.23 26.7133 139.216 26.8393 139.216 26.97C139.216 27.194 139.239 27.3713 139.286 27.502C139.342 27.6233 139.421 27.712 139.524 27.768C139.636 27.8147 139.767 27.838 139.916 27.838C140.056 27.838 140.187 27.8053 140.308 27.74C140.439 27.6653 140.569 27.5533 140.7 27.404C140.831 27.2547 140.966 27.054 141.106 26.802L141.246 27.46C141.059 27.88 140.849 28.2113 140.616 28.454C140.392 28.6967 140.121 28.874 139.804 28.986C139.496 29.098 139.127 29.154 138.698 29.154C138.147 29.154 137.69 29.084 137.326 28.944C136.962 28.804 136.691 28.5893 136.514 28.3C136.346 28.0107 136.262 27.6327 136.262 27.166C136.262 26.7553 136.351 26.4053 136.528 26.116C136.705 25.8267 136.985 25.5793 137.368 25.374C137.751 25.1687 138.25 24.9913 138.866 24.842C139.482 24.6833 140.229 24.5433 141.106 24.422ZM141.232 29L141.064 27.516L140.938 27.586V23.232C140.938 23.1107 140.915 22.9987 140.868 22.896C140.821 22.7933 140.733 22.714 140.602 22.658C140.481 22.602 140.294 22.574 140.042 22.574C139.687 22.574 139.393 22.6207 139.16 22.714C138.927 22.8073 138.773 22.91 138.698 23.022C138.595 22.9847 138.525 22.9333 138.488 22.868C138.46 22.7933 138.469 22.7187 138.516 22.644C138.563 22.56 138.642 22.4947 138.754 22.448C138.866 22.392 139.015 22.3687 139.202 22.378V24.002H136.724V22.182C136.873 22.0887 137.107 21.9673 137.424 21.818C137.741 21.6687 138.147 21.538 138.642 21.426C139.137 21.3047 139.72 21.244 140.392 21.244C140.989 21.244 141.517 21.3 141.974 21.412C142.441 21.5147 142.833 21.6733 143.15 21.888C143.467 22.0933 143.705 22.3547 143.864 22.672C144.032 22.9893 144.116 23.3627 144.116 23.792V27.404C144.116 27.4787 144.13 27.5393 144.158 27.586C144.195 27.6233 144.247 27.656 144.312 27.684C144.387 27.7027 144.48 27.7307 144.592 27.768L144.704 27.796V29H141.232ZM145.531 29V27.894H145.559C145.736 27.894 145.871 27.852 145.965 27.768C146.067 27.6747 146.119 27.502 146.119 27.25V23.036C146.119 22.9613 146.1 22.9053 146.063 22.868C146.035 22.8213 145.983 22.784 145.909 22.756C145.843 22.728 145.755 22.7 145.643 22.672L145.531 22.644V21.398H149.087L149.269 23.246L149.381 23.204V27.782C149.381 27.81 149.399 27.8333 149.437 27.852C149.483 27.8707 149.535 27.8847 149.591 27.894C149.647 27.894 149.698 27.894 149.745 27.894H149.801V29H145.531ZM154.687 29H150.571V27.894H150.613C150.669 27.894 150.725 27.894 150.781 27.894C150.846 27.8847 150.897 27.8707 150.935 27.852C150.972 27.8333 150.991 27.81 150.991 27.782V23.708C150.991 23.5587 150.977 23.4373 150.949 23.344C150.921 23.2413 150.869 23.162 150.795 23.106C150.72 23.05 150.617 23.022 150.487 23.022C150.347 23.022 150.197 23.078 150.039 23.19C149.88 23.2927 149.712 23.4653 149.535 23.708C149.367 23.9507 149.185 24.2727 148.989 24.674L149.031 23.358C149.217 22.9473 149.46 22.5833 149.759 22.266C150.057 21.9487 150.393 21.7013 150.767 21.524C151.149 21.3373 151.551 21.244 151.971 21.244C152.456 21.244 152.867 21.3373 153.203 21.524C153.548 21.7107 153.809 21.9813 153.987 22.336C154.173 22.6907 154.267 23.1293 154.267 23.652V27.782C154.267 27.81 154.285 27.8333 154.323 27.852C154.369 27.8707 154.421 27.8847 154.477 27.894C154.542 27.894 154.598 27.894 154.645 27.894H154.687V29ZM159.727 29H155.457V27.894H155.485C155.55 27.894 155.611 27.894 155.667 27.894C155.723 27.8847 155.769 27.8707 155.807 27.852C155.853 27.8333 155.877 27.81 155.877 27.782V23.708C155.877 23.5587 155.858 23.4373 155.821 23.344C155.793 23.2413 155.741 23.162 155.667 23.106C155.601 23.05 155.503 23.022 155.373 23.022C155.214 23.022 155.055 23.0827 154.897 23.204C154.747 23.316 154.584 23.4933 154.407 23.736C154.239 23.9693 154.057 24.2727 153.861 24.646L153.917 23.344C154.103 22.9333 154.346 22.5693 154.645 22.252C154.943 21.9347 155.279 21.6873 155.653 21.51C156.035 21.3327 156.437 21.244 156.857 21.244C157.342 21.244 157.753 21.3373 158.089 21.524C158.434 21.7107 158.695 21.9813 158.873 22.336C159.05 22.6907 159.139 23.1293 159.139 23.652V27.25C159.139 27.502 159.185 27.6747 159.279 27.768C159.381 27.852 159.517 27.894 159.685 27.894H159.727V29ZM163.776 25.234C163.776 25.6913 163.804 26.0833 163.86 26.41C163.916 26.7273 164.01 26.984 164.14 27.18C164.28 27.376 164.467 27.5207 164.7 27.614C164.934 27.698 165.218 27.74 165.554 27.74C165.89 27.74 166.175 27.6933 166.408 27.6C166.642 27.5067 166.847 27.376 167.024 27.208C167.202 27.0307 167.36 26.83 167.5 26.606L168.62 27.334C168.415 27.7353 168.154 28.076 167.836 28.356C167.519 28.6267 167.132 28.832 166.674 28.972C166.226 29.1027 165.69 29.168 165.064 29.168C164.112 29.168 163.296 29.0187 162.614 28.72C161.942 28.4213 161.429 27.9827 161.074 27.404C160.729 26.816 160.556 26.0973 160.556 25.248C160.556 24.436 160.729 23.7313 161.074 23.134C161.429 22.5367 161.924 22.0747 162.558 21.748C163.202 21.412 163.949 21.244 164.798 21.244C165.48 21.244 166.068 21.3373 166.562 21.524C167.057 21.7107 167.463 21.9907 167.78 22.364C168.107 22.7373 168.35 23.204 168.508 23.764C168.676 24.3147 168.765 24.9633 168.774 25.71H162.992V24.59H166.086L165.834 25.038C165.825 24.506 165.802 24.0767 165.764 23.75C165.727 23.4233 165.671 23.176 165.596 23.008C165.531 22.8307 165.433 22.7093 165.302 22.644C165.181 22.5787 165.036 22.546 164.868 22.546C164.682 22.546 164.518 22.5833 164.378 22.658C164.248 22.7327 164.136 22.868 164.042 23.064C163.949 23.26 163.879 23.5353 163.832 23.89C163.795 24.2353 163.776 24.6833 163.776 25.234ZM171.864 29.28C171.294 29.28 170.846 29.1353 170.52 28.846C170.193 28.5567 170.03 28.1413 170.03 27.6C170.03 27.068 170.193 26.6573 170.52 26.368C170.846 26.0693 171.294 25.92 171.864 25.92C172.442 25.92 172.89 26.0693 173.208 26.368C173.534 26.6573 173.698 27.068 173.698 27.6C173.698 28.1413 173.534 28.5567 173.208 28.846C172.89 29.1353 172.442 29.28 171.864 29.28Z" fill="#D4AF37"/>
</g>
<defs>
<clipPath id="clip0_6707_4064">
<rect width="299" height="48" rx="8" fill="white"/>
</clipPath>
</defs>
</svg>
