<svg width="168" height="48" viewBox="0 0 168 48" fill="none" xmlns="http://www.w3.org/2000/svg">
<g clip-path="url(#clip0_6707_3689)">
<rect width="168" height="48" rx="8" fill="#D4AF37" fill-opacity="0.25"/>
<path d="M2 40C2 43.3137 4.68629 46 8 46H160C161.226 46 162.366 45.6315 163.316 45H166.243C164.857 46.7282 162.77 47.8696 160.412 47.9893L160 48H8L7.58789 47.9893C3.49764 47.7817 0.218304 44.5024 0.0107422 40.4121L0 40V37H2V40ZM168 40L167.989 40.4121C167.979 40.6102 167.96 40.806 167.936 41H165.915C165.97 40.6747 166 40.3408 166 40V39H168V40ZM2 33H0V21H2V33ZM160.412 0.0107422C164.639 0.22523 168 3.71994 168 8V29H166V8C166 4.68629 163.314 2 160 2H8C4.78979 2 2.16843 4.52111 2.00781 7.69141L2 8V9H0V8C4.99297e-07 3.71994 3.36114 0.225231 7.58789 0.0107422L8 0H160L160.412 0.0107422ZM2 17H0V13H2V17Z" fill="#D4AF37"/>
<path d="M141 24H155M155 24L148 17M155 24L148 31" stroke="#D4AF37" stroke-width="2" stroke-linecap="round" stroke-linejoin="round"/>
<path d="M33.8203 20.306V19.06H39.3223C40.0969 19.06 40.8063 19.1627 41.4503 19.368C42.1036 19.564 42.6683 19.8673 43.1443 20.278C43.6203 20.6793 43.9889 21.1927 44.2503 21.818C44.5116 22.434 44.6423 23.1573 44.6423 23.988C44.6423 24.8093 44.5116 25.5327 44.2503 26.158C43.9889 26.7833 43.6203 27.306 43.1443 27.726C42.6683 28.146 42.1036 28.4633 41.4503 28.678C40.8063 28.8927 40.0969 29 39.3223 29H33.8203V27.74H33.9883C34.1656 27.74 34.3149 27.7073 34.4363 27.642C34.5576 27.5767 34.6183 27.4413 34.6183 27.236V20.81C34.6183 20.614 34.5576 20.4833 34.4363 20.418C34.3149 20.3433 34.1656 20.306 33.9883 20.306H33.8203ZM38.9863 20.376H38.0763V27.67H38.9863C39.3129 27.67 39.6023 27.5953 39.8543 27.446C40.1156 27.2967 40.3303 27.068 40.4983 26.76C40.6756 26.452 40.8109 26.0693 40.9043 25.612C40.9976 25.1453 41.0443 24.604 41.0443 23.988C41.0443 23.372 40.9976 22.84 40.9043 22.392C40.8109 21.9347 40.6756 21.5567 40.4983 21.258C40.3303 20.9593 40.1156 20.74 39.8543 20.6C39.6023 20.4507 39.3129 20.376 38.9863 20.376ZM49.0304 25.234C49.0304 25.6913 49.0584 26.0833 49.1144 26.41C49.1704 26.7273 49.2638 26.984 49.3944 27.18C49.5344 27.376 49.7211 27.5207 49.9544 27.614C50.1878 27.698 50.4724 27.74 50.8084 27.74C51.1444 27.74 51.4291 27.6933 51.6624 27.6C51.8958 27.5067 52.1011 27.376 52.2784 27.208C52.4558 27.0307 52.6144 26.83 52.7544 26.606L53.8744 27.334C53.6691 27.7353 53.4078 28.076 53.0904 28.356C52.7731 28.6267 52.3858 28.832 51.9284 28.972C51.4804 29.1027 50.9438 29.168 50.3184 29.168C49.3664 29.168 48.5498 29.0187 47.8684 28.72C47.1964 28.4213 46.6831 27.9827 46.3284 27.404C45.9831 26.816 45.8104 26.0973 45.8104 25.248C45.8104 24.436 45.9831 23.7313 46.3284 23.134C46.6831 22.5367 47.1778 22.0747 47.8124 21.748C48.4564 21.412 49.2031 21.244 50.0524 21.244C50.7338 21.244 51.3218 21.3373 51.8164 21.524C52.3111 21.7107 52.7171 21.9907 53.0344 22.364C53.3611 22.7373 53.6038 23.204 53.7624 23.764C53.9304 24.3147 54.0191 24.9633 54.0284 25.71H48.2464V24.59H51.3404L51.0884 25.038C51.0791 24.506 51.0558 24.0767 51.0184 23.75C50.9811 23.4233 50.9251 23.176 50.8504 23.008C50.7851 22.8307 50.6871 22.7093 50.5564 22.644C50.4351 22.5787 50.2904 22.546 50.1224 22.546C49.9358 22.546 49.7724 22.5833 49.6324 22.658C49.5018 22.7327 49.3898 22.868 49.2964 23.064C49.2031 23.26 49.1331 23.5353 49.0864 23.89C49.0491 24.2353 49.0304 24.6833 49.0304 25.234ZM59.4222 27.18C59.4222 27.012 59.3755 26.8813 59.2822 26.788C59.1982 26.6853 59.0769 26.6013 58.9182 26.536C58.7595 26.4707 58.5775 26.4193 58.3722 26.382C58.1762 26.3353 57.9662 26.284 57.7422 26.228C57.4249 26.1533 57.1075 26.0647 56.7902 25.962C56.4822 25.8593 56.1975 25.724 55.9362 25.556C55.6749 25.388 55.4649 25.164 55.3062 24.884C55.1569 24.5947 55.0822 24.2353 55.0822 23.806C55.0822 23.1807 55.2409 22.6813 55.5582 22.308C55.8755 21.9253 56.3142 21.65 56.8742 21.482C57.4342 21.3047 58.0782 21.216 58.8062 21.216C59.4129 21.216 59.9309 21.2533 60.3602 21.328C60.7895 21.4027 61.1349 21.4867 61.3962 21.58C61.6575 21.664 61.8302 21.7293 61.9142 21.776V23.456H59.7862V22.168C59.9542 22.1493 60.0802 22.1633 60.1642 22.21C60.2482 22.2473 60.2949 22.2987 60.3042 22.364C60.3229 22.4293 60.3229 22.4993 60.3042 22.574C60.2855 22.6393 60.2622 22.6953 60.2342 22.742C60.1222 22.686 59.9962 22.6393 59.8562 22.602C59.7162 22.5553 59.5622 22.5227 59.3942 22.504C59.2262 22.476 59.0349 22.462 58.8202 22.462C58.4842 22.462 58.2322 22.504 58.0642 22.588C57.9055 22.672 57.8262 22.8213 57.8262 23.036C57.8262 23.1853 57.8682 23.3067 57.9522 23.4C58.0362 23.484 58.1575 23.554 58.3162 23.61C58.4749 23.666 58.6569 23.7173 58.8622 23.764C59.0769 23.8107 59.3102 23.8667 59.5622 23.932C59.8889 24.016 60.2155 24.114 60.5422 24.226C60.8782 24.3287 61.1862 24.4687 61.4662 24.646C61.7462 24.8233 61.9702 25.052 62.1382 25.332C62.3062 25.612 62.3902 25.9573 62.3902 26.368C62.3902 27.0307 62.2409 27.5673 61.9422 27.978C61.6529 28.3887 61.2002 28.692 60.5842 28.888C59.9775 29.0747 59.2122 29.168 58.2882 29.168C57.7282 29.168 57.2195 29.1307 56.7622 29.056C56.3142 28.9813 55.9409 28.8927 55.6422 28.79C55.3435 28.6873 55.1289 28.6033 54.9982 28.538V26.676H57.1682V28.37C56.9722 28.314 56.8182 28.2347 56.7062 28.132C56.5942 28.0293 56.5195 27.9313 56.4822 27.838C56.4449 27.7353 56.4449 27.6607 56.4822 27.614C56.5195 27.558 56.5895 27.558 56.6922 27.614C56.8042 27.6607 56.9395 27.712 57.0982 27.768C57.2569 27.8147 57.4389 27.852 57.6442 27.88C57.8495 27.908 58.0782 27.922 58.3302 27.922C58.5915 27.922 58.8015 27.8987 58.9602 27.852C59.1189 27.8053 59.2355 27.726 59.3102 27.614C59.3849 27.502 59.4222 27.3573 59.4222 27.18ZM68.3356 27.726C68.6063 27.726 68.849 27.6653 69.0636 27.544C69.2783 27.4133 69.465 27.2453 69.6236 27.04C69.7916 26.8347 69.9363 26.62 70.0576 26.396L71.1216 27.04C70.935 27.4693 70.6876 27.8427 70.3796 28.16C70.081 28.4773 69.7123 28.7247 69.2736 28.902C68.835 29.07 68.3216 29.154 67.7336 29.154C66.8656 29.154 66.1003 29.0093 65.4376 28.72C64.775 28.4213 64.2523 27.978 63.8696 27.39C63.4963 26.802 63.3096 26.0693 63.3096 25.192C63.3096 24.3333 63.487 23.6147 63.8416 23.036C64.2056 22.448 64.719 22.0047 65.3816 21.706C66.0536 21.4073 66.861 21.258 67.8036 21.258C68.3543 21.258 68.835 21.2953 69.2456 21.37C69.6656 21.4353 70.011 21.5147 70.2816 21.608C70.5616 21.7013 70.7623 21.7853 70.8836 21.86V24.31H68.5176V22.07C68.6576 22.0607 68.7603 22.098 68.8256 22.182C68.891 22.266 68.933 22.364 68.9516 22.476C68.9703 22.588 68.9656 22.6953 68.9376 22.798C68.919 22.8913 68.891 22.9473 68.8536 22.966C68.7323 22.8633 68.6063 22.784 68.4756 22.728C68.3543 22.6627 68.191 22.63 67.9856 22.63C67.6683 22.63 67.4116 22.7187 67.2156 22.896C67.0196 23.0733 66.875 23.3533 66.7816 23.736C66.6976 24.1093 66.6556 24.5947 66.6556 25.192C66.6556 25.6493 66.6883 26.0413 66.7536 26.368C66.819 26.6853 66.917 26.9467 67.0476 27.152C67.1876 27.348 67.3603 27.4927 67.5656 27.586C67.7803 27.6793 68.037 27.726 68.3356 27.726ZM78.5966 21.384V24.198C78.5219 24.1887 78.4099 24.1793 78.2606 24.17C78.1113 24.1513 77.9479 24.1373 77.7706 24.128C77.6026 24.1187 77.4393 24.114 77.2806 24.114C77.1126 24.114 76.9446 24.1233 76.7766 24.142C76.6179 24.1513 76.4686 24.1747 76.3286 24.212C76.1886 24.24 76.0579 24.282 75.9366 24.338C75.8246 24.394 75.7219 24.4687 75.6286 24.562L75.5586 24.1C75.7826 23.512 75.9926 23.008 76.1886 22.588C76.3846 22.168 76.6226 21.846 76.9026 21.622C77.1826 21.398 77.5466 21.286 77.9946 21.286C78.1439 21.286 78.2699 21.3 78.3726 21.328C78.4846 21.3467 78.5593 21.3653 78.5966 21.384ZM72.0586 29V27.894H72.0866C72.2639 27.894 72.3993 27.852 72.4926 27.768C72.5953 27.6747 72.6466 27.502 72.6466 27.25V23.036C72.6466 22.9613 72.6279 22.9053 72.5906 22.868C72.5626 22.8213 72.5113 22.784 72.4366 22.756C72.3713 22.728 72.2826 22.7 72.1706 22.672L72.0586 22.644V21.398H75.6006L75.8106 23.792L75.9086 23.764V27.782C75.9086 27.81 75.9459 27.8333 76.0206 27.852C76.1046 27.8707 76.2119 27.8847 76.3426 27.894C76.4733 27.894 76.6133 27.894 76.7626 27.894H76.8186V29H72.0586ZM81.7337 20.796C81.1924 20.796 80.7677 20.6793 80.4597 20.446C80.1611 20.2033 80.0117 19.8533 80.0117 19.396C80.0117 18.9387 80.1611 18.5933 80.4597 18.36C80.7677 18.1173 81.1924 17.996 81.7337 17.996C82.2844 17.996 82.7091 18.1173 83.0077 18.36C83.3064 18.5933 83.4557 18.9387 83.4557 19.396C83.4557 19.8533 83.3064 20.2033 83.0077 20.446C82.7091 20.6793 82.2844 20.796 81.7337 20.796ZM83.4277 21.398V27.25C83.4277 27.502 83.4791 27.6747 83.5817 27.768C83.6844 27.852 83.8197 27.894 83.9877 27.894H84.0157V29H79.5777V27.894H79.6057C79.7831 27.894 79.9184 27.852 80.0117 27.768C80.1144 27.6747 80.1657 27.502 80.1657 27.25V23.036C80.1657 22.924 80.1284 22.8447 80.0537 22.798C79.9791 22.7513 79.8577 22.7093 79.6897 22.672L79.5777 22.644V21.398H83.4277ZM89.601 32.122H84.841V31.016H84.869C84.9904 31.016 85.0884 30.9973 85.163 30.96C85.247 30.9227 85.3124 30.8573 85.359 30.764C85.4057 30.6707 85.429 30.54 85.429 30.372V23.036C85.429 22.9613 85.4104 22.9053 85.373 22.868C85.345 22.8213 85.2937 22.784 85.219 22.756C85.1537 22.728 85.065 22.7 84.953 22.672L84.841 22.644V21.398H88.383L88.593 23.582L88.691 23.568V30.904C88.691 30.932 88.7284 30.9507 88.803 30.96C88.887 30.9787 88.9944 30.9927 89.125 31.002C89.2557 31.0113 89.3957 31.016 89.545 31.016H89.601V32.122ZM90.819 29.154C90.399 29.154 90.021 29.084 89.685 28.944C89.3584 28.7947 89.069 28.5847 88.817 28.314C88.565 28.034 88.355 27.698 88.187 27.306V25.99C88.3737 26.2887 88.5417 26.55 88.691 26.774C88.8404 26.998 88.9944 27.1707 89.153 27.292C89.3117 27.4133 89.5077 27.474 89.741 27.474C89.9464 27.474 90.119 27.4273 90.259 27.334C90.4084 27.2313 90.525 27.082 90.609 26.886C90.7024 26.6807 90.7677 26.4333 90.805 26.144C90.8424 25.8453 90.861 25.5 90.861 25.108C90.861 24.7253 90.847 24.3987 90.819 24.128C90.791 23.848 90.7397 23.6193 90.665 23.442C90.5904 23.2647 90.4877 23.134 90.357 23.05C90.2357 22.966 90.077 22.924 89.881 22.924C89.6664 22.924 89.475 22.9847 89.307 23.106C89.139 23.2273 88.9664 23.4187 88.789 23.68C88.621 23.932 88.4204 24.2587 88.187 24.66V23.484C88.4017 23.008 88.635 22.6067 88.887 22.28C89.139 21.944 89.433 21.692 89.769 21.524C90.105 21.3467 90.5017 21.258 90.959 21.258C91.659 21.258 92.2517 21.4213 92.737 21.748C93.2224 22.0653 93.5864 22.5133 93.829 23.092C94.081 23.6707 94.207 24.3427 94.207 25.108C94.207 25.8827 94.067 26.578 93.787 27.194C93.5164 27.8007 93.129 28.2813 92.625 28.636C92.121 28.9813 91.519 29.154 90.819 29.154ZM94.9109 22.714V21.468H94.9949C95.1909 21.468 95.3589 21.454 95.4989 21.426C95.6482 21.3887 95.7649 21.3187 95.8489 21.216C95.9329 21.1133 95.9749 20.9547 95.9749 20.74L97.7949 21.398H101.127V22.714H94.9109ZM99.1529 26.522C99.1529 26.8113 99.1902 27.0353 99.2649 27.194C99.3489 27.3433 99.4609 27.446 99.6009 27.502C99.7502 27.558 99.9322 27.586 100.147 27.586C100.352 27.586 100.539 27.572 100.707 27.544C100.884 27.5067 101.001 27.488 101.057 27.488V28.902C100.954 28.93 100.805 28.9627 100.609 29C100.413 29.0467 100.184 29.084 99.9229 29.112C99.6616 29.14 99.3769 29.154 99.0689 29.154C98.4342 29.154 97.8789 29.084 97.4029 28.944C96.9269 28.7947 96.5536 28.5427 96.2829 28.188C96.0122 27.824 95.8769 27.3293 95.8769 26.704V21.692L95.9749 21.566V19.27H99.1529V26.522ZM104.113 20.796C103.572 20.796 103.147 20.6793 102.839 20.446C102.541 20.2033 102.391 19.8533 102.391 19.396C102.391 18.9387 102.541 18.5933 102.839 18.36C103.147 18.1173 103.572 17.996 104.113 17.996C104.664 17.996 105.089 18.1173 105.387 18.36C105.686 18.5933 105.835 18.9387 105.835 19.396C105.835 19.8533 105.686 20.2033 105.387 20.446C105.089 20.6793 104.664 20.796 104.113 20.796ZM105.807 21.398V27.25C105.807 27.502 105.859 27.6747 105.961 27.768C106.064 27.852 106.199 27.894 106.367 27.894H106.395V29H101.957V27.894H101.985C102.163 27.894 102.298 27.852 102.391 27.768C102.494 27.6747 102.545 27.502 102.545 27.25V23.036C102.545 22.924 102.508 22.8447 102.433 22.798C102.359 22.7513 102.237 22.7093 102.069 22.672L101.957 22.644V21.398H105.807ZM116.097 25.22C116.097 26.0227 115.924 26.7227 115.579 27.32C115.243 27.908 114.743 28.3653 114.081 28.692C113.427 29.0093 112.625 29.168 111.673 29.168C110.73 29.168 109.927 29.0093 109.265 28.692C108.611 28.3653 108.112 27.908 107.767 27.32C107.421 26.7227 107.249 26.0227 107.249 25.22C107.249 24.604 107.347 24.0533 107.543 23.568C107.739 23.0733 108.023 22.6533 108.397 22.308C108.779 21.9627 109.241 21.7013 109.783 21.524C110.333 21.3373 110.963 21.244 111.673 21.244C112.382 21.244 113.012 21.3373 113.563 21.524C114.113 21.7013 114.575 21.9673 114.949 22.322C115.331 22.6673 115.616 23.0827 115.803 23.568C115.999 24.0533 116.097 24.604 116.097 25.22ZM110.595 25.206C110.595 25.8407 110.627 26.3493 110.693 26.732C110.758 27.1147 110.865 27.3947 111.015 27.572C111.173 27.74 111.393 27.824 111.673 27.824C111.953 27.824 112.172 27.74 112.331 27.572C112.489 27.3947 112.601 27.1147 112.667 26.732C112.732 26.3493 112.765 25.8407 112.765 25.206C112.765 24.5713 112.732 24.0673 112.667 23.694C112.601 23.3113 112.489 23.0407 112.331 22.882C112.172 22.714 111.953 22.63 111.673 22.63C111.402 22.63 111.187 22.714 111.029 22.882C110.87 23.0407 110.758 23.3113 110.693 23.694C110.627 24.0673 110.595 24.5713 110.595 25.206ZM117.064 29V27.894H117.092C117.213 27.894 117.311 27.8753 117.386 27.838C117.47 27.8007 117.535 27.7353 117.582 27.642C117.629 27.5487 117.652 27.418 117.652 27.25V23.036C117.652 22.9613 117.633 22.9053 117.596 22.868C117.568 22.8213 117.517 22.784 117.442 22.756C117.377 22.728 117.288 22.7 117.176 22.672L117.064 22.644V21.398H120.62L120.802 23.19L120.914 23.204V27.796C120.914 27.8147 120.937 27.8333 120.984 27.852C121.04 27.8707 121.101 27.8847 121.166 27.894C121.231 27.894 121.292 27.894 121.348 27.894H121.404V29H117.064ZM126.556 29H122.23V27.894H122.258C122.323 27.894 122.389 27.894 122.454 27.894C122.529 27.8847 122.589 27.8707 122.636 27.852C122.683 27.8333 122.706 27.81 122.706 27.782V23.708C122.706 23.5587 122.687 23.4373 122.65 23.344C122.613 23.2413 122.552 23.162 122.468 23.106C122.393 23.05 122.286 23.022 122.146 23.022C121.969 23.022 121.791 23.0873 121.614 23.218C121.437 23.3487 121.259 23.5353 121.082 23.778C120.905 24.0207 120.718 24.3333 120.522 24.716L120.564 23.372C120.741 22.9613 120.979 22.5973 121.278 22.28C121.586 21.9627 121.941 21.7107 122.342 21.524C122.743 21.3373 123.163 21.244 123.602 21.244C124.106 21.244 124.535 21.3373 124.89 21.524C125.245 21.7107 125.515 21.9813 125.702 22.336C125.889 22.6907 125.982 23.1293 125.982 23.652V27.25C125.982 27.418 126.001 27.5487 126.038 27.642C126.085 27.7353 126.145 27.8007 126.22 27.838C126.304 27.8753 126.402 27.894 126.514 27.894H126.556V29ZM129.78 29.28C129.211 29.28 128.763 29.1353 128.436 28.846C128.11 28.5567 127.946 28.1413 127.946 27.6C127.946 27.068 128.11 26.6573 128.436 26.368C128.763 26.0693 129.211 25.92 129.78 25.92C130.359 25.92 130.807 26.0693 131.124 26.368C131.451 26.6573 131.614 27.068 131.614 27.6C131.614 28.1413 131.451 28.5567 131.124 28.846C130.807 29.1353 130.359 29.28 129.78 29.28Z" fill="#D4AF37"/>
</g>
<defs>
<clipPath id="clip0_6707_3689">
<rect width="168" height="48" rx="8" fill="white"/>
</clipPath>
</defs>
</svg>
