<svg width="221" height="40" viewBox="0 0 221 40" fill="none" xmlns="http://www.w3.org/2000/svg">
<g clip-path="url(#clip0_6078_1549)">
<path d="M58.711 22.632V16.464H58.339C58.011 16.464 57.751 16.484 57.559 16.524C57.367 16.564 57.227 16.628 57.139 16.716C57.051 16.804 56.999 16.92 56.983 17.064L56.851 18.636H55.759V15.48H63.859V18.636H62.767L62.635 17.064C62.627 16.92 62.579 16.804 62.491 16.716C62.403 16.628 62.259 16.564 62.059 16.524C61.867 16.484 61.607 16.464 61.279 16.464H60.907V22.632C60.907 22.808 60.983 22.924 61.135 22.98C61.287 23.036 61.471 23.064 61.687 23.064H61.903V24H57.715V23.064H57.931C58.147 23.064 58.331 23.036 58.483 22.98C58.635 22.924 58.711 22.808 58.711 22.632ZM65.9145 20.448H69.2025L69.3105 21.336H65.8185L65.9145 20.448ZM67.4145 16.14L67.6785 16.344L65.6745 22.812C65.6745 22.852 65.7065 22.896 65.7705 22.944C65.8345 22.984 65.9265 23.016 66.0465 23.04C66.1665 23.056 66.3145 23.064 66.4905 23.064H66.6105V24H63.8865V23.064H63.9465C64.1385 23.064 64.2985 23.02 64.4265 22.932C64.5625 22.836 64.6705 22.652 64.7505 22.38L66.9465 15.408H69.3705L71.6025 22.44C71.6825 22.688 71.7865 22.856 71.9145 22.944C72.0505 23.024 72.2145 23.064 72.4065 23.064H72.4665V24H68.5545V23.064H68.6985C68.8665 23.064 69.0105 23.06 69.1305 23.052C69.2505 23.036 69.3425 23.02 69.4065 23.004C69.4705 22.98 69.5025 22.956 69.5025 22.932L67.4145 16.14ZM73.1971 24V23.064H73.3291C73.5451 23.064 73.7211 23.036 73.8571 22.98C74.0011 22.924 74.0731 22.808 74.0731 22.632V16.848C74.0731 16.672 74.0011 16.556 73.8571 16.5C73.7211 16.444 73.5451 16.416 73.3291 16.416H73.1971V15.48H77.1931V16.416H77.0611C76.9651 16.416 76.8691 16.42 76.7731 16.428C76.6771 16.428 76.5891 16.436 76.5091 16.452C76.4371 16.46 76.3771 16.472 76.3291 16.488C76.2891 16.496 76.2691 16.512 76.2691 16.536V22.944C76.2691 22.968 76.2891 22.988 76.3291 23.004C76.3691 23.012 76.4211 23.024 76.4851 23.04C76.5571 23.048 76.6331 23.056 76.7131 23.064C76.7931 23.064 76.8691 23.064 76.9411 23.064H77.0371V24H73.1971ZM78.1771 24V23.064H78.2731C78.3931 23.064 78.5091 23.06 78.6211 23.052C78.7331 23.044 78.8251 23.032 78.8971 23.016C78.9691 22.992 79.0051 22.968 79.0051 22.944L76.6531 19.872V19.572L79.6531 16.536C79.6531 16.504 79.6051 16.48 79.5091 16.464C79.4131 16.448 79.2931 16.436 79.1491 16.428C79.0051 16.42 78.8651 16.416 78.7291 16.416H78.5731V15.48H81.9331V16.416H81.6571C81.5211 16.416 81.4011 16.428 81.2971 16.452C81.1931 16.468 81.0931 16.504 80.9971 16.56C80.9091 16.608 80.8171 16.684 80.7211 16.788L77.7571 19.764L78.3211 18.6L81.5011 22.764C81.5651 22.844 81.6291 22.908 81.6931 22.956C81.7651 22.996 81.8411 23.024 81.9211 23.04C82.0011 23.056 82.0931 23.064 82.1971 23.064H82.3411V24H78.1771ZM90.3711 21.288V24H83.1111V23.064H83.2431C83.4511 23.064 83.6271 23.036 83.7711 22.98C83.9151 22.924 83.9871 22.808 83.9871 22.632V16.848C83.9871 16.672 83.9151 16.556 83.7711 16.5C83.6271 16.444 83.4511 16.416 83.2431 16.416H83.1111V15.48H90.1311V17.892H89.0631L88.9431 16.98C88.9271 16.836 88.8711 16.728 88.7751 16.656C88.6791 16.576 88.5391 16.524 88.3551 16.5C88.1791 16.468 87.9591 16.452 87.6951 16.452H86.1831V23.028H87.7311C87.9711 23.028 88.1751 23.024 88.3431 23.016C88.5111 23 88.6511 22.972 88.7631 22.932C88.8751 22.884 88.9591 22.828 89.0151 22.764C89.0711 22.692 89.1071 22.604 89.1231 22.5L89.2911 21.288H90.3711ZM85.9431 19.2C86.2871 19.168 86.6311 19.144 86.9751 19.128C87.3191 19.104 87.6591 19.08 87.9951 19.056C88.3391 19.024 88.6831 19 89.0271 18.984V20.268C88.6831 20.236 88.3391 20.212 87.9951 20.196C87.6591 20.172 87.3191 20.148 86.9751 20.124C86.6311 20.1 86.2871 20.076 85.9431 20.052V19.2ZM97.5704 22.632V16.464H97.1984C96.8704 16.464 96.6104 16.484 96.4184 16.524C96.2264 16.564 96.0864 16.628 95.9984 16.716C95.9104 16.804 95.8584 16.92 95.8424 17.064L95.7104 18.636H94.6184V15.48H102.718V18.636H101.626L101.494 17.064C101.486 16.92 101.438 16.804 101.35 16.716C101.262 16.628 101.118 16.564 100.918 16.524C100.726 16.484 100.466 16.464 100.138 16.464H99.7664V22.632C99.7664 22.808 99.8424 22.924 99.9944 22.98C100.146 23.036 100.33 23.064 100.546 23.064H100.762V24H96.5744V23.064H96.7904C97.0064 23.064 97.1904 23.036 97.3424 22.98C97.4944 22.924 97.5704 22.808 97.5704 22.632ZM106.69 20.808C106.69 21.232 106.73 21.592 106.81 21.888C106.89 22.176 107.006 22.408 107.158 22.584C107.318 22.76 107.51 22.888 107.734 22.968C107.958 23.048 108.218 23.088 108.514 23.088C108.786 23.088 109.034 23.048 109.258 22.968C109.482 22.88 109.674 22.748 109.834 22.572C109.994 22.388 110.118 22.152 110.206 21.864C110.294 21.568 110.338 21.216 110.338 20.808V16.644C110.338 16.604 110.314 16.572 110.266 16.548C110.218 16.516 110.154 16.492 110.074 16.476C110.002 16.46 109.918 16.448 109.822 16.44C109.734 16.424 109.642 16.416 109.546 16.416H109.414V15.48H112.222V16.416H112.102C111.958 16.416 111.83 16.432 111.718 16.464C111.606 16.488 111.518 16.536 111.454 16.608C111.39 16.672 111.358 16.768 111.358 16.896V20.796C111.358 21.412 111.274 21.94 111.106 22.38C110.938 22.812 110.702 23.168 110.398 23.448C110.094 23.72 109.738 23.92 109.33 24.048C108.93 24.176 108.498 24.24 108.034 24.24C107.506 24.24 107.022 24.172 106.582 24.036C106.15 23.908 105.778 23.708 105.466 23.436C105.154 23.156 104.914 22.8 104.746 22.368C104.578 21.928 104.494 21.408 104.494 20.808V16.848C104.494 16.672 104.422 16.556 104.278 16.5C104.142 16.444 103.966 16.416 103.75 16.416H103.618V15.48H107.578V16.416H107.446C107.366 16.416 107.282 16.42 107.194 16.428C107.106 16.428 107.022 16.436 106.942 16.452C106.87 16.46 106.81 16.472 106.762 16.488C106.714 16.496 106.69 16.512 106.69 16.536V20.808ZM116.074 22.632V16.464H115.702C115.374 16.464 115.114 16.484 114.922 16.524C114.73 16.564 114.59 16.628 114.502 16.716C114.414 16.804 114.362 16.92 114.346 17.064L114.214 18.636H113.122V15.48H121.222V18.636H120.13L119.998 17.064C119.99 16.92 119.942 16.804 119.854 16.716C119.766 16.628 119.622 16.564 119.422 16.524C119.23 16.484 118.97 16.464 118.642 16.464H118.27V22.632C118.27 22.808 118.346 22.924 118.498 22.98C118.65 23.036 118.834 23.064 119.05 23.064H119.266V24H115.078V23.064H115.294C115.51 23.064 115.694 23.036 115.846 22.98C115.998 22.924 116.074 22.808 116.074 22.632ZM126.517 24.24C125.853 24.24 125.249 24.144 124.705 23.952C124.169 23.752 123.705 23.46 123.313 23.076C122.921 22.692 122.617 22.22 122.401 21.66C122.193 21.1 122.089 20.46 122.089 19.74C122.089 19.012 122.193 18.372 122.401 17.82C122.617 17.26 122.921 16.788 123.313 16.404C123.705 16.02 124.169 15.732 124.705 15.54C125.249 15.34 125.853 15.24 126.517 15.24C127.173 15.24 127.769 15.34 128.305 15.54C128.849 15.732 129.317 16.02 129.709 16.404C130.101 16.788 130.401 17.26 130.609 17.82C130.825 18.372 130.933 19.012 130.933 19.74C130.933 20.46 130.825 21.1 130.609 21.66C130.401 22.22 130.101 22.692 129.709 23.076C129.317 23.46 128.849 23.752 128.305 23.952C127.769 24.144 127.173 24.24 126.517 24.24ZM126.517 23.196C126.861 23.196 127.165 23.132 127.429 23.004C127.693 22.868 127.913 22.66 128.089 22.38C128.265 22.1 128.397 21.744 128.485 21.312C128.581 20.872 128.629 20.348 128.629 19.74C128.629 19.132 128.581 18.612 128.485 18.18C128.397 17.74 128.265 17.38 128.089 17.1C127.913 16.82 127.693 16.616 127.429 16.488C127.165 16.352 126.861 16.284 126.517 16.284C126.173 16.284 125.865 16.352 125.593 16.488C125.329 16.616 125.109 16.82 124.933 17.1C124.757 17.38 124.621 17.74 124.525 18.18C124.437 18.612 124.393 19.132 124.393 19.74C124.393 20.348 124.437 20.872 124.525 21.312C124.621 21.744 124.757 22.1 124.933 22.38C125.109 22.66 125.329 22.868 125.593 23.004C125.865 23.132 126.173 23.196 126.517 23.196ZM136.071 20.16L138.051 19.668L139.551 22.464C139.639 22.624 139.727 22.748 139.815 22.836C139.911 22.924 140.011 22.984 140.115 23.016C140.227 23.048 140.347 23.064 140.475 23.064H140.583V24H137.907L136.071 20.16ZM135.039 22.944C135.039 22.968 135.059 22.988 135.099 23.004C135.139 23.012 135.195 23.024 135.267 23.04C135.339 23.048 135.419 23.056 135.507 23.064C135.603 23.064 135.703 23.064 135.807 23.064H135.975V24H131.967V23.064H132.099C132.307 23.064 132.483 23.036 132.627 22.98C132.771 22.924 132.843 22.808 132.843 22.632V16.848C132.843 16.672 132.771 16.556 132.627 16.5C132.483 16.444 132.307 16.416 132.099 16.416H131.967V15.48H136.659C137.339 15.48 137.911 15.568 138.375 15.744C138.847 15.92 139.203 16.184 139.443 16.536C139.691 16.88 139.815 17.308 139.815 17.82C139.815 18.26 139.711 18.652 139.503 18.996C139.303 19.332 139.007 19.604 138.615 19.812C138.223 20.02 137.743 20.164 137.175 20.244C137.127 20.292 137.079 20.332 137.031 20.364C136.991 20.396 136.955 20.428 136.923 20.46C136.891 20.484 136.847 20.508 136.791 20.532H134.739V19.608H136.227C136.531 19.608 136.779 19.54 136.971 19.404C137.171 19.268 137.315 19.076 137.403 18.828C137.499 18.572 137.547 18.268 137.547 17.916C137.547 17.596 137.503 17.324 137.415 17.1C137.327 16.876 137.191 16.708 137.007 16.596C136.823 16.476 136.587 16.416 136.299 16.416H135.039V22.944ZM142.36 22.632V16.848C142.36 16.672 142.288 16.556 142.144 16.5C142.008 16.444 141.832 16.416 141.616 16.416H141.412V15.48H145.504V16.416H145.3C145.084 16.416 144.904 16.444 144.76 16.5C144.624 16.556 144.556 16.672 144.556 16.848V22.632C144.556 22.808 144.624 22.924 144.76 22.98C144.904 23.036 145.084 23.064 145.3 23.064H145.504V24H141.412V23.064H141.616C141.832 23.064 142.008 23.036 142.144 22.98C142.288 22.924 142.36 22.808 142.36 22.632ZM148.262 20.448H151.55L151.658 21.336H148.166L148.262 20.448ZM149.762 16.14L150.026 16.344L148.022 22.812C148.022 22.852 148.054 22.896 148.118 22.944C148.182 22.984 148.274 23.016 148.394 23.04C148.514 23.056 148.662 23.064 148.838 23.064H148.958V24H146.234V23.064H146.294C146.486 23.064 146.646 23.02 146.774 22.932C146.91 22.836 147.018 22.652 147.098 22.38L149.294 15.408H151.718L153.95 22.44C154.03 22.688 154.134 22.856 154.262 22.944C154.398 23.024 154.562 23.064 154.754 23.064H154.814V24H150.902V23.064H151.046C151.214 23.064 151.358 23.06 151.478 23.052C151.598 23.036 151.69 23.02 151.754 23.004C151.818 22.98 151.85 22.956 151.85 22.932L149.762 16.14ZM159.649 15.48V16.416H159.445C159.197 16.416 158.997 16.444 158.845 16.5C158.693 16.556 158.617 16.672 158.617 16.848V23.028H160.045C160.365 23.028 160.625 23.016 160.825 22.992C161.033 22.96 161.185 22.908 161.281 22.836C161.377 22.756 161.433 22.644 161.449 22.5L161.617 20.952H162.709V24H155.545V23.064H155.677C155.893 23.064 156.069 23.036 156.205 22.98C156.349 22.924 156.421 22.808 156.421 22.632V16.848C156.421 16.672 156.349 16.556 156.205 16.5C156.069 16.444 155.893 16.416 155.677 16.416H155.545V15.48H159.649ZM165.487 24.204C165.087 24.204 164.763 24.096 164.515 23.88C164.275 23.664 164.155 23.36 164.155 22.968C164.155 22.576 164.275 22.272 164.515 22.056C164.763 21.84 165.087 21.732 165.487 21.732C165.903 21.732 166.231 21.84 166.471 22.056C166.711 22.272 166.831 22.576 166.831 22.968C166.831 23.36 166.711 23.664 166.471 23.88C166.231 24.096 165.903 24.204 165.487 24.204Z" fill="#D4AF37"/>
<path d="M8 2H4C2.89543 2 2 2.89543 2 4V36C2 37.1046 2.89543 38 4 38H217C218.105 38 219 37.1046 219 36V4C219 2.89543 218.105 2 217 2H30V0H217L217.206 0.00488281C219.319 0.112115 221 1.85996 221 4V36L220.995 36.2061C220.891 38.2512 219.251 39.8913 217.206 39.9951L217 40H4L3.79395 39.9951C1.7488 39.8913 0.108652 38.2512 0.00488281 36.2061L0 36V4C4.9929e-07 1.85996 1.68056 0.112115 3.79395 0.00488281L4 0H8V2ZM22 2H15V0H22V2ZM28 2H24V0H28V2Z" fill="#D4AF37"/>
</g>
<defs>
<clipPath id="clip0_6078_1549">
<rect width="221" height="40" rx="4" fill="white"/>
</clipPath>
</defs>
</svg>
