<svg width="221" height="40" viewBox="0 0 221 40" fill="none" xmlns="http://www.w3.org/2000/svg">
<g clip-path="url(#clip0_6078_1542)">
<path d="M60.6916 23.268C61.0436 23.268 61.3276 23.232 61.5436 23.16C61.7596 23.08 61.9196 22.956 62.0236 22.788C62.1276 22.62 62.1796 22.396 62.1796 22.116C62.1796 21.876 62.1236 21.676 62.0116 21.516C61.8996 21.356 61.7396 21.224 61.5316 21.12C61.3316 21.008 61.0876 20.912 60.7996 20.832C60.5116 20.744 60.1916 20.66 59.8396 20.58C59.4796 20.484 59.1396 20.376 58.8196 20.256C58.4996 20.136 58.2156 19.976 57.9676 19.776C57.7196 19.576 57.5236 19.32 57.3796 19.008C57.2436 18.688 57.1756 18.292 57.1756 17.82C57.1756 17.244 57.2956 16.768 57.5356 16.392C57.7756 16.008 58.1196 15.72 58.5676 15.528C59.0156 15.336 59.5476 15.24 60.1636 15.24C60.6996 15.24 61.1436 15.32 61.4956 15.48C61.8476 15.632 62.1276 15.876 62.3356 16.212C62.5436 16.54 62.6956 16.968 62.7916 17.496L62.3956 16.98L62.6116 15.396H63.5476V17.892H62.4676C62.3716 17.532 62.2236 17.228 62.0236 16.98C61.8316 16.724 61.5916 16.532 61.3036 16.404C61.0236 16.268 60.6996 16.2 60.3316 16.2C60.0116 16.2 59.7516 16.24 59.5516 16.32C59.3596 16.4 59.2196 16.52 59.1316 16.68C59.0436 16.832 58.9996 17.024 58.9996 17.256C58.9996 17.488 59.0476 17.68 59.1436 17.832C59.2476 17.976 59.3916 18.096 59.5756 18.192C59.7676 18.28 59.9956 18.36 60.2596 18.432C60.5316 18.496 60.8316 18.568 61.1596 18.648C61.5436 18.736 61.9076 18.84 62.2516 18.96C62.5956 19.072 62.9036 19.228 63.1756 19.428C63.4476 19.628 63.6596 19.884 63.8116 20.196C63.9716 20.508 64.0516 20.904 64.0516 21.384C64.0516 22.016 63.9276 22.544 63.6796 22.968C63.4316 23.392 63.0676 23.712 62.5876 23.928C62.1156 24.136 61.5396 24.24 60.8596 24.24C60.2916 24.24 59.7916 24.164 59.3596 24.012C58.9356 23.86 58.5876 23.6 58.3156 23.232C58.0516 22.856 57.8676 22.344 57.7636 21.696L58.1596 22.188L57.9436 24.036H56.9716V21.216H58.1356C58.2716 21.696 58.4596 22.088 58.6996 22.392C58.9476 22.696 59.2396 22.92 59.5756 23.064C59.9196 23.2 60.2916 23.268 60.6916 23.268ZM67.7149 22.632V16.464H67.3429C67.0149 16.464 66.7549 16.484 66.5629 16.524C66.3709 16.564 66.2309 16.628 66.1429 16.716C66.0549 16.804 66.0029 16.92 65.9869 17.064L65.8549 18.636H64.7629V15.48H72.8629V18.636H71.7709L71.6389 17.064C71.6309 16.92 71.5829 16.804 71.4949 16.716C71.4069 16.628 71.2629 16.564 71.0629 16.524C70.8709 16.484 70.6109 16.464 70.2829 16.464H69.9109V22.632C69.9109 22.808 69.9869 22.924 70.1389 22.98C70.2909 23.036 70.4749 23.064 70.6909 23.064H70.9069V24H66.7189V23.064H66.9349C67.1509 23.064 67.3349 23.036 67.4869 22.98C67.6389 22.924 67.7149 22.808 67.7149 22.632ZM74.9184 20.448H78.2064L78.3144 21.336H74.8224L74.9184 20.448ZM76.4184 16.14L76.6824 16.344L74.6784 22.812C74.6784 22.852 74.7104 22.896 74.7744 22.944C74.8384 22.984 74.9304 23.016 75.0504 23.04C75.1704 23.056 75.3184 23.064 75.4944 23.064H75.6144V24H72.8904V23.064H72.9504C73.1424 23.064 73.3024 23.02 73.4304 22.932C73.5664 22.836 73.6744 22.652 73.7544 22.38L75.9504 15.408H78.3744L80.6064 22.44C80.6864 22.688 80.7904 22.856 80.9184 22.944C81.0544 23.024 81.2184 23.064 81.4104 23.064H81.4704V24H77.5584V23.064H77.7024C77.8704 23.064 78.0144 23.06 78.1344 23.052C78.2544 23.036 78.3464 23.02 78.4104 23.004C78.4744 22.98 78.5064 22.956 78.5064 22.932L76.4184 16.14ZM86.305 20.16L88.285 19.668L89.785 22.464C89.873 22.624 89.961 22.748 90.049 22.836C90.145 22.924 90.245 22.984 90.349 23.016C90.461 23.048 90.581 23.064 90.709 23.064H90.817V24H88.141L86.305 20.16ZM85.273 22.944C85.273 22.968 85.293 22.988 85.333 23.004C85.373 23.012 85.429 23.024 85.501 23.04C85.573 23.048 85.653 23.056 85.741 23.064C85.837 23.064 85.937 23.064 86.041 23.064H86.209V24H82.201V23.064H82.333C82.541 23.064 82.717 23.036 82.861 22.98C83.005 22.924 83.077 22.808 83.077 22.632V16.848C83.077 16.672 83.005 16.556 82.861 16.5C82.717 16.444 82.541 16.416 82.333 16.416H82.201V15.48H86.893C87.573 15.48 88.145 15.568 88.609 15.744C89.081 15.92 89.437 16.184 89.677 16.536C89.925 16.88 90.049 17.308 90.049 17.82C90.049 18.26 89.945 18.652 89.737 18.996C89.537 19.332 89.241 19.604 88.849 19.812C88.457 20.02 87.977 20.164 87.409 20.244C87.361 20.292 87.313 20.332 87.265 20.364C87.225 20.396 87.189 20.428 87.157 20.46C87.125 20.484 87.081 20.508 87.025 20.532H84.973V19.608H86.461C86.765 19.608 87.013 19.54 87.205 19.404C87.405 19.268 87.549 19.076 87.637 18.828C87.733 18.572 87.781 18.268 87.781 17.916C87.781 17.596 87.737 17.324 87.649 17.1C87.561 16.876 87.425 16.708 87.241 16.596C87.057 16.476 86.821 16.416 86.533 16.416H85.273V22.944ZM94.1759 22.632V16.464H93.8039C93.4759 16.464 93.2159 16.484 93.0239 16.524C92.8319 16.564 92.6919 16.628 92.6039 16.716C92.5159 16.804 92.4639 16.92 92.4479 17.064L92.3159 18.636H91.2239V15.48H99.3239V18.636H98.2319L98.0999 17.064C98.0919 16.92 98.0439 16.804 97.9559 16.716C97.8679 16.628 97.7239 16.564 97.5239 16.524C97.3319 16.484 97.0719 16.464 96.7439 16.464H96.3719V22.632C96.3719 22.808 96.4479 22.924 96.5999 22.98C96.7519 23.036 96.9359 23.064 97.1519 23.064H97.3679V24H93.1799V23.064H93.3959C93.6119 23.064 93.7959 23.036 93.9479 22.98C94.0999 22.924 94.1759 22.808 94.1759 22.632ZM106.496 22.944C106.496 22.968 106.516 22.988 106.556 23.004C106.604 23.012 106.664 23.024 106.736 23.04C106.808 23.048 106.888 23.056 106.976 23.064C107.072 23.064 107.172 23.064 107.276 23.064H107.552V24H103.424V23.112H103.556C103.772 23.112 103.948 23.084 104.084 23.028C104.228 22.972 104.3 22.856 104.3 22.68V16.8C104.3 16.624 104.228 16.508 104.084 16.452C103.948 16.396 103.772 16.368 103.556 16.368H103.424V15.48H108.056C109.032 15.48 109.796 15.7 110.348 16.14C110.9 16.572 111.176 17.204 111.176 18.036C111.176 18.604 111.044 19.088 110.78 19.488C110.516 19.888 110.148 20.196 109.676 20.412C109.204 20.62 108.652 20.724 108.02 20.724H106.148V19.764H107.612C107.916 19.764 108.172 19.704 108.38 19.584C108.588 19.456 108.744 19.268 108.848 19.02C108.952 18.764 109.004 18.452 109.004 18.084C109.004 17.7 108.952 17.392 108.848 17.16C108.744 16.92 108.592 16.744 108.392 16.632C108.192 16.512 107.944 16.452 107.648 16.452H106.496V22.944ZM116.106 15.48V16.416H115.902C115.654 16.416 115.454 16.444 115.302 16.5C115.15 16.556 115.074 16.672 115.074 16.848V23.028H116.502C116.822 23.028 117.082 23.016 117.282 22.992C117.49 22.96 117.642 22.908 117.738 22.836C117.834 22.756 117.89 22.644 117.906 22.5L118.074 20.952H119.166V24H112.002V23.064H112.134C112.35 23.064 112.526 23.036 112.662 22.98C112.806 22.924 112.878 22.808 112.878 22.632V16.848C112.878 16.672 112.806 16.556 112.662 16.5C112.526 16.444 112.35 16.416 112.134 16.416H112.002V15.48H116.106ZM121.993 20.448H125.281L125.389 21.336H121.897L121.993 20.448ZM123.493 16.14L123.757 16.344L121.753 22.812C121.753 22.852 121.785 22.896 121.849 22.944C121.913 22.984 122.005 23.016 122.125 23.04C122.245 23.056 122.393 23.064 122.569 23.064H122.689V24H119.965V23.064H120.025C120.217 23.064 120.377 23.02 120.505 22.932C120.641 22.836 120.749 22.652 120.829 22.38L123.025 15.408H125.449L127.681 22.44C127.761 22.688 127.865 22.856 127.993 22.944C128.129 23.024 128.293 23.064 128.485 23.064H128.545V24H124.633V23.064H124.777C124.945 23.064 125.089 23.06 125.209 23.052C125.329 23.036 125.421 23.02 125.485 23.004C125.549 22.98 125.581 22.956 125.581 22.932L123.493 16.14ZM131.392 20.364L131.536 20.904L129.232 16.932C129.152 16.804 129.076 16.7 129.004 16.62C128.932 16.54 128.848 16.488 128.752 16.464C128.664 16.432 128.56 16.416 128.44 16.416H128.356V15.48H132.196V16.416H132.04C131.896 16.416 131.768 16.424 131.656 16.44C131.552 16.448 131.468 16.46 131.404 16.476C131.34 16.492 131.308 16.516 131.308 16.548L133.312 20.196L132.748 20.304L134.74 16.668C134.74 16.612 134.704 16.568 134.632 16.536C134.568 16.496 134.48 16.468 134.368 16.452C134.256 16.428 134.128 16.416 133.984 16.416H133.864V15.48H136.528V16.416H136.444C136.332 16.416 136.228 16.436 136.132 16.476C136.044 16.516 135.96 16.58 135.88 16.668C135.8 16.756 135.716 16.88 135.628 17.04L133.408 20.964L133.588 20.364V22.632C133.588 22.808 133.66 22.924 133.804 22.98C133.956 23.036 134.14 23.064 134.356 23.064H134.572V24H130.396V23.064H130.612C130.836 23.064 131.02 23.036 131.164 22.98C131.316 22.924 131.392 22.808 131.392 22.632V20.364ZM138.215 22.632V16.848C138.215 16.672 138.143 16.556 137.999 16.5C137.863 16.444 137.687 16.416 137.471 16.416H137.267V15.48H141.359V16.416H141.155C140.939 16.416 140.759 16.444 140.615 16.5C140.479 16.556 140.411 16.672 140.411 16.848V22.632C140.411 22.808 140.479 22.924 140.615 22.98C140.759 23.036 140.939 23.064 141.155 23.064H141.359V24H137.267V23.064H137.471C137.687 23.064 137.863 23.036 137.999 22.98C138.143 22.924 138.215 22.808 138.215 22.632ZM142.342 24V23.064H142.474C142.618 23.064 142.746 23.052 142.858 23.028C142.97 22.996 143.058 22.948 143.122 22.884C143.186 22.812 143.218 22.72 143.218 22.608V16.848C143.218 16.728 143.186 16.64 143.122 16.584C143.058 16.52 142.97 16.476 142.858 16.452C142.746 16.428 142.618 16.416 142.474 16.416H142.342V15.48H146.05L149.482 22.2L149.242 22.164V16.56C149.242 16.528 149.202 16.504 149.122 16.488C149.042 16.464 148.942 16.448 148.822 16.44C148.71 16.424 148.598 16.416 148.486 16.416H148.33V15.48H151.162V16.416H151.042C150.898 16.416 150.766 16.428 150.646 16.452C150.534 16.476 150.446 16.516 150.382 16.572C150.318 16.62 150.286 16.708 150.286 16.836V24H148.066L143.962 15.996L144.262 16.092V22.932C144.262 22.948 144.302 22.968 144.382 22.992C144.47 23.016 144.57 23.036 144.682 23.052C144.802 23.06 144.918 23.064 145.03 23.064H145.174V24H142.342ZM160.168 21.156V22.824C160.04 22.96 159.86 23.112 159.628 23.28C159.404 23.44 159.132 23.596 158.812 23.748C158.492 23.892 158.136 24.008 157.744 24.096C157.352 24.192 156.932 24.24 156.484 24.24C155.828 24.24 155.232 24.144 154.696 23.952C154.16 23.752 153.7 23.464 153.316 23.088C152.932 22.704 152.636 22.232 152.428 21.672C152.22 21.112 152.116 20.468 152.116 19.74C152.116 19.012 152.224 18.368 152.44 17.808C152.656 17.248 152.956 16.78 153.34 16.404C153.724 16.02 154.176 15.732 154.696 15.54C155.216 15.34 155.78 15.24 156.388 15.24C156.98 15.24 157.472 15.348 157.864 15.564C158.264 15.772 158.58 16.068 158.812 16.452C159.052 16.836 159.224 17.288 159.328 17.808L158.836 17.352L159.028 15.396H160.072V18.204H158.908C158.788 17.82 158.624 17.484 158.416 17.196C158.216 16.908 157.968 16.684 157.672 16.524C157.376 16.356 157.032 16.272 156.64 16.272C156.272 16.272 155.948 16.344 155.668 16.488C155.388 16.624 155.156 16.836 154.972 17.124C154.788 17.404 154.648 17.764 154.552 18.204C154.464 18.636 154.42 19.148 154.42 19.74C154.42 20.364 154.468 20.896 154.564 21.336C154.66 21.776 154.8 22.136 154.984 22.416C155.176 22.688 155.408 22.888 155.68 23.016C155.96 23.144 156.28 23.208 156.64 23.208C156.92 23.208 157.156 23.18 157.348 23.124C157.548 23.06 157.716 22.988 157.852 22.908C157.988 22.82 158.092 22.74 158.164 22.668V21.156C158.164 20.964 158.08 20.84 157.912 20.784C157.752 20.72 157.556 20.688 157.324 20.688H157.048V19.752H161.008V20.688H160.804C160.596 20.688 160.436 20.72 160.324 20.784C160.22 20.84 160.168 20.964 160.168 21.156ZM163.346 24.204C162.946 24.204 162.622 24.096 162.374 23.88C162.134 23.664 162.014 23.36 162.014 22.968C162.014 22.576 162.134 22.272 162.374 22.056C162.622 21.84 162.946 21.732 163.346 21.732C163.762 21.732 164.09 21.84 164.33 22.056C164.57 22.272 164.69 22.576 164.69 22.968C164.69 23.36 164.57 23.664 164.33 23.88C164.09 24.096 163.762 24.204 163.346 24.204Z" fill="#D4AF37"/>
<path d="M217.206 0.00488281C219.319 0.112115 221 1.85996 221 4V36L220.995 36.2061C220.891 38.2512 219.251 39.8913 217.206 39.9951L217 40H196.049V38H217C218.105 38 219 37.1046 219 36V4C219 2.89543 218.105 2 217 2H4C2.89543 2 2 2.89543 2 4V36C2 37.1046 2.89543 38 4 38H154V40H4L3.79395 39.9951C1.7488 39.8913 0.108652 38.2512 0.00488281 36.2061L0 36V4C4.9929e-07 1.85996 1.68056 0.112115 3.79395 0.00488281L4 0H217L217.206 0.00488281ZM188.92 40H182V38H188.92V40ZM178 38V40H160V38H178Z" fill="#D4AF37"/>
</g>
<defs>
<clipPath id="clip0_6078_1542">
<rect width="221" height="40" rx="4" fill="white"/>
</clipPath>
</defs>
</svg>
