<svg width="211" height="211" viewBox="0 0 211 211" fill="none" xmlns="http://www.w3.org/2000/svg">
<g clip-path="url(#clip0_6078_1482)">
<g clip-path="url(#clip1_6078_1482)">
<path d="M190.921 121.493L145.866 112.381L151.982 106.219L143.148 97.3069L172.017 90.0412C172.734 89.8602 173.174 89.1273 172.994 88.3944C172.815 87.6706 172.079 87.2272 171.362 87.4082L140.834 95.0901C137.373 91.9142 133.534 89.2269 129.391 87.0824L173.425 50.6816C173.999 50.2111 174.079 49.3516 173.613 48.7725C173.147 48.1934 172.295 48.112 171.721 48.5825L126.692 85.7976C123.66 84.4404 120.486 83.3727 117.23 82.6036L132.987 49.0077C133.301 48.3291 133.014 47.5238 132.351 47.1981C131.678 46.8814 130.88 47.171 130.557 47.8405L114.522 82.0245C111.822 81.5359 109.087 81.2554 106.343 81.183V17.3572C106.343 16.6062 105.742 16 104.998 16C104.253 16 103.652 16.6062 103.652 17.3572V81.1921C100.496 81.2645 97.3568 81.6354 94.2718 82.2779L74.3535 44.4746C74.0037 43.8141 73.1876 43.5607 72.533 43.9136C71.8783 44.2665 71.6272 45.0899 71.9769 45.7504L91.5544 82.9112C88.2272 83.7708 84.9897 84.9561 81.8957 86.4581L45.198 58.8883C44.6062 58.445 43.7631 58.5626 43.3147 59.1688C42.8753 59.766 42.9919 60.6165 43.5928 61.069L79.2232 87.8334C74.9902 90.186 71.0981 93.1176 67.6095 96.5649L19.6119 86.8472C18.8855 86.7024 18.177 87.1729 18.0246 87.9149C17.8721 88.6568 18.3474 89.3626 19.0828 89.5164L65.3136 98.8722L58.0225 106.228L65.7172 113.992L37.9787 120.968C37.2612 121.149 36.8218 121.882 37.0012 122.615C37.1536 123.23 37.7007 123.646 38.3015 123.646C38.4092 123.646 38.5168 123.637 38.6244 123.61L67.9502 116.236C71.4389 119.62 75.3221 122.497 79.5281 124.804L36.5528 160.336C35.9788 160.807 35.8981 161.667 36.3644 162.246C36.6335 162.571 37.0191 162.743 37.4047 162.743C37.7007 162.743 38.0056 162.644 38.2567 162.436L82.1648 126.134C85.3664 127.654 88.7115 128.849 92.1463 129.699L76.9901 162.019C76.6762 162.698 76.9632 163.503 77.6269 163.829C77.8152 163.92 78.0125 163.956 78.2008 163.956C78.703 163.956 79.1873 163.666 79.4205 163.178L94.8367 130.306C97.7155 130.867 100.666 131.192 103.634 131.265V193.67C103.634 194.421 104.235 195.027 104.98 195.027C105.724 195.027 106.325 194.421 106.325 193.67V131.265C109.706 131.183 113.078 130.767 116.378 130.034L135.615 166.553C135.857 167.014 136.323 167.276 136.808 167.276C137.023 167.276 137.238 167.222 137.435 167.114C138.09 166.761 138.341 165.937 137.991 165.277L119.087 129.383C122.584 128.424 125.983 127.093 129.23 125.429L164.77 152.13C165.013 152.311 165.291 152.401 165.577 152.401C165.99 152.401 166.394 152.211 166.654 151.858C167.093 151.261 166.977 150.411 166.376 149.958L131.83 123.999C135.803 121.665 139.48 118.814 142.772 115.494L143.552 114.707L190.365 124.171C190.455 124.189 190.545 124.198 190.635 124.198C191.262 124.198 191.827 123.755 191.953 123.103C192.096 122.37 191.63 121.656 190.895 121.502L190.921 121.493ZM82.5683 123.302C77.6807 120.877 73.2145 117.656 69.3044 113.756L61.825 106.219L69.1071 98.8722C73.0083 94.9363 77.4565 91.697 82.3441 89.2359C84.8731 87.9601 87.5098 86.9015 90.2181 86.0781C88.4245 87.4172 86.8103 89.0007 85.4471 90.7651C83.1782 93.6695 81.6177 96.9721 80.8016 100.564C80.3801 102.401 80.1649 104.301 80.1649 106.219C80.1649 108.002 80.3532 109.802 80.7298 111.558C81.5101 115.204 83.1333 118.697 85.4202 121.637C86.7923 123.411 88.4066 125.003 90.2092 126.352C87.5905 125.555 85.0346 124.533 82.5683 123.311V123.302ZM105.724 128.55V128.776C105.518 128.641 105.267 128.559 104.998 128.559C104.756 128.559 104.54 128.632 104.343 128.74V128.55C101.177 128.46 98.1191 127.7 95.2583 126.288C92.2629 124.804 89.5904 122.615 87.5456 119.954C85.5009 117.33 84.057 114.227 83.3665 110.979C83.0257 109.413 82.8553 107.812 82.8553 106.219C82.8553 104.509 83.0436 102.817 83.4203 101.179C84.1467 97.9764 85.5368 95.0358 87.5636 92.448C89.5186 89.9236 92.0477 87.8063 94.8726 86.3405C97.8231 84.8114 100.998 83.988 104.307 83.8884V83.6803C104.504 83.807 104.738 83.8794 104.998 83.8794C108.208 83.8794 111.311 84.558 114.208 85.8971C117.105 87.2363 119.723 89.2359 121.786 91.6699C123.92 94.1672 125.445 97.0264 126.315 100.184C126.862 102.148 127.131 104.174 127.131 106.228C127.131 107.522 127.023 108.771 126.817 109.965C126.27 113.286 125.006 116.362 123.06 119.122C121.131 121.873 118.575 124.18 115.661 125.8C112.594 127.51 109.249 128.433 105.715 128.55H105.724ZM128.754 122.615C125.884 124.144 122.889 125.392 119.786 126.342C121.885 124.759 123.75 122.841 125.266 120.687C127.409 117.638 128.871 114.082 129.472 110.418C129.705 109.079 129.821 107.667 129.821 106.219C129.821 103.921 129.517 101.65 128.907 99.4513C127.929 95.9044 126.216 92.6923 123.822 89.8964C122.62 88.4759 121.248 87.2001 119.75 86.0781C122.01 86.7658 124.207 87.6163 126.333 88.6116C131.176 90.8736 135.615 93.8957 139.534 97.5874C139.991 98.0126 140.431 98.4379 140.87 98.8813L148.152 106.228L142.18 112.254C142.18 112.254 142.171 112.264 142.162 112.273L140.87 113.566C137.265 117.195 133.185 120.244 128.736 122.624L128.754 122.615Z" fill="#D4AF37"/>
</g>
<path d="M9.08496 67.79C4.51125 79.475 2 92.1942 2 105.5C2 162.661 48.3385 209 105.5 209C106.671 209 107.838 208.978 109 208.939V210.94C107.838 210.978 106.671 211 105.5 211C47.234 211 0 163.766 0 105.5C0 91.7773 2.61967 78.6665 7.38672 66.6406L9.08496 67.79ZM163.982 193.317C150.516 202.303 134.868 208.274 118 210.266V208.25C134.39 206.277 149.601 200.474 162.712 191.761L163.982 193.317ZM200.046 152.362C192.248 168.065 180.653 181.548 166.463 191.612L165.194 190.059C179.174 180.171 190.595 166.906 198.266 151.449L200.046 152.362ZM170.124 22.1055C194.994 41.4054 211 71.5829 211 105.5C211 120.199 207.992 134.195 202.561 146.909L200.776 145.994C206.069 133.556 209 119.87 209 105.5C209 72.2013 193.274 42.5768 168.845 23.6445L170.124 22.1055ZM15.5771 54.2207C13.9354 57.0935 12.4264 60.052 11.0605 63.0889L9.37988 61.9502C10.7566 58.9164 12.2725 55.9591 13.9199 53.0869L15.5771 54.2207ZM105.5 0C127.331 0 147.614 6.63133 164.443 17.9893L163.158 19.5361C146.681 8.46237 126.845 2 105.5 2C70.2214 2 39.0653 19.6506 20.3809 46.6025L18.7285 45.4727C37.7733 17.9948 69.5357 0 105.5 0Z" fill="#D4AF37"/>
</g>
<defs>
<clipPath id="clip0_6078_1482">
<rect width="211" height="211" rx="105.5" fill="white"/>
</clipPath>
<clipPath id="clip1_6078_1482">
<rect width="174" height="179" fill="white" transform="translate(18 16)"/>
</clipPath>
</defs>
</svg>
