<?xml version="1.0" encoding="UTF-8" standalone="no"?>
<!-- Created with Inkscape (http://www.inkscape.org/) -->

<svg
   width="17.925947mm"
   height="17.504101mm"
   viewBox="0 0 67.751613 66.157232"
   version="1.1"
   id="svg1"
   xml:space="preserve"
   xmlns="http://www.w3.org/2000/svg"
   xmlns:svg="http://www.w3.org/2000/svg"><defs
     id="defs1" /><g
     id="layer2"
     style="display:inline"
     transform="translate(-362.75271,-611.38485)"><g
       id="g26"
       transform="matrix(0.4394408,0,0,0.4394408,126.58545,546.42285)"><path
         d="m 645.269,147.929 c 0.7,0.285 1.036,1.084 0.75,1.784 v 0 0 c -0.108,0.158 -27.905,68.388 -27.905,68.388 v 0 h 10e-4 c 0.165,-0.005 37.005,-34.27 37.005,-34.27 v 0 0 c 0.554,-0.513 1.42,-0.48 1.934,0.074 l 10e-4,0.001 v 0 c 0.512,0.554 0.478,1.419 -0.075,1.933 h -10e-4 v 0 c -0.111,0.066 -36.674,33.964 -36.674,33.964 v 0 -0.001 c 0.157,-0.064 69.496,-23.181 69.496,-23.181 v -0.001 h 10e-4 c 0.716,-0.238 1.491,0.148 1.732,0.864 v 0.003 0 c 0.237,0.717 -0.15,1.491 -0.865,1.73 h -10e-4 -10e-4 c -0.26,0.223 -69.692,23.247 -69.692,23.247 v 0 0 c 0.255,-0.065 55.828,7.667 55.828,7.667 v 0 h 10e-4 c 0.748,0.103 1.27,0.795 1.168,1.543 v 0 0.001 c -0.103,0.748 -0.793,1.271 -1.542,1.168 v 0 l -10e-4,-10e-4 c -0.196,-0.035 -56.349,-7.736 -56.349,-7.736 v 0 0 c 0.134,0.138 61.853,40.989 61.853,40.989 h 10e-4 v 0 c 0.628,0.418 0.8,1.266 0.383,1.896 v 0 l -10e-4,0.001 c -0.417,0.628 -1.264,0.801 -1.893,0.384 h -10e-4 l -10e-4,-10e-4 c -0.063,-0.231 -60.664,-40.272 -60.816,-40.303 l -10e-4,0.001 v 0 c -0.045,0.135 31.266,52.821 31.371,52.9 v 0 10e-4 c 0.384,0.649 0.171,1.487 -0.478,1.873 h -10e-4 l -10e-4,0.001 c -0.65,0.384 -1.487,0.172 -1.874,-0.478 v 0 -10e-4 c 0.037,-0.205 -32.291,-54.652 -32.507,-54.816 h -10e-4 -0.001 c -0.1,0.136 4.236,51.398 4.336,51.594 v 0.001 10e-4 c 0.062,0.751 -0.496,1.411 -1.247,1.476 v 0 h -0.004 c -0.751,0.062 -1.41,-0.495 -1.475,-1.246 v 0 -0.004 c 0.13,-0.23 -4.081,-49.772 -4.202,-50.009 v 0 l -0.002,-0.001 c -0.215,0.108 -27.812,67.847 -27.812,68.16 v 0 0.002 c -0.286,0.698 -1.082,1.034 -1.782,0.749 v 0 l -0.003,-0.001 c -0.697,-0.286 -1.033,-1.083 -0.749,-1.781 v -0.001 l 10e-4,-0.002 c 0.108,-0.214 27.745,-67.68 27.745,-67.992 l -10e-4,-0.001 -10e-4,-10e-4 c -0.164,0.005 -36.84,34.01 -36.93,34.204 h -10e-4 l -0.002,10e-4 c -0.553,0.512 -1.417,0.479 -1.929,-0.074 h -10e-4 l -0.002,-0.002 c -0.511,-0.554 -0.479,-1.417 0.074,-1.931 v 0 l 0.003,-0.002 c 0.262,-0.04 36.879,-33.99 37.014,-34.281 l 10e-4,-0.001 -10e-4,-0.002 c -0.299,-0.099 -69.676,23.122 -69.913,23.326 h -0.001 -0.002 c -0.715,0.239 -1.488,-0.148 -1.728,-0.862 v -10e-4 l -0.001,-0.004 c -0.238,-0.715 0.149,-1.486 0.861,-1.725 l 0.001,-0.001 0.005,-0.001 c 0.377,0.106 70.316,-23.301 70.616,-23.558 v -0.001 -0.003 c -0.223,-0.199 -56.072,-7.812 -56.364,-7.737 v 0 h -0.004 c -0.747,-0.105 -1.268,-0.792 -1.167,-1.539 h 10e-4 v -0.004 c 0.104,-0.747 0.791,-1.269 1.538,-1.166 v -0.001 l 0.004,0.002 c 0.219,0.196 55.238,7.718 55.583,7.629 v 0 l 0.002,-0.003 c -0.148,-0.357 -60.844,-40.495 -61.225,-40.571 l -10e-4,-0.001 -0.003,-0.002 c -0.627,-0.417 -0.799,-1.263 -0.385,-1.89 l 0.001,-0.002 0.004,-0.004 c 0.416,-0.626 1.261,-0.797 1.889,-0.383 h 0.001 l 0.003,0.004 c 0.15,0.363 61.828,41.185 62.293,41.279 l 10e-4,-0.001 0.004,-0.003 c 0.01,-0.402 -32.468,-55.052 -32.794,-55.298 v -0.001 l -0.003,-0.005 c -0.382,-0.648 -0.169,-1.483 0.478,-1.868 v -0.001 l 0.005,-0.003 c 0.648,-0.381 1.483,-0.168 1.867,0.477 h 10e-4 l 0.005,0.007 c 0.123,0.434 31.304,53.13 31.67,53.407 v 10e-4 l 0.004,-10e-4 c 0.061,-0.353 -4.099,-48.851 -4.136,-49.242 l -10e-4,-0.003 v -0.004 c -0.062,-0.751 0.495,-1.41 1.246,-1.474 h 0.001 l 0.003,-0.001 c 0.751,-0.062 1.412,0.496 1.476,1.248 v 0 l 10e-4,0.003 c -0.032,0.269 4.188,51.106 4.312,51.35 v 0 h 0.002 c 0.164,-0.273 28.195,-68.74 28.195,-69.096 v -10e-4 l 0.001,-0.003 c 0.286,-0.698 1.082,-1.032 1.781,-0.748 z"
         style="fill:#d4af37;fill-opacity:1;stroke-width:1.00157;stroke-dasharray:none"
         id="path26" /></g></g></svg>
