<svg width="168" height="48" viewBox="0 0 168 48" fill="none" xmlns="http://www.w3.org/2000/svg">
<g clip-path="url(#clip0_6707_3576)">
<rect width="168" height="48" rx="8" fill="#D4AF37" fill-opacity="0.25"/>
<path d="M107 2H8C4.78979 2 2.16843 4.52111 2.00781 7.69141L2 8V40C2 43.3137 4.68629 46 8 46H18V48H8L7.58789 47.9893C3.49764 47.7817 0.218304 44.5024 0.0107422 40.4121L0 40V8C4.99297e-07 3.71994 3.36114 0.225231 7.58789 0.0107422L8 0H107V2ZM39 48H34V46H39V48ZM65 48H55V46H65V48ZM160.412 0.0107422C164.639 0.22523 168 3.71994 168 8V40L167.989 40.4121C167.782 44.5024 164.502 47.7817 160.412 47.9893L160 48H81V46H160C163.314 46 166 43.3137 166 40V8C166 4.68629 163.314 2 160 2H156V0H160L160.412 0.0107422ZM117 2H112V0H117V2ZM127 2H122V0H127V2ZM145 2H132V0H145V2Z" fill="#D4AF37"/>
<path d="M141 24H155M155 24L148 17M155 24L148 31" stroke="#D4AF37" stroke-width="2" stroke-linecap="round" stroke-linejoin="round"/>
<path d="M68.4389 25.724V27.642C68.2895 27.8007 68.0749 27.9733 67.7949 28.16C67.5149 28.3467 67.1789 28.524 66.7869 28.692C66.4042 28.8507 65.9749 28.9813 65.4989 29.084C65.0322 29.1867 64.5375 29.238 64.0149 29.238C63.2309 29.238 62.5215 29.126 61.8869 28.902C61.2522 28.6687 60.7062 28.3327 60.2489 27.894C59.7915 27.446 59.4369 26.9 59.1849 26.256C58.9422 25.6027 58.8209 24.8607 58.8209 24.03C58.8209 23.1993 58.9469 22.462 59.1989 21.818C59.4509 21.174 59.8055 20.628 60.2629 20.18C60.7295 19.732 61.2709 19.3913 61.8869 19.158C62.5029 18.9247 63.1795 18.808 63.9169 18.808C64.6355 18.808 65.2189 18.9433 65.6669 19.214C66.1149 19.4753 66.4649 19.8393 66.7169 20.306C66.9689 20.7633 67.1602 21.2953 67.2909 21.902L66.5349 21.426L66.8009 18.99H68.1869V22.294H66.5909C66.4602 21.8833 66.2969 21.524 66.1009 21.216C65.9142 20.8987 65.6809 20.656 65.4009 20.488C65.1302 20.3107 64.7989 20.222 64.4069 20.222C64.0429 20.222 63.7349 20.3013 63.4829 20.46C63.2309 20.6187 63.0255 20.8567 62.8669 21.174C62.7082 21.482 62.5915 21.874 62.5169 22.35C62.4515 22.826 62.4189 23.386 62.4189 24.03C62.4189 24.73 62.4562 25.3227 62.5309 25.808C62.6149 26.2933 62.7362 26.6853 62.8949 26.984C63.0629 27.2733 63.2635 27.488 63.4969 27.628C63.7302 27.7587 63.9962 27.824 64.2949 27.824C64.4535 27.824 64.5935 27.81 64.7149 27.782C64.8455 27.7447 64.9622 27.698 65.0649 27.642C65.1675 27.586 65.2562 27.5253 65.3309 27.46V25.724C65.3309 25.5 65.2609 25.3553 65.1209 25.29C64.9902 25.2247 64.8222 25.192 64.6169 25.192H64.3509V23.932H69.1669V25.192H68.9569C68.7889 25.192 68.6582 25.2247 68.5649 25.29C68.4809 25.3553 68.4389 25.5 68.4389 25.724ZM75.1059 24.422V25.444C74.7792 25.5093 74.5039 25.584 74.2799 25.668C74.0559 25.7427 73.8739 25.8313 73.7339 25.934C73.5939 26.0273 73.4865 26.13 73.4119 26.242C73.3372 26.3447 73.2859 26.4613 73.2579 26.592C73.2299 26.7133 73.2159 26.8393 73.2159 26.97C73.2159 27.194 73.2392 27.3713 73.2859 27.502C73.3419 27.6233 73.4212 27.712 73.5239 27.768C73.6359 27.8147 73.7665 27.838 73.9159 27.838C74.0559 27.838 74.1865 27.8053 74.3079 27.74C74.4385 27.6653 74.5692 27.5533 74.6999 27.404C74.8305 27.2547 74.9659 27.054 75.1059 26.802L75.2459 27.46C75.0592 27.88 74.8492 28.2113 74.6159 28.454C74.3919 28.6967 74.1212 28.874 73.8039 28.986C73.4959 29.098 73.1272 29.154 72.6979 29.154C72.1472 29.154 71.6899 29.084 71.3259 28.944C70.9619 28.804 70.6912 28.5893 70.5139 28.3C70.3459 28.0107 70.2619 27.6327 70.2619 27.166C70.2619 26.7553 70.3505 26.4053 70.5279 26.116C70.7052 25.8267 70.9852 25.5793 71.3679 25.374C71.7505 25.1687 72.2499 24.9913 72.8659 24.842C73.4819 24.6833 74.2285 24.5433 75.1059 24.422ZM75.2319 29L75.0639 27.516L74.9379 27.586V23.232C74.9379 23.1107 74.9145 22.9987 74.8679 22.896C74.8212 22.7933 74.7325 22.714 74.6019 22.658C74.4805 22.602 74.2939 22.574 74.0419 22.574C73.6872 22.574 73.3932 22.6207 73.1599 22.714C72.9265 22.8073 72.7725 22.91 72.6979 23.022C72.5952 22.9847 72.5252 22.9333 72.4879 22.868C72.4599 22.7933 72.4692 22.7187 72.5159 22.644C72.5625 22.56 72.6419 22.4947 72.7539 22.448C72.8659 22.392 73.0152 22.3687 73.2019 22.378V24.002H70.7239V22.182C70.8732 22.0887 71.1065 21.9673 71.4239 21.818C71.7412 21.6687 72.1472 21.538 72.6419 21.426C73.1365 21.3047 73.7199 21.244 74.3919 21.244C74.9892 21.244 75.5165 21.3 75.9739 21.412C76.4405 21.5147 76.8325 21.6733 77.1499 21.888C77.4672 22.0933 77.7052 22.3547 77.8639 22.672C78.0319 22.9893 78.1159 23.3627 78.1159 23.792V27.404C78.1159 27.4787 78.1299 27.5393 78.1579 27.586C78.1952 27.6233 78.2465 27.656 78.3119 27.684C78.3865 27.7027 78.4799 27.7307 78.5919 27.768L78.7039 27.796V29H75.2319ZM79.5307 29V27.894H79.5587C79.736 27.894 79.8713 27.852 79.9647 27.768C80.0673 27.6747 80.1187 27.502 80.1187 27.25V23.036C80.1187 22.9613 80.1 22.9053 80.0627 22.868C80.0347 22.8213 79.9833 22.784 79.9087 22.756C79.8433 22.728 79.7547 22.7 79.6427 22.672L79.5307 22.644V21.398H83.0867L83.2687 23.246L83.3807 23.204V27.782C83.3807 27.81 83.3993 27.8333 83.4367 27.852C83.4833 27.8707 83.5347 27.8847 83.5907 27.894C83.6467 27.894 83.698 27.894 83.7447 27.894H83.8007V29H79.5307ZM88.6867 29H84.5707V27.894H84.6127C84.6687 27.894 84.7247 27.894 84.7807 27.894C84.846 27.8847 84.8973 27.8707 84.9347 27.852C84.972 27.8333 84.9907 27.81 84.9907 27.782V23.708C84.9907 23.5587 84.9767 23.4373 84.9487 23.344C84.9207 23.2413 84.8693 23.162 84.7947 23.106C84.72 23.05 84.6173 23.022 84.4867 23.022C84.3467 23.022 84.1973 23.078 84.0387 23.19C83.88 23.2927 83.712 23.4653 83.5347 23.708C83.3667 23.9507 83.1847 24.2727 82.9887 24.674L83.0307 23.358C83.2173 22.9473 83.46 22.5833 83.7587 22.266C84.0573 21.9487 84.3933 21.7013 84.7667 21.524C85.1493 21.3373 85.5507 21.244 85.9707 21.244C86.456 21.244 86.8667 21.3373 87.2027 21.524C87.548 21.7107 87.8093 21.9813 87.9867 22.336C88.1733 22.6907 88.2667 23.1293 88.2667 23.652V27.782C88.2667 27.81 88.2853 27.8333 88.3227 27.852C88.3693 27.8707 88.4207 27.8847 88.4767 27.894C88.542 27.894 88.598 27.894 88.6447 27.894H88.6867V29ZM93.7267 29H89.4567V27.894H89.4847C89.55 27.894 89.6107 27.894 89.6667 27.894C89.7227 27.8847 89.7693 27.8707 89.8067 27.852C89.8533 27.8333 89.8767 27.81 89.8767 27.782V23.708C89.8767 23.5587 89.858 23.4373 89.8207 23.344C89.7927 23.2413 89.7413 23.162 89.6667 23.106C89.6013 23.05 89.5033 23.022 89.3727 23.022C89.214 23.022 89.0553 23.0827 88.8967 23.204C88.7473 23.316 88.584 23.4933 88.4067 23.736C88.2387 23.9693 88.0567 24.2727 87.8607 24.646L87.9167 23.344C88.1033 22.9333 88.346 22.5693 88.6447 22.252C88.9433 21.9347 89.2793 21.6873 89.6527 21.51C90.0353 21.3327 90.4367 21.244 90.8567 21.244C91.342 21.244 91.7527 21.3373 92.0887 21.524C92.434 21.7107 92.6953 21.9813 92.8727 22.336C93.05 22.6907 93.1387 23.1293 93.1387 23.652V27.25C93.1387 27.502 93.1853 27.6747 93.2787 27.768C93.3813 27.852 93.5167 27.894 93.6847 27.894H93.7267V29ZM97.7763 25.234C97.7763 25.6913 97.8043 26.0833 97.8603 26.41C97.9163 26.7273 98.0097 26.984 98.1403 27.18C98.2803 27.376 98.467 27.5207 98.7003 27.614C98.9337 27.698 99.2183 27.74 99.5543 27.74C99.8903 27.74 100.175 27.6933 100.408 27.6C100.642 27.5067 100.847 27.376 101.024 27.208C101.202 27.0307 101.36 26.83 101.5 26.606L102.62 27.334C102.415 27.7353 102.154 28.076 101.836 28.356C101.519 28.6267 101.132 28.832 100.674 28.972C100.226 29.1027 99.6897 29.168 99.0643 29.168C98.1123 29.168 97.2957 29.0187 96.6143 28.72C95.9423 28.4213 95.429 27.9827 95.0743 27.404C94.729 26.816 94.5563 26.0973 94.5563 25.248C94.5563 24.436 94.729 23.7313 95.0743 23.134C95.429 22.5367 95.9237 22.0747 96.5583 21.748C97.2023 21.412 97.949 21.244 98.7983 21.244C99.4797 21.244 100.068 21.3373 100.562 21.524C101.057 21.7107 101.463 21.9907 101.78 22.364C102.107 22.7373 102.35 23.204 102.508 23.764C102.676 24.3147 102.765 24.9633 102.774 25.71H96.9923V24.59H100.086L99.8343 25.038C99.825 24.506 99.8017 24.0767 99.7643 23.75C99.727 23.4233 99.671 23.176 99.5963 23.008C99.531 22.8307 99.433 22.7093 99.3023 22.644C99.181 22.5787 99.0363 22.546 98.8683 22.546C98.6817 22.546 98.5183 22.5833 98.3783 22.658C98.2477 22.7327 98.1357 22.868 98.0423 23.064C97.949 23.26 97.879 23.5353 97.8323 23.89C97.795 24.2353 97.7763 24.6833 97.7763 25.234ZM105.864 29.28C105.294 29.28 104.846 29.1353 104.52 28.846C104.193 28.5567 104.03 28.1413 104.03 27.6C104.03 27.068 104.193 26.6573 104.52 26.368C104.846 26.0693 105.294 25.92 105.864 25.92C106.442 25.92 106.89 26.0693 107.208 26.368C107.534 26.6573 107.698 27.068 107.698 27.6C107.698 28.1413 107.534 28.5567 107.208 28.846C106.89 29.1353 106.442 29.28 105.864 29.28Z" fill="#D4AF37"/>
</g>
<defs>
<clipPath id="clip0_6707_3576">
<rect width="168" height="48" rx="8" fill="white"/>
</clipPath>
</defs>
</svg>
