<svg width="94" height="55" viewBox="0 0 94 55" fill="none" xmlns="http://www.w3.org/2000/svg">
<g clip-path="url(#clip0_6491_7681)">
<path d="M6.06445 26.6807L12.1735 20.5895C31.7065 1.11362 63.4179 1.11362 82.951 20.5895L89.0599 26.6806L82.9509 32.7718C63.4179 52.2477 31.7065 52.2477 12.1735 32.7718L6.06445 26.6807Z" stroke="#D4AF37" stroke-width="4" stroke-miterlimit="10"/>
<path d="M47.62 47.3919C59.093 47.3919 68.3938 38.1184 68.3938 26.6789C68.3938 15.2394 59.093 5.96582 47.62 5.96582C36.1469 5.96582 26.8462 15.2394 26.8462 26.6789C26.8462 38.1184 36.1469 47.3919 47.62 47.3919Z" stroke="#D4AF37" stroke-width="4" stroke-miterlimit="10"/>
<path d="M54.5718 34.7074C59.019 34.7074 62.6241 31.1128 62.6241 26.6786C62.6241 22.2445 59.019 18.6499 54.5718 18.6499C50.1247 18.6499 46.5195 22.2445 46.5195 26.6786C46.5195 31.1128 50.1247 34.7074 54.5718 34.7074Z" stroke="#D4AF37" stroke-width="4" stroke-miterlimit="10"/>
</g>
<defs>
<clipPath id="clip0_6491_7681">
<rect width="94" height="54.4211" fill="white" transform="translate(0 0.420898)"/>
</clipPath>
</defs>
</svg>
