<svg width="580" height="579" viewBox="0 0 580 579" fill="none" xmlns="http://www.w3.org/2000/svg">
<g clip-path="url(#clip0_6648_7982)">
<rect x="459" y="263" width="50" height="50" rx="25" transform="rotate(90 459 263)" fill="black"/>
<path d="M421.494 299.997L421.569 299.993C422.008 299.969 422.821 299.927 423.514 299.195C424.028 298.653 424.279 297.948 424.279 297.041L424.279 296.637L443.727 296.637L443.727 297.039C443.727 297.946 443.977 298.651 444.493 299.193C445.186 299.924 446.001 299.968 446.437 299.991L446.513 299.995C447.373 300.047 448.267 299.688 448.968 299.013C449.502 298.499 449.866 297.733 449.97 296.91L449.975 296.859L449.975 280.135C450.101 278.986 449.744 277.814 449.012 276.99C448.445 276.351 447.705 276 446.931 276L421.07 276C420.296 276 419.556 276.353 418.989 276.99C418.353 277.704 418 278.681 418 279.678C418 279.828 418.009 279.981 418.026 280.131L418.026 296.859L418.031 296.91C418.135 297.733 418.499 298.499 419.033 299.013C419.736 299.688 420.63 300.047 421.488 299.995L421.494 299.997ZM447.812 297.828C447.456 298.172 446.997 298.37 446.616 298.348L446.528 298.343C446.164 298.322 445.931 298.299 445.703 298.062C445.485 297.832 445.391 297.525 445.391 297.041L445.391 283.091C445.801 283.249 446.182 283.271 446.435 283.284L446.513 283.288C447.123 283.325 447.75 283.152 448.313 282.809L448.313 296.756C448.251 297.188 448.064 297.586 447.811 297.828L447.812 297.828ZM420.24 278.088C420.416 277.891 420.702 277.656 421.074 277.656L446.934 277.656C447.306 277.656 447.594 277.891 447.768 278.088C448.19 278.561 448.406 279.312 448.321 279.999C448.265 280.447 448.075 280.866 447.812 281.119C447.456 281.463 446.997 281.661 446.616 281.639L446.528 281.633C446.164 281.613 445.931 281.589 445.705 281.352C445.487 281.123 445.393 280.816 445.393 280.332L445.393 280.326C445.393 280.119 445.57 279.882 445.648 279.85C446.101 279.77 446.402 279.342 446.321 278.892C446.239 278.442 445.809 278.143 445.356 278.224C444.459 278.382 443.731 279.325 443.729 280.324L443.729 294.986L424.281 294.986L424.281 280.324C424.281 279.325 423.549 278.382 422.655 278.224C422.202 278.143 421.765 278.442 421.684 278.89C421.603 279.34 421.898 279.768 422.351 279.847C422.442 279.88 422.618 280.119 422.618 280.326C422.621 280.816 422.525 281.121 422.305 281.352C422.08 281.589 421.845 281.613 421.483 281.633L421.394 281.639C421.011 281.663 420.555 281.463 420.198 281.119C419.935 280.866 419.745 280.447 419.69 279.999C419.603 279.311 419.821 278.561 420.242 278.088L420.24 278.088ZM420.196 297.828C419.943 297.584 419.756 297.186 419.693 296.756L419.693 282.809C420.257 283.152 420.884 283.325 421.494 283.288L421.571 283.284C421.825 283.271 422.205 283.249 422.618 283.091L422.618 297.043C422.618 297.527 422.525 297.832 422.305 298.063C422.08 298.3 421.845 298.326 421.481 298.344L421.392 298.35C421.009 298.372 420.551 298.174 420.196 297.83L420.196 297.828Z" fill="#D4AF37"/>
<g clip-path="url(#clip1_6648_7982)">
<path d="M431.087 265.183C419.76 266.614 411 276.284 411 288C411 291.958 412.001 295.681 413.762 298.934L412.187 300.219C410.159 296.606 409 292.439 409 288C409 275.172 418.662 264.602 431.105 263.167L431.087 265.183ZM422.896 310.402C419.175 308.554 415.98 305.808 413.595 302.445L415.148 301.177C417.356 304.329 420.334 306.901 423.81 308.622L422.896 310.402ZM456.418 299.073C452.334 307.325 443.831 313 434 313C431.37 313 428.835 312.592 426.454 311.839L427.382 310.031C429.478 310.66 431.699 311 434 311C443.215 311 451.162 305.581 454.833 297.756L456.418 299.073ZM445.287 267.956C442.037 266.122 438.296 265.057 434.311 265.004L434.329 263.004C438.726 263.061 442.85 264.25 446.42 266.298L445.287 267.956ZM459 288C459 290.694 458.573 293.288 457.784 295.719L456.117 294.333C456.692 292.321 457 290.197 457 288C457 280.163 453.08 273.242 447.095 269.09L448.224 267.439C454.735 271.952 459 279.478 459 288Z" fill="#D4AF37"/>
</g>
</g>
<g clip-path="url(#clip2_6648_7982)">
<rect x="314" y="458" width="50" height="50" rx="25" transform="rotate(-180 314 458)" fill="black"/>
<path d="M288.177 415C293.254 415 298.014 416.904 301.579 420.36C305.144 423.816 307.067 428.395 306.998 433.254C306.858 443.05 298.418 451 288.177 451C288.158 451 288.138 451 288.118 451C283.348 450.985 278.804 449.261 275.32 446.141C274.98 445.837 274.908 445.339 275.154 444.958C275.399 444.578 275.894 444.415 276.331 444.568C277.956 445.14 279.672 445.43 281.43 445.43C289.108 445.43 295.352 439.854 295.352 433C295.352 426.146 289.108 420.57 281.43 420.57C279.671 420.57 277.956 420.86 276.332 421.432C275.894 421.587 275.399 421.422 275.154 421.042C274.908 420.661 274.978 420.165 275.318 419.861C278.817 416.726 283.386 415 288.179 415L288.177 415ZM288.177 449.297C297.45 449.297 305.09 442.1 305.217 433.231C305.28 428.832 303.538 424.687 300.31 421.558C297.082 418.43 292.773 416.705 288.177 416.705C285.09 416.705 282.107 417.497 279.502 418.973C280.138 418.903 280.781 418.867 281.428 418.867C290.087 418.867 297.132 425.208 297.132 433C297.132 440.792 290.087 447.133 281.428 447.133C280.781 447.133 280.138 447.097 279.502 447.027C282.091 448.496 285.056 449.285 288.122 449.295C288.14 449.295 288.158 449.295 288.177 449.295L288.177 449.297Z" fill="#D4AF37"/>
<path d="M281.199 423.245C286.822 423.245 291.396 427.619 291.396 432.999C291.396 438.378 286.822 442.75 281.199 442.75C275.576 442.75 271 438.376 271 432.999C271 427.621 275.574 423.245 281.199 423.245ZM281.199 441.047C285.841 441.047 289.615 437.435 289.615 432.999C289.615 428.562 285.839 424.949 281.199 424.949C276.56 424.949 272.782 428.56 272.782 432.999C272.782 437.437 276.558 441.047 281.199 441.047Z" fill="#D4AF37"/>
<g clip-path="url(#clip3_6648_7982)">
<path d="M311.817 430.087C310.386 418.76 300.716 410 289 410C285.042 410 281.319 411.001 278.066 412.762L276.781 411.187C280.394 409.159 284.561 408 289 408C301.828 408 312.398 417.662 313.833 430.105L311.817 430.087ZM266.598 421.896C268.446 418.175 271.192 414.98 274.555 412.595L275.823 414.148C272.671 416.356 270.099 419.334 268.378 422.81L266.598 421.896ZM277.927 455.418C269.675 451.334 264 442.831 264 433C264 430.37 264.408 427.835 265.161 425.454L266.969 426.382C266.34 428.478 266 430.699 266 433C266 442.215 271.419 450.162 279.244 453.833L277.927 455.418ZM309.044 444.287C310.878 441.037 311.943 437.296 311.996 433.311L313.996 433.329C313.939 437.726 312.75 441.85 310.702 445.42L309.044 444.287ZM289 458C286.306 458 283.712 457.573 281.281 456.784L282.667 455.117C284.679 455.692 286.803 456 289 456C296.837 456 303.758 452.08 307.91 446.095L309.561 447.224C305.048 453.735 297.522 458 289 458Z" fill="#D4AF37"/>
</g>
</g>
<g clip-path="url(#clip4_6648_7982)">
<rect x="426" y="390" width="50" height="50" rx="25" transform="rotate(135 426 390)" fill="black"/>
<path d="M378.17 405.624L386.238 406.331C385.995 407.443 386.432 408.682 387.469 409.401C388.506 410.12 390.027 410.095 390.995 409.257C392.064 408.327 392.234 406.779 391.516 405.6C391.698 405.43 391.89 405.275 392.089 405.136C392.676 404.727 393.164 404.582 393.729 404.414C394.305 404.241 394.959 404.046 395.756 403.566C396.736 402.978 397.634 402.131 398.441 401.046L398.714 401.446C399.619 403.009 401.549 403.625 403.13 402.848L403.371 402.729L403.491 402.487C404.267 400.907 403.651 398.975 402.089 398.071L401.758 397.845C402.838 397.042 403.676 396.143 404.264 395.169C404.743 394.37 404.939 393.717 405.11 393.142C405.281 392.577 405.426 392.088 405.832 391.502C405.974 391.303 406.128 391.112 406.299 390.929C407.478 391.646 409.03 391.476 409.96 390.4C410.801 389.427 410.853 387.945 410.086 386.859C409.318 385.774 408.097 385.396 406.978 385.66L406.266 377.525L406.247 377.318L405.761 376.832C403.285 374.356 399.339 374.29 396.945 376.683L395.954 377.675C393.561 380.068 393.627 384.014 396.103 386.49L396.439 386.826C396.534 386.922 396.661 386.982 396.794 386.994L403.663 387.596C403.591 387.662 403.522 387.729 403.454 387.796C403.16 388.091 402.898 388.404 402.668 388.734C402.115 389.53 401.918 390.19 401.727 390.828C401.567 391.36 401.415 391.863 401.04 392.49C400.519 393.357 399.733 394.16 398.702 394.888L391.759 386.789L391.714 386.739C391.165 386.19 390.47 385.879 389.761 385.807L389.234 385.545C388.783 385.321 387.721 384.311 387.431 383.83C387.273 383.573 387.089 383.336 386.882 383.129L386.684 382.932C386.66 382.158 386.347 381.383 385.755 380.78C386.161 379.673 385.903 378.359 384.993 377.449L384.952 377.408C385.629 376.227 385.443 374.663 384.403 373.623L382.984 372.205L372.849 382.34L374.268 383.758C375.307 384.798 376.871 384.985 378.052 384.307L378.094 384.349C379.005 385.26 380.318 385.517 381.425 385.111C382.029 385.704 382.802 386.016 383.577 386.041L383.7 386.164C383.944 386.407 384.24 386.626 384.604 386.828C385.047 387.071 386.004 388.114 386.157 388.513L386.497 389.397C386.611 390.007 386.909 390.592 387.385 391.069L387.41 391.093L395.473 398.006C394.746 399.035 393.944 399.818 393.08 400.339C392.455 400.715 391.953 400.865 391.418 401.025C390.78 401.217 390.12 401.414 389.324 401.967C388.994 402.196 388.682 402.457 388.386 402.752C388.334 402.805 388.283 402.856 388.232 402.913L387.638 396.15C387.626 396.016 387.566 395.89 387.471 395.794L387.134 395.458C384.659 392.983 380.713 392.916 378.319 395.31L377.328 396.301C374.934 398.694 375.001 402.641 377.476 405.116L377.817 405.457C377.911 405.551 378.037 405.611 378.168 405.623L378.17 405.624ZM389.941 407.925C389.471 408.395 388.695 408.382 388.209 407.895C387.797 407.484 387.717 406.837 388.02 406.362C388.069 406.29 388.122 406.224 388.181 406.164C388.265 406.08 388.361 406.01 388.463 405.957C388.565 405.903 388.672 405.865 388.782 405.844C388.857 405.828 388.932 405.822 389.008 405.821C389.046 405.82 389.084 405.822 389.122 405.824C389.155 405.828 389.188 405.832 389.222 405.836C389.25 405.842 389.279 405.847 389.308 405.853C389.357 405.863 389.408 405.881 389.456 405.899C389.493 405.913 389.53 405.925 389.564 405.946C389.671 405.998 389.771 406.064 389.864 406.149L389.872 406.157C389.885 406.17 389.899 406.185 389.911 406.196C390.397 406.682 390.41 407.459 389.94 407.929L389.941 407.925ZM402.095 401.451C401.36 401.666 400.54 401.339 400.141 400.631L399.418 399.57L399.42 399.567L399.408 399.554L398.865 398.76L397.098 397.244L396.41 396.556L396.37 396.619L388.525 389.894C387.972 389.318 387.963 388.414 388.512 387.865C389.061 387.316 389.964 387.323 390.541 387.878L397.315 395.78L397.259 395.816L397.876 396.432L399.408 398.218L400.214 398.77L400.273 398.829L400.287 398.821L401.215 399.457L401.278 399.497C401.986 399.896 402.315 400.714 402.098 401.451L402.095 401.451ZM408.625 389.353C408.155 389.823 407.378 389.81 406.892 389.324C406.874 389.305 406.854 389.285 406.844 389.275C406.401 388.782 406.408 388.043 406.86 387.591C406.92 387.531 406.988 387.478 407.06 387.431C407.536 387.127 408.182 387.21 408.593 387.62C409.079 388.106 409.092 388.883 408.622 389.353L408.625 389.353ZM397.155 378.873L398.147 377.882C399.699 376.329 402.156 376.192 403.954 377.445L396.719 384.681C395.465 382.883 395.602 380.426 397.155 378.873ZM398.331 385.463L404.735 379.059L405.351 386.079L398.331 385.463ZM402.481 393.386C402.96 392.587 403.157 391.935 403.329 391.36C403.496 390.795 403.644 390.306 404.052 389.719C404.282 389.388 404.558 389.078 404.881 388.786C404.883 388.805 404.887 388.82 404.889 388.838C404.892 388.855 404.894 388.871 404.897 388.888C404.894 388.891 404.897 388.896 404.898 388.901C404.946 389.167 405.031 389.429 405.153 389.678C404.895 389.945 404.661 390.228 404.456 390.524C403.904 391.322 403.706 391.981 403.514 392.619C403.356 393.152 403.204 393.655 402.829 394.282C402.301 395.158 401.503 395.972 400.455 396.705L399.883 396.133C401.005 395.311 401.877 394.391 402.481 393.388L402.481 393.386ZM382.8 384.13L384.774 382.156C385.152 382.724 385.103 383.488 384.617 383.975C384.13 384.462 383.369 384.511 382.799 384.131L382.8 384.13ZM375.431 382.604L375.211 382.384L383.03 374.565L383.25 374.785C383.825 375.36 383.84 376.28 383.284 376.835L377.48 382.64C376.924 383.196 376.004 383.18 375.429 382.605L375.431 382.604ZM379.287 383.227L383.872 378.642C384.416 379.219 384.421 380.115 383.875 380.661L381.306 383.23C380.76 383.776 379.864 383.771 379.287 383.227ZM386.141 384.847C386.464 385.3 387.038 385.904 387.603 386.38L387.058 386.925C386.588 386.342 385.984 385.768 385.519 385.469L386.14 384.849L386.141 384.847ZM390.306 403.353C390.892 402.944 391.381 402.796 391.946 402.628C392.522 402.455 393.175 402.26 393.972 401.781C394.544 401.438 395.086 401.007 395.602 400.491C395.989 400.104 396.363 399.667 396.716 399.182L397.288 399.754C396.555 400.805 395.741 401.601 394.865 402.129C394.238 402.507 393.736 402.657 393.203 402.815C392.562 403.007 391.905 403.204 391.107 403.756C390.811 403.96 390.527 404.196 390.261 404.453C390.091 404.371 389.914 404.305 389.735 404.256C389.691 404.242 389.647 404.232 389.603 404.221C389.527 404.203 389.448 404.19 389.371 404.179C389.661 403.858 389.972 403.578 390.303 403.35L390.306 403.353ZM386.724 404.707L379.703 404.091L386.106 397.688L386.724 404.707ZM378.528 397.501L379.519 396.509C381.072 394.957 383.529 394.819 385.327 396.073L378.091 403.309C376.838 401.51 376.975 399.054 378.528 397.501Z" fill="#D4AF37"/>
<g clip-path="url(#clip5_6648_7982)">
<path d="M404.719 371.807C395.697 364.81 382.665 365.453 374.381 373.738C371.582 376.536 369.657 379.877 368.603 383.422L366.581 383.217C367.701 379.228 369.828 375.462 372.967 372.323C382.038 363.253 396.344 362.61 406.157 370.395L404.719 371.807ZM366.952 397.991C365.628 394.053 365.31 389.851 366.001 385.787L367.997 385.988C367.329 389.779 367.616 393.703 368.857 397.377L366.952 397.991ZM398.666 413.683C389.944 416.63 379.918 414.63 372.967 407.679C371.107 405.819 369.603 403.738 368.452 401.522L370.386 400.9C371.424 402.827 372.754 404.638 374.381 406.265C380.897 412.78 390.349 414.568 398.477 411.631L398.666 413.683ZM412.799 383.809C411.798 380.214 409.906 376.816 407.125 373.96L408.552 372.559C411.621 375.708 413.696 379.465 414.772 383.438L412.799 383.809ZM408.322 407.679C406.417 409.584 404.281 411.116 402.004 412.277L401.806 410.118C403.635 409.102 405.355 407.818 406.908 406.265C412.449 400.723 414.571 393.058 413.275 385.889L415.241 385.52C416.654 393.316 414.348 401.653 408.322 407.679Z" fill="#D4AF37"/>
</g>
</g>
<g clip-path="url(#clip6_6648_7982)">
<rect x="186" y="426" width="50" height="50" rx="25" transform="rotate(-135 186 426)" fill="black"/>
<path d="M172.566 404.081L206.506 394.181L182.465 370.14L172.566 404.081ZM190.496 386.394C191.919 388.052 191.73 390.652 190.065 392.317C188.308 394.074 185.553 394.175 183.924 392.546C182.295 390.917 182.398 388.16 184.153 386.405C185.909 384.649 188.424 384.551 190.071 385.969C190.217 386.106 190.36 386.249 190.496 386.394ZM188.47 395.234C189.52 394.919 190.494 394.337 191.29 393.541C192.086 392.746 192.665 391.775 192.979 390.727C193.32 391.884 193.469 393.098 193.423 394.348L193.376 395.627L192.096 395.675C190.843 395.722 189.626 395.573 188.469 395.232L188.47 395.234ZM182.12 383.044C183.368 382.997 184.582 383.146 185.74 383.488C184.694 383.804 183.72 384.383 182.926 385.177C182.132 385.972 181.548 386.95 181.234 387.998C180.894 386.839 180.745 385.623 180.791 384.37L180.839 383.091L182.118 383.043L182.12 383.044ZM182.602 393.866C184.443 395.708 186.83 396.906 189.44 397.32L175.163 401.485L179.235 387.525C179.711 389.954 180.861 392.125 182.603 393.867L182.602 393.866ZM195.175 395.647L195.226 394.28C195.355 390.822 194.167 387.575 191.888 385.147C191.688 384.915 191.544 384.774 191.329 384.588C188.892 382.301 185.644 381.114 182.188 381.243L181.056 381.285L183.294 373.612L203.037 393.354L195.175 395.647Z" fill="#D4AF37"/>
<path d="M184.958 391.515C186.059 392.615 187.921 392.546 189.107 391.36C190.293 390.174 190.363 388.311 189.262 387.211C188.161 386.11 186.299 386.18 185.113 387.366C183.927 388.552 183.857 390.414 184.958 391.515ZM187.941 388.532C188.366 388.957 188.339 389.676 187.881 390.134C187.423 390.592 186.704 390.619 186.279 390.194C185.854 389.769 185.881 389.05 186.339 388.592C186.797 388.134 187.516 388.107 187.941 388.532Z" fill="#D4AF37"/>
<g clip-path="url(#clip7_6648_7982)">
<path d="M204.194 404.718C211.191 395.696 210.548 382.664 202.263 374.38C199.465 371.581 196.124 369.656 192.579 368.602L192.784 366.58C196.773 367.7 200.539 369.827 203.678 372.966C212.748 382.037 213.391 396.343 205.606 406.156L204.194 404.718ZM178.01 366.951C181.948 365.627 186.15 365.309 190.214 366L190.013 367.996C186.222 367.328 182.298 367.615 178.624 368.856L178.01 366.951ZM162.318 398.665C159.371 389.943 161.371 379.917 168.322 372.966C170.182 371.106 172.263 369.602 174.479 368.451L175.101 370.385C173.174 371.423 171.363 372.753 169.736 374.38C163.221 380.896 161.433 390.348 164.37 398.476L162.318 398.665ZM192.192 412.798C195.787 411.797 199.185 409.905 202.041 407.124L203.442 408.551C200.293 411.62 196.536 413.695 192.563 414.771L192.192 412.798ZM168.322 408.321C166.417 406.416 164.885 404.28 163.724 402.003L165.883 401.805C166.899 403.634 168.183 405.354 169.736 406.907C175.278 412.448 182.943 414.57 190.112 413.274L190.481 415.24C182.685 416.653 174.348 414.347 168.322 408.321Z" fill="#D4AF37"/>
</g>
</g>
<g clip-path="url(#clip8_6648_7982)">
<rect x="151" y="185.355" width="50" height="50" rx="25" transform="rotate(-45 151 185.355)" fill="black"/>
<path d="M191.435 170.262C191.342 170.162 191.246 170.063 191.149 169.966L188.952 167.769L188.933 167.789L188.798 167.654C187.937 166.793 186.563 166.764 185.737 167.589L168.549 184.777C167.723 185.603 167.752 186.977 168.614 187.839L169.901 189.125L169.922 189.104L170.966 190.149C171.063 190.246 171.162 190.342 171.262 190.434C171.32 191.16 171.631 191.844 172.149 192.362C173 193.213 174.24 193.473 175.352 193.088C179.249 194.714 183.775 194.482 187.584 192.406C189.197 193.298 190.571 194.554 191.602 196.07L188.626 199.045C187.784 199.888 187.768 201.243 188.591 202.066L191.138 204.614L205.574 190.179L203.026 187.631C202.203 186.808 200.848 186.824 200.005 187.667L197.028 190.643C196.423 190.232 195.856 189.762 195.335 189.241C194.562 188.468 193.905 187.596 193.375 186.641C195.481 182.82 195.723 178.265 194.088 174.35C194.463 173.24 194.203 171.989 193.362 171.148C192.843 170.63 192.162 170.321 191.435 170.262ZM184.734 175.379C183.789 176.324 183.55 177.705 184.025 178.846C182.884 178.371 181.502 178.612 180.557 179.557C179.612 180.502 179.372 181.884 179.847 183.025C178.706 182.55 177.325 182.789 176.38 183.734C175.435 184.679 175.196 186.063 175.67 187.204C174.53 186.729 173.146 186.968 172.201 187.913C172.011 188.103 171.848 188.312 171.714 188.538L171.101 187.924L188.925 170.101L189.537 170.713C189.311 170.849 189.102 171.012 188.913 171.201C187.968 172.146 187.729 173.529 188.204 174.67C187.063 174.195 185.68 174.434 184.734 175.379ZM188.005 176.505C188.582 177.083 188.571 178.034 187.98 178.625C187.389 179.216 186.439 179.226 185.862 178.648C185.284 178.071 185.297 177.121 185.887 176.532C186.476 175.942 187.427 175.928 188.005 176.505ZM183.827 180.683C184.405 181.26 184.394 182.211 183.802 182.802C183.211 183.393 182.26 183.404 181.683 182.827C181.106 182.25 181.118 181.3 181.709 180.709C182.3 180.118 183.25 180.105 183.827 180.683ZM179.649 184.861C180.226 185.439 180.215 186.39 179.625 186.98C179.035 187.569 178.083 187.582 177.506 187.004C176.928 186.427 176.941 185.477 177.532 184.886C178.123 184.295 179.071 184.284 179.649 184.861ZM169.794 186.659C169.567 186.432 169.526 186.105 169.701 185.929L186.889 168.741C187.065 168.566 187.392 168.607 187.619 168.834L187.753 168.968L169.928 186.793L169.794 186.659ZM175.339 191.255C175.287 191.3 175.231 191.341 175.171 191.378C174.574 191.751 173.817 191.671 173.328 191.182C173.026 190.88 172.873 190.459 172.907 190.026C172.916 189.92 172.934 189.815 172.966 189.716C173.036 189.472 173.17 189.249 173.353 189.065C173.944 188.474 174.894 188.461 175.471 189.039C176.049 189.616 176.038 190.567 175.446 191.158C175.412 191.192 175.378 191.226 175.339 191.255ZM201.157 188.819C201.35 188.626 201.658 188.623 201.846 188.811L203.242 190.206L191.166 202.282L189.771 200.887C189.582 200.699 189.586 200.39 189.779 200.198L201.157 188.819ZM195.83 191.842L192.8 194.872C191.828 193.509 190.606 192.342 189.198 191.433C189.709 191.052 190.192 190.636 190.641 190.186L191.145 189.683C191.596 189.232 192.012 188.749 192.391 188.24C192.899 189.025 193.49 189.755 194.155 190.421C194.675 190.941 195.237 191.416 195.83 191.842ZM193.507 179.911C193.471 183.101 192.218 186.305 189.762 188.762C186.269 192.255 181.265 193.312 176.941 191.906C177.596 190.996 177.72 189.827 177.307 188.84C178.449 189.316 179.832 189.077 180.777 188.132C181.722 187.187 181.96 185.804 181.485 184.664C182.626 185.138 184.01 184.899 184.955 183.954C185.9 183.009 186.139 181.626 185.664 180.485C186.805 180.96 188.187 180.722 189.132 179.777C190.077 178.832 190.316 177.448 189.84 176.306C190.827 176.719 191.996 176.596 192.906 175.941C193.324 177.224 193.523 178.566 193.507 179.911ZM192.356 174.205C192.325 174.251 192.291 174.296 192.256 174.339C192.225 174.377 192.193 174.412 192.158 174.446C191.567 175.037 190.616 175.048 190.039 174.471C189.462 173.894 189.474 172.944 190.065 172.353C190.251 172.167 190.472 172.036 190.715 171.964C190.801 171.938 190.889 171.921 190.981 171.911C191.431 171.863 191.869 172.014 192.182 172.328C192.678 172.823 192.749 173.613 192.356 174.205Z" fill="#D4AF37"/>
<g clip-path="url(#clip9_6648_7982)">
<path d="M172.281 203.549C181.303 210.546 194.335 209.902 202.619 201.618C205.418 198.819 207.343 195.478 208.397 191.934L210.419 192.138C209.299 196.127 207.172 199.893 204.033 203.032C194.962 212.103 180.656 212.745 170.843 204.961L172.281 203.549ZM210.048 177.365C211.372 181.303 211.69 185.504 210.999 189.569L209.003 189.367C209.671 185.577 209.384 181.652 208.143 177.978L210.048 177.365ZM178.334 161.672C187.056 158.725 197.082 160.725 204.033 167.677C205.893 169.536 207.397 171.617 208.548 173.833L206.614 174.456C205.576 172.529 204.246 170.718 202.619 169.091C196.103 162.575 186.651 160.787 178.523 163.725L178.334 161.672ZM164.201 191.546C165.202 195.142 167.094 198.54 169.875 201.395L168.448 202.797C165.379 199.647 163.304 195.89 162.228 191.918L164.201 191.546ZM168.678 167.677C170.583 165.772 172.719 164.24 174.996 163.078L175.194 165.237C173.365 166.253 171.645 167.538 170.092 169.091C164.551 174.632 162.429 182.298 163.725 189.466L161.759 189.835C160.346 182.04 162.652 173.703 168.678 167.677Z" fill="#D4AF37"/>
</g>
</g>
<g clip-path="url(#clip10_6648_7982)">
<rect x="264" y="121" width="50" height="50" rx="25" fill="black"/>
<path d="M292.155 145.991L294.563 143.583L295.903 144.923C296.154 145.178 296.491 145.318 296.847 145.32H296.851C297.207 145.32 297.544 145.18 297.797 144.927L299.107 143.615C299.36 143.364 299.5 143.029 299.501 142.673C299.501 142.314 299.362 141.977 299.109 141.722L297.767 140.38L300.025 138.121C300.141 138.133 300.254 138.139 300.372 138.139C302.339 138.139 303.94 136.537 303.94 134.569C303.94 132.601 302.339 131 300.372 131C298.404 131 296.801 132.601 296.801 134.569C296.801 134.687 296.809 134.803 296.819 134.916L294.563 137.173L293.219 135.828C292.966 135.575 292.629 135.436 292.273 135.436C292.273 135.436 292.271 135.436 292.269 135.436C291.912 135.436 291.576 135.577 291.329 135.828L290.011 137.145C289.497 137.665 289.497 138.511 290.015 139.035L291.357 140.378L288.949 142.786L286.583 140.42L287.93 139.073C288.443 138.553 288.443 137.707 287.926 137.183L286.615 135.874C286.362 135.619 286.026 135.478 285.667 135.478C285.307 135.478 284.97 135.619 284.722 135.87L283.379 137.213L281.121 134.954C281.131 134.838 281.139 134.725 281.139 134.607C281.139 132.639 279.538 131.038 277.569 131.038C275.599 131.038 274 132.639 274 134.607C274 136.575 275.601 138.177 277.569 138.177C277.684 138.177 277.8 138.169 277.915 138.159L280.173 140.418L278.831 141.76C278.576 142.015 278.437 142.352 278.439 142.71C278.439 143.069 278.58 143.404 278.831 143.651L280.143 144.965C280.396 145.218 280.733 145.358 281.089 145.358H281.093C281.45 145.358 281.786 145.216 282.033 144.965L283.377 143.621L285.745 145.989L274.155 157.582L274.002 160.859L277.148 161L288.951 149.194L300.583 160.829L303.859 160.982L304 157.835L292.155 145.987V145.991ZM300.374 132.791C301.353 132.791 302.15 133.587 302.15 134.567C302.15 135.548 301.353 136.344 300.374 136.344C300.224 136.344 300.077 136.326 299.94 136.292C299.86 136.273 299.782 136.247 299.709 136.217C299.187 136.006 298.791 135.559 298.651 135.002V134.998C298.615 134.86 298.597 134.715 298.597 134.567C298.597 133.587 299.396 132.791 300.376 132.791H300.374ZM297.536 136.737C297.729 136.99 297.954 137.215 298.207 137.406L296.502 139.111L295.831 138.44L297.534 136.737H297.536ZM275.794 134.609C275.794 133.629 276.591 132.833 277.571 132.833C278.55 132.833 279.349 133.629 279.349 134.609C279.349 134.759 279.331 134.906 279.297 135.044C279.277 135.123 279.251 135.201 279.221 135.275C279.01 135.796 278.564 136.191 278.011 136.332C277.865 136.368 277.718 136.386 277.571 136.386C276.591 136.386 275.794 135.589 275.794 134.609ZM279.739 137.448C279.992 137.255 280.217 137.029 280.41 136.777L282.113 138.48L281.442 139.151L279.739 137.448ZM281.091 143.378L280.422 142.708L281.444 141.687L284.648 138.482L285.669 137.46L286.341 138.129L285.319 139.151L282.115 142.356L281.093 143.378H281.091ZM285.317 141.687L287.683 144.053L287.012 144.724L284.646 142.358L285.317 141.687ZM291.606 138.087L292.277 137.418L297.524 142.667L296.855 143.336L295.833 142.314L292.629 139.109L291.608 138.087H291.606ZM276.439 159.177L275.878 159.152L275.916 158.361L287.016 147.258L290.22 144.053L292.627 141.645L293.298 142.316L290.891 144.724L288.754 146.861L276.441 159.177H276.439ZM302.15 159.11L301.359 159.072L290.218 147.927L290.889 147.256L302.176 158.544L302.15 159.106V159.11Z" fill="#D4AF37"/>
<g clip-path="url(#clip11_6648_7982)">
<path d="M266.183 148.913C267.614 160.24 277.284 169 289 169C292.958 169 296.681 167.999 299.934 166.238L301.219 167.812C297.606 169.841 293.439 171 289 171C276.172 171 265.602 161.338 264.167 148.895L266.183 148.913ZM311.402 157.104C309.554 160.825 306.808 164.02 303.445 166.405L302.177 164.852C305.329 162.644 307.901 159.666 309.622 156.19L311.402 157.104ZM300.073 123.582C308.325 127.666 314 136.169 314 146C314 148.63 313.592 151.165 312.839 153.546L311.031 152.618C311.66 150.522 312 148.301 312 146C312 136.785 306.581 128.838 298.756 125.167L300.073 123.582ZM268.956 134.713C267.122 137.963 266.057 141.704 266.004 145.689L264.004 145.671C264.061 141.274 265.25 137.15 267.298 133.58L268.956 134.713ZM289 121C291.694 121 294.288 121.427 296.719 122.216L295.333 123.883C293.321 123.308 291.197 123 289 123C281.163 123 274.242 126.92 270.09 132.905L268.439 131.776C272.952 125.265 280.478 121 289 121Z" fill="#D4AF37"/>
</g>
</g>
<g clip-path="url(#clip12_6648_7982)">
<rect x="120" y="313" width="50" height="50" rx="25" transform="rotate(-90 120 313)" fill="black"/>
<path d="M138.526 273.745C136.351 271.418 132.811 271.418 130.636 273.745C129.581 274.873 129 276.371 129 277.967C129 279.56 129.579 281.06 130.634 282.186C130.888 282.458 131.164 282.7 131.457 282.912C129.794 285.249 129.958 288.61 131.954 290.745C133.009 291.873 134.409 292.492 135.9 292.492C137.392 292.492 138.792 291.873 139.847 290.745C140.491 290.056 140.962 289.208 141.228 288.291L155.542 303.604C156.036 304.132 156.841 304.132 157.335 303.604L158.549 302.305C158.796 302.041 158.92 301.693 158.92 301.346C158.92 300.998 158.796 300.651 158.549 300.386L158.057 299.86L160.415 297.338C160.802 296.923 161 296.407 161 295.917C161 295.515 160.865 295.128 160.592 294.836L158.903 293.029C158.296 292.381 157.269 292.464 156.564 293.218L154.206 295.74L153.345 294.82L154.529 293.553C154.548 293.533 154.569 293.509 154.594 293.478C154.888 293.127 155.034 292.688 155.034 292.238C155.034 291.72 154.841 291.194 154.459 290.785L153.383 289.635C153.039 289.267 152.591 289.049 152.118 289.023C151.62 288.995 151.136 289.19 150.794 289.556L149.61 290.822L144.237 285.074C145.096 284.79 145.886 284.288 146.532 283.599C147.587 282.471 148.166 280.973 148.166 279.377C148.166 277.782 147.587 276.284 146.532 275.156C144.537 273.022 141.395 272.845 139.21 274.625C139.012 274.312 138.786 274.018 138.532 273.745L138.526 273.745ZM152.167 290.927L153.243 292.078C153.319 292.159 153.319 292.246 153.315 292.257L153.281 292.295L152.129 293.527L150.809 292.114L151.989 290.85C152.004 290.842 152.086 290.842 152.164 290.925L152.167 290.927ZM131.842 280.895C131.111 280.113 130.71 279.074 130.71 277.969C130.71 276.863 131.113 275.822 131.844 275.04C133.353 273.426 135.807 273.426 137.316 275.04C137.584 275.327 137.808 275.646 137.983 275.993C137.969 276.016 137.956 276.038 137.943 276.06C137.903 276.123 137.865 276.188 137.827 276.253C137.798 276.302 137.772 276.349 137.745 276.398C137.707 276.467 137.673 276.538 137.639 276.607C137.616 276.654 137.591 276.703 137.569 276.749C137.534 276.826 137.502 276.904 137.47 276.983C137.453 277.028 137.432 277.07 137.415 277.115C137.377 277.213 137.342 277.312 137.31 277.414C137.303 277.438 137.293 277.461 137.285 277.485C137.28 277.485 137.276 277.485 137.27 277.487C137.183 277.495 137.095 277.507 137.008 277.524C136.989 277.528 136.968 277.532 136.949 277.536C136.871 277.552 136.795 277.568 136.719 277.591C136.706 277.595 136.695 277.597 136.681 277.601C136.596 277.625 136.512 277.654 136.431 277.686C136.412 277.694 136.393 277.7 136.374 277.709C136.298 277.739 136.223 277.772 136.149 277.808C136.14 277.812 136.132 277.816 136.123 277.82C136.043 277.861 135.965 277.906 135.887 277.952C135.868 277.963 135.851 277.975 135.832 277.987C135.758 278.034 135.688 278.083 135.617 278.133C135.614 278.137 135.608 278.139 135.604 278.144C135.53 278.198 135.46 278.257 135.389 278.32C135.372 278.335 135.355 278.351 135.34 278.365C135.27 278.428 135.201 278.495 135.137 278.564C135.072 278.633 135.009 278.706 134.95 278.782C134.935 278.8 134.922 278.818 134.907 278.837C134.85 278.912 134.795 278.987 134.741 279.066C134.738 279.07 134.736 279.076 134.732 279.08C134.683 279.156 134.637 279.233 134.593 279.312C134.584 279.33 134.572 279.349 134.563 279.367C134.519 279.45 134.476 279.536 134.438 279.623C134.436 279.629 134.434 279.635 134.43 279.641C134.394 279.725 134.362 279.81 134.331 279.897C134.325 279.914 134.32 279.928 134.314 279.944C134.284 280.038 134.255 280.131 134.23 280.227C134.23 280.231 134.229 280.235 134.227 280.241C134.204 280.334 134.185 280.428 134.168 280.523C134.166 280.536 134.164 280.546 134.162 280.558C134.147 280.658 134.134 280.759 134.124 280.861L134.124 280.865C134.101 280.873 134.08 280.883 134.058 280.891C133.964 280.926 133.869 280.962 133.778 281.003C133.736 281.021 133.697 281.042 133.655 281.062C133.583 281.097 133.508 281.131 133.438 281.168C133.393 281.192 133.349 281.217 133.303 281.243C133.237 281.28 133.172 281.316 133.108 281.357C133.062 281.385 133.016 281.416 132.971 281.444C132.91 281.485 132.849 281.525 132.79 281.568C132.769 281.582 132.749 281.597 132.728 281.611C132.403 281.424 132.104 281.184 131.837 280.897L131.842 280.895ZM138.862 282.536L138.851 282.548C138.159 283.281 137.037 283.279 136.347 282.542C136.066 282.241 135.893 281.863 135.842 281.444C135.769 280.855 135.952 280.276 136.345 279.857C136.738 279.438 137.28 279.239 137.833 279.316C138.224 279.371 138.577 279.556 138.857 279.857C139.544 280.593 139.548 281.796 138.862 282.536ZM135.897 290.665C134.863 290.665 133.892 290.234 133.161 289.454C132.407 288.647 132.028 287.586 132.028 286.525C132.028 285.464 132.405 284.405 133.159 283.599C133.229 283.523 133.294 283.46 133.355 283.405L133.398 283.365C133.469 283.302 133.541 283.241 133.613 283.184C133.638 283.166 133.662 283.147 133.687 283.129C133.738 283.09 133.79 283.054 133.843 283.017C133.871 282.997 133.902 282.979 133.93 282.96C133.982 282.928 134.033 282.897 134.086 282.867C134.116 282.851 134.145 282.832 134.175 282.816C134.232 282.786 134.291 282.757 134.348 282.731C134.369 282.721 134.388 282.71 134.409 282.702C134.419 282.723 134.428 282.743 134.438 282.763C134.462 282.822 134.489 282.879 134.517 282.936C134.536 282.975 134.557 283.015 134.578 283.054C134.609 283.111 134.643 283.168 134.675 283.223C134.696 283.259 134.719 283.294 134.741 283.33C134.781 283.389 134.823 283.448 134.865 283.505C134.886 283.533 134.905 283.564 134.928 283.59C134.994 283.674 135.063 283.757 135.137 283.834C135.209 283.912 135.281 283.983 135.357 284.052C135.382 284.074 135.408 284.094 135.433 284.115C135.484 284.159 135.536 284.204 135.591 284.243C135.621 284.267 135.655 284.288 135.686 284.31C135.735 284.344 135.785 284.379 135.834 284.412C135.868 284.434 135.904 284.452 135.94 284.472C135.99 284.501 136.037 284.529 136.089 284.556C136.127 284.574 136.165 284.592 136.203 284.609C136.252 284.631 136.301 284.655 136.351 284.676C136.391 284.692 136.431 284.706 136.47 284.72C136.52 284.739 136.569 284.757 136.62 284.773C136.662 284.785 136.702 284.798 136.744 284.808C136.793 284.822 136.845 284.834 136.894 284.846C136.936 284.857 136.98 284.863 137.021 284.871C137.071 284.879 137.122 284.889 137.173 284.895C137.217 284.901 137.259 284.905 137.303 284.909C137.354 284.914 137.403 284.918 137.455 284.92C137.498 284.92 137.542 284.922 137.586 284.922C137.635 284.922 137.686 284.922 137.736 284.92C137.779 284.92 137.823 284.916 137.869 284.911C137.918 284.907 137.968 284.901 138.017 284.895C138.061 284.889 138.106 284.883 138.15 284.875C138.199 284.867 138.247 284.857 138.296 284.846C138.34 284.836 138.384 284.826 138.427 284.816C138.475 284.804 138.522 284.79 138.57 284.775C138.613 284.761 138.657 284.749 138.701 284.733C138.748 284.716 138.794 284.698 138.84 284.68C138.883 284.661 138.925 284.645 138.967 284.625C139.012 284.605 139.056 284.582 139.102 284.56C139.144 284.538 139.185 284.517 139.227 284.495C139.239 284.489 139.248 284.485 139.259 284.479C139.29 284.535 139.32 284.592 139.347 284.649C139.353 284.661 139.36 284.676 139.366 284.688C139.408 284.779 139.448 284.875 139.484 284.97C139.495 284.999 139.505 285.027 139.514 285.056C139.541 285.129 139.563 285.204 139.586 285.279C139.594 285.308 139.603 285.334 139.611 285.363C139.638 285.46 139.66 285.558 139.681 285.657C139.687 285.684 139.691 285.708 139.695 285.735C139.71 285.814 139.721 285.893 139.731 285.972C139.734 286.005 139.738 286.037 139.742 286.07C139.752 286.17 139.759 286.269 139.763 286.371C139.763 286.375 139.763 286.381 139.763 286.385C139.801 287.529 139.389 288.645 138.632 289.454C137.901 290.236 136.93 290.665 135.897 290.665ZM157.77 294.511C157.789 294.49 157.806 294.474 157.823 294.462L159.248 295.986C159.237 296.004 159.222 296.023 159.203 296.043L156.843 298.565L155.41 297.033L157.768 294.511L157.77 294.511ZM148.394 292.114L149.352 293.139L152.994 297.035L155.16 299.352L157.025 301.348L156.436 301.978L141.452 285.948C141.45 285.92 141.444 285.891 141.442 285.865C141.439 285.82 141.431 285.775 141.427 285.731C141.412 285.615 141.395 285.501 141.374 285.385C141.366 285.344 141.361 285.304 141.351 285.263C141.347 285.241 141.344 285.216 141.338 285.194C141.357 285.198 141.378 285.202 141.397 285.206C141.437 285.216 141.479 285.222 141.518 285.231C141.621 285.251 141.726 285.269 141.83 285.285C141.874 285.292 141.919 285.298 141.963 285.304C141.988 285.306 142.014 285.312 142.039 285.314L148.394 292.112L148.394 292.114ZM145.316 276.451C146.048 277.233 146.449 278.272 146.449 279.377C146.449 280.483 146.046 281.521 145.314 282.304C144.549 283.123 143.529 283.554 142.444 283.513C142.345 283.509 142.246 283.501 142.149 283.489C142.123 283.485 142.094 283.483 142.068 283.479C141.988 283.466 141.906 283.454 141.828 283.436C141.809 283.432 141.792 283.43 141.773 283.426C141.676 283.403 141.579 283.377 141.484 283.347C141.467 283.34 141.45 283.334 141.431 283.328C141.347 283.3 141.266 283.269 141.184 283.237C141.169 283.231 141.152 283.225 141.137 283.216C140.975 283.147 140.817 283.062 140.665 282.971C140.665 282.968 140.667 282.964 140.669 282.96C140.711 282.877 140.751 282.792 140.785 282.706C140.785 282.702 140.789 282.696 140.791 282.692C140.823 282.611 140.853 282.527 140.882 282.444C140.891 282.414 140.899 282.383 140.909 282.355C140.926 282.296 140.943 282.237 140.958 282.178C140.967 282.143 140.975 282.107 140.983 282.07C140.994 282.015 141.007 281.96 141.017 281.906C141.024 281.867 141.03 281.83 141.036 281.792C141.043 281.737 141.051 281.684 141.057 281.629C141.061 281.591 141.064 281.552 141.068 281.513C141.072 281.458 141.076 281.404 141.078 281.347C141.078 281.31 141.081 281.271 141.081 281.235C141.081 281.223 141.081 281.21 141.081 281.196C141.081 281.172 141.08 281.147 141.078 281.123C141.078 281.046 141.074 280.971 141.068 280.893C141.064 280.855 141.062 280.816 141.057 280.778C141.049 280.702 141.04 280.629 141.026 280.554C141.021 280.517 141.015 280.483 141.009 280.446C140.992 280.359 140.973 280.273 140.95 280.188C140.945 280.168 140.941 280.145 140.935 280.125C140.905 280.017 140.871 279.912 140.833 279.808C140.823 279.784 140.814 279.761 140.804 279.739C140.772 279.66 140.739 279.58 140.701 279.503C140.686 279.469 140.667 279.436 140.65 279.404C140.616 279.337 140.58 279.269 140.54 279.204C140.519 279.17 140.5 279.137 140.479 279.103C140.437 279.036 140.392 278.973 140.346 278.908C140.325 278.879 140.306 278.851 140.285 278.822C140.217 278.733 140.143 278.646 140.065 278.562C139.991 278.483 139.915 278.41 139.837 278.339C139.81 278.314 139.782 278.294 139.755 278.272C139.702 278.227 139.649 278.182 139.594 278.141C139.562 278.117 139.527 278.095 139.493 278.07C139.442 278.034 139.389 277.999 139.335 277.967C139.299 277.944 139.263 277.924 139.225 277.904C139.172 277.873 139.119 277.845 139.064 277.818C139.045 277.808 139.026 277.796 139.007 277.788C139.014 277.765 139.024 277.745 139.033 277.723C139.058 277.66 139.085 277.599 139.113 277.538C139.128 277.505 139.144 277.475 139.161 277.442C139.189 277.385 139.218 277.331 139.248 277.276C139.265 277.245 139.282 277.215 139.301 277.182C139.335 277.125 139.37 277.07 139.406 277.013C139.423 276.987 139.438 276.963 139.455 276.936C139.51 276.857 139.565 276.78 139.624 276.705L139.666 276.652C139.715 276.589 139.772 276.522 139.841 276.448C141.349 274.835 143.804 274.835 145.314 276.448L145.316 276.451Z" fill="#D4AF37"/>
<g clip-path="url(#clip13_6648_7982)">
<path d="M147.913 310.817C159.24 309.386 168 299.716 168 288C168 284.042 166.999 280.319 165.238 277.066L166.812 275.781C168.841 279.394 170 283.561 170 288C170 300.828 160.338 311.398 147.895 312.833L147.913 310.817ZM156.104 265.598C159.825 267.446 163.02 270.192 165.405 273.555L163.852 274.823C161.644 271.671 158.666 269.099 155.19 267.378L156.104 265.598ZM122.582 276.927C126.666 268.675 135.169 263 145 263C147.63 263 150.165 263.408 152.546 264.161L151.618 265.969C149.522 265.34 147.301 265 145 265C135.785 265 127.838 270.419 124.167 278.244L122.582 276.927ZM133.713 308.044C136.963 309.878 140.704 310.943 144.689 310.996L144.671 312.996C140.274 312.939 136.15 311.75 132.58 309.702L133.713 308.044ZM120 288C120 285.306 120.427 282.712 121.216 280.281L122.883 281.667C122.308 283.679 122 285.803 122 288C122 295.837 125.92 302.758 131.905 306.91L130.776 308.561C124.265 304.048 120 296.522 120 288Z" fill="#D4AF37"/>
</g>
</g>
<g clip-path="url(#clip14_6648_7982)">
<rect x="391" y="150" width="50" height="50" rx="25" transform="rotate(45 391 150)" fill="black"/>
<path d="M392.116 201.13L390.437 199.451C391.384 198.486 391.536 197.021 390.921 195.825L392.925 193.82C396.564 194.445 400.202 193.355 402.797 190.761C407.273 186.285 407.059 178.786 402.317 174.044C397.576 169.302 390.077 169.089 385.601 173.565C383.012 176.154 381.918 179.786 382.532 183.417L380.522 185.426C379.327 184.809 377.861 184.963 376.896 185.91L375.223 184.236C374.811 183.825 374.162 183.807 373.774 184.195L371.201 186.768L389.586 205.153L392.159 202.58C392.547 202.191 392.528 201.542 392.117 201.131L392.116 201.13ZM389.859 194.53L381.817 186.488L382.857 185.449L390.898 193.49L389.859 194.53ZM386.779 174.743C390.642 170.881 397.114 171.066 401.205 175.157C405.295 179.248 405.481 185.719 401.618 189.582C398.979 192.221 395.087 193.059 391.421 191.789L384.558 184.926C383.299 181.266 384.142 177.381 386.779 174.743ZM380.259 187.156L389.191 196.088C389.804 196.701 389.834 197.671 389.265 198.269L378.078 187.082C378.676 186.513 379.646 186.543 380.259 187.156ZM389.519 202.86L373.491 186.832L374.543 185.78L390.571 201.808L389.519 202.86Z" fill="#D4AF37"/>
<path d="M390.319 186.01L394.627 182.88L399.122 186.265L395.726 181.783L398.871 177.489L394.562 180.622L390.066 177.238L393.462 181.72L390.319 186.01Z" fill="#D4AF37"/>
<g clip-path="url(#clip15_6648_7982)">
<path d="M372.806 171.282C365.809 180.304 366.452 193.336 374.737 201.62C377.535 204.419 380.876 206.344 384.421 207.398L384.216 209.42C380.227 208.3 376.461 206.173 373.322 203.034C364.252 193.963 363.609 179.657 371.394 169.844L372.806 171.282ZM398.99 209.049C395.052 210.373 390.85 210.691 386.786 210L386.987 208.004C390.778 208.672 394.702 208.385 398.376 207.144L398.99 209.049ZM414.682 177.335C417.629 186.057 415.629 196.083 408.678 203.034C406.818 204.894 404.737 206.398 402.521 207.549L401.899 205.615C403.826 204.577 405.637 203.247 407.264 201.62C413.779 195.104 415.567 185.652 412.63 177.524L414.682 177.335ZM384.808 163.202C381.213 164.203 377.815 166.095 374.959 168.876L373.558 167.449C376.707 164.38 380.464 162.305 384.437 161.229L384.808 163.202ZM408.678 167.679C410.583 169.584 412.115 171.72 413.276 173.997L411.117 174.195C410.101 172.366 408.817 170.646 407.264 169.093C401.722 163.552 394.057 161.43 386.888 162.726L386.519 160.76C394.315 159.347 402.652 161.653 408.678 167.679Z" fill="#D4AF37"/>
</g>
</g>
<defs>
<clipPath id="clip0_6648_7982">
<rect x="459" y="263" width="50" height="50" rx="25" transform="rotate(90 459 263)" fill="white"/>
</clipPath>
<clipPath id="clip1_6648_7982">
<rect width="50" height="50" fill="white" transform="translate(459 263) rotate(90)"/>
</clipPath>
<clipPath id="clip2_6648_7982">
<rect x="314" y="458" width="50" height="50" rx="25" transform="rotate(-180 314 458)" fill="white"/>
</clipPath>
<clipPath id="clip3_6648_7982">
<rect width="50" height="50" fill="white" transform="translate(314 458) rotate(-180)"/>
</clipPath>
<clipPath id="clip4_6648_7982">
<rect x="426" y="390" width="50" height="50" rx="25" transform="rotate(135 426 390)" fill="white"/>
</clipPath>
<clipPath id="clip5_6648_7982">
<rect width="50" height="50" fill="white" transform="translate(426 390) rotate(135)"/>
</clipPath>
<clipPath id="clip6_6648_7982">
<rect x="186" y="426" width="50" height="50" rx="25" transform="rotate(-135 186 426)" fill="white"/>
</clipPath>
<clipPath id="clip7_6648_7982">
<rect width="50" height="50" fill="white" transform="translate(186 426) rotate(-135)"/>
</clipPath>
<clipPath id="clip8_6648_7982">
<rect x="151" y="185.355" width="50" height="50" rx="25" transform="rotate(-45 151 185.355)" fill="white"/>
</clipPath>
<clipPath id="clip9_6648_7982">
<rect width="50" height="50" fill="white" transform="translate(151 185.355) rotate(-45)"/>
</clipPath>
<clipPath id="clip10_6648_7982">
<rect x="264" y="121" width="50" height="50" rx="25" fill="white"/>
</clipPath>
<clipPath id="clip11_6648_7982">
<rect width="50" height="50" fill="white" transform="translate(264 121)"/>
</clipPath>
<clipPath id="clip12_6648_7982">
<rect x="120" y="313" width="50" height="50" rx="25" transform="rotate(-90 120 313)" fill="white"/>
</clipPath>
<clipPath id="clip13_6648_7982">
<rect width="50" height="50" fill="white" transform="translate(120 313) rotate(-90)"/>
</clipPath>
<clipPath id="clip14_6648_7982">
<rect x="391" y="150" width="50" height="50" rx="25" transform="rotate(45 391 150)" fill="white"/>
</clipPath>
<clipPath id="clip15_6648_7982">
<rect width="50" height="50" fill="white" transform="translate(391 150) rotate(45)"/>
</clipPath>
</defs>
</svg>
