<?xml version="1.0" encoding="UTF-8" standalone="no"?>
<!-- Created with Inkscape (http://www.inkscape.org/) -->

<svg
   width="20.695885mm"
   height="20.299046mm"
   viewBox="0 0 78.220669 76.720803"
   version="1.1"
   id="svg1"
   xml:space="preserve"
   xmlns="http://www.w3.org/2000/svg"
   xmlns:svg="http://www.w3.org/2000/svg"><defs
     id="defs1" /><g
     id="layer5"
     style="display:inline"
     transform="translate(-357.51819,-606.10309)"><path
       d="m 435.73886,644.43754 c 0,0.36429 -0.29531,0.65916 -0.65916,0.65916 h -35.57976 l 22.01861,10.26797 c 0.33003,0.1538 0.47284,0.54623 0.31904,0.87625 -0.1538,0.32958 -0.54622,0.4724 -0.87581,0.31859 l -21.82307,-10.17612 22.98715,26.77688 c 0.2373,0.27641 0.20566,0.69256 -0.0703,0.92985 -0.27641,0.23686 -0.69256,0.20522 -0.92941,-0.0707 l -23.05219,-26.8529 6.74014,26.29482 c 0.0905,0.35243 -0.12216,0.71189 -0.47503,0.80241 -0.35243,0.0905 -0.71145,-0.12216 -0.80198,-0.47503 l -6.80386,-26.54047 -7.02534,35.04629 c -0.0712,0.35682 -0.41879,0.58797 -0.77562,0.51633 -0.35682,-0.0717 -0.58841,-0.41878 -0.51678,-0.77561 l 6.90801,-34.45962 -17.88497,23.61905 c -0.21977,0.29004 -0.63333,0.34716 -0.92353,0.12745 -0.29025,-0.21972 -0.34765,-0.63323 -0.12788,-0.92371 l 18.53297,-24.47465 -22.22318,11.3235 c -0.3243,0.16524 -0.72125,0.036 -0.88661,-0.28827 -0.16523,-0.32431 -0.0363,-0.72112 0.28796,-0.88635 l 21.5413,-10.97591 h -35.46221 c -0.36403,0 -0.65916,-0.29487 -0.65916,-0.65916 9e-5,-0.36386 0.29517,-0.65917 0.65916,-0.65917 h 35.37521 L 371.57597,633.5311 c -0.3298,-0.15381 -0.47257,-0.54623 -0.31886,-0.87581 0.15389,-0.33002 0.5464,-0.47284 0.87634,-0.31903 l 22.02727,10.27105 -23.12715,-26.93816 c -0.23713,-0.27597 -0.20531,-0.69212 0.0708,-0.92942 0.27624,-0.2373 0.69239,-0.20521 0.92951,0.0707 l 23.35948,27.20973 -6.80693,-26.54881 c -0.0905,-0.35244 0.12216,-0.71146 0.47503,-0.80198 0.35243,-0.0905 0.71145,0.12216 0.80198,0.47459 l 6.71245,26.18145 6.95416,-34.69254 c 0.0717,-0.35682 0.41879,-0.58841 0.77561,-0.51678 0.35683,0.0717 0.58841,0.41879 0.51678,0.77605 l -7.07543,35.29809 18.69777,-24.69218 c 0.21971,-0.29003 0.63323,-0.34716 0.9237,-0.12744 0.29003,0.21972 0.34716,0.63323 0.12744,0.92326 l -18.05883,23.84846 21.2127,-10.80805 c 0.3243,-0.16523 0.72112,-0.0365 0.88634,0.28783 0.16523,0.32431 0.0365,0.72157 -0.28783,0.88679 l -22.11881,11.26946 h 35.95021 c 0.36386,0 0.65872,0.29531 0.65916,0.65917 z"
       fill="#d4af37"
       id="path3"
       style="stroke-width:0.439441" /></g></svg>
