<?xml version="1.0" encoding="UTF-8" standalone="no"?>
<!-- Created with Inkscape (http://www.inkscape.org/) -->

<svg
   width="47.096096mm"
   height="46.192863mm"
   viewBox="0 0 47.096096 46.192863"
   version="1.1"
   id="svg1"
   xml:space="preserve"
   xmlns="http://www.w3.org/2000/svg"
   xmlns:svg="http://www.w3.org/2000/svg"><defs
     id="defs1" /><g
     id="layer15"
     transform="translate(-116.70209,-108.28805)"><g
       id="g10"
       transform="translate(31.462641,-34.648792)"
       style="fill:#d4af38;fill-opacity:0.792157"><path
         d="m 218.001,645.235 c 0,0.829 -0.672,1.5 -1.5,1.5 h -80.966 l 50.106,23.366 c 0.751,0.35 1.076,1.243 0.726,1.994 -0.35,0.75 -1.244,1.075 -1.994,0.725 l -49.661,-23.157 52.31,60.934 c 0.54,0.629 0.469,1.576 -0.159,2.116 -0.629,0.539 -1.577,0.467 -2.116,-0.161 l -52.458,-61.107 15.339,59.837 c 0.206,0.802 -0.279,1.62 -1.082,1.826 -0.802,0.206 -1.619,-0.278 -1.825,-1.081 l -15.483,-60.396 -15.987,79.752 c -0.162,0.812 -0.953,1.338 -1.765,1.175 -0.812,-0.163 -1.338,-0.953 -1.175,-1.765 l 15.72,-78.417 -40.6999,53.748 c -0.5001,0.66 -1.4412,0.79 -2.1016,0.29 -0.6605,-0.5 -0.7911,-1.441 -0.291,-2.102 l 42.1745,-55.695 -50.572,25.768 c -0.738,0.376 -1.6413,0.082 -2.0176,-0.656 -0.376,-0.738 -0.0827,-1.641 0.6553,-2.017 L 122.199,646.735 H 41.5 c -0.8284,0 -1.5,-0.671 -1.5,-1.5 2e-4,-0.828 0.6717,-1.5 1.5,-1.5 h 80.501 L 71.9902,620.416 c -0.7505,-0.35 -1.0754,-1.243 -0.7256,-1.993 0.3502,-0.751 1.2434,-1.076 1.9942,-0.726 L 123.385,641.07 70.7559,579.769 c -0.5396,-0.628 -0.4672,-1.575 0.1611,-2.115 0.6286,-0.54 1.5756,-0.467 2.1152,0.161 l 53.1568,61.919 -15.49,-60.415 c -0.206,-0.802 0.279,-1.619 1.082,-1.825 0.802,-0.206 1.618,0.278 1.824,1.08 l 15.275,59.579 15.825,-78.947 c 0.163,-0.812 0.953,-1.339 1.765,-1.176 0.812,0.163 1.339,0.953 1.176,1.766 l -16.1,80.325 42.548,-56.19 c 0.5,-0.66 1.442,-0.79 2.103,-0.29 0.66,0.5 0.789,1.441 0.289,2.101 l -41.095,54.27 48.272,-24.595 c 0.738,-0.376 1.641,-0.083 2.017,0.655 0.376,0.738 0.083,1.642 -0.655,2.018 l -50.334,25.645 h 81.81 c 0.828,0 1.499,0.672 1.5,1.5 z"
         fill="#d4af37"
         id="path1"
         style="fill:#d4af38;fill-opacity:0.792157"
         transform="matrix(0.26458333,0,0,0.26458333,74.656119,-4.7007632)" /></g></g></svg>
