<?xml version="1.0" encoding="UTF-8" standalone="no"?>
<!-- Created with Inkscape (http://www.inkscape.org/) -->

<svg
   version="1.1"
   id="svg1"
   width="225.20316"
   height="219.94055"
   viewBox="0 0 225.20316 219.94055"
   xmlns="http://www.w3.org/2000/svg"
   xmlns:svg="http://www.w3.org/2000/svg">
  <defs
     id="defs1" />
  <g
     id="layer30"
     transform="translate(-426.75481,-509.57368)">
    <path
       id="path2-8"
       d="m 650.83795,602.88806 c 1.7506,-0.28267 1.3266,-2.90854 -0.424,-2.62587 l -105.5456,17.04866 72.9018,-51.62853 c 1.4517,-1.0172 -0.075,-3.19493 -1.526,-2.1776 l -72.8999,51.64547 40.2908,-70.38347 c 0.8597,-1.5472 -1.4611,-2.8368 -2.3208,-1.2896 l -40.4192,70.55187 3.2604,-103.07507 c 0.069,-1.7696 -2.5853,-1.87333 -2.6544,-0.104 l -3.2329,102.4904 -29.5055,-75.24173 c -0.6667,-1.64093 -3.128,-0.6408 -2.4612,1 l 29.5495,75.37573 -76.55364,-70.7672 c -1.2968,-1.20826 -3.1092,0.73694 -1.8124,1.9452 l 76.85464,71.02827 -79.9205,-23.2296 c -1.7,-0.49947 -2.44894,2.05053 -0.74894,2.55 l 79.68064,23.17533 -105.47597,17.02347 c -1.75053,0.28266 -1.32653,2.90853 0.424,2.62586 l 105.54737,-17.0488 -72.9031,51.62907 c -1.45174,1.01733 0.0747,3.19493 1.526,2.17773 l 72.9001,-51.64533 -40.291,70.3832 c -0.8598,1.5472 1.461,2.8368 2.3208,1.2896 l 40.419,-70.55107 -3.2605,103.07399 c -0.069,1.7696 2.5853,1.8732 2.6544,0.104 l 3.2329,-102.49039 29.5056,75.24214 c 0.6668,1.64093 3.128,0.6408 2.4614,-1 l -29.5494,-75.3756 76.5531,70.76666 c 1.2968,1.20827 3.1092,-0.73693 1.8124,-1.9452 l -76.8543,-71.02786 79.9204,23.22946 c 1.7,0.49934 2.449,-2.05066 0.749,-2.55 l -79.6812,-23.17533 105.4762,-17.02373 z"
       style="fill:#d4af37;fill-opacity:1;fill-rule:nonzero;stroke:none;stroke-width:1.33333" />
  </g>
</svg>
