<?xml version="1.0" encoding="UTF-8" standalone="no"?>
<!-- Created with Inkscape (http://www.inkscape.org/) -->

<svg
   version="1.1"
   id="svg1"
   width="225.20314"
   height="219.94057"
   viewBox="0 0 225.20314 219.94057"
   xmlns="http://www.w3.org/2000/svg"
   xmlns:svg="http://www.w3.org/2000/svg">
  <defs
     id="defs1" />
  <g
     id="layer22"
     transform="translate(-426.75482,-509.57367)">
    <path
       id="path2"
       d="m 427.8748,602.88805 c -1.75054,-0.28267 -1.32654,-2.90854 0.424,-2.62587 l 105.54559,17.04866 -72.90173,-51.62853 c -1.45173,-1.0172 0.0747,-3.19493 1.526,-2.1776 l 72.89987,51.64547 -40.2908,-70.38347 c -0.85974,-1.5472 1.46106,-2.8368 2.3208,-1.2896 l 40.4192,70.55187 -3.2604,-103.07507 c -0.0693,-1.7696 2.58533,-1.87333 2.6544,-0.104 l 3.23293,102.4904 29.50547,-75.24173 c 0.66666,-1.64093 3.128,-0.6408 2.4612,1 l -29.54947,75.37573 76.5536,-70.7672 c 1.2968,-1.20826 3.1092,0.73694 1.8124,1.9452 l -76.85467,71.02827 79.92053,-23.2296 c 1.7,-0.49947 2.44894,2.05053 0.74894,2.55 l -79.68067,23.17533 105.476,17.02347 c 1.75053,0.28266 1.32653,2.90853 -0.424,2.62586 l -105.54733,-17.0488 72.90306,51.62907 c 1.45174,1.01733 -0.0747,3.19493 -1.526,2.17773 l -72.90013,-51.64533 40.29107,70.3832 c 0.85973,1.5472 -1.46107,2.8368 -2.3208,1.2896 l -40.41907,-70.55107 3.26054,103.074 c 0.0693,1.7696 -2.58534,1.8732 -2.6544,0.104 l -3.23294,-102.4904 -29.5056,75.24214 c -0.6668,1.64093 -3.128,0.6408 -2.46133,-1 l 29.54933,-75.3756 -76.55306,70.76666 c -1.2968,1.20827 -3.1092,-0.73693 -1.8124,-1.9452 l 76.85426,-71.02786 -79.92039,23.22946 c -1.7,0.49934 -2.44894,-2.05066 -0.74894,-2.55 l 79.6812,-23.17533 -105.47626,-17.02373 z"
       style="fill:#d4af37;fill-opacity:1;fill-rule:nonzero;stroke:none;stroke-width:1.33333" />
  </g>
</svg>
