<?xml version="1.0" encoding="UTF-8" standalone="no"?>
<!-- Created with Inkscape (http://www.inkscape.org/) -->

<svg
   version="1.1"
   id="svg1"
   width="226.57941"
   height="202.50107"
   viewBox="0 0 226.57941 202.50107"
   xmlns="http://www.w3.org/2000/svg"
   xmlns:svg="http://www.w3.org/2000/svg">
  <defs
     id="defs1" />
  <g
     id="layer39"
     transform="translate(-415.7175,-435.19115)">
    <path
       id="path9"
       d="m 416.91815,526.98105 c -1.76133,-0.1696 -1.50693,-2.81173 0.25454,-2.64213 l 106.15293,10.22933 -71.334,-44.0332 c -1.51387,-0.91453 -0.142,-3.18533 1.37173,-2.2708 l 71.17427,43.96827 -52.12867,-74.33067 c -0.9828,-1.46453 1.21413,-2.9388 2.19693,-1.47427 l 52.45214,74.7148 -9.782,-94.47053 c -0.20734,-1.7532 2.42266,-2.06426 2.63,-0.31093 l 9.69946,93.84506 25.8588,-87.10306 c 0.53574,-1.68254 3.05947,-0.87894 2.52374,0.8036 l -25.91494,87.33613 68.2944,-72.03093 c 1.20707,-1.29214 3.1452,0.5184 1.93827,1.81053 l -68.472,72.1836 75.432,-27.8568 c 1.6544,-0.62093 2.58573,1.86067 0.93133,2.4816 l -75.35306,27.85707 106.25213,10.21426 c 1.76146,0.1696 1.50706,2.81174 -0.2544,2.64214 l -106.1548,-10.22934 71.33546,44.03373 c 1.51387,0.91454 0.14214,3.18534 -1.37173,2.2708 l -71.17466,-43.96826 52.12906,74.33066 c 0.9828,1.46467 -1.21413,2.93894 -2.19693,1.47427 l -52.45227,-74.71453 9.78214,94.47 c 0.20733,1.75333 -2.42254,2.06426 -2.62987,0.31106 l -9.69947,-93.84399 -25.85866,87.10199 c -0.5356,1.68254 -3.05947,0.87894 -2.52374,-0.8036 l 25.9148,-87.33639 -68.29413,72.03093 c -1.20707,1.29213 -3.1452,-0.5184 -1.93827,-1.81054 l 68.47147,-72.18319 -75.4316,27.85653 c -1.6544,0.62093 -2.58587,-1.86067 -0.93147,-2.4816 l 75.35374,-27.8572 z"
       style="fill:#d4af37;fill-opacity:1;fill-rule:nonzero;stroke:none;stroke-width:1.33333" />
  </g>
</svg>
