<?xml version="1.0" encoding="UTF-8" standalone="no"?>
<!-- Created with Inkscape (http://www.inkscape.org/) -->

<svg
   version="1.1"
   id="svg1"
   width="220.4068"
   height="214.00662"
   viewBox="0 0 220.4068 214.00662"
   xmlns="http://www.w3.org/2000/svg"
   xmlns:svg="http://www.w3.org/2000/svg">
  <defs
     id="defs1" />
  <g
     id="layer85"
     transform="translate(-424.94645,-437.34096)">
    <path
       id="path11"
       d="m 425.94159,516.95535 c -1.71276,-0.45102 -1.03612,-3.02029 0.67663,-2.56925 l 103.25368,27.20028 -66.0532,-57.32639 c -1.34569,-1.1506 0.37815,-3.16925 1.72583,-2.0184 l 65.9999,57.3094 -35.43098,-76.43558 c -0.71428,-1.61561 1.70922,-2.68723 2.42362,-1.07148 l 35.59438,76.6968 6.47596,-100.14461 c 0.0952,-1.7653 2.74259,-1.62345 2.64796,0.14205 l -6.45056,99.5446 37.4732,-75.28572 c 0.81474,-1.56933 3.16864,-0.34717 2.35392,1.22203 l -37.54099,75.44655 81.71469,-61.94332 c 1.40449,-1.07746 3.02053,1.02924 1.6162,2.10659 l -81.99923,62.13576 80.80656,-15.30605 c 1.7369,-0.33644 2.24164,2.26892 0.50475,2.60536 l -80.61802,15.29243 103.24223,27.1769 c 1.71274,0.45115 1.03614,3.02028 -0.67663,2.56925 l -103.25355,-27.20027 66.05308,57.32637 c 1.34556,1.15059 -0.37815,3.16926 -1.72584,2.01854 l -65.99964,-57.30938 35.43074,76.43529 c 0.71442,1.61563 -1.70922,2.68723 -2.42348,1.07149 l -35.59417,-76.69636 -6.47605,100.14421 c -0.0951,1.76529 -2.74272,1.62341 -2.64809,-0.14208 l 6.45068,-99.54553 -37.47359,75.28674 c -0.81474,1.56933 -3.16865,0.34718 -2.35393,-1.22202 l 37.54084,-75.4463 -81.71441,61.94309 c -1.40447,1.07745 -3.02053,-1.02925 -1.61606,-2.10657 l 81.99924,-62.1359 -80.80671,15.30615 c -1.73689,0.33646 -2.24163,-2.2689 -0.50474,-2.60535 l 80.618,-15.29229 z"
       style="display:inline;fill:#d4af37;fill-opacity:1;fill-rule:nonzero;stroke:none;stroke-width:1.33333" />
  </g>
</svg>
