<?xml version="1.0" encoding="UTF-8" standalone="no"?>
<!-- Created with Inkscape (http://www.inkscape.org/) -->

<svg
   version="1.1"
   id="svg1"
   width="230.14552"
   height="223.8096"
   viewBox="0 0 230.14552 223.8096"
   xmlns="http://www.w3.org/2000/svg"
   xmlns:svg="http://www.w3.org/2000/svg">
  <defs
     id="defs1" />
  <g
     id="layer95"
     transform="translate(-230.87246,-388.63739)">
    <path
       id="path8"
       d="m 274.69569,413.73231 68.526,81.57093 -20.84027,-81.55373 c -0.44013,-1.7224 2.14347,-2.38266 2.5836,-0.66026 l 20.80307,81.40826 20.65773,-104.7816 c 0.34387,-1.74426 2.96027,-1.22853 2.6164,0.51574 l -20.6652,104.81959 54.3448,-73.69946 c 1.05507,-1.4308 3.20133,0.15187 2.14627,1.58267 l -54.55854,73.98879 67.40053,-33.7936 c 1.5892,-0.7968 2.7844,1.58694 1.1952,2.38374 l -69.24826,34.72 110.0156,-0.998 c 1.7776,-0.016 1.80186,2.6504 0.024,2.66653 l -105.87347,0.96053 79.7408,37.71 c 1.60707,0.76 0.46707,3.1708 -1.14013,2.41067 l -81.54253,-38.56227 68.33733,81.34627 c 1.14346,1.36106 -0.89827,3.0764 -2.04174,1.7152 l -68.47706,-81.5124 20.78907,81.35266 c 0.44013,1.7224 -2.1436,2.38267 -2.58374,0.66027 l -20.8016,-81.4012 -20.6588,104.78693 c -0.34386,1.74414 -2.96026,1.2284 -2.61626,-0.51586 l 20.62946,-104.63773 -54.30733,73.64839 c -1.05507,1.4308 -3.20133,-0.15186 -2.14613,-1.58266 l 54.5584,-73.98893 -67.40013,33.79333 c -1.5892,0.7968 -2.7844,-1.58693 -1.1952,-2.38374 l 65.21346,-32.69706 -105.9632,0.9612 c -1.7776,0.016 -1.80186,-2.6504 -0.024,-2.66653 l 109.97627,-0.9976 -83.8612,-39.6588 c -1.60707,-0.76014 -0.46707,-3.1708 1.14013,-2.4108 l 81.5424,38.56226 -68.33746,-81.34653 c -1.14347,-1.3612 0.89826,-3.0764 2.04173,-1.7152 z"
       style="fill:#d4af37;fill-opacity:1;fill-rule:nonzero;stroke:none;stroke-width:1.33333" />
  </g>
</svg>
