<?xml version="1.0" encoding="UTF-8" standalone="no"?>
<!-- Created with Inkscape (http://www.inkscape.org/) -->

<svg
   version="1.1"
   id="svg1"
   width="227.96837"
   height="212.52216"
   viewBox="0 0 227.96837 212.52216"
   xmlns="http://www.w3.org/2000/svg"
   xmlns:svg="http://www.w3.org/2000/svg">
  <defs
     id="defs1" />
  <g
     id="layer37"
     transform="translate(-415.02301,-430.1806)">
    <path
       id="path7"
       d="m 416.31061,534.17661 c -1.7724,-0.056 -1.6876,-2.71506 0.0853,-2.65853 l 106.76013,3.41 -69.76613,-36.438 c -1.57587,-0.81173 -0.35827,-3.1756 1.2176,-2.36387 l 69.4484,36.29107 -63.96627,-78.27786 c -1.106,-1.382 0.96707,-3.04094 2.07294,-1.65894 l 64.48506,78.87787 -16.30346,-85.86613 c -0.34547,-1.73694 2.25986,-2.2552 2.60546,-0.51827 l 16.166,85.19986 22.21214,-98.96426 c 0.4048,-1.72427 2.9912,-1.1172 2.5864,0.60707 l -22.2804,99.29666 60.03519,-73.2948 c 1.1172,-1.37613 3.1812,0.29974 2.064,1.67574 l -60.08933,73.33893 70.94347,-32.48374 c 1.6088,-0.74253 2.72253,1.67054 1.11386,2.41307 l -71.02559,32.5388 107.02839,3.40507 c 1.7724,0.056 1.6876,2.71493 -0.0853,2.6584 l -106.76226,-3.41 69.76799,36.43853 c 1.57587,0.81173 0.35827,3.1756 -1.2176,2.36387 l -69.44919,-36.29134 63.96693,78.2784 c 1.10586,1.382 -0.96707,3.04093 -2.07307,1.65893 l -64.48533,-78.87799 16.30373,85.86586 c 0.3456,1.73693 -2.25973,2.25533 -2.60533,0.5184 l -16.166,-85.19746 -22.2116,98.96186 c -0.4048,1.72427 -2.9912,1.1172 -2.5864,-0.60707 l 22.2804,-99.29746 -60.03533,73.2952 c -1.1172,1.37613 -3.1812,-0.29974 -2.064,-1.67574 l 60.08866,-73.33853 -70.94306,32.4836 c -1.60867,0.74254 -2.72254,-1.67066 -1.11374,-2.4132 l 71.02614,-32.53893 z"
       style="fill:#d4af37;fill-opacity:1;fill-rule:nonzero;stroke:none;stroke-width:1.33333" />
  </g>
</svg>
