<?xml version="1.0" encoding="UTF-8" standalone="no"?>
<!-- Created with Inkscape (http://www.inkscape.org/) -->

<svg
   version="1.1"
   id="svg1"
   width="207.98601"
   height="203.99939"
   viewBox="0 0 207.98601 203.99939"
   xmlns="http://www.w3.org/2000/svg"
   xmlns:svg="http://www.w3.org/2000/svg">
  <defs
     id="defs1" />
  <g
     id="layer101"
     transform="translate(-241.9522,-398.5425)">
    <path
       id="path14"
       d="m 267.54546,460.37846 73.37399,36.44961 -42.64106,-54.92895 c -1.09013,-1.40426 1.01627,-3.03946 2.10653,-1.6352 l 42.31013,54.50325 -23.26613,-94.56831 c -0.4248,-1.72627 2.16467,-2.36333 2.58934,-0.63707 l 23.36799,94.94758 18.1016,-89.73678 c 0.35147,-1.74266 2.96547,-1.21533 2.614,0.52734 l -18.2288,90.36654 52.22694,-63.05801 c 1.134,-1.3692 3.18773,0.33173 2.05373,1.70093 l -53.25587,64.30078 99.1196,-47.31958 c 1.60427,-0.766 2.7532,1.64053 1.1488,2.4064 l -95.54786,45.61458 88.20653,0.4769 c 1.77773,0.013 1.76333,2.6763 -0.0147,2.6667 l -90.54933,-0.4899 73.41467,36.4696 c 1.59213,0.7909 0.40586,3.1791 -1.1864,2.3883 l -73.31334,-36.4194 42.518,54.7704 c 1.09014,1.4044 -1.01626,3.0396 -2.1064,1.6352 l -42.29413,-54.4818 23.25573,94.558 c 0.4248,1.7262 -2.16466,2.3633 -2.58946,0.637 l -23.31694,-94.8001 -18.09546,89.7069 c -0.3516,1.7427 -2.9656,1.2155 -2.61413,-0.5272 l 18.22866,-90.3669 -52.2268,63.058 c -1.13386,1.3691 -3.1876,-0.3319 -2.0536,-1.7011 l 50.2412,-60.6604 -95.24946,45.4719 c -1.6044,0.7659 -2.7532,-1.6407 -1.14894,-2.4065 l 99.25067,-47.382 -92.76453,-0.5019 c -1.77774,-0.013 -1.7632,-2.6763 0.0147,-2.6667 l 90.54867,0.4899 -73.41453,-36.46975 c -1.59214,-0.79093 -0.40587,-3.1792 1.18626,-2.38826 z"
       style="fill:#d4af37;fill-opacity:1;fill-rule:nonzero;stroke:none;stroke-width:1.33333" />
  </g>
</svg>
