<?xml version="1.0" encoding="UTF-8" standalone="no"?>
<!-- Created with Inkscape (http://www.inkscape.org/) -->

<svg
   version="1.1"
   id="svg1"
   width="218.582"
   height="209.01549"
   viewBox="0 0 218.582 209.01549"
   xmlns="http://www.w3.org/2000/svg"
   xmlns:svg="http://www.w3.org/2000/svg">
  <defs
     id="defs1" />
  <g
     id="layer84"
     transform="translate(-425.85886,-439.83653)">
    <path
       id="path10"
       d="m 426.8186,513.91976 c -1.69843,-0.4987 -0.9505,-3.04644 0.74806,-2.54771 L 529.94134,541.4382 466.6703,483.29532 c -1.31315,-1.18579 0.46476,-3.15557 1.77862,-1.9698 l 63.17878,58.09376 -34.95232,-79.60048 c -0.67699,-1.62979 1.76757,-2.64528 2.44456,-1.01562 l 35.14726,79.93711 8.88317,-97.6812 c 0.13686,-1.76098 2.77839,-1.55567 2.64153,0.20531 l -8.84367,97.06926 40.42739,-76.90387 c 0.85171,-1.54774 3.17329,-0.26997 2.32144,1.27775 l -40.51022,77.08839 82.2639,-58.85299 c 1.43149,-1.03891 2.98995,1.10849 1.55833,2.14736 l -82.51806,59.00796 80.40422,-13.05625 c 1.74355,-0.29192 2.18136,2.32346 0.43783,2.61526 l -80.26193,13.05894 102.41003,30.05269 c 1.69843,0.4987 0.95036,3.04642 -0.74807,2.54772 l -102.37402,-30.06604 63.27037,58.14277 c 1.31318,1.18566 -0.46611,3.15521 -1.77859,1.96967 l -63.1784,-58.09357 34.95209,79.60031 c 0.67699,1.62966 -1.76758,2.64527 -2.44469,1.01546 l -35.1469,-79.93678 -8.8834,97.68103 c -0.13686,1.76098 -2.77841,1.55567 -2.64152,-0.20544 l 8.84372,-97.07034 -40.42773,76.90503 c -0.85171,1.54774 -3.17328,0.26998 -2.32143,-1.27774 l 40.51014,-77.088 -82.26371,58.85275 c -1.43162,1.03888 -2.9901,-1.10851 -1.55847,-2.14739 l 82.51834,-59.00805 -80.40437,13.05637 c -1.74353,0.29179 -2.18136,-2.32346 -0.43781,-2.61539 l 80.26163,-13.05873 z"
       style="display:inline;fill:#d4af37;fill-opacity:1;fill-rule:nonzero;stroke:none;stroke-width:1.33333" />
  </g>
</svg>
