<?xml version="1.0" encoding="UTF-8" standalone="no"?>
<!-- Created with Inkscape (http://www.inkscape.org/) -->

<svg
   version="1.1"
   id="svg1"
   width="225.88988"
   height="211.21826"
   viewBox="0 0 225.88988 211.21826"
   xmlns="http://www.w3.org/2000/svg"
   xmlns:svg="http://www.w3.org/2000/svg">
  <defs
     id="defs1" />
  <g
     id="layer50"
     transform="translate(-427.86523,-430.72434)">
    <path
       id="path10"
       d="m 429.02484,523.2754 c -1.756,-0.22627 -1.4168,-2.86027 0.3392,-2.63414 l 105.85013,13.63894 -72.1184,-47.83093 c -1.4828,-0.966 -0.0333,-3.19014 1.4488,-2.22427 l 72.03706,47.80666 -46.20999,-72.35706 c -0.92134,-1.50587 1.3376,-2.88787 2.2588,-1.38187 l 46.43573,72.63293 -6.52134,-98.77199 c -0.13813,-1.76147 2.504,-1.9688 2.64214,-0.20734 l 6.46653,98.16787 27.68213,-81.1732 c 0.6012,-1.6616 3.09374,-0.75987 2.49254,0.90187 l -27.732,81.35599 72.42346,-71.39879 c 1.25187,-1.25014 3.1272,0.62773 1.87534,1.87786 l -72.66307,71.60587 77.67613,-25.5432 c 1.6772,-0.56027 2.51747,1.9556 0.84027,2.51573 l -77.51707,25.51627 105.86427,13.6188 c 1.756,0.22626 1.4168,2.86026 -0.3392,2.634 l -105.8504,-13.6388 72.11867,47.83093 c 1.4828,0.96587 0.0333,3.19013 -1.4488,2.22427 l -72.03734,-47.8068 46.21027,72.35733 c 0.9212,1.50587 -1.3376,2.88787 -2.25893,1.38187 l -46.436,-72.63334 6.52146,98.7724 c 0.13814,1.76147 -2.504,1.9688 -2.64213,0.20733 l -6.4664,-98.16666 -27.68186,81.17187 c -0.6012,1.66173 -3.09374,0.75986 -2.49254,-0.90187 l 27.73213,-81.3564 -72.42373,71.3992 c -1.252,1.25013 -3.1272,-0.62773 -1.87533,-1.87787 l 72.6628,-71.60573 -77.67587,25.5432 c -1.6772,0.56013 -2.51746,-1.95573 -0.84026,-2.51587 l 77.51706,-25.5164 z"
       style="fill:#d4af37;fill-opacity:1;fill-rule:nonzero;stroke:none;stroke-width:1.33333" />
  </g>
</svg>
