<?xml version="1.0" encoding="UTF-8" standalone="no"?>
<!-- Created with Inkscape (http://www.inkscape.org/) -->

<svg
   version="1.1"
   id="svg1"
   width="215.92159"
   height="206.94243"
   viewBox="0 0 215.92159 206.94243"
   xmlns="http://www.w3.org/2000/svg"
   xmlns:svg="http://www.w3.org/2000/svg">
  <defs
     id="defs1" />
  <g
     id="layer100"
     transform="translate(-237.98443,-397.07097)">
    <path
       id="path13"
       d="m 272.68069,452.70833 68.6988,43.62587 -40.63894,-64.75453 c -0.94506,-1.50574 1.3136,-2.9232 2.25867,-1.41747 l 40.42947,64.4208 -13.18667,-95.99573 c -0.242,-1.7612 2.39987,-2.12414 2.64187,-0.36294 l 13.234,96.318 27.2264,-86.85426 c 0.53173,-1.6964 3.07626,-0.89867 2.54453,0.79773 l -27.37493,87.328 51.5012,-51.56733 c 1.25626,-1.25787 3.14306,0.62653 1.8868,1.8844 l -52.80227,52.8704 103.0192,-36.5208 c 1.6756,-0.594 2.56653,1.91933 0.89093,2.51333 l -99.2156,35.1724 87.16133,9.63813 c 1.76694,0.19534 1.47387,2.84587 -0.2932,2.6504 l -89.47759,-9.89413 68.79466,43.686 c 1.5008,0.95306 0.0707,3.20413 -1.42947,2.2512 l -68.64013,-43.588 40.53187,64.58333 c 0.94507,1.50573 -1.31373,2.92333 -2.25867,1.41747 l -40.42213,-64.40813 13.18373,95.99466 c 0.24187,1.7612 -2.4,2.12413 -2.64186,0.3628 l -13.20707,-96.14146 -27.2092,86.80013 c -0.53187,1.6964 -3.0764,0.89866 -2.54467,-0.79774 l 27.37494,-87.32866 -51.50107,51.5676 c -1.25613,1.25786 -3.14307,-0.62654 -1.8868,-1.8844 l 49.56187,-49.62587 -99.11907,35.13813 c -1.6756,0.594 -2.56653,-1.91946 -0.89093,-2.51346 l 103.06173,-36.53547 -91.66693,-10.13666 c -1.76707,-0.19534 -1.47387,-2.84587 0.29307,-2.65054 l 89.47706,9.89427 -68.79453,-43.68627 c -1.50067,-0.95306 -0.0707,-3.20413 1.4296,-2.2512 z"
       style="fill:#d4af37;fill-opacity:1;fill-rule:nonzero;stroke:none;stroke-width:1.33333" />
  </g>
</svg>
