<?xml version="1.0" encoding="UTF-8" standalone="no"?>
<!-- Created with Inkscape (http://www.inkscape.org/) -->

<svg
   version="1.1"
   id="svg1"
   width="223.31055"
   height="223.81026"
   viewBox="0 0 223.31055 223.81026"
   xmlns="http://www.w3.org/2000/svg"
   xmlns:svg="http://www.w3.org/2000/svg">
  <defs
     id="defs1" />
  <g
     id="layer87"
     transform="translate(-423.49459,-432.43912)">
    <path
       id="path13"
       d="m 424.55042,522.00413 c -1.73563,-0.37187 -1.17771,-2.97536 0.55792,-2.60338 l 104.6565,22.43037 -71.23857,-55.97568 c -1.39875,-1.09222 0.24022,-3.19025 1.63845,-2.09806 l 71.27045,56.01195 -35.07752,-70.8454 c -0.77409,-1.59517 1.61866,-2.75644 2.39275,-1.16127 l 35.15798,70.96885 2.05322,-104.98235 c 0.0266,-1.77343 2.68706,-1.73309 2.66017,0.0406 l -2.04735,104.40644 32.9669,-71.44159 c 0.75543,-1.60488 3.16271,-0.4718 2.40726,1.13309 l -33.01245,71.55198 80.92938,-67.55389 c 1.35968,-1.14034 3.07019,0.89919 1.71063,2.03953 l -81.26805,67.82669 81.67982,-19.20873 c 1.72636,-0.40915 2.34001,2.18039 0.61365,2.58953 l -81.40236,19.15251 104.55011,22.39909 c 1.73562,0.372 1.1777,2.97536 -0.55792,2.60351 l -104.65743,-22.43054 71.23937,55.97598 c 1.39875,1.09234 -0.24024,3.19038 -1.63846,2.09805 l -71.27047,-56.01167 35.07755,70.845 c 0.77422,1.59517 -1.61854,2.75657 -2.39276,1.1614 l -35.15761,-70.96803 -2.05331,104.98126 c -0.0266,1.77342 -2.68707,1.73308 -2.66003,-0.0409 l 2.04738,-104.40706 -32.96747,71.44245 c -0.75544,1.60488 -3.16271,0.47183 -2.40726,-1.13306 l 33.01231,-71.55157 -80.92883,67.55325 c -1.35969,1.14033 -3.07019,-0.89907 -1.71063,-2.03954 l 81.2679,-67.82642 -81.67981,19.2086 c -1.72637,0.40915 -2.34002,-2.18039 -0.61366,-2.58953 l 81.40249,-19.15238 z"
       style="display:inline;fill:#d4af37;fill-opacity:1;fill-rule:nonzero;stroke:none;stroke-width:1.33333" />
  </g>
</svg>
