<?xml version="1.0" encoding="UTF-8" standalone="no"?>
<!-- Created with Inkscape (http://www.inkscape.org/) -->

<svg
   version="1.1"
   id="svg1"
   width="225.88983"
   height="211.21826"
   viewBox="0 0 225.88983 211.21826"
   xmlns="http://www.w3.org/2000/svg"
   xmlns:svg="http://www.w3.org/2000/svg">
  <defs
     id="defs1" />
  <g
     id="layer91"
     transform="translate(-233.00031,-394.93306)">
    <path
       id="path4"
       d="m 234.15986,487.48399 c -1.756,-0.22614 -1.41667,-2.86014 0.33933,-2.634 l 105.8492,13.63893 -72.11773,-47.8308 c -1.4828,-0.96587 -0.0333,-3.19 1.4488,-2.22413 l 72.03706,47.80666 -46.20999,-72.3572 c -0.92134,-1.50586 1.3376,-2.88773 2.2588,-1.38186 l 46.43599,72.63346 -6.52133,-98.77266 c -0.13826,-1.76147 2.50387,-1.9688 2.64214,-0.20733 l 6.46639,98.16759 27.682,-81.17279 c 0.6012,-1.6616 3.09374,-0.75974 2.49254,0.90186 l -27.73214,81.35613 72.42374,-71.39906 c 1.252,-1.25014 3.12733,0.62773 1.87533,1.87786 l -72.66307,71.606 77.67614,-25.54333 c 1.6772,-0.56013 2.51733,1.9556 0.84026,2.51587 l -77.51693,25.51626 105.86413,13.61867 c 1.756,0.22627 1.4168,2.86027 -0.3392,2.634 l -105.85106,-13.63893 72.1192,47.83133 c 1.4828,0.96586 0.0333,3.19013 -1.4488,2.22413 l -72.03734,-47.80666 46.21027,72.35719 c 0.92133,1.50587 -1.3376,2.88787 -2.25893,1.38187 l -46.43587,-72.63293 6.52147,98.77186 c 0.13826,1.76147 -2.50387,1.9688 -2.64214,0.20734 l -6.46626,-98.16707 -27.68213,81.1724 c -0.6012,1.66173 -3.09374,0.75987 -2.49254,-0.90187 l 27.732,-81.35613 -72.42346,71.3988 c -1.25187,1.25013 -3.1272,-0.62773 -1.8752,-1.87787 l 72.66266,-71.60559 -77.676,25.54306 c -1.6772,0.56014 -2.51733,-1.9556 -0.84013,-2.51573 l 77.51733,-25.5164 z"
       style="fill:#d4af37;fill-opacity:1;fill-rule:nonzero;stroke:none;stroke-width:1.33333" />
  </g>
</svg>
