<?xml version="1.0" encoding="UTF-8" standalone="no"?>
<!-- Created with Inkscape (http://www.inkscape.org/) -->

<svg
   version="1.1"
   id="svg1"
   width="226.34929"
   height="205.40598"
   viewBox="0 0 226.34929 205.40598"
   xmlns="http://www.w3.org/2000/svg"
   xmlns:svg="http://www.w3.org/2000/svg">
  <defs
     id="defs1" />
  <g
     id="layer61"
     transform="translate(-410.30199,-457.89435)">
    <path
       id="path9"
       d="m 635.46443,549.93767 c 1.7596,-0.1884 1.47694,-2.82787 -0.28266,-2.63947 l -106.05174,11.36587 71.5952,-45.29907 c 1.50347,-0.9316 0.10667,-3.18693 -1.39746,-2.2552 l -71.46174,45.2476 50.15587,-73.67293 c 0.96227,-1.4784 -1.2552,-2.92187 -2.2176,-1.44347 l -50.44693,74.02107 8.6952,-95.9044 c 0.18426,-1.756 -2.4496,-2.0324 -2.634,-0.2764 L 522.7967,554.367 496.3303,469.2406 c -0.5576,-1.6756 -3.07106,-0.83933 -2.51346,0.83627 l 26.52066,85.34306 -69.6708,-71.8204 c -1.22186,-1.27813 -3.1392,0.5548 -1.9172,1.83294 l 69.86893,71.99106 -76.17999,-27.0856 c -1.662,-0.60066 -2.56307,1.89227 -0.90107,2.49294 l 76.0744,27.07693 -106.12293,11.34893 c -1.7596,0.1884 -1.47694,2.82787 0.28266,2.63947 l 106.0536,-11.36587 -71.59666,45.29947 c -1.5036,0.93173 -0.10667,3.18693 1.39733,2.25533 l 71.46226,-45.2476 -50.15626,73.67293 c -0.9624,1.4784 1.2552,2.92187 2.21747,1.44347 l 50.44706,-74.0208 -8.69546,95.90387 c -0.18427,1.756 2.44973,2.0324 2.63399,0.2764 l 8.62187,-95.2848 26.4664,85.12573 c 0.5576,1.6756 3.07093,0.8392 2.51347,-0.8364 l -26.52054,-85.3432 69.6704,71.82027 c 1.222,1.27813 3.1392,-0.55494 1.91734,-1.83307 l -69.8684,-71.99066 76.1796,27.08546 c 1.662,0.60067 2.56306,-1.89227 0.90106,-2.49293 l -76.0748,-27.07693 z"
       style="fill:#d4af37;fill-opacity:1;fill-rule:nonzero;stroke:none;stroke-width:1.33333" />
  </g>
</svg>
