<?xml version="1.0" encoding="UTF-8" standalone="no"?>
<!-- Created with Inkscape (http://www.inkscape.org/) -->

<svg
   version="1.1"
   id="svg1"
   width="224.51959"
   height="228.66669"
   viewBox="0 0 224.51959 228.66669"
   xmlns="http://www.w3.org/2000/svg"
   xmlns:svg="http://www.w3.org/2000/svg">
  <defs
     id="defs1" />
  <g
     id="g1"
     transform="translate(-233.68543,-386.20884)">
    <path
       id="path1"
       d="m 310.85305,574.94333 31.36626,-69.3956 -80.68213,70.13467 c -1.34173,1.16626 -3.0912,-0.84627 -1.74946,-2.01267 l 81.04519,-70.45026 -82.16439,20.91613 c -1.7228,0.43867 -2.38067,-2.1456 -0.65787,-2.58413 l 81.8448,-20.83467 -105.08813,-20.42799 c -1.7452,-0.33934 -1.23627,-2.95694 0.5088,-2.61774 l 105.24199,20.458 -73.68546,-55.42573 c -1.4208,-1.06867 0.18227,-3.19973 1.60293,-2.1312 l 73.7628,55.48373 -34.37253,-68.41 c -0.79827,-1.58853 1.58453,-2.78573 2.3828,-1.19733 l 34.40333,68.47066 V 387.54214 c 0,-1.77773 2.66667,-1.77773 2.66667,0 V 494.3548 l 31.3284,-69.31173 c 0.73226,-1.62 3.16226,-0.5216 2.43,1.0984 l -31.36654,69.39587 80.6828,-70.1352 c 1.34174,-1.1664 3.0912,0.84627 1.74947,2.01253 l -81.0456,70.45067 82.16453,-20.9164 c 1.7228,-0.43853 2.38067,2.1456 0.65787,2.58427 l -81.84427,20.83466 105.08787,20.42786 c 1.74507,0.3392 1.23627,2.9568 -0.5088,2.6176 l -105.24373,-20.45799 73.6868,55.42626 c 1.4208,1.06867 -0.18227,3.19973 -1.60294,2.13107 l -73.7628,-55.48347 34.37267,68.40973 c 0.79813,1.5884 -1.58467,2.78573 -2.3828,1.1972 l -34.40293,-68.4696 v 107.3756 c 0,1.77787 -2.66667,1.77787 -2.66667,0 v -106.8132 l -31.32906,69.3128 c -0.73214,1.62 -3.16214,0.5216 -2.42987,-1.0984 z"
       style="fill:#d4af37;fill-opacity:1;fill-rule:nonzero;stroke:none;stroke-width:1.33333" />
  </g>
</svg>
