<?xml version="1.0" encoding="UTF-8" standalone="no"?>
<!-- Created with Inkscape (http://www.inkscape.org/) -->

<svg
   version="1.1"
   id="svg1"
   width="221.82126"
   height="218.9064"
   viewBox="0 0 221.82126 218.9064"
   xmlns="http://www.w3.org/2000/svg"
   xmlns:svg="http://www.w3.org/2000/svg">
  <defs
     id="defs1" />
  <g
     id="layer86"
     style="display:inline"
     transform="translate(-424.23923,-434.89105)">
    <path
       id="path12"
       d="m 425.26299,519.34786 c -1.72396,-0.41359 -1.10353,-2.99939 0.62044,-2.58581 l 103.93739,24.94057 -68.55193,-56.78722 c -1.37093,-1.12316 0.31432,-3.17952 1.68468,-2.0564 l 68.54007,56.79846 -35.25597,-73.61118 c -0.74224,-1.60604 1.66702,-2.71945 2.40926,-1.1134 l 35.38041,73.80184 4.47588,-102.563 c 0.0623,-1.76927 2.71675,-1.67493 2.65385,0.0948 l -4.46016,101.97521 35.19462,-73.3546 c 0.78694,-1.5861 3.16596,-0.40569 2.37915,1.18042 l -35.2503,73.49036 81.44161,-64.61849 c 1.38345,-1.10731 3.04451,0.96794 1.66105,2.07513 l -81.75493,64.84958 81.27444,-17.13338 c 1.73208,-0.37074 2.28808,2.22745 0.55599,2.59819 l -81.04059,17.10051 103.87874,24.91118 c 1.72396,0.41358 1.10366,2.99953 -0.6203,2.58582 l -103.93781,-24.94048 68.5522,56.78725 c 1.37093,1.12317 -0.31432,3.17952 -1.68468,2.05641 l -68.54008,-56.79833 35.25599,73.6109 c 0.74223,1.60617 -1.66702,2.71946 -2.40926,1.11341 l -35.38018,-73.80128 -4.47584,102.56246 c -0.0623,1.76926 -2.71676,1.67492 -2.65386,-0.0948 l 4.46011,-101.97614 -35.19497,73.35563 c -0.78694,1.58598 -3.16595,0.40557 -2.37915,-1.18042 l 35.25013,-73.4901 -81.4413,64.61811 c -1.38332,1.10733 -3.04439,-0.9678 -1.66092,-2.07511 l 81.75492,-64.84946 -81.27443,17.13325 c -1.73221,0.37074 -2.28822,-2.22731 -0.55613,-2.59807 l 81.04071,-17.10035 z"
       style="display:inline;fill:#d4af37;fill-opacity:1;fill-rule:nonzero;stroke:none;stroke-width:1.33333" />
  </g>
</svg>
