<?xml version="1.0" encoding="UTF-8" standalone="no"?>
<!-- Created with Inkscape (http://www.inkscape.org/) -->

<svg
   version="1.1"
   id="svg1"
   width="74.689034"
   height="82.537292"
   viewBox="0 0 74.689034 82.537292"
   xmlns="http://www.w3.org/2000/svg"
   xmlns:svg="http://www.w3.org/2000/svg">
  <defs
     id="defs1" />
  <g
     id="layer108"
     transform="translate(-370.65548,-486.73135)">
    <path
       id="path8"
       d="m 394.03605,487.1245 13.6836,38.2816 3.3484,-30.276 c 0.0867,-0.77786 1.2528,-0.6488 1.1668,0.12934 l -3.4356,31.0652 19.956,-32.78494 c 0.40693,-0.66853 1.40973,-0.0587 1.0028,0.6104 l -19.25187,31.62814 28.45653,-17.56067 c 0.666,-0.41107 1.28254,0.588 0.61654,0.99907 l -29.10414,17.96026 33.3628,-3.17773 c 0.7792,-0.0747 0.8904,1.0944 0.11067,1.16867 l -33.26973,3.16893 34.27573,12.4816 c 0.73533,0.26786 0.3336,1.37093 -0.40173,1.10306 l -34.3576,-12.51146 23.00213,23.77586 c 0.54427,0.56254 -0.29947,1.3788 -0.84373,0.81627 l -22.8588,-23.6276 13.6208,38.10587 c 0.26333,0.73693 -0.84214,1.13213 -1.10547,0.39506 l -13.68373,-38.28186 -3.34827,30.27613 c -0.0867,0.77787 -1.25293,0.6488 -1.16693,-0.12933 l 3.2388,-29.28573 -19.1204,31.41239 c -0.40694,0.66854 -1.40974,0.0587 -1.0028,-0.6104 l 20.03266,-32.91079 -29.876,18.43653 c -0.666,0.41093 -1.28253,-0.58814 -0.61653,-0.99907 l 29.10413,-17.96026 -33.36293,3.1776 c -0.7792,0.0747 -0.89053,-1.0944 -0.11067,-1.16867 l 33.2956,-3.1712 -34.3476,-12.508 c -0.73546,-0.26773 -0.33373,-1.3708 0.40174,-1.10307 l 34.36066,12.5128 -23.00133,-23.77493 c -0.54413,-0.56253 0.2996,-1.3788 0.84373,-0.81627 l 22.9108,23.68147 -13.63053,-38.13307 c -0.26333,-0.73706 0.84213,-1.13213 1.10547,-0.3952 z"
       style="fill:#d4af37;fill-opacity:1;fill-rule:nonzero;stroke:none;stroke-width:1.33333" />
  </g>
</svg>
