<?xml version="1.0" encoding="UTF-8" standalone="no"?>
<!-- Created with Inkscape (http://www.inkscape.org/) -->

<svg
   version="1.1"
   id="svg1"
   width="227.96817"
   height="212.52097"
   viewBox="0 0 227.96817 212.52097"
   xmlns="http://www.w3.org/2000/svg"
   xmlns:svg="http://www.w3.org/2000/svg">
  <defs
     id="defs1" />
  <g
     id="layer36"
     transform="translate(-415.02311,-430.1812)">
    <path
       id="path6"
       d="m 416.31061,534.17628 c -1.77227,-0.0573 -1.68747,-2.71507 0.0853,-2.65853 l 106.76013,3.41026 -69.76626,-36.43839 c -1.57587,-0.81174 -0.35827,-3.1756 1.2176,-2.36387 l 69.44853,36.2916 -63.96573,-78.27773 c -1.106,-1.382 0.96693,-3.04093 2.07293,-1.65893 l 64.4844,78.87759 -16.30307,-85.86653 c -0.34546,-1.7368 2.25987,-2.2552 2.60547,-0.51826 l 16.16573,85.20026 22.21227,-98.9636 c 0.4048,-1.72426 2.9912,-1.1172 2.5864,0.60707 l -22.28067,99.29599 60.0356,-73.29479 c 1.1172,-1.376 3.18133,0.29986 2.06413,1.67586 l -60.08986,73.33893 70.94386,-32.48359 c 1.60867,-0.74254 2.7224,1.67053 1.11374,2.41306 l -71.02587,32.53853 107.02853,3.40534 c 1.77227,0.0573 1.68747,2.71506 -0.0853,2.65853 l -106.76226,-3.4104 69.76799,36.43893 c 1.57587,0.81174 0.35827,3.1756 -1.2176,2.36387 l -69.44933,-36.2916 63.9664,78.27813 c 1.106,1.382 -0.96707,3.04094 -2.07293,1.65894 l -64.48493,-78.87787 16.30346,85.8664 c 0.3456,1.73693 -2.25973,2.2552 -2.60533,0.51827 l -16.1656,-85.19787 -22.21187,98.96133 c -0.4048,1.72427 -2.9912,1.1172 -2.5864,-0.60706 l 22.28054,-99.2968 -60.0356,73.29506 c -1.1172,1.376 -3.1812,-0.29973 -2.064,-1.67586 l 60.08906,-73.3384 -70.94333,32.48333 c -1.60867,0.74253 -2.72253,-1.67053 -1.11373,-2.41307 l 71.0264,-32.5388 -107.02893,-3.40533 z"
       style="fill:#d4af37;fill-opacity:1;fill-rule:nonzero;stroke:none;stroke-width:1.33333" />
  </g>
</svg>
