<?xml version="1.0" encoding="UTF-8" standalone="no"?>
<!-- Created with Inkscape (http://www.inkscape.org/) -->

<svg
   version="1.1"
   id="svg1"
   width="216.34303"
   height="203.90588"
   viewBox="0 0 216.34303 203.90588"
   xmlns="http://www.w3.org/2000/svg"
   xmlns:svg="http://www.w3.org/2000/svg">
  <defs
     id="defs1" />
  <g
     id="layer83"
     style="display:inline"
     transform="translate(-426.97833,-442.39135)">
    <path
       id="path9"
       d="m 427.89783,510.41684 c -1.68083,-0.55369 -0.85052,-3.07484 0.83033,-2.52128 l 101.29914,33.3716 -60.2861,-59.10311 c -1.27466,-1.22609 0.56528,-3.13791 1.83929,-1.91194 l 60.15832,59.0176 -33.87587,-83.03345 c -0.63237,-1.64674 1.83772,-2.59523 2.46995,-0.94852 l 34.09362,83.44936 11.5138,-95.16089 c 0.18694,-1.75561 2.82042,-1.4752 2.63348,0.28041 l -11.45593,94.53728 43.9642,-78.2042 c 0.89563,-1.52181 3.17832,-0.17829 2.28268,1.34351 l -44.06551,78.41066 82.95833,-55.46571 c 1.46264,-0.99357 2.95305,1.20046 1.49029,2.194 l -83.17983,55.58562 80.01598,-10.51014 c 1.75087,-0.23937 2.10992,2.38693 0.35905,2.6263 l -79.92115,10.52526 101.37994,33.37275 c 1.68086,0.55355 0.85053,3.07484 -0.83031,2.52116 l -101.29782,-33.37133 60.28499,59.10259 c 1.27465,1.2261 -0.56399,3.1382 -1.83916,1.91198 l -60.15797,-59.01738 33.87552,83.03323 c 0.6324,1.6466 -1.83756,2.59512 -2.46996,0.94852 l -34.09346,-83.44946 -11.514,95.16111 c -0.18693,1.75562 -2.82041,1.47521 -2.63345,-0.28054 l 11.45606,-94.53847 -43.96458,78.20534 c -0.89563,1.5218 -3.17832,0.17829 -2.28269,-1.34351 l 44.06544,-78.41027 -82.95831,55.46559 c -1.46264,0.99357 -2.95305,-1.20047 -1.49028,-2.19402 l 83.18026,-55.58579 -80.01626,10.51022 c -1.75087,0.23937 -2.10991,-2.38694 -0.35908,-2.62618 l 79.92074,-10.52521 z"
       style="display:inline;fill:#d4af37;fill-opacity:1;fill-rule:nonzero;stroke:none;stroke-width:1.33333" />
  </g>
</svg>
