<?xml version="1.0" encoding="UTF-8" standalone="no"?>
<!-- Created with Inkscape (http://www.inkscape.org/) -->

<svg
   version="1.1"
   id="svg1"
   width="224.51959"
   height="228.6667"
   viewBox="0 0 224.51959 228.6667"
   xmlns="http://www.w3.org/2000/svg"
   xmlns:svg="http://www.w3.org/2000/svg">
  <defs
     id="defs1" />
  <g
     id="g1"
     transform="translate(-427.0966,-505.2106)">
    <path
       id="path1"
       d="m 504.26422,693.9451 31.36627,-69.3956 -80.68213,70.13467 c -1.34174,1.16626 -3.0912,-0.84627 -1.74947,-2.01267 l 81.0452,-70.45026 -82.1644,20.91613 c -1.7228,0.43867 -2.38067,-2.1456 -0.65787,-2.58413 l 81.8448,-20.83467 -105.08813,-20.428 c -1.7452,-0.33933 -1.23627,-2.95693 0.5088,-2.61773 l 105.242,20.458 -73.68547,-55.42574 c -1.4208,-1.06866 0.18227,-3.19973 1.60294,-2.1312 l 73.76279,55.48374 -34.37253,-68.41 c -0.79826,-1.58854 1.58454,-2.78574 2.3828,-1.19734 l 34.40333,68.47067 V 506.54391 c 0,-1.77774 2.66667,-1.77774 2.66667,0 v 106.81266 l 31.3284,-69.31173 c 0.73227,-1.62 3.16227,-0.5216 2.43,1.0984 l -31.36653,69.39586 80.6828,-70.1352 c 1.34173,-1.1664 3.0912,0.84627 1.74946,2.01254 l -81.0456,70.45066 82.16454,-20.9164 c 1.7228,-0.43853 2.38066,2.1456 0.65786,2.58427 l -81.84426,20.83467 105.08786,20.42786 c 1.74507,0.3392 1.23627,2.9568 -0.5088,2.6176 l -105.24373,-20.458 73.6868,55.42627 c 1.4208,1.06867 -0.18227,3.19973 -1.60293,2.13107 l -73.7628,-55.48347 34.37266,68.40973 c 0.79814,1.5884 -1.58466,2.78573 -2.3828,1.1972 l -34.40293,-68.4696 v 107.3756 c 0,1.77787 -2.66667,1.77787 -2.66667,0 V 625.7307 l -31.32906,69.3128 c -0.73213,1.62 -3.16213,0.5216 -2.42987,-1.0984 z"
       style="fill:#d4af37;fill-opacity:1;fill-rule:nonzero;stroke:none;stroke-width:1.33333" />
  </g>
</svg>
