<?xml version="1.0" encoding="UTF-8" standalone="no"?>
<!-- Created with Inkscape (http://www.inkscape.org/) -->

<svg
   width="55.827084mm"
   height="55.827084mm"
   viewBox="0 0 55.827084 55.827084"
   version="1.1"
   id="svg1"
   xml:space="preserve"
   inkscape:export-batch-path="..\..\codingprojects\TelephoneTestHomePage\testhtml\images\circleAnimation"
   inkscape:export-batch-name="batch"
   inkscape:version="1.4.2 (f4327f4, 2025-05-13)"
   sodipodi:docname="circles.svg"
   xmlns:inkscape="http://www.inkscape.org/namespaces/inkscape"
   xmlns:sodipodi="http://sodipodi.sourceforge.net/DTD/sodipodi-0.dtd"
   xmlns="http://www.w3.org/2000/svg"
   xmlns:svg="http://www.w3.org/2000/svg"><sodipodi:namedview
     id="namedview1"
     pagecolor="#ffffff"
     bordercolor="#000000"
     borderopacity="0.25"
     inkscape:showpageshadow="2"
     inkscape:pageopacity="0.0"
     inkscape:pagecheckerboard="0"
     inkscape:deskcolor="#d1d1d1"
     inkscape:document-units="mm"
     inkscape:zoom="0.53858859"
     inkscape:cx="460.46278"
     inkscape:cy="283.14747"
     inkscape:window-width="1846"
     inkscape:window-height="1057"
     inkscape:window-x="-8"
     inkscape:window-y="-8"
     inkscape:window-maximized="1"
     inkscape:current-layer="layer11" /><defs
     id="defs1"><clipPath
       id="clip3_6491_7746"><rect
         width="211"
         height="211"
         fill="#ffffff"
         transform="translate(20,20)"
         id="rect7"
         x="0"
         y="0" /></clipPath></defs><g
     inkscape:label="Layer 1"
     inkscape:groupmode="layer"
     id="layer1"
     transform="translate(-77.086459,-120.58646)"><g
       clip-path="url(#clip3_6491_7746)"
       id="g4"
       transform="matrix(0.26458333,0,0,0.26458333,71.794792,115.29479)"
       style="fill:none"><path
         d="M 29.085,87.79 C 24.5113,99.475 22,112.194 22,125.5 22,182.661 68.3385,229 125.5,229 c 1.171,0 2.338,-0.022 3.5,-0.061 v 2.001 c -1.162,0.038 -2.329,0.06 -3.5,0.06 C 67.234,231 20,183.766 20,125.5 20,111.777 22.6197,98.6665 27.3867,86.6406 Z m 154.897,125.527 c -13.466,8.986 -29.114,14.957 -45.982,16.949 v -2.016 c 16.39,-1.973 31.601,-7.776 44.712,-16.489 z m 36.064,-40.955 c -7.798,15.703 -19.393,29.186 -33.583,39.25 l -1.269,-1.553 c 13.98,-9.888 25.401,-23.153 33.072,-38.61 z M 190.124,42.1055 C 214.994,61.4054 231,91.5829 231,125.5 c 0,14.699 -3.008,28.695 -8.439,41.409 l -1.785,-0.915 C 226.069,153.556 229,139.87 229,125.5 229,92.2013 213.274,62.5768 188.845,43.6445 Z M 35.5771,74.2207 c -1.6417,2.8728 -3.1507,5.8313 -4.5166,8.8682 l -1.6806,-1.1387 c 1.3767,-3.0338 2.8926,-5.9911 4.54,-8.8633 z M 125.5,20 c 21.831,0 42.114,6.6313 58.943,17.9893 l -1.285,1.5468 C 166.681,28.4624 146.845,22 125.5,22 90.2214,22 59.0653,39.6506 40.3809,66.6025 L 38.7285,65.4727 C 57.7733,37.9948 89.5357,20 125.5,20 Z"
         fill="#d4af37"
         id="path4" /></g></g></svg>
