<svg width="168" height="48" viewBox="0 0 168 48" fill="none" xmlns="http://www.w3.org/2000/svg">
<g clip-path="url(#clip0_6707_3677)">
<rect width="168" height="48" rx="8" fill="#D4AF37" fill-opacity="0.25"/>
<path d="M107 2H8C4.78979 2 2.16843 4.52111 2.00781 7.69141L2 8V40C2 43.3137 4.68629 46 8 46H18V48H8L7.58789 47.9893C3.49764 47.7817 0.218304 44.5024 0.0107422 40.4121L0 40V8C4.99297e-07 3.71994 3.36114 0.225231 7.58789 0.0107422L8 0H107V2ZM39 48H34V46H39V48ZM65 48H55V46H65V48ZM160.412 0.0107422C164.639 0.22523 168 3.71994 168 8V40L167.989 40.4121C167.782 44.5024 164.502 47.7817 160.412 47.9893L160 48H81V46H160C163.314 46 166 43.3137 166 40V8C166 4.68629 163.314 2 160 2H156V0H160L160.412 0.0107422ZM117 2H112V0H117V2ZM127 2H122V0H127V2ZM145 2H132V0H145V2Z" fill="#D4AF37"/>
<path d="M141 24H155M155 24L148 17M155 24L148 31" stroke="#D4AF37" stroke-width="2" stroke-linecap="round" stroke-linejoin="round"/>
<path d="M51.7666 27.236V20.404H51.5986C51.2532 20.404 50.9779 20.4227 50.7726 20.46C50.5766 20.4973 50.4319 20.5673 50.3386 20.67C50.2546 20.7727 50.2079 20.908 50.1986 21.076L50.0586 22.966H48.5046V19.06H58.5006V22.966H56.9466L56.8066 21.076C56.7972 20.908 56.7459 20.7727 56.6526 20.67C56.5686 20.5673 56.4239 20.4973 56.2186 20.46C56.0226 20.4227 55.7519 20.404 55.4066 20.404H55.2386V27.236C55.2386 27.4413 55.2992 27.5767 55.4206 27.642C55.5512 27.7073 55.7099 27.74 55.8966 27.74H56.1346V29H50.8706V27.74H51.0946C51.2906 27.74 51.4492 27.7073 51.5706 27.642C51.7012 27.5767 51.7666 27.4413 51.7666 27.236ZM63.4805 21.398V26.648C63.4805 26.7973 63.4945 26.928 63.5225 27.04C63.5598 27.1427 63.6205 27.222 63.7045 27.278C63.7885 27.334 63.8958 27.362 64.0265 27.362C64.1945 27.362 64.3578 27.306 64.5165 27.194C64.6845 27.0727 64.8571 26.886 65.0345 26.634C65.2211 26.382 65.4125 26.06 65.6085 25.668L65.5525 27.04C65.3751 27.46 65.1325 27.8287 64.8245 28.146C64.5165 28.454 64.1665 28.6967 63.7745 28.874C63.3918 29.0513 62.9858 29.14 62.5565 29.14C62.0618 29.14 61.6371 29.0467 61.2825 28.86C60.9371 28.6733 60.6711 28.4027 60.4845 28.048C60.2978 27.684 60.2045 27.2453 60.2045 26.732V23.036C60.2045 22.924 60.1671 22.8447 60.0925 22.798C60.0271 22.742 59.9058 22.7 59.7285 22.672L59.5885 22.644V21.398H63.4805ZM68.4785 21.398V27.404C68.4785 27.4787 68.4925 27.5393 68.5205 27.586C68.5578 27.6233 68.6091 27.656 68.6745 27.684C68.7491 27.7027 68.8425 27.7307 68.9545 27.768L69.0525 27.796V29H65.5385L65.3285 27.194L65.2025 27.124V23.036C65.2025 22.924 65.1371 22.84 65.0065 22.784C64.8851 22.728 64.7405 22.686 64.5725 22.658L64.3905 22.63V21.398H68.4785ZM69.6613 22.714V21.468H69.7453C69.9413 21.468 70.1093 21.454 70.2493 21.426C70.3986 21.3887 70.5153 21.3187 70.5993 21.216C70.6833 21.1133 70.7253 20.9547 70.7253 20.74L72.5453 21.398H75.8773V22.714H69.6613ZM73.9033 26.522C73.9033 26.8113 73.9406 27.0353 74.0153 27.194C74.0993 27.3433 74.2113 27.446 74.3513 27.502C74.5006 27.558 74.6826 27.586 74.8973 27.586C75.1026 27.586 75.2893 27.572 75.4573 27.544C75.6346 27.5067 75.7513 27.488 75.8073 27.488V28.902C75.7046 28.93 75.5553 28.9627 75.3593 29C75.1633 29.0467 74.9346 29.084 74.6733 29.112C74.412 29.14 74.1273 29.154 73.8193 29.154C73.1846 29.154 72.6293 29.084 72.1533 28.944C71.6773 28.7947 71.304 28.5427 71.0333 28.188C70.7626 27.824 70.6273 27.3293 70.6273 26.704V21.692L70.7253 21.566V19.27H73.9033V26.522ZM85.4061 25.22C85.4061 26.0227 85.2334 26.7227 84.8881 27.32C84.5521 27.908 84.0528 28.3653 83.3901 28.692C82.7368 29.0093 81.9341 29.168 80.9821 29.168C80.0394 29.168 79.2368 29.0093 78.5741 28.692C77.9208 28.3653 77.4214 27.908 77.0761 27.32C76.7308 26.7227 76.5581 26.0227 76.5581 25.22C76.5581 24.604 76.6561 24.0533 76.8521 23.568C77.0481 23.0733 77.3328 22.6533 77.7061 22.308C78.0888 21.9627 78.5508 21.7013 79.0921 21.524C79.6428 21.3373 80.2728 21.244 80.9821 21.244C81.6914 21.244 82.3214 21.3373 82.8721 21.524C83.4228 21.7013 83.8848 21.9673 84.2581 22.322C84.6408 22.6673 84.9254 23.0827 85.1121 23.568C85.3081 24.0533 85.4061 24.604 85.4061 25.22ZM79.9041 25.206C79.9041 25.8407 79.9368 26.3493 80.0021 26.732C80.0674 27.1147 80.1748 27.3947 80.3241 27.572C80.4828 27.74 80.7021 27.824 80.9821 27.824C81.2621 27.824 81.4814 27.74 81.6401 27.572C81.7988 27.3947 81.9108 27.1147 81.9761 26.732C82.0414 26.3493 82.0741 25.8407 82.0741 25.206C82.0741 24.5713 82.0414 24.0673 81.9761 23.694C81.9108 23.3113 81.7988 23.0407 81.6401 22.882C81.4814 22.714 81.2621 22.63 80.9821 22.63C80.7114 22.63 80.4968 22.714 80.3381 22.882C80.1794 23.0407 80.0674 23.3113 80.0021 23.694C79.9368 24.0673 79.9041 24.5713 79.9041 25.206ZM92.9114 21.384V24.198C92.8368 24.1887 92.7248 24.1793 92.5754 24.17C92.4261 24.1513 92.2628 24.1373 92.0854 24.128C91.9174 24.1187 91.7541 24.114 91.5954 24.114C91.4274 24.114 91.2594 24.1233 91.0914 24.142C90.9328 24.1513 90.7834 24.1747 90.6434 24.212C90.5034 24.24 90.3728 24.282 90.2514 24.338C90.1394 24.394 90.0368 24.4687 89.9434 24.562L89.8734 24.1C90.0974 23.512 90.3074 23.008 90.5034 22.588C90.6994 22.168 90.9374 21.846 91.2174 21.622C91.4974 21.398 91.8614 21.286 92.3094 21.286C92.4588 21.286 92.5848 21.3 92.6874 21.328C92.7994 21.3467 92.8741 21.3653 92.9114 21.384ZM86.3734 29V27.894H86.4014C86.5788 27.894 86.7141 27.852 86.8074 27.768C86.9101 27.6747 86.9614 27.502 86.9614 27.25V23.036C86.9614 22.9613 86.9428 22.9053 86.9054 22.868C86.8774 22.8213 86.8261 22.784 86.7514 22.756C86.6861 22.728 86.5974 22.7 86.4854 22.672L86.3734 22.644V21.398H89.9154L90.1254 23.792L90.2234 23.764V27.782C90.2234 27.81 90.2608 27.8333 90.3354 27.852C90.4194 27.8707 90.5268 27.8847 90.6574 27.894C90.7881 27.894 90.9281 27.894 91.0774 27.894H91.1334V29H86.3734ZM96.0486 20.796C95.5073 20.796 95.0826 20.6793 94.7746 20.446C94.4759 20.2033 94.3266 19.8533 94.3266 19.396C94.3266 18.9387 94.4759 18.5933 94.7746 18.36C95.0826 18.1173 95.5073 17.996 96.0486 17.996C96.5993 17.996 97.0239 18.1173 97.3226 18.36C97.6213 18.5933 97.7706 18.9387 97.7706 19.396C97.7706 19.8533 97.6213 20.2033 97.3226 20.446C97.0239 20.6793 96.5993 20.796 96.0486 20.796ZM97.7426 21.398V27.25C97.7426 27.502 97.7939 27.6747 97.8966 27.768C97.9993 27.852 98.1346 27.894 98.3026 27.894H98.3306V29H93.8926V27.894H93.9206C94.0979 27.894 94.2333 27.852 94.3266 27.768C94.4293 27.6747 94.4806 27.502 94.4806 27.25V23.036C94.4806 22.924 94.4433 22.8447 94.3686 22.798C94.2939 22.7513 94.1726 22.7093 94.0046 22.672L93.8926 22.644V21.398H97.7426ZM104.014 24.422V25.444C103.687 25.5093 103.412 25.584 103.188 25.668C102.964 25.7427 102.782 25.8313 102.642 25.934C102.502 26.0273 102.395 26.13 102.32 26.242C102.245 26.3447 102.194 26.4613 102.166 26.592C102.138 26.7133 102.124 26.8393 102.124 26.97C102.124 27.194 102.147 27.3713 102.194 27.502C102.25 27.6233 102.329 27.712 102.432 27.768C102.544 27.8147 102.675 27.838 102.824 27.838C102.964 27.838 103.095 27.8053 103.216 27.74C103.347 27.6653 103.477 27.5533 103.608 27.404C103.739 27.2547 103.874 27.054 104.014 26.802L104.154 27.46C103.967 27.88 103.757 28.2113 103.524 28.454C103.3 28.6967 103.029 28.874 102.712 28.986C102.404 29.098 102.035 29.154 101.606 29.154C101.055 29.154 100.598 29.084 100.234 28.944C99.8699 28.804 99.5992 28.5893 99.4219 28.3C99.2539 28.0107 99.1699 27.6327 99.1699 27.166C99.1699 26.7553 99.2585 26.4053 99.4359 26.116C99.6132 25.8267 99.8932 25.5793 100.276 25.374C100.659 25.1687 101.158 24.9913 101.774 24.842C102.39 24.6833 103.137 24.5433 104.014 24.422ZM104.14 29L103.972 27.516L103.846 27.586V23.232C103.846 23.1107 103.823 22.9987 103.776 22.896C103.729 22.7933 103.641 22.714 103.51 22.658C103.389 22.602 103.202 22.574 102.95 22.574C102.595 22.574 102.301 22.6207 102.068 22.714C101.835 22.8073 101.681 22.91 101.606 23.022C101.503 22.9847 101.433 22.9333 101.396 22.868C101.368 22.7933 101.377 22.7187 101.424 22.644C101.471 22.56 101.55 22.4947 101.662 22.448C101.774 22.392 101.923 22.3687 102.11 22.378V24.002H99.6319V22.182C99.7812 22.0887 100.015 21.9673 100.332 21.818C100.649 21.6687 101.055 21.538 101.55 21.426C102.045 21.3047 102.628 21.244 103.3 21.244C103.897 21.244 104.425 21.3 104.882 21.412C105.349 21.5147 105.741 21.6733 106.058 21.888C106.375 22.0933 106.613 22.3547 106.772 22.672C106.94 22.9893 107.024 23.3627 107.024 23.792V27.404C107.024 27.4787 107.038 27.5393 107.066 27.586C107.103 27.6233 107.155 27.656 107.22 27.684C107.295 27.7027 107.388 27.7307 107.5 27.768L107.612 27.796V29H104.14ZM112.289 18.388V27.25C112.289 27.502 112.34 27.6747 112.443 27.768C112.545 27.852 112.681 27.894 112.849 27.894H112.877V29H108.439V27.894H108.467C108.644 27.894 108.779 27.852 108.873 27.768C108.975 27.6747 109.027 27.502 109.027 27.25V19.984C109.027 19.9093 109.008 19.8533 108.971 19.816C108.943 19.7693 108.891 19.732 108.817 19.704C108.742 19.676 108.653 19.648 108.551 19.62L108.439 19.592V18.388H112.289ZM116.11 29.28C115.541 29.28 115.093 29.1353 114.766 28.846C114.439 28.5567 114.276 28.1413 114.276 27.6C114.276 27.068 114.439 26.6573 114.766 26.368C115.093 26.0693 115.541 25.92 116.11 25.92C116.689 25.92 117.137 26.0693 117.454 26.368C117.781 26.6573 117.944 27.068 117.944 27.6C117.944 28.1413 117.781 28.5567 117.454 28.846C117.137 29.1353 116.689 29.28 116.11 29.28Z" fill="#D4AF37"/>
</g>
<defs>
<clipPath id="clip0_6707_3677">
<rect width="168" height="48" rx="8" fill="white"/>
</clipPath>
</defs>
</svg>
