<svg width="146" height="48" viewBox="0 0 146 48" fill="none" xmlns="http://www.w3.org/2000/svg">
<g clip-path="url(#clip0_6707_3885)">
<rect width="146" height="48" rx="8" fill="#D4AF37" fill-opacity="0.25"/>
<path d="M14 2H8C4.78979 2 2.16843 4.52111 2.00781 7.69141L2 8V40C2 43.3137 4.68629 46 8 46H96V48H8L7.58789 47.9893C3.49764 47.7817 0.218304 44.5024 0.0107422 40.4121L0 40V8C4.99297e-07 3.71994 3.36114 0.225231 7.58789 0.0107422L8 0H14V2ZM138.412 0.0107422C142.639 0.225233 146 3.71995 146 8V40L145.989 40.4121C145.782 44.5024 142.502 47.7817 138.412 47.9893L138 48H112V46H138C141.314 46 144 43.3137 144 40V8C144 4.68629 141.314 2 138 2H43V0H138L138.412 0.0107422ZM32 2H19V0H32V2Z" fill="#D4AF37"/>
<path d="M119 24H133M133 24L126 17M133 24L126 31" stroke="#D4AF37" stroke-width="2" stroke-linecap="round" stroke-linejoin="round"/>
<path d="M29.4728 20.584V19.48H34.2728C34.9288 19.48 35.5288 19.564 36.0728 19.732C36.6168 19.9 37.0888 20.16 37.4888 20.512C37.8888 20.856 38.1968 21.292 38.4128 21.82C38.6368 22.348 38.7488 22.976 38.7488 23.704C38.7488 24.416 38.6368 25.044 38.4128 25.588C38.1968 26.124 37.8888 26.572 37.4888 26.932C37.0888 27.284 36.6168 27.552 36.0728 27.736C35.5288 27.912 34.9288 28 34.2728 28H29.4728V26.896H29.6168C29.7688 26.896 29.8968 26.868 30.0008 26.812C30.1128 26.756 30.1688 26.64 30.1688 26.464V21.016C30.1688 20.848 30.1128 20.736 30.0008 20.68C29.8968 20.616 29.7688 20.584 29.6168 20.584H29.4728ZM33.9488 20.62H33.0848V26.86H33.9488C34.2368 26.86 34.4888 26.796 34.7048 26.668C34.9288 26.54 35.1128 26.348 35.2568 26.092C35.4088 25.828 35.5248 25.5 35.6048 25.108C35.6848 24.708 35.7248 24.24 35.7248 23.704C35.7248 23.168 35.6848 22.704 35.6048 22.312C35.5248 21.92 35.4088 21.6 35.2568 21.352C35.1128 21.104 34.9288 20.92 34.7048 20.8C34.4888 20.68 34.2368 20.62 33.9488 20.62ZM42.5301 24.724C42.5301 25.14 42.5541 25.492 42.6021 25.78C42.6581 26.06 42.7461 26.284 42.8661 26.452C42.9941 26.62 43.1581 26.744 43.3581 26.824C43.5661 26.896 43.8221 26.932 44.1261 26.932C44.4141 26.932 44.6621 26.896 44.8701 26.824C45.0781 26.744 45.2621 26.632 45.4221 26.488C45.5821 26.344 45.7261 26.172 45.8541 25.972L46.8261 26.608C46.6421 26.952 46.4101 27.24 46.1301 27.472C45.8581 27.704 45.5261 27.876 45.1341 27.988C44.7421 28.1 44.2741 28.156 43.7301 28.156C42.9061 28.156 42.2021 28.028 41.6181 27.772C41.0341 27.516 40.5901 27.136 40.2861 26.632C39.9821 26.12 39.8301 25.488 39.8301 24.736C39.8301 24.032 39.9781 23.42 40.2741 22.9C40.5781 22.372 41.0061 21.964 41.5581 21.676C42.1181 21.388 42.7701 21.244 43.5141 21.244C44.1061 21.244 44.6141 21.324 45.0381 21.484C45.4701 21.644 45.8221 21.888 46.0941 22.216C46.3741 22.536 46.5821 22.94 46.7181 23.428C46.8621 23.908 46.9341 24.472 46.9341 25.12H41.7141V24.184H44.6781L44.4741 24.544C44.4661 24.08 44.4421 23.704 44.4021 23.416C44.3701 23.12 44.3181 22.896 44.2461 22.744C44.1821 22.592 44.0901 22.488 43.9701 22.432C43.8581 22.368 43.7221 22.336 43.5621 22.336C43.3861 22.336 43.2341 22.372 43.1061 22.444C42.9781 22.508 42.8701 22.624 42.7821 22.792C42.6941 22.96 42.6301 23.2 42.5901 23.512C42.5501 23.824 42.5301 24.228 42.5301 24.724ZM51.7797 26.404C51.7797 26.252 51.7357 26.132 51.6477 26.044C51.5677 25.948 51.4597 25.872 51.3237 25.816C51.1877 25.76 51.0277 25.712 50.8437 25.672C50.6677 25.632 50.4797 25.588 50.2797 25.54C49.9997 25.476 49.7197 25.404 49.4397 25.324C49.1677 25.236 48.9157 25.12 48.6837 24.976C48.4597 24.832 48.2797 24.64 48.1437 24.4C48.0077 24.152 47.9397 23.844 47.9397 23.476C47.9397 22.924 48.0757 22.484 48.3477 22.156C48.6277 21.828 49.0117 21.592 49.4997 21.448C49.9877 21.296 50.5517 21.22 51.1917 21.22C51.7197 21.22 52.1677 21.252 52.5357 21.316C52.9117 21.372 53.2117 21.436 53.4357 21.508C53.6677 21.58 53.8237 21.632 53.9037 21.664V23.188H52.0797V22.036C52.2157 22.02 52.3197 22.028 52.3917 22.06C52.4637 22.092 52.5077 22.136 52.5237 22.192C52.5477 22.24 52.5517 22.296 52.5357 22.36C52.5277 22.416 52.5157 22.464 52.4997 22.504C52.3957 22.464 52.2797 22.428 52.1517 22.396C52.0317 22.364 51.8917 22.34 51.7317 22.324C51.5797 22.3 51.4037 22.288 51.2037 22.288C50.8917 22.288 50.6597 22.328 50.5077 22.408C50.3557 22.48 50.2797 22.616 50.2797 22.816C50.2797 22.952 50.3157 23.06 50.3877 23.14C50.4677 23.22 50.5757 23.284 50.7117 23.332C50.8477 23.38 51.0077 23.424 51.1917 23.464C51.3837 23.504 51.5877 23.548 51.8037 23.596C52.0997 23.668 52.3917 23.752 52.6797 23.848C52.9757 23.936 53.2437 24.06 53.4837 24.22C53.7317 24.372 53.9277 24.568 54.0717 24.808C54.2237 25.048 54.2997 25.348 54.2997 25.708C54.2997 26.292 54.1717 26.764 53.9157 27.124C53.6597 27.484 53.2677 27.748 52.7397 27.916C52.2117 28.076 51.5397 28.156 50.7237 28.156C50.2437 28.156 49.8077 28.124 49.4157 28.06C49.0317 27.996 48.7077 27.924 48.4437 27.844C48.1877 27.756 48.0077 27.688 47.9037 27.64V25.972H49.7517V27.472C49.5837 27.432 49.4517 27.372 49.3557 27.292C49.2597 27.204 49.1917 27.12 49.1517 27.04C49.1197 26.952 49.1157 26.888 49.1397 26.848C49.1717 26.808 49.2317 26.812 49.3197 26.86C49.4077 26.884 49.5197 26.916 49.6557 26.956C49.7997 26.996 49.9637 27.028 50.1477 27.052C50.3317 27.076 50.5397 27.088 50.7717 27.088C51.0117 27.088 51.2037 27.068 51.3477 27.028C51.4997 26.98 51.6077 26.908 51.6717 26.812C51.7437 26.708 51.7797 26.572 51.7797 26.404ZM59.4855 26.896C59.7175 26.896 59.9255 26.848 60.1095 26.752C60.2935 26.648 60.4575 26.512 60.6015 26.344C60.7535 26.168 60.8815 25.98 60.9855 25.78L61.8975 26.332C61.7455 26.708 61.5375 27.032 61.2735 27.304C61.0095 27.568 60.6855 27.772 60.3015 27.916C59.9255 28.06 59.4895 28.132 58.9935 28.132C58.2335 28.132 57.5655 28.008 56.9895 27.76C56.4135 27.504 55.9615 27.12 55.6335 26.608C55.3135 26.096 55.1535 25.456 55.1535 24.688C55.1535 23.928 55.3055 23.296 55.6095 22.792C55.9215 22.28 56.3655 21.896 56.9415 21.64C57.5175 21.376 58.2135 21.244 59.0295 21.244C59.4935 21.244 59.9015 21.272 60.2535 21.328C60.6135 21.384 60.9135 21.448 61.1535 21.52C61.3935 21.592 61.5695 21.656 61.6815 21.712V23.944H59.6655V21.928C59.7855 21.92 59.8735 21.956 59.9295 22.036C59.9855 22.108 60.0215 22.196 60.0375 22.3C60.0535 22.396 60.0575 22.488 60.0495 22.576C60.0415 22.656 60.0295 22.708 60.0135 22.732C59.8935 22.636 59.7735 22.564 59.6535 22.516C59.5335 22.468 59.3775 22.444 59.1855 22.444C58.8895 22.444 58.6535 22.52 58.4775 22.672C58.3015 22.816 58.1735 23.056 58.0935 23.392C58.0135 23.72 57.9735 24.152 57.9735 24.688C57.9735 25.096 58.0015 25.444 58.0575 25.732C58.1135 26.012 58.2015 26.24 58.3215 26.416C58.4415 26.584 58.5975 26.708 58.7895 26.788C58.9815 26.86 59.2135 26.896 59.4855 26.896ZM68.4798 21.34V23.764C68.4158 23.756 68.3118 23.748 68.1678 23.74C68.0238 23.732 67.8678 23.724 67.6998 23.716C67.5318 23.708 67.3718 23.704 67.2198 23.704C67.0838 23.704 66.9478 23.708 66.8118 23.716C66.6838 23.724 66.5598 23.74 66.4398 23.764C66.3198 23.78 66.2118 23.804 66.1158 23.836C66.0198 23.868 65.9318 23.916 65.8518 23.98L65.7678 23.68C65.9838 23.16 66.1838 22.72 66.3678 22.36C66.5518 22 66.7638 21.728 67.0038 21.544C67.2518 21.352 67.5678 21.256 67.9518 21.256C68.0878 21.256 68.1998 21.268 68.2878 21.292C68.3838 21.308 68.4478 21.324 68.4798 21.34ZM62.7918 28V27.052H62.8158C62.9758 27.052 63.0998 27.008 63.1878 26.92C63.2758 26.824 63.3198 26.656 63.3198 26.416V22.804C63.3198 22.74 63.3038 22.692 63.2718 22.66C63.2398 22.62 63.1918 22.588 63.1278 22.564C63.0638 22.54 62.9838 22.516 62.8878 22.492L62.7918 22.468V21.376H65.7678L66.0078 23.416L66.0798 23.452V26.956C66.0798 26.98 66.1118 27 66.1758 27.016C66.2398 27.032 66.3278 27.044 66.4398 27.052C66.5598 27.052 66.6918 27.052 66.8358 27.052H66.8838V28H62.7918ZM71.2703 20.848C70.8063 20.848 70.4423 20.748 70.1783 20.548C69.9143 20.348 69.7823 20.044 69.7823 19.636C69.7823 19.236 69.9143 18.936 70.1783 18.736C70.4423 18.528 70.8063 18.424 71.2703 18.424C71.7343 18.424 72.0943 18.528 72.3503 18.736C72.6063 18.936 72.7343 19.236 72.7343 19.636C72.7343 20.036 72.6063 20.34 72.3503 20.548C72.0943 20.748 71.7343 20.848 71.2703 20.848ZM72.7103 21.376V26.416C72.7103 26.656 72.7543 26.824 72.8423 26.92C72.9303 27.008 73.0503 27.052 73.2023 27.052H73.2383V28H69.4223V27.052H69.4463C69.6063 27.052 69.7303 27.008 69.8183 26.92C69.9063 26.824 69.9503 26.656 69.9503 26.416V22.804C69.9503 22.708 69.9143 22.644 69.8423 22.612C69.7783 22.572 69.6703 22.532 69.5183 22.492L69.4223 22.468V21.376H72.7103ZM78.1291 30.676H74.0371V29.728H74.0611C74.1731 29.728 74.2651 29.708 74.3371 29.668C74.4091 29.628 74.4651 29.56 74.5051 29.464C74.5451 29.376 74.5651 29.252 74.5651 29.092V22.804C74.5651 22.74 74.5491 22.692 74.5171 22.66C74.4851 22.62 74.4371 22.588 74.3731 22.564C74.3091 22.54 74.2291 22.516 74.1331 22.492L74.0371 22.468V21.376H77.0131L77.2531 23.296L77.3251 23.308V29.632C77.3251 29.656 77.3571 29.672 77.4211 29.68C77.4851 29.696 77.5731 29.708 77.6851 29.716C77.8051 29.724 77.9371 29.728 78.0811 29.728H78.1291V30.676ZM79.1971 28.132C78.8131 28.132 78.4691 28.06 78.1651 27.916C77.8691 27.764 77.6091 27.552 77.3851 27.28C77.1611 27 76.9771 26.664 76.8331 26.272V25.384C77.0251 25.648 77.1891 25.88 77.3251 26.08C77.4691 26.272 77.6131 26.42 77.7571 26.524C77.9091 26.628 78.0891 26.68 78.2971 26.68C78.4811 26.68 78.6371 26.64 78.7651 26.56C78.9011 26.48 79.0091 26.352 79.0891 26.176C79.1691 26 79.2251 25.784 79.2571 25.528C79.2971 25.272 79.3171 24.964 79.3171 24.604C79.3171 24.268 79.3051 23.98 79.2811 23.74C79.2571 23.5 79.2091 23.304 79.1371 23.152C79.0731 22.992 78.9811 22.876 78.8611 22.804C78.7491 22.732 78.6051 22.696 78.4291 22.696C78.2291 22.696 78.0531 22.748 77.9011 22.852C77.7491 22.948 77.5891 23.108 77.4211 23.332C77.2611 23.556 77.0651 23.848 76.8331 24.208V23.368C77.0171 22.92 77.2211 22.54 77.4451 22.228C77.6771 21.908 77.9451 21.664 78.2491 21.496C78.5531 21.328 78.9171 21.244 79.3411 21.244C79.9571 21.244 80.4731 21.388 80.8891 21.676C81.3051 21.956 81.6171 22.348 81.8251 22.852C82.0331 23.356 82.1371 23.94 82.1371 24.604C82.1371 25.276 82.0171 25.88 81.7771 26.416C81.5451 26.952 81.2091 27.372 80.7691 27.676C80.3371 27.98 79.8131 28.132 79.1971 28.132ZM82.8302 22.54V21.436H82.9262C83.1022 21.436 83.2542 21.424 83.3822 21.4C83.5182 21.368 83.6222 21.304 83.6942 21.208C83.7742 21.104 83.8142 20.952 83.8142 20.752L85.3502 21.376H88.2902V22.54H82.8302ZM86.4902 25.9C86.4902 26.14 86.5262 26.324 86.5982 26.452C86.6702 26.572 86.7702 26.656 86.8982 26.704C87.0342 26.744 87.1982 26.764 87.3902 26.764C87.5822 26.764 87.7542 26.752 87.9062 26.728C88.0582 26.704 88.1582 26.688 88.2062 26.68V27.928C88.1102 27.952 87.9702 27.98 87.7862 28.012C87.6102 28.052 87.4102 28.08 87.1862 28.096C86.9622 28.12 86.7182 28.132 86.4542 28.132C85.9102 28.132 85.4342 28.076 85.0262 27.964C84.6182 27.844 84.2982 27.632 84.0662 27.328C83.8422 27.024 83.7302 26.608 83.7302 26.08V21.616L83.8142 21.508V19.504H86.4902V25.9ZM90.9508 20.848C90.4868 20.848 90.1228 20.748 89.8588 20.548C89.5948 20.348 89.4628 20.044 89.4628 19.636C89.4628 19.236 89.5948 18.936 89.8588 18.736C90.1228 18.528 90.4868 18.424 90.9508 18.424C91.4148 18.424 91.7748 18.528 92.0308 18.736C92.2868 18.936 92.4148 19.236 92.4148 19.636C92.4148 20.036 92.2868 20.34 92.0308 20.548C91.7748 20.748 91.4148 20.848 90.9508 20.848ZM92.3908 21.376V26.416C92.3908 26.656 92.4348 26.824 92.5228 26.92C92.6108 27.008 92.7308 27.052 92.8828 27.052H92.9188V28H89.1028V27.052H89.1268C89.2868 27.052 89.4108 27.008 89.4988 26.92C89.5868 26.824 89.6308 26.656 89.6308 26.416V22.804C89.6308 22.708 89.5948 22.644 89.5228 22.612C89.4588 22.572 89.3508 22.532 89.1988 22.492L89.1028 22.468V21.376H92.3908ZM101.35 24.7C101.35 25.412 101.202 26.028 100.906 26.548C100.61 27.068 100.178 27.468 99.6096 27.748C99.0496 28.02 98.3576 28.156 97.5336 28.156C96.7176 28.156 96.0256 28.02 95.4576 27.748C94.8896 27.468 94.4576 27.068 94.1616 26.548C93.8656 26.028 93.7176 25.412 93.7176 24.7C93.7176 24.164 93.8016 23.684 93.9696 23.26C94.1376 22.828 94.3816 22.464 94.7016 22.168C95.0296 21.864 95.4296 21.636 95.9016 21.484C96.3736 21.324 96.9176 21.244 97.5336 21.244C98.1496 21.244 98.6936 21.324 99.1656 21.484C99.6376 21.636 100.034 21.864 100.354 22.168C100.682 22.464 100.93 22.828 101.098 23.26C101.266 23.684 101.35 24.164 101.35 24.7ZM96.5376 24.7C96.5376 25.268 96.5656 25.72 96.6216 26.056C96.6776 26.384 96.7776 26.62 96.9216 26.764C97.0656 26.908 97.2696 26.98 97.5336 26.98C97.7976 26.98 98.0016 26.908 98.1456 26.764C98.2896 26.62 98.3896 26.384 98.4456 26.056C98.5016 25.72 98.5296 25.268 98.5296 24.7C98.5296 24.132 98.5016 23.684 98.4456 23.356C98.3896 23.028 98.2896 22.792 98.1456 22.648C98.0016 22.504 97.7976 22.432 97.5336 22.432C97.2776 22.432 97.0736 22.504 96.9216 22.648C96.7776 22.792 96.6776 23.028 96.6216 23.356C96.5656 23.684 96.5376 24.132 96.5376 24.7ZM102.27 28V27.052H102.294C102.406 27.052 102.498 27.032 102.57 26.992C102.642 26.952 102.698 26.888 102.738 26.8C102.778 26.704 102.798 26.576 102.798 26.416V22.804C102.798 22.74 102.782 22.692 102.75 22.66C102.718 22.62 102.67 22.588 102.606 22.564C102.542 22.54 102.462 22.516 102.366 22.492L102.27 22.468V21.376H105.27L105.474 22.972L105.558 23.008V26.956C105.558 26.98 105.578 27 105.618 27.016C105.666 27.024 105.718 27.032 105.774 27.04C105.83 27.048 105.882 27.052 105.93 27.052H105.99V28H102.27ZM110.478 28H106.758V27.052H106.794C106.858 27.052 106.918 27.052 106.974 27.052C107.038 27.044 107.09 27.032 107.13 27.016C107.17 26.992 107.19 26.972 107.19 26.956V23.356C107.19 23.228 107.174 23.124 107.142 23.044C107.11 22.956 107.058 22.888 106.986 22.84C106.914 22.792 106.818 22.768 106.698 22.768C106.538 22.768 106.378 22.824 106.218 22.936C106.058 23.048 105.894 23.208 105.726 23.416C105.558 23.624 105.382 23.888 105.198 24.208L105.246 23.14C105.406 22.78 105.622 22.456 105.894 22.168C106.174 21.88 106.49 21.652 106.842 21.484C107.194 21.316 107.562 21.232 107.946 21.232C108.378 21.232 108.742 21.312 109.038 21.472C109.334 21.624 109.558 21.852 109.71 22.156C109.87 22.46 109.95 22.832 109.95 23.272V26.416C109.95 26.576 109.97 26.704 110.01 26.8C110.05 26.888 110.106 26.952 110.178 26.992C110.25 27.032 110.338 27.052 110.442 27.052H110.478V28ZM113.403 28.264C112.915 28.264 112.527 28.14 112.239 27.892C111.959 27.644 111.819 27.284 111.819 26.812C111.819 26.332 111.959 25.968 112.239 25.72C112.527 25.472 112.915 25.348 113.403 25.348C113.899 25.348 114.287 25.472 114.567 25.72C114.847 25.968 114.987 26.332 114.987 26.812C114.987 27.284 114.847 27.644 114.567 27.892C114.287 28.14 113.899 28.264 113.403 28.264Z" fill="#D4AF37"/>
</g>
<defs>
<clipPath id="clip0_6707_3885">
<rect width="146" height="48" rx="8" fill="white"/>
</clipPath>
</defs>
</svg>
