<svg width="252" height="30" viewBox="0 0 252 30" fill="none" xmlns="http://www.w3.org/2000/svg">
<path d="M10.6383 25.8V2.72H8.27828C7.13162 2.72 6.19828 2.76 5.47828 2.84C4.75828 2.92 4.22495 3.09333 3.87828 3.36C3.53161 3.62667 3.33161 4.01333 3.27828 4.52L2.83828 8.4H0.758281V0.599998H24.1983V8.4H22.1183L21.7183 4.52C21.6649 4.01333 21.4516 3.62667 21.0783 3.36C20.7316 3.09333 20.1983 2.92 19.4783 2.84C18.7583 2.76 17.8249 2.72 16.6783 2.72H14.3583V25.8C14.3583 26.3867 14.6783 26.7733 15.3183 26.96C15.9583 27.1467 16.7583 27.24 17.7183 27.24H18.3583V29H6.59828V27.24H7.23828C8.22495 27.24 9.03828 27.1467 9.67828 26.96C10.3183 26.7733 10.6383 26.3867 10.6383 25.8ZM48.3427 20.4V29H26.9827V27.24H27.3827C28.3427 27.24 29.1427 27.1467 29.7827 26.96C30.4227 26.7733 30.7427 26.3867 30.7427 25.8V3.8C30.7427 3.21333 30.4227 2.82667 29.7827 2.64C29.1427 2.45333 28.3427 2.36 27.3827 2.36H26.9827V0.599998H47.1827V8.2H45.1027L44.7027 4.6C44.6227 4.12 44.4093 3.74667 44.0627 3.48C43.716 3.21333 43.1827 3.04 42.4627 2.96C41.7427 2.85333 40.8093 2.8 39.6627 2.8H34.4227V26.8H40.7827C41.636 26.8 42.3693 26.7733 42.9827 26.72C43.6227 26.6667 44.1427 26.5733 44.5427 26.44C44.9427 26.3067 45.236 26.12 45.4227 25.88C45.636 25.64 45.756 25.3333 45.7827 24.96L46.2227 20.4H48.3427ZM33.3427 13.48C34.5427 13.4267 35.6893 13.3867 36.7827 13.36C37.9027 13.3333 38.996 13.2933 40.0627 13.24C41.156 13.1867 42.236 13.1333 43.3027 13.08V15.88C42.236 15.8 41.156 15.7333 40.0627 15.68C38.996 15.6267 37.9027 15.5867 36.7827 15.56C35.6893 15.5067 34.5427 15.4667 33.3427 15.44V13.48ZM63.3514 0.599998V2.36H62.9114C61.9247 2.36 61.0981 2.45333 60.4314 2.64C59.7647 2.8 59.4314 3.13333 59.4314 3.64V26.8H65.3114C66.4581 26.8 67.3914 26.7467 68.1114 26.64C68.8314 26.5333 69.3647 26.36 69.7114 26.12C70.0847 25.8533 70.2847 25.4667 70.3114 24.96L70.7514 20.04H72.9914V29H51.9514V27.24H52.3514C53.3114 27.24 54.1114 27.1467 54.7514 26.96C55.3914 26.7733 55.7114 26.3867 55.7114 25.8V3.8C55.7114 3.21333 55.3914 2.82667 54.7514 2.64C54.1114 2.45333 53.3114 2.36 52.3514 2.36H51.9514V0.599998H63.3514ZM97.3036 20.4V29H75.9436V27.24H76.3436C77.3036 27.24 78.1036 27.1467 78.7436 26.96C79.3836 26.7733 79.7036 26.3867 79.7036 25.8V3.8C79.7036 3.21333 79.3836 2.82667 78.7436 2.64C78.1036 2.45333 77.3036 2.36 76.3436 2.36H75.9436V0.599998H96.1436V8.2H94.0636L93.6636 4.6C93.5836 4.12 93.3703 3.74667 93.0236 3.48C92.6769 3.21333 92.1436 3.04 91.4236 2.96C90.7036 2.85333 89.7703 2.8 88.6236 2.8H83.3836V26.8H89.7436C90.5969 26.8 91.3303 26.7733 91.9436 26.72C92.5836 26.6667 93.1036 26.5733 93.5036 26.44C93.9036 26.3067 94.1969 26.12 94.3836 25.88C94.5969 25.64 94.7169 25.3333 94.7436 24.96L95.1836 20.4H97.3036ZM82.3036 13.48C83.5036 13.4267 84.6503 13.3867 85.7436 13.36C86.8636 13.3333 87.9569 13.2933 89.0236 13.24C90.1169 13.1867 91.1969 13.1333 92.2636 13.08V15.88C91.1969 15.8 90.1169 15.7333 89.0236 15.68C87.9569 15.6267 86.8636 15.5867 85.7436 15.56C84.6503 15.5067 83.5036 15.4667 82.3036 15.44V13.48ZM108.472 26.72C108.472 26.8267 108.566 26.9067 108.752 26.96C108.939 27.0133 109.179 27.0667 109.472 27.12C109.792 27.1733 110.139 27.2133 110.512 27.24C110.886 27.24 111.246 27.24 111.592 27.24H112.592V29H100.992V27.24H101.392C102.352 27.24 103.152 27.1467 103.792 26.96C104.432 26.7733 104.752 26.3867 104.752 25.8V3.8C104.752 3.21333 104.432 2.82667 103.792 2.64C103.152 2.45333 102.352 2.36 101.392 2.36H100.992V0.599998H112.752C116.086 0.599998 118.659 1.34667 120.472 2.84C122.312 4.33333 123.232 6.34667 123.232 8.88C123.232 10.5867 122.792 12.0933 121.912 13.4C121.059 14.68 119.832 15.6933 118.232 16.44C116.659 17.16 114.779 17.52 112.592 17.52H107.272V15.4H112.472C114.019 15.4 115.286 15.1333 116.272 14.6C117.286 14.0667 118.032 13.32 118.512 12.36C119.019 11.3733 119.272 10.2267 119.272 8.92C119.272 7.61333 119.032 6.50667 118.552 5.6C118.072 4.69333 117.339 4 116.352 3.52C115.392 3.04 114.179 2.8 112.712 2.8H108.472V26.72ZM131.808 13.28H148.928V15.44H131.808V13.28ZM125.608 29V27.24H126.008C126.968 27.24 127.768 27.1467 128.408 26.96C129.048 26.7733 129.368 26.3867 129.368 25.8V3.8C129.368 3.21333 129.048 2.82667 128.408 2.64C127.768 2.45333 126.968 2.36 126.008 2.36H125.608V0.599998H136.848V2.36H136.488C136.114 2.36 135.728 2.37333 135.328 2.4C134.928 2.4 134.554 2.42667 134.208 2.48C133.888 2.50666 133.621 2.54666 133.408 2.6C133.194 2.62667 133.088 2.68 133.088 2.76V26.84C133.088 26.92 133.194 26.9867 133.408 27.04C133.621 27.0667 133.888 27.1067 134.208 27.16C134.554 27.1867 134.928 27.2133 135.328 27.24C135.728 27.24 136.114 27.24 136.488 27.24H136.848V29H125.608ZM143.888 29V27.24H144.248C144.621 27.24 145.008 27.24 145.408 27.24C145.808 27.2133 146.181 27.1867 146.528 27.16C146.874 27.1067 147.141 27.0667 147.328 27.04C147.541 26.9867 147.648 26.92 147.648 26.84V2.76C147.648 2.68 147.541 2.62667 147.328 2.6C147.141 2.54666 146.874 2.50666 146.528 2.48C146.181 2.42667 145.808 2.4 145.408 2.4C145.008 2.37333 144.621 2.36 144.248 2.36H143.888V0.599998H155.168V2.36H154.728C153.768 2.36 152.968 2.45333 152.328 2.64C151.688 2.82667 151.368 3.21333 151.368 3.8V25.8C151.368 26.3867 151.688 26.7733 152.328 26.96C152.968 27.1467 153.768 27.24 154.728 27.24H155.168V29H143.888ZM172.235 29.4C170.261 29.4 168.421 29.0533 166.715 28.36C165.035 27.64 163.555 26.64 162.275 25.36C160.995 24.0533 159.995 22.5067 159.275 20.72C158.581 18.9333 158.235 16.96 158.235 14.8C158.235 12.64 158.581 10.6667 159.275 8.88C159.995 7.09333 160.995 5.56 162.275 4.28C163.555 2.97333 165.035 1.97333 166.715 1.28C168.421 0.559999 170.261 0.199999 172.235 0.199999C174.208 0.199999 176.035 0.559999 177.715 1.28C179.421 1.97333 180.915 2.97333 182.195 4.28C183.475 5.56 184.461 7.09333 185.155 8.88C185.875 10.6667 186.235 12.64 186.235 14.8C186.235 16.96 185.875 18.9333 185.155 20.72C184.461 22.5067 183.475 24.0533 182.195 25.36C180.915 26.64 179.421 27.64 177.715 28.36C176.035 29.0533 174.208 29.4 172.235 29.4ZM172.235 27.16C173.675 27.16 175.008 26.88 176.235 26.32C177.461 25.7333 178.515 24.9067 179.395 23.84C180.301 22.7467 180.995 21.44 181.475 19.92C181.981 18.4 182.235 16.6933 182.235 14.8C182.235 12.9067 181.981 11.2 181.475 9.68C180.995 8.16 180.301 6.86667 179.395 5.8C178.515 4.70666 177.461 3.88 176.235 3.32C175.008 2.73333 173.675 2.44 172.235 2.44C170.795 2.44 169.461 2.73333 168.235 3.32C167.008 3.88 165.941 4.70666 165.035 5.8C164.155 6.86667 163.461 8.16 162.955 9.68C162.475 11.2 162.235 12.9067 162.235 14.8C162.235 16.6933 162.475 18.4 162.955 19.92C163.461 21.44 164.155 22.7467 165.035 23.84C165.941 24.9067 167.008 25.7333 168.235 26.32C169.461 26.88 170.795 27.16 172.235 27.16ZM189.334 29V27.24H189.774C190.414 27.24 190.974 27.1867 191.454 27.08C191.961 26.9467 192.361 26.7467 192.654 26.48C192.948 26.1867 193.094 25.84 193.094 25.44V3.8C193.094 3.4 192.948 3.10667 192.654 2.92C192.361 2.70667 191.961 2.56 191.454 2.48C190.948 2.4 190.388 2.36 189.774 2.36H189.334V0.599998H198.094L212.054 25.28L211.574 25.44V3.08C211.574 2.94667 211.401 2.82667 211.054 2.72C210.708 2.61333 210.254 2.53333 209.694 2.48C209.161 2.4 208.601 2.36 208.014 2.36H207.374V0.599998H217.814V2.36H217.334C216.721 2.36 216.161 2.42667 215.654 2.56C215.148 2.66667 214.748 2.85333 214.454 3.12C214.161 3.38667 214.014 3.73333 214.014 4.16V29H210.294L195.014 2.04L195.534 1.88V26.52C195.534 26.6267 195.708 26.7467 196.054 26.88C196.428 26.9867 196.881 27.08 197.414 27.16C197.974 27.2133 198.534 27.24 199.094 27.24H199.734V29H189.334ZM241.835 20.4V29H220.475V27.24H220.875C221.835 27.24 222.635 27.1467 223.275 26.96C223.915 26.7733 224.235 26.3867 224.235 25.8V3.8C224.235 3.21333 223.915 2.82667 223.275 2.64C222.635 2.45333 221.835 2.36 220.875 2.36H220.475V0.599998H240.675V8.2H238.595L238.195 4.6C238.115 4.12 237.902 3.74667 237.555 3.48C237.208 3.21333 236.675 3.04 235.955 2.96C235.235 2.85333 234.302 2.8 233.155 2.8H227.915V26.8H234.275C235.128 26.8 235.862 26.7733 236.475 26.72C237.115 26.6667 237.635 26.5733 238.035 26.44C238.435 26.3067 238.728 26.12 238.915 25.88C239.128 25.64 239.248 25.3333 239.275 24.96L239.715 20.4H241.835ZM226.835 13.48C228.035 13.4267 229.182 13.3867 230.275 13.36C231.395 13.3333 232.488 13.2933 233.555 13.24C234.648 13.1867 235.728 13.1333 236.795 13.08V15.88C235.728 15.8 234.648 15.7333 233.555 15.68C232.488 15.6267 231.395 15.5867 230.275 15.56C229.182 15.5067 228.035 15.4667 226.835 15.44V13.48ZM248.685 29.24C247.912 29.24 247.272 29.0133 246.765 28.56C246.259 28.08 246.005 27.48 246.005 26.76C246.005 25.9867 246.259 25.3733 246.765 24.92C247.272 24.4667 247.912 24.24 248.685 24.24C249.485 24.24 250.125 24.4667 250.605 24.92C251.112 25.3733 251.365 25.9867 251.365 26.76C251.365 27.48 251.112 28.08 250.605 28.56C250.125 29.0133 249.485 29.24 248.685 29.24Z" fill="white"/>
</svg>
