<svg width="146" height="48" viewBox="0 0 146 48" fill="none" xmlns="http://www.w3.org/2000/svg">
<g clip-path="url(#clip0_6707_3783)">
<rect width="146" height="48" rx="8" fill="#D4AF37" fill-opacity="0.25"/>
<path d="M14 2H8C4.78979 2 2.16843 4.52111 2.00781 7.69141L2 8V40C2 43.3137 4.68629 46 8 46H96V48H8L7.58789 47.9893C3.49764 47.7817 0.218304 44.5024 0.0107422 40.4121L0 40V8C4.99297e-07 3.71994 3.36114 0.225231 7.58789 0.0107422L8 0H14V2ZM138.412 0.0107422C142.639 0.225233 146 3.71995 146 8V40L145.989 40.4121C145.782 44.5024 142.502 47.7817 138.412 47.9893L138 48H112V46H138C141.314 46 144 43.3137 144 40V8C144 4.68629 141.314 2 138 2H43V0H138L138.412 0.0107422ZM32 2H19V0H32V2Z" fill="#D4AF37"/>
<path d="M119 24H133M133 24L126 17M133 24L126 31" stroke="#D4AF37" stroke-width="2" stroke-linecap="round" stroke-linejoin="round"/>
<path d="M59.1796 25.24V26.86C59.0516 26.996 58.8676 27.144 58.6276 27.304C58.3876 27.464 58.0996 27.616 57.7636 27.76C57.4276 27.896 57.0556 28.008 56.6476 28.096C56.2396 28.192 55.8076 28.24 55.3516 28.24C54.6796 28.24 54.0716 28.144 53.5276 27.952C52.9916 27.752 52.5276 27.464 52.1356 27.088C51.7436 26.712 51.4396 26.244 51.2236 25.684C51.0156 25.124 50.9116 24.476 50.9116 23.74C50.9116 23.012 51.0196 22.368 51.2356 21.808C51.4516 21.248 51.7556 20.776 52.1476 20.392C52.5396 20.008 52.9996 19.72 53.5276 19.528C54.0556 19.336 54.6356 19.24 55.2676 19.24C55.8836 19.24 56.3836 19.356 56.7676 19.588C57.1596 19.812 57.4636 20.128 57.6796 20.536C57.9036 20.944 58.0676 21.42 58.1716 21.964L57.5596 21.472L57.7876 19.396H58.9756V22.252H57.6076C57.4956 21.892 57.3516 21.58 57.1756 21.316C57.0076 21.044 56.7996 20.832 56.5516 20.68C56.3116 20.528 56.0196 20.452 55.6756 20.452C55.3556 20.452 55.0836 20.52 54.8596 20.656C54.6436 20.784 54.4676 20.98 54.3316 21.244C54.1956 21.508 54.0956 21.848 54.0316 22.264C53.9756 22.68 53.9476 23.172 53.9476 23.74C53.9476 24.356 53.9796 24.876 54.0436 25.3C54.1156 25.724 54.2196 26.064 54.3556 26.32C54.4996 26.568 54.6756 26.748 54.8836 26.86C55.0916 26.972 55.3316 27.028 55.6036 27.028C55.7476 27.028 55.8756 27.016 55.9876 26.992C56.1076 26.96 56.2156 26.92 56.3116 26.872C56.4076 26.816 56.4916 26.76 56.5636 26.704V25.24C56.5636 25.048 56.4996 24.924 56.3716 24.868C56.2436 24.804 56.0876 24.772 55.9036 24.772H55.6396V23.668H59.8396V24.772H59.6356C59.4756 24.772 59.3596 24.804 59.2876 24.868C59.2156 24.924 59.1796 25.048 59.1796 25.24ZM65.0802 24.004V24.892C64.7762 24.956 64.5202 25.028 64.3122 25.108C64.1042 25.18 63.9362 25.26 63.8082 25.348C63.6882 25.428 63.5962 25.516 63.5322 25.612C63.4762 25.708 63.4362 25.808 63.4122 25.912C63.3962 26.016 63.3882 26.124 63.3882 26.236C63.3882 26.444 63.4122 26.604 63.4602 26.716C63.5082 26.82 63.5762 26.892 63.6642 26.932C63.7602 26.972 63.8762 26.992 64.0122 26.992C64.1322 26.992 64.2442 26.968 64.3482 26.92C64.4602 26.872 64.5762 26.788 64.6962 26.668C64.8242 26.54 64.9522 26.364 65.0802 26.14L65.2482 26.584C65.0722 26.976 64.8802 27.284 64.6722 27.508C64.4722 27.732 64.2362 27.892 63.9642 27.988C63.6922 28.084 63.3682 28.132 62.9922 28.132C62.5122 28.132 62.1162 28.076 61.8042 27.964C61.4922 27.844 61.2602 27.66 61.1082 27.412C60.9642 27.156 60.8922 26.824 60.8922 26.416C60.8922 26.064 60.9642 25.764 61.1082 25.516C61.2602 25.26 61.4962 25.04 61.8162 24.856C62.1442 24.672 62.5762 24.512 63.1122 24.376C63.6482 24.24 64.3042 24.116 65.0802 24.004ZM65.2482 28L65.0562 26.68L64.9722 26.752V22.924C64.9722 22.828 64.9522 22.74 64.9122 22.66C64.8802 22.58 64.8082 22.516 64.6962 22.468C64.5842 22.42 64.4082 22.396 64.1682 22.396C63.8402 22.396 63.5642 22.432 63.3402 22.504C63.1242 22.568 62.9842 22.64 62.9202 22.72C62.8322 22.696 62.7762 22.656 62.7522 22.6C62.7362 22.544 62.7482 22.484 62.7882 22.42C62.8282 22.356 62.8962 22.304 62.9922 22.264C63.0962 22.216 63.2282 22.196 63.3882 22.204V23.656H61.2762V22.012C61.4042 21.94 61.6082 21.844 61.8882 21.724C62.1682 21.596 62.5202 21.484 62.9442 21.388C63.3762 21.292 63.8802 21.244 64.4562 21.244C64.9762 21.244 65.4362 21.288 65.8362 21.376C66.2362 21.464 66.5682 21.6 66.8322 21.784C67.1042 21.96 67.3082 22.184 67.4442 22.456C67.5882 22.72 67.6602 23.032 67.6602 23.392V26.608C67.6602 26.672 67.6722 26.724 67.6962 26.764C67.7282 26.796 67.7762 26.824 67.8402 26.848C67.9042 26.864 67.9882 26.888 68.0922 26.92L68.1882 26.944V28H65.2482ZM68.9992 28V27.052H69.0232C69.1832 27.052 69.3072 27.008 69.3952 26.92C69.4832 26.824 69.5272 26.656 69.5272 26.416V22.804C69.5272 22.74 69.5112 22.692 69.4792 22.66C69.4472 22.62 69.3992 22.588 69.3352 22.564C69.2712 22.54 69.1912 22.516 69.0952 22.492L68.9992 22.468V21.376H71.9992L72.2032 22.996L72.2872 23.008V26.956C72.2872 26.98 72.3072 27 72.3472 27.016C72.3872 27.032 72.4312 27.044 72.4792 27.052C72.5352 27.052 72.5832 27.052 72.6232 27.052H72.6832V28H68.9992ZM76.9432 28H73.3912V27.052H73.4272C73.4832 27.052 73.5392 27.052 73.5952 27.052C73.6512 27.044 73.6952 27.032 73.7272 27.016C73.7672 27 73.7872 26.98 73.7872 26.956V23.368C73.7872 23.24 73.7712 23.132 73.7392 23.044C73.7152 22.956 73.6672 22.888 73.5952 22.84C73.5312 22.792 73.4432 22.768 73.3312 22.768C73.1952 22.768 73.0512 22.82 72.8992 22.924C72.7552 23.02 72.6032 23.172 72.4432 23.38C72.2832 23.58 72.1112 23.848 71.9272 24.184L71.9752 23.128C72.1432 22.768 72.3592 22.448 72.6232 22.168C72.8952 21.88 73.1992 21.652 73.5352 21.484C73.8792 21.316 74.2352 21.232 74.6032 21.232C75.0192 21.232 75.3712 21.312 75.6592 21.472C75.9472 21.624 76.1672 21.852 76.3192 22.156C76.4712 22.46 76.5472 22.832 76.5472 23.272V26.956C76.5472 26.98 76.5632 27 76.5952 27.016C76.6352 27.032 76.6832 27.044 76.7392 27.052C76.8032 27.052 76.8592 27.052 76.9072 27.052H76.9432V28ZM81.3352 28H77.6512V27.052H77.6872C77.7432 27.052 77.7992 27.052 77.8552 27.052C77.9112 27.044 77.9552 27.032 77.9872 27.016C78.0272 27 78.0472 26.98 78.0472 26.956V23.368C78.0472 23.24 78.0312 23.132 77.9992 23.044C77.9752 22.956 77.9272 22.888 77.8552 22.84C77.7912 22.792 77.7032 22.768 77.5912 22.768C77.4472 22.768 77.3032 22.82 77.1592 22.924C77.0152 23.028 76.8632 23.184 76.7032 23.392C76.5432 23.592 76.3712 23.852 76.1872 24.172L76.2352 23.128C76.4112 22.768 76.6312 22.444 76.8952 22.156C77.1672 21.868 77.4712 21.644 77.8072 21.484C78.1432 21.316 78.4952 21.232 78.8632 21.232C79.2792 21.232 79.6312 21.312 79.9192 21.472C80.2072 21.624 80.4272 21.852 80.5792 22.156C80.7312 22.46 80.8072 22.832 80.8072 23.272V26.416C80.8072 26.656 80.8472 26.824 80.9272 26.92C81.0152 27.008 81.1352 27.052 81.2872 27.052H81.3352V28ZM84.8219 24.724C84.8219 25.14 84.8459 25.492 84.8939 25.78C84.9499 26.06 85.0379 26.284 85.1579 26.452C85.2859 26.62 85.4499 26.744 85.6499 26.824C85.8579 26.896 86.1139 26.932 86.4179 26.932C86.7059 26.932 86.9539 26.896 87.1619 26.824C87.3699 26.744 87.5539 26.632 87.7139 26.488C87.8739 26.344 88.0179 26.172 88.1459 25.972L89.1179 26.608C88.9339 26.952 88.7019 27.24 88.4219 27.472C88.1499 27.704 87.8179 27.876 87.4259 27.988C87.0339 28.1 86.5659 28.156 86.0219 28.156C85.1979 28.156 84.4939 28.028 83.9099 27.772C83.3259 27.516 82.8819 27.136 82.5779 26.632C82.2739 26.12 82.1219 25.488 82.1219 24.736C82.1219 24.032 82.2699 23.42 82.5659 22.9C82.8699 22.372 83.2979 21.964 83.8499 21.676C84.4099 21.388 85.0619 21.244 85.8059 21.244C86.3979 21.244 86.9059 21.324 87.3299 21.484C87.7619 21.644 88.1139 21.888 88.3859 22.216C88.6659 22.536 88.8739 22.94 89.0099 23.428C89.1539 23.908 89.2259 24.472 89.2259 25.12H84.0059V24.184H86.9699L86.7659 24.544C86.7579 24.08 86.7339 23.704 86.6939 23.416C86.6619 23.12 86.6099 22.896 86.5379 22.744C86.4739 22.592 86.3819 22.488 86.2619 22.432C86.1499 22.368 86.0139 22.336 85.8539 22.336C85.6779 22.336 85.5259 22.372 85.3979 22.444C85.2699 22.508 85.1619 22.624 85.0739 22.792C84.9859 22.96 84.9219 23.2 84.8819 23.512C84.8419 23.824 84.8219 24.228 84.8219 24.724ZM92.0362 28.264C91.5482 28.264 91.1602 28.14 90.8722 27.892C90.5922 27.644 90.4522 27.284 90.4522 26.812C90.4522 26.332 90.5922 25.968 90.8722 25.72C91.1602 25.472 91.5482 25.348 92.0362 25.348C92.5322 25.348 92.9202 25.472 93.2002 25.72C93.4802 25.968 93.6202 26.332 93.6202 26.812C93.6202 27.284 93.4802 27.644 93.2002 27.892C92.9202 28.14 92.5322 28.264 92.0362 28.264Z" fill="#D4AF37"/>
</g>
<defs>
<clipPath id="clip0_6707_3783">
<rect width="146" height="48" rx="8" fill="white"/>
</clipPath>
</defs>
</svg>
