<?xml version="1.0" encoding="UTF-8" standalone="no"?>
<!-- Created with Inkscape (http://www.inkscape.org/) -->

<svg
   width="23.458122mm"
   height="12.031509mm"
   viewBox="0 0 88.660622 45.473422"
   version="1.1"
   id="svg1"
   xml:space="preserve"
   xmlns="http://www.w3.org/2000/svg"
   xmlns:svg="http://www.w3.org/2000/svg"><defs
     id="defs1"><clipPath
       id="clip6_6491_7676"><rect
         width="94"
         height="54.421101"
         fill="#ffffff"
         transform="translate(40,426.526)"
         id="rect30"
         x="0"
         y="0" /></clipPath></defs><g
     id="layer13"
     style="display:inline"
     transform="translate(-388.00077,-656.69737)"><g
       clip-path="url(#clip6_6491_7676)"
       id="g21"
       transform="translate(344.76878,226.69737)"
       style="fill:#060622;fill-opacity:1"><path
         d="m 46.0646,452.786 6.109,-6.091 c 19.533,-19.476 51.2444,-19.476 70.7774,0 l 6.109,6.091 -6.109,6.091 c -19.533,19.476 -51.2444,19.476 -70.7774,0 z"
         stroke="#d4af37"
         stroke-width="4"
         stroke-miterlimit="10"
         id="path19"
         style="fill:#060622;fill-opacity:1" /><path
         d="m 87.7743,473.426 c 11.473,0 20.7737,-9.274 20.7737,-20.713 0,-11.44 -9.3007,-20.713 -20.7737,-20.713 -11.4731,0 -20.7738,9.273 -20.7738,20.713 0,11.439 9.3007,20.713 20.7738,20.713 z"
         stroke="#d4af37"
         stroke-width="4"
         stroke-miterlimit="10"
         id="path20"
         style="fill:#060622;fill-opacity:1" /><path
         d="m 87.5,465 c 6.9036,0 12.5,-5.597 12.5,-12.5 0,-6.904 -5.5964,-12.5 -12.5,-12.5 -6.9035,0 -12.5,5.596 -12.5,12.5 0,6.903 5.5965,12.5 12.5,12.5 z"
         stroke="#d4af37"
         stroke-width="4"
         stroke-miterlimit="10"
         id="path21"
         style="fill:#060622;fill-opacity:1" /></g></g></svg>
