<?xml version="1.0" encoding="UTF-8" standalone="no"?>
<!-- Created with Inkscape (http://www.inkscape.org/) -->

<svg
   width="55.82708mm"
   height="55.827042mm"
   viewBox="0 0 55.82708 55.827042"
   version="1.1"
   id="svg1"
   xml:space="preserve"
   xmlns="http://www.w3.org/2000/svg"
   xmlns:svg="http://www.w3.org/2000/svg"><defs
     id="defs1" /><g
     id="layer9"
     transform="translate(-77.126044,-120.51773)"><g
       style="fill:none"
       id="g9"
       transform="matrix(0.26458333,0,0,0.26458333,77.126044,120.51773)"><path
         fill-rule="evenodd"
         clip-rule="evenodd"
         d="m 28.6707,174.856 c 8.4042,9.315 18.6552,17.248 30.554,23.197 51.1153,25.558 113.2723,4.839 138.8303,-46.277 0.524,-1.047 1.026,-2.1 1.511,-3.157 l 1.789,0.895 c -0.485,1.056 -0.987,2.109 -1.511,3.157 -26.052,52.103 -89.41,73.222 -141.5135,47.17 -12.2717,-6.135 -22.8243,-14.34 -31.4469,-23.98 z M 210.18,92.4675 c 2.014,16.0595 0.357,32.7225 -5.403,48.6965 l -1.803,-0.901 c 5.564,-15.539 7.176,-31.735 5.246,-47.3555 z M 189.681,41.9062 c 10.556,13.9943 17.428,30.3914 20.083,47.5804 l -1.956,0.4404 C 205.217,73.0045 198.461,56.8605 188.069,43.0897 Z M 59.8216,10.4235 c 28.3786,-13.61026 62.5214,-14.4305 92.8514,0.7344 13.144,6.5722 24.315,15.5199 33.256,26.0611 l -1.616,1.1871 C 175.557,28.1117 164.629,19.3715 151.779,12.9464 122.002,-1.94203 88.4787,-1.12493 60.626,12.2554 Z M 19.4393,162.984 c 1.8349,2.753 3.8058,5.425 5.9108,8.004 l -1.7697,0.994 c -2.0974,-2.588 -4.0641,-5.266 -5.896,-8.023 z m -8.28,-104.6552 c 9.7611,-19.522 24.76,-34.6948 42.4413,-44.6655 l 0.8087,1.8407 c -17.2697,9.783 -31.9178,24.6316 -41.4615,43.719 -15.77381,31.5477 -13.92045,67.3 1.8269,96.059 l -1.7492,0.972 C -3.03101,126.938 -4.92108,90.489 11.1593,58.3288 Z"
         fill="#d4af37"
         id="path1-9" /></g></g></svg>
