<?xml version="1.0" encoding="UTF-8" standalone="no"?>
<!-- Created with Inkscape (http://www.inkscape.org/) -->

<svg
   width="55.827084mm"
   height="55.827084mm"
   viewBox="0 0 55.827084 55.827084"
   version="1.1"
   id="svg1"
   xml:space="preserve"
   xmlns="http://www.w3.org/2000/svg"
   xmlns:svg="http://www.w3.org/2000/svg"><defs
     id="defs1" /><g
     id="layer2"
     transform="translate(-77.126042,-120.51771)"><g
       style="fill:none"
       id="g2"
       transform="matrix(0.26458333,0,0,0.26458333,77.126042,120.51771)"><path
         d="M 143.21,9.08502 C 131.525,4.51102 118.806,2 105.5,2 48.3385,2 2,48.339 2,105.5 c 0,1.171 0.0219,2.338 0.0605,3.5 H 0.0596008 C 0.0217008,107.838 0,106.671 0,105.5 0,47.234 47.234,0 105.5,0 c 13.723,0 26.834,2.62002 38.859,7.38702 z M 17.6826,163.982 C 8.6969,150.516 2.7256,134.868 0.7344,118 H 2.75 c 1.9731,16.39 7.776,31.601 16.4893,44.712 z m 40.9551,36.064 C 42.9352,192.248 29.452,180.653 19.3877,166.463 l 1.5537,-1.269 c 9.8872,13.98 23.1527,25.401 38.6094,33.072 z M 188.895,170.124 C 169.595,194.994 139.417,211 105.5,211 90.801,211 76.8046,207.992 64.0908,202.561 l 0.9151,-1.785 C 77.4439,206.069 91.13,209 105.5,209 c 33.299,0 62.923,-15.726 81.855,-40.155 z M 156.779,15.577 c -2.873,-1.642 -5.831,-3.151 -8.868,-4.516 L 149.05,9.38 c 3.034,1.377 5.991,2.893 8.863,4.54 z M 211,105.5 c 0,21.831 -6.631,42.114 -17.989,58.943 l -1.547,-1.285 C 202.538,146.681 209,126.845 209,105.5 209,70.221 191.349,39.065 164.397,20.381 l 1.13,-1.652 C 193.005,37.773 211,69.536 211,105.5 Z"
         fill="#d4af37"
         id="path1-6" /></g></g></svg>
