<?xml version="1.0" encoding="UTF-8" standalone="no"?>
<!-- Created with Inkscape (http://www.inkscape.org/) -->

<svg
   width="55.827072mm"
   height="55.827122mm"
   viewBox="0 0 55.827072 55.827122"
   version="1.1"
   id="svg1"
   xml:space="preserve"
   xmlns="http://www.w3.org/2000/svg"
   xmlns:svg="http://www.w3.org/2000/svg"><defs
     id="defs1" /><g
     id="layer1"
     transform="translate(-77.126048,-120.51769)"><g
       style="fill:none"
       id="g1"
       transform="matrix(0.26458333,0,0,0.26458333,77.126048,120.51769)"><path
         fill-rule="evenodd"
         clip-rule="evenodd"
         d="M 182.329,36.1435 C 173.925,26.8288 163.674,18.8964 151.776,12.9471 100.659,-12.6106 38.5027,8.10838 12.9449,59.2237 c -0.5236,1.0471 -1.0258,2.1006 -1.5108,3.1571 L 9.64477,61.4861 C 10.1304,60.43 10.6328,59.3766 11.1564,58.3295 37.2083,6.22602 100.566,-14.8931 152.67,11.1586 c 12.271,6.1358 22.824,14.3409 31.446,23.9803 z M 0.820237,118.532 C -1.19417,102.473 0.462677,85.8102 6.22413,69.8356 l 1.80242,0.9014 c -5.564,15.5386 -7.175773,31.735 -5.24618,47.355 z M 21.3192,169.094 C 10.764,155.099 3.89101,138.702 1.23593,121.513 l 1.95659,-0.44 c 2.59079,16.922 9.34698,33.066 19.73918,46.837 z m 129.8598,31.483 c -28.378,13.61 -62.5216,14.43 -92.8515,-0.735 -13.1444,-6.572 -24.3154,-15.52 -33.2563,-26.061 l 1.6161,-1.187 c 8.7559,10.294 19.6842,19.034 32.5344,25.46 29.7773,14.888 63.2993,14.071 91.1523,0.69 z M 191.561,48.0158 c -1.835,-2.7529 -3.806,-5.4249 -5.911,-8.0034 l 1.77,-0.9939 c 2.097,2.5879 4.064,5.2657 5.896,8.0226 z m 8.28,104.6552 c -9.761,19.522 -24.76,34.695 -42.441,44.666 l -0.809,-1.841 c 17.27,-9.783 31.918,-24.632 41.461,-43.719 15.774,-31.548 13.921,-67.3006 -1.827,-96.0592 l 1.749,-0.972 c 16.057,29.3157 17.947,65.7652 1.867,97.9252 z"
         fill="#d4af37"
         id="path1" /></g></g></svg>
