<?xml version="1.0" encoding="UTF-8" standalone="no"?>
<!-- Created with Inkscape (http://www.inkscape.org/) -->

<svg
   width="46.192825mm"
   height="47.095833mm"
   viewBox="0 0 46.192825 47.095833"
   version="1.1"
   id="svg1"
   xml:space="preserve"
   xmlns="http://www.w3.org/2000/svg"
   xmlns:svg="http://www.w3.org/2000/svg"><defs
     id="defs1" /><g
     id="layer1"
     style="display:inline"
     transform="translate(-117.15373,-107.83657)"><g
       id="g8"
       transform="translate(31.121171,103.01233)"
       style="display:inline;fill:#d4af37;fill-opacity:1"><path
         d="m 130.232,36 c 0.829,0 1.5,0.6716 1.5,1.5 v 80.966 l 23.366,-50.1066 c 0.35,-0.7507 1.243,-1.0754 1.994,-0.7256 0.75,0.3501 1.075,1.2424 0.725,1.9932 l -23.157,49.66 60.934,-52.3095 c 0.629,-0.5395 1.576,-0.4682 2.116,0.1602 0.539,0.6285 0.467,1.5756 -0.161,2.1152 l -61.107,52.4581 59.837,-15.339 c 0.803,-0.206 1.62,0.279 1.826,1.081 0.206,0.803 -0.278,1.62 -1.081,1.825 l -60.396,15.484 79.752,15.986 c 0.812,0.163 1.338,0.953 1.175,1.766 -0.163,0.812 -0.953,1.338 -1.765,1.175 l -78.417,-15.719 53.748,40.699 c 0.66,0.5 0.79,1.441 0.29,2.102 -0.5,0.66 -1.441,0.791 -2.102,0.291 l -55.695,-42.174 25.768,50.571 c 0.376,0.738 0.082,1.641 -0.656,2.018 -0.738,0.376 -1.641,0.082 -2.017,-0.656 L 131.732,131.802 V 212.5 c 0,0.828 -0.671,1.5 -1.5,1.5 -0.828,0 -1.5,-0.672 -1.5,-1.5 v -80.501 l -23.319,50.011 c -0.35,0.75 -1.243,1.075 -1.993,0.725 -0.751,-0.35 -1.076,-1.243 -0.726,-1.994 l 23.373,-50.126 -61.3007,52.629 c -0.6284,0.54 -1.5755,0.467 -2.1152,-0.161 -0.5396,-0.629 -0.4674,-1.576 0.1611,-2.115 l 61.9188,-53.157 -60.4149,15.49 c -0.8024,0.205 -1.6194,-0.279 -1.8252,-1.081 -0.2055,-0.803 0.2778,-1.62 1.0801,-1.825 L 123.15,125.119 44.2029,109.295 c -0.8121,-0.163 -1.3386,-0.954 -1.1758,-1.766 0.1628,-0.812 0.9534,-1.338 1.7656,-1.175 l 80.3253,16.1 -56.1896,-42.5487 c -0.6603,-0.5001 -0.7901,-1.4412 -0.29,-2.1016 0.5001,-0.6599 1.4403,-0.7897 2.1006,-0.29 l 54.27,41.0943 -24.595,-48.2711 c -0.376,-0.7381 -0.083,-1.6414 0.655,-2.0176 0.738,-0.3761 1.642,-0.0828 2.018,0.6553 l 25.645,50.3344 V 37.5 c 0,-0.8283 0.672,-1.4998 1.5,-1.5 z"
         fill="#d4af37"
         id="path2"
         style="fill:#d4af37;fill-opacity:1"
         transform="matrix(0.26458333,0,0,0.26458333,74.656119,-4.7007632)" /></g></g></svg>
