<?xml version="1.0" encoding="UTF-8" standalone="no"?>
<!-- Created with Inkscape (http://www.inkscape.org/) -->

<svg
   width="45.508373mm"
   height="48.154007mm"
   viewBox="0 0 45.508373 48.154007"
   version="1.1"
   id="svg1"
   xml:space="preserve"
   xmlns="http://www.w3.org/2000/svg"
   xmlns:svg="http://www.w3.org/2000/svg"><defs
     id="defs1" /><g
     id="layer14"
     transform="translate(-117.49596,-107.30748)"><g
       id="g9"
       transform="translate(30.669005,14.376879)"
       style="fill:#d5af36;fill-opacity:0.752941"><path
         fill-rule="evenodd"
         clip-rule="evenodd"
         d="m 150.193,369.031 c 0.85,0.169 1.4,0.993 1.23,1.839 l -16.602,82.758 34.23,-46.439 c 0.513,-0.696 1.495,-0.845 2.193,-0.334 0.697,0.511 0.847,1.49 0.335,2.186 l -33.924,46.025 73.197,-41.011 c 0.755,-0.423 1.712,-0.156 2.136,0.597 0.424,0.752 0.156,1.705 -0.598,2.129 l -73.405,41.127 64.491,-3.447 c 0.866,-0.046 1.604,0.617 1.651,1.479 0.047,0.863 -0.617,1.599 -1.483,1.644 l -65.094,3.48 78.486,32.643 c 0.799,0.333 1.176,1.248 0.843,2.046 -0.334,0.796 -1.252,1.172 -2.051,0.84 l -77.172,-32.098 46.759,52.588 c 0.574,0.646 0.514,1.634 -0.134,2.207 -0.648,0.573 -1.639,0.514 -2.215,-0.132 l -48.452,-54.493 16.049,56.958 c 0.234,0.831 -0.253,1.694 -1.087,1.929 -0.833,0.233 -1.699,-0.252 -1.933,-1.083 l -15.556,-55.21 -16.547,82.484 c -0.17,0.846 -0.995,1.396 -1.845,1.226 -0.849,-0.169 -1.4,-0.993 -1.231,-1.84 l 16.507,-82.282 -34.1619,46.351 c -0.5127,0.695 -1.4949,0.844 -2.1921,0.333 -0.6981,-0.511 -0.8482,-1.49 -0.3354,-2.186 L 126.522,464.888 52.8839,506.15 c -0.7549,0.423 -1.711,0.155 -2.1355,-0.597 -0.4243,-0.753 -0.1561,-1.706 0.5989,-2.129 l 74.3807,-41.675 -65.1154,3.482 c -0.8649,0.046 -1.6032,-0.616 -1.6496,-1.478 -0.0462,-0.863 0.6168,-1.599 1.4816,-1.645 l 64.2144,-3.434 -77.6942,-32.313 c -0.7992,-0.333 -1.177,-1.249 -0.8435,-2.046 0.3334,-0.796 1.252,-1.172 2.0512,-0.84 l 79.0505,32.877 -48.8829,-54.977 c -0.5744,-0.646 -0.5145,-1.634 0.1337,-2.207 0.648,-0.572 1.6386,-0.513 2.2131,0.133 L 127.9,452.399 112.582,398.032 c -0.234,-0.832 0.251,-1.695 1.085,-1.929 0.834,-0.233 1.701,0.251 1.935,1.083 l 15.971,56.69 16.774,-83.619 c 0.17,-0.846 0.997,-1.395 1.846,-1.226 z"
         fill="#d4af37"
         id="path4"
         style="fill:#d5af36;fill-opacity:0.752941"
         transform="matrix(0.26458333,0,0,0.26458333,74.656119,-4.7007632)" /></g></g></svg>
