<?xml version="1.0" encoding="UTF-8" standalone="no"?>
<!-- Created with Inkscape (http://www.inkscape.org/) -->

<svg
   version="1.1"
   id="svg1"
   width="225.88982"
   height="211.21826"
   viewBox="0 0 225.88982 211.21826"
   xmlns="http://www.w3.org/2000/svg"
   xmlns:svg="http://www.w3.org/2000/svg">
  <defs
     id="defs1" />
  <g
     id="layer73"
     transform="translate(-403.86506,-462.44272)">
    <path
       id="path10"
       d="m 628.59533,581.11004 c 1.756,0.22614 1.41666,2.86014 -0.33934,2.634 l -105.84919,-13.63893 72.11773,47.8308 c 1.4828,0.96586 0.0333,3.19 -1.4488,2.22413 l -72.03707,-47.80666 46.21,72.35719 c 0.92134,1.50587 -1.3376,2.88787 -2.2588,1.38187 l -46.436,-72.63346 6.52134,98.77266 c 0.13826,1.76147 -2.50387,1.9688 -2.64214,0.20733 l -6.4664,-98.16759 -27.682,81.17279 c -0.6012,1.6616 -3.09373,0.75974 -2.49253,-0.90186 l 27.73213,-81.35613 -72.42373,71.39906 c -1.252,1.25013 -3.1272,-0.62773 -1.87533,-1.87787 l 72.66306,-71.60599 -77.67613,25.54333 c -1.6772,0.56013 -2.51733,-1.9556 -0.84026,-2.51573 l 77.51693,-25.5164 -105.86413,-13.61867 c -1.756,-0.22613 -1.4168,-2.86013 0.3392,-2.634 l 105.85106,13.63893 -72.1192,-47.83133 c -1.4828,-0.96587 -0.0333,-3.19013 1.4488,-2.22413 l 72.03733,47.80666 -46.21026,-72.3572 c -0.92134,-1.50586 1.3376,-2.88786 2.25893,-1.38186 l 46.43587,72.63293 -6.52147,-98.77186 c -0.13827,-1.76147 2.50387,-1.9688 2.64213,-0.20734 l 6.46627,98.16707 27.68213,-81.1724 c 0.6012,-1.66174 3.09374,-0.75987 2.49254,0.90186 l -27.732,81.35627 72.42346,-71.39893 c 1.25187,-1.25014 3.1272,0.62773 1.8752,1.87786 l -72.66266,71.6056 77.67599,-25.54306 c 1.6772,-0.56014 2.51734,1.9556 0.84014,2.51573 l -77.51733,25.5164 z"
       style="fill:#d4af37;fill-opacity:1;fill-rule:nonzero;stroke:none;stroke-width:1.33333" />
  </g>
</svg>
