<?xml version="1.0" encoding="UTF-8" standalone="no"?>
<!-- Created with Inkscape (http://www.inkscape.org/) -->

<svg
   version="1.1"
   id="svg1"
   width="82.616386"
   height="97.111824"
   viewBox="0 0 82.616386 97.111824"
   xmlns="http://www.w3.org/2000/svg"
   xmlns:svg="http://www.w3.org/2000/svg">
  <defs
     id="defs1" />
  <g
     id="layer106"
     transform="translate(-366.69181,-479.44408)">
    <path
       id="path6"
       d="m 369.74036,514.69909 36.3084,12.03546 -27.5852,-30.0396 c -0.52933,-0.5764 0.33533,-1.3704 0.86467,-0.794 l 27.0536,29.46067 -12.9704,-34.7148 c -0.274,-0.73307 0.82573,-1.144 1.0996,-0.4108 l 13.15933,35.22013 4.6572,-45.48453 c 0.08,-0.77853 1.2476,-0.65907 1.16787,0.12 l -4.6652,45.56333 18.69146,-28.62813 c 0.42774,-0.65533 1.4108,-0.0133 0.98294,0.64173 l -19.16667,29.35587 36.84187,-21.5964 c 0.6752,-0.39573 1.26893,0.61693 0.59373,1.0128 l -35.16933,20.61587 37.05933,-3.63614 c 0.77893,-0.076 0.89347,1.09187 0.11467,1.16827 l -37.96587,3.7252 35.81653,11.8724 c 0.7428,0.24627 0.37347,1.36053 -0.36946,1.11427 l -36.2868,-12.0284 27.5316,29.9812 c 0.52933,0.5764 -0.33534,1.3704 -0.86467,0.794 l -27.05147,-29.45827 12.9712,34.71667 c 0.274,0.73306 -0.82573,1.144 -1.0996,0.4108 l -13.13266,-35.14827 -4.65467,45.46 c -0.08,0.77853 -1.2476,0.65893 -1.16787,-0.12 l 4.66534,-45.56347 -18.69147,28.628 c -0.42787,0.65534 -1.41093,0.0133 -0.98307,-0.64173 l 18.13214,-27.77133 -35.36734,20.732 c -0.6752,0.39573 -1.26893,-0.61707 -0.59373,-1.0128 l 36.7332,-21.53254 -39.06307,3.8328 c -0.77893,0.076 -0.8936,-1.09186 -0.11466,-1.1684 l 37.966,-3.72506 -35.8168,-11.87254 c -0.74294,-0.24626 -0.37347,-1.36053 0.36933,-1.11426 z"
       style="fill:#d4af37;fill-opacity:1;fill-rule:nonzero;stroke:none;stroke-width:1.33333" />
  </g>
</svg>
