<?xml version="1.0" encoding="UTF-8" standalone="no"?>
<!-- Created with Inkscape (http://www.inkscape.org/) -->

<svg
   version="1.1"
   id="svg1"
   width="227.27213"
   height="200.52728"
   viewBox="0 0 227.27213 200.52728"
   xmlns="http://www.w3.org/2000/svg"
   xmlns:svg="http://www.w3.org/2000/svg">
  <defs
     id="defs1" />
  <g
     id="layer38"
     transform="translate(-415.37114,-436.17805)">
    <path
       id="path8"
       d="m 416.61459,530.57884 c -1.76693,-0.11334 -1.59733,-2.76347 0.1696,-2.6504 l 106.45653,6.81973 -70.55,-40.23573 c -1.54493,-0.86307 -0.25026,-3.1804 1.29467,-2.31733 l 70.3112,40.12973 -58.04747,-76.30427 c -1.04426,-1.42333 1.09067,-2.98986 2.13507,-1.56653 l 58.46853,76.79626 -13.04266,-90.16826 c -0.2764,-1.74507 2.3412,-2.15987 2.6176,-0.41467 l 12.9328,89.5224 24.03546,-93.0336 c 0.47027,-1.70333 3.02533,-0.998 2.55507,0.70534 l -24.0976,93.31639 64.16466,-72.66293 c 1.16214,-1.334 3.16334,0.4092 2.0012,1.7432 l -64.28066,72.76133 73.18773,-30.17026 c 1.6316,-0.68187 2.65413,1.7656 1.02267,2.4472 l -73.18947,30.198 106.6404,6.8096 c 1.7668,0.11333 1.5972,2.76346 -0.1696,2.6504 l -106.45853,-6.81974 70.55173,40.23614 c 1.5448,0.86306 0.25013,3.1804 -1.29467,2.31733 l -70.31199,-40.12987 58.04799,76.30467 c 1.0444,1.4232 -1.09053,2.98987 -2.13493,1.56653 l -58.4688,-76.79626 13.04294,90.168 c 0.2764,1.74506 -2.3412,2.15973 -2.6176,0.41466 l -12.9328,-89.5208 -24.0352,93.032 c -0.47014,1.70347 -3.0252,0.99814 -2.55507,-0.70533 l 24.09773,-93.31693 -64.1648,72.66306 c -1.16213,1.33414 -3.1632,-0.40906 -2.00106,-1.7432 l 64.28,-72.7608 -73.18734,30.17 c -1.6316,0.68174 -2.65413,-1.7656 -1.02253,-2.44733 l 73.18987,-30.198 z"
       style="fill:#d4af37;fill-opacity:1;fill-rule:nonzero;stroke:none;stroke-width:1.33333" />
  </g>
</svg>
