<?xml version="1.0" encoding="UTF-8" standalone="no"?>
<!-- Created with Inkscape (http://www.inkscape.org/) -->

<svg
   version="1.1"
   id="svg1"
   width="81.825722"
   height="84.617271"
   viewBox="0 0 81.825722 84.617271"
   xmlns="http://www.w3.org/2000/svg"
   xmlns:svg="http://www.w3.org/2000/svg">
  <defs
     id="defs1" />
  <g
     id="layer109"
     transform="translate(-367.08715,-485.69137)">
    <path
       id="path9"
       d="m 377.41773,543.57427 28.03147,-14.92854 -37.7464,1.83814 c -0.78173,0.0387 -0.8388,-1.1344 -0.0573,-1.17254 l 37.80946,-1.84106 -28.72786,-12.44587 c -0.71814,-0.3112 -0.25134,-1.3884 0.4668,-1.0772 l 28.53733,12.36347 -27.08907,-29.43374 c -0.53,-0.57586 0.33374,-1.3708 0.86374,-0.79493 l 27.2196,29.57533 -8.95974,-29.69626 c -0.226,-0.7492 0.89787,-1.08827 1.12387,-0.33907 l 9.18987,30.4588 5.64386,-39.884 c 0.10934,-0.77493 1.272,-0.6104 1.16227,0.16453 l -5.4588,38.5772 19.32747,-27.36266 c 0.4516,-0.63934 1.4104,0.0373 0.95893,0.67733 l -19.78133,28.0052 28.1524,-14.99293 c 0.69066,-0.36787 1.24253,0.6684 0.55173,1.03626 l -28.0092,14.91654 37.6704,-1.83454 c 0.78173,-0.0387 0.8388,1.13454 0.0573,1.17254 l -37.806,1.8412 28.72894,12.4464 c 0.71813,0.31106 0.25146,1.38826 -0.46667,1.0772 l -28.46747,-12.33294 27.06854,29.41094 c 0.53,0.57586 -0.33387,1.37093 -0.86387,0.79506 l -27.21973,-29.57546 8.95973,29.69613 c 0.22613,0.74933 -0.89787,1.0884 -1.12387,0.33907 l -8.67293,-28.7452 -5.4128,38.29453 c -0.10933,0.77493 -1.272,0.6104 -1.1624,-0.16453 l 5.66827,-40.05627 -20.28467,28.71773 c -0.4516,0.6392 -1.4104,-0.0387 -0.95893,-0.67733 l 19.78133,-28.00533 -28.15253,14.99306 c -0.6908,0.36787 -1.24254,-0.66826 -0.55174,-1.03626 z"
       style="fill:#d4af37;fill-opacity:1;fill-rule:nonzero;stroke:none;stroke-width:1.33333" />
  </g>
</svg>
