<?xml version="1.0" encoding="UTF-8" standalone="no"?>
<!-- Created with Inkscape (http://www.inkscape.org/) -->

<svg
   version="1.1"
   id="svg1"
   width="83.991226"
   height="100.97012"
   viewBox="0 0 83.991226 100.97012"
   xmlns="http://www.w3.org/2000/svg"
   xmlns:svg="http://www.w3.org/2000/svg">
  <defs
     id="defs1" />
  <g
     id="layer107"
     transform="translate(-366.00439,-477.51494)">
    <path
       id="path7"
       d="m 366.72182,518.10451 39.13986,8.81093 -31.44733,-27.23 c -0.5916,-0.51227 0.17694,-1.39973 0.76854,-0.88747 l 31.00279,26.84507 -17.23626,-35.1748 c -0.3444,-0.7028 0.70973,-1.21946 1.05413,-0.51666 l 17.40307,35.51533 -0.12134,-47.36387 c 0,-0.78266 1.172,-0.7856 1.174,0 l 0.12134,47.45333 15.8508,-31.28426 c 0.35373,-0.69814 1.40093,-0.16747 1.0472,0.53066 l -16.2604,32.09254 34.61786,-26.01454 c 0.62574,-0.47013 1.33094,0.46827 0.70534,0.93854 l -33.094,24.86946 37.72173,-7.80466 c 0.7664,-0.15867 1.00413,0.99106 0.23773,1.1496 l -38.62666,7.99186 38.7556,8.7244 c 0.7636,0.17187 0.50573,1.3172 -0.25787,1.14534 l -39.11507,-8.80534 31.384,27.17534 c 0.59174,0.51226 -0.1768,1.39973 -0.7684,0.88746 l -31.00026,-26.8428 17.2372,35.17667 c 0.3444,0.7028 -0.70974,1.21933 -1.05414,0.51653 l -17.368,-35.4432 0.12134,47.33694 c 0,0.78266 -1.172,0.78573 -1.17387,0 l -0.12133,-47.45387 -15.8508,31.2844 c -0.35373,0.69813 -1.4008,0.1676 -1.0472,-0.53053 l 15.3704,-30.33614 -33.1984,24.94787 c -0.6256,0.47027 -1.33093,-0.46827 -0.7052,-0.9384 l 34.56133,-25.97227 -39.71853,8.2176 c -0.7664,0.15867 -1.00427,-0.99093 -0.23787,-1.1496 l 38.6268,-7.99186 -38.75586,-8.7244 c -0.76347,-0.172 -0.5056,-1.3172 0.25786,-1.14534 z"
       style="fill:#d4af37;fill-opacity:1;fill-rule:nonzero;stroke:none;stroke-width:1.33333" />
  </g>
</svg>
