<?xml version="1.0" encoding="UTF-8" standalone="no"?>
<!-- Created with Inkscape (http://www.inkscape.org/) -->

<svg
   version="1.1"
   id="svg1"
   width="224.97491"
   height="222.84824"
   viewBox="0 0 224.97491 222.84824"
   xmlns="http://www.w3.org/2000/svg"
   xmlns:svg="http://www.w3.org/2000/svg">
  <defs
     id="defs1" />
  <g
     id="layer52"
     transform="translate(-428.32271,-424.90935)">
    <path
       id="path12"
       d="m 429.42977,518.47852 c -1.74867,-0.30147 -1.2964,-2.92467 0.45227,-2.62307 l 105.44573,18.18493 -73.16387,-52.89453 c -1.44146,-1.03427 0.11067,-3.19653 1.5516,-2.16213 l 73.18747,52.92453 -38.31853,-69.72547 c -0.8392,-1.56106 1.50226,-2.81986 2.34146,-1.2588 l 38.414,69.85734 -2.17387,-104.5076 c -0.0467,-1.7724 2.61254,-1.84147 2.65854,-0.0693 l 2.1556,103.93146 30.1132,-73.2664 c 0.68866,-1.63387 3.13946,-0.60107 2.45093,1.0328 l -30.15493,73.38253 77.9292,-70.556 c 1.31173,-1.19426 3.1032,0.77347 1.79146,1.96774 l -78.25106,70.83546 80.66826,-22.45866 c 1.7076,-0.47907 2.42627,2.0824 0.71867,2.56146 l -80.40213,22.3952 105.34679,18.15827 c 1.74867,0.3016 1.2964,2.92467 -0.45226,2.6232 l -105.4448,-18.18507 73.1632,52.89427 c 1.44133,1.03426 -0.11067,3.19653 -1.5516,2.16213 l -73.1876,-52.92466 38.31853,69.72586 c 0.8392,1.56093 -1.50226,2.81973 -2.34146,1.2588 l -38.4144,-69.85826 2.174,104.50866 c 0.0467,1.7724 -2.61254,1.84147 -2.65854,0.0693 l -2.15546,-103.93066 -30.11293,73.26533 c -0.68854,1.63387 -3.13947,0.60107 -2.45094,-1.0328 l 30.15507,-73.38293 -77.9296,70.55653 c -1.31187,1.19427 -3.1032,-0.77333 -1.79147,-1.9676 l 78.2512,-70.83573 -80.66826,22.45866 c -1.7076,0.47907 -2.42627,-2.08226 -0.71867,-2.56133 l 80.40186,-22.39533 z"
       style="fill:#d4af37;fill-opacity:1;fill-rule:nonzero;stroke:none;stroke-width:1.33333" />
  </g>
</svg>
