<?xml version="1.0" encoding="UTF-8" standalone="no"?>
<!-- Created with Inkscape (http://www.inkscape.org/) -->

<svg
   version="1.1"
   id="svg1"
   width="224.97499"
   height="222.8486"
   viewBox="0 0 224.97499 222.8486"
   xmlns="http://www.w3.org/2000/svg"
   xmlns:svg="http://www.w3.org/2000/svg">
  <defs
     id="defs1" />
  <g
     id="layer64"
     transform="translate(-410.98914,-449.17303)">
    <path
       id="path12"
       d="m 634.85697,542.74231 c 1.7488,-0.3016 1.29653,-2.9246 -0.45227,-2.623 l -105.4444,18.185 73.16293,-52.89425 c 1.44147,-1.0344 -0.11066,-3.19653 -1.5516,-2.16213 l -73.18746,52.92478 38.31813,-69.72558 c 0.8392,-1.56093 -1.5024,-2.81986 -2.3416,-1.2588 l -38.41387,69.85818 2.1736,-104.50911 c 0.0467,-1.7724 -2.6124,-1.84147 -2.65853,-0.0693 l -2.15533,103.93101 -30.11307,-73.26515 c -0.68853,-1.63386 -3.13933,-0.60106 -2.4508,1.03294 l 30.1552,73.38241 -77.93,-70.55655 c -1.31173,-1.19426 -3.1032,0.77347 -1.79146,1.96774 l 78.25159,70.83561 -80.66839,-22.4586 c -1.70774,-0.479 -2.42627,2.0824 -0.71867,2.5615 l 80.40186,22.3951 -105.34653,18.1582 c -1.7488,0.3016 -1.29653,2.9247 0.45227,2.6232 l 105.44613,-18.1852 -73.1644,52.8948 c -1.44133,1.0344 0.11067,3.1966 1.5516,2.1622 l 73.18773,-52.9248 -38.31826,69.7254 c -0.8392,1.561 1.50227,2.8199 2.34147,1.2588 l 38.41373,-69.8573 -2.17374,104.508 c -0.0467,1.7723 2.6124,1.8413 2.65854,0.069 l 2.15533,-103.9313 30.11333,73.2657 c 0.68854,1.6339 3.13934,0.6011 2.4508,-1.0329 l -30.15493,-73.3823 77.92947,70.556 c 1.31173,1.1943 3.1032,-0.7733 1.79133,-1.9676 l -78.2512,-70.8354 80.6684,22.4585 c 1.7076,0.4791 2.42627,-2.0824 0.71867,-2.5615 l -80.4024,-22.395 z"
       style="fill:#d4af37;fill-opacity:1;fill-rule:nonzero;stroke:none;stroke-width:1.33333" />
  </g>
</svg>
