<?xml version="1.0" encoding="UTF-8" standalone="no"?>
<!-- Created with Inkscape (http://www.inkscape.org/) -->

<svg
   version="1.1"
   id="svg1"
   width="79.065224"
   height="68.020477"
   viewBox="0 0 79.065224 68.020477"
   xmlns="http://www.w3.org/2000/svg"
   xmlns:svg="http://www.w3.org/2000/svg">
  <defs
     id="defs1" />
  <g
     id="layer111"
     transform="translate(-368.46737,-493.98977)">
    <path
       id="path11"
       d="m 398.78367,557.04648 7.99253,-26.9816 -24.7688,25.34587 c -0.54707,0.55973 -1.38667,-0.2608 -0.8396,-0.82053 l 24.41787,-24.9868 -25.05067,10.20146 c -0.7248,0.2952 -1.1676,-0.792 -0.44267,-1.0872 l 25.22174,-10.2712 -36.2904,-1.91026 c -0.7816,-0.0413 -0.71987,-1.21347 0.0613,-1.1724 l 36.47307,1.91986 -24.96774,-14.2332 c -0.68,-0.3876 -0.0987,-1.40746 0.58134,-1.01986 l 25.2444,14.3908 -21.32627,-30.85934 c -0.44507,-0.64386 0.5208,-1.3112 0.96573,-0.66733 l 20.908,30.254 -4.72853,-30.4812 c -0.12,-0.77333 1.04013,-0.95333 1.16013,-0.18 l 4.78414,30.83987 7.9112,-26.70734 c 0.2224,-0.7504 1.348,-0.41693 1.12573,0.33347 l -7.96933,26.9032 24.70466,-25.28027 c 0.54707,-0.55973 1.38667,0.2608 0.8396,0.82054 l -24.4216,24.99066 25.058,-10.2044 c 0.7248,-0.2952 1.16747,0.792 0.44267,1.0872 l -25.24373,10.28014 36.34986,1.91333 c 0.7816,0.0413 0.71987,1.21347 -0.0613,1.17227 l -36.47293,-1.91987 24.9676,14.23307 c 0.67986,0.3876 0.0987,1.40746 -0.58147,1.01986 l -24.51613,-13.9756 21.16706,30.6288 c 0.44494,0.64387 -0.5208,1.31133 -0.96586,0.66747 l -21.60467,-31.262 4.8564,31.30453 c 0.12,0.77333 -1.04013,0.95333 -1.16,0.17987 l -4.78427,-30.84013 -7.91146,26.7076 c -0.22227,0.75039 -1.34787,0.41706 -1.1256,-0.33334 z"
       style="fill:#d4af37;fill-opacity:1;fill-rule:nonzero;stroke:none;stroke-width:1.33333" />
  </g>
</svg>
