<?xml version="1.0" encoding="UTF-8" standalone="no"?>
<!-- Created with Inkscape (http://www.inkscape.org/) -->

<svg
   width="55.827084mm"
   height="55.827084mm"
   viewBox="0 0 55.827084 55.827084"
   version="1.1"
   id="svg1"
   xml:space="preserve"
   xmlns="http://www.w3.org/2000/svg"
   xmlns:svg="http://www.w3.org/2000/svg"><defs
     id="defs1" /><g
     id="layer3"
     transform="translate(-77.126042,-120.51771)"><g
       style="fill:none"
       id="g3"
       transform="matrix(0.26458333,0,0,0.26458333,77.126042,120.51771)"><path
         d="M 201.915,143.21 C 206.489,131.525 209,118.806 209,105.5 209,48.339 162.661,2 105.5,2 104.329,2 103.162,2.022 102,2.061 V 0.0599976 C 103.162,0.0219976 104.329,0 105.5,0 163.766,0 211,47.234 211,105.5 c 0,13.723 -2.62,26.834 -7.387,38.859 z M 47.0176,17.683 C 60.4837,8.69701 76.1319,2.72601 93,0.734009 V 2.75 C 76.6097,4.723 61.3991,10.526 48.2881,19.239 Z M 10.9541,58.638 c 7.798,-15.703 19.3926,-29.186 33.583,-39.25 l 1.2686,1.553 c -13.98,9.888 -25.4005,23.153 -33.0713,38.61 z M 40.876,188.895 C 16.0063,169.595 0,139.417 0,105.5 0,90.801 3.0084,76.805 8.4395,64.091 l 1.7841,0.915 C 4.9305,77.444 2,91.13 2,105.5 c 0,33.299 15.7262,62.923 40.1553,81.855 z m 154.547,-32.116 c 1.642,-2.873 3.151,-5.831 4.516,-8.868 l 1.681,1.139 c -1.377,3.034 -2.893,5.991 -4.54,8.863 z M 105.5,211 c -21.831,0 -42.1138,-6.631 -58.9434,-17.989 l 1.2852,-1.547 C 64.3193,202.538 84.155,209 105.5,209 c 35.279,0 66.435,-17.651 85.119,-44.603 l 1.652,1.13 C 173.227,193.005 141.464,211 105.5,211 Z"
         fill="#d4af37"
         id="path1-61" /></g></g></svg>
