<?xml version="1.0" encoding="UTF-8" standalone="no"?>
<!-- Created with Inkscape (http://www.inkscape.org/) -->

<svg
   width="55.827084mm"
   height="55.827045mm"
   viewBox="0 0 55.827084 55.827045"
   version="1.1"
   id="svg1"
   xml:space="preserve"
   xmlns="http://www.w3.org/2000/svg"
   xmlns:svg="http://www.w3.org/2000/svg"><defs
     id="defs1" /><g
     id="layer12"
     transform="translate(-77.126042,-120.51773)"><g
       style="fill:none"
       id="g12"
       transform="matrix(0.26458333,0,0,0.26458333,77.126042,120.51773)"><path
         fill-rule="evenodd"
         clip-rule="evenodd"
         d="M 208.578,96.1129 C 207.444,83.6187 204.003,71.1222 198.053,59.2235 172.495,8.10836 110.338,-12.6105 59.223,12.9471 c -1.0471,0.5235 -2.0809,1.065 -3.1028,1.6194 l -0.8946,-1.7894 c 1.0222,-0.5535 2.056,-1.0949 3.1032,-1.6185 52.1032,-26.0517 115.4612,-4.93259 141.5132,47.1707 6.135,12.2716 9.655,25.1673 10.769,38.0518 z M 13.9379,53.1195 C 21.9621,39.0631 33.2854,26.7272 47.4792,17.4039 l 0.9012,1.8028 C 34.6058,28.2992 23.5985,40.2895 15.7701,53.9431 Z M 3.87708e-4,105.868 C -0.0472307,88.3388 4.2925,71.0976 12.4821,55.7535 l 1.8292,0.8213 C 6.23058,71.6677 1.9492,88.6362 2.00066,105.888 Z M 84.998,208.969 C 54.1293,202.83 26.3227,183 11.1578,152.671 4.58563,139.526 1.0178,125.666 0.18992,111.868 l 2.00456,0.02 c 0.82798,13.489 4.32672,27.038 10.75182,39.889 14.8886,29.777 42.1969,49.236 72.5072,55.243 z m 123.842,-97.82 c 0.184,-3.303 0.211,-6.623 0.073,-9.949 l 2.013,0.267 c 0.125,3.329 0.091,6.651 -0.097,9.956 z m -56.169,88.692 c -19.522,9.761 -40.625,12.901 -60.7528,10.268 l 0.4576,-1.957 c 19.6862,2.535 40.3132,-0.555 59.4002,-10.099 31.548,-15.774 51.517,-45.488 56.174,-77.943 l 1.983,0.271 c -4.744,33.087 -25.102,63.38 -57.262,79.46 z"
         fill="#d4af37"
         id="path1-5" /></g></g></svg>
