<svg width="94" height="56" viewBox="0 0 94 56" fill="none" xmlns="http://www.w3.org/2000/svg">
<g clip-path="url(#clip0_6491_7685)">
<path d="M6.06445 27.1021L12.1735 21.0109C31.7065 1.53501 63.4179 1.53501 82.951 21.0109L89.0599 27.102L82.9509 33.1932C63.4179 52.6691 31.7065 52.6691 12.1735 33.1932L6.06445 27.1021Z" stroke="#D4AF37" stroke-width="4" stroke-miterlimit="10"/>
<path d="M47.62 47.8133C59.093 47.8133 68.3938 38.5397 68.3938 27.1002C68.3938 15.6607 59.093 6.38721 47.62 6.38721C36.1469 6.38721 26.8462 15.6607 26.8462 27.1002C26.8462 38.5397 36.1469 47.8133 47.62 47.8133Z" stroke="#D4AF37" stroke-width="4" stroke-miterlimit="10"/>
<path d="M47.5718 42.1288C52.019 42.1288 55.6241 38.5342 55.6241 34.1C55.6241 29.6659 52.019 26.0713 47.5718 26.0713C43.1247 26.0713 39.5195 29.6659 39.5195 34.1C39.5195 38.5342 43.1247 42.1288 47.5718 42.1288Z" stroke="#D4AF37" stroke-width="4" stroke-miterlimit="10"/>
</g>
<defs>
<clipPath id="clip0_6491_7685">
<rect width="94" height="54.4211" fill="white" transform="translate(0 0.842285)"/>
</clipPath>
</defs>
</svg>
