<svg width="94" height="55" viewBox="0 0 94 55" fill="none" xmlns="http://www.w3.org/2000/svg">
<g clip-path="url(#clip0_6491_7701)">
<path d="M6.06445 26.7861L12.1735 20.695C31.7065 1.21909 63.4179 1.21909 82.951 20.695L89.0599 26.7861L82.9509 32.8773C63.4179 52.3532 31.7065 52.3532 12.1735 32.8773L6.06445 26.7861Z" stroke="#D4AF37" stroke-width="4" stroke-miterlimit="10"/>
<path d="M47.7743 47.4261C59.2473 47.4261 68.5481 38.1525 68.5481 26.713C68.5481 15.2735 59.2473 6 47.7743 6C36.3012 6 27.0005 15.2735 27.0005 26.713C27.0005 38.1525 36.3012 47.4261 47.7743 47.4261Z" stroke="#D4AF37" stroke-width="4" stroke-miterlimit="10"/>
<path d="M47.5 39C54.4036 39 60 33.4035 60 26.5C60 19.5964 54.4036 14 47.5 14C40.5965 14 35 19.5964 35 26.5C35 33.4035 40.5965 39 47.5 39Z" stroke="#D4AF37" stroke-width="4" stroke-miterlimit="10"/>
</g>
<defs>
<clipPath id="clip0_6491_7701">
<rect width="94" height="54.4211" fill="white" transform="translate(0 0.526367)"/>
</clipPath>
</defs>
</svg>
