<svg width="176" height="586" viewBox="0 0 176 586" fill="none" xmlns="http://www.w3.org/2000/svg">
<rect x="0.5" y="0.5" width="175" height="584.368" rx="4.5" stroke="#9747FF" stroke-dasharray="10 5"/>
<g clip-path="url(#clip0_6491_7676)">
<path d="M46.0646 66.2598L52.1736 60.1686C71.7066 40.6928 103.418 40.6928 122.951 60.1686L129.06 66.2598L122.951 72.3509C103.418 91.8268 71.7066 91.8268 52.1736 72.3509L46.0646 66.2598Z" stroke="#D4AF37" stroke-width="4" stroke-miterlimit="10"/>
<path d="M87.62 86.9709C99.093 86.9709 108.394 77.6974 108.394 66.2579C108.394 54.8184 99.093 45.5448 87.62 45.5448C76.1469 45.5448 66.8462 54.8184 66.8462 66.2579C66.8462 77.6974 76.1469 86.9709 87.62 86.9709Z" stroke="#D4AF37" stroke-width="4" stroke-miterlimit="10"/>
<path d="M87.5723 74.2864C92.0195 74.2864 95.6246 70.6918 95.6246 66.2577C95.6246 61.8235 92.0195 58.2289 87.5723 58.2289C83.1252 58.2289 79.52 61.8235 79.52 66.2577C79.52 70.6918 83.1252 74.2864 87.5723 74.2864Z" stroke="#D4AF37" stroke-width="4" stroke-miterlimit="10"/>
</g>
<g clip-path="url(#clip1_6491_7676)">
<path d="M46.0646 130.681L52.1736 124.59C71.7066 105.114 103.418 105.114 122.951 124.59L129.06 130.681L122.951 136.772C103.418 156.248 71.7066 156.248 52.1736 136.772L46.0646 130.681Z" stroke="#D4AF37" stroke-width="4" stroke-miterlimit="10"/>
<path d="M87.62 151.392C99.093 151.392 108.394 142.118 108.394 130.679C108.394 119.239 99.093 109.966 87.62 109.966C76.1469 109.966 66.8462 119.239 66.8462 130.679C66.8462 142.118 76.1469 151.392 87.62 151.392Z" stroke="#D4AF37" stroke-width="4" stroke-miterlimit="10"/>
<path d="M94.5718 138.708C99.019 138.708 102.624 135.113 102.624 130.679C102.624 126.245 99.019 122.65 94.5718 122.65C90.1247 122.65 86.5195 126.245 86.5195 130.679C86.5195 135.113 90.1247 138.708 94.5718 138.708Z" stroke="#D4AF37" stroke-width="4" stroke-miterlimit="10"/>
</g>
<g clip-path="url(#clip2_6491_7676)">
<path d="M46.0646 195.102L52.1736 189.011C71.7066 169.535 103.418 169.535 122.951 189.011L129.06 195.102L122.951 201.193C103.418 220.669 71.7066 220.669 52.1736 201.193L46.0646 195.102Z" stroke="#D4AF37" stroke-width="4" stroke-miterlimit="10"/>
<path d="M87.62 215.813C99.093 215.813 108.394 206.539 108.394 195.1C108.394 183.66 99.093 174.387 87.62 174.387C76.1469 174.387 66.8462 183.66 66.8462 195.1C66.8462 206.539 76.1469 215.813 87.62 215.813Z" stroke="#D4AF37" stroke-width="4" stroke-miterlimit="10"/>
<path d="M87.5718 210.129C92.019 210.129 95.6241 206.534 95.6241 202.1C95.6241 197.666 92.019 194.071 87.5718 194.071C83.1247 194.071 79.5195 197.666 79.5195 202.1C79.5195 206.534 83.1247 210.129 87.5718 210.129Z" stroke="#D4AF37" stroke-width="4" stroke-miterlimit="10"/>
</g>
<g clip-path="url(#clip3_6491_7676)">
<path d="M46.0646 259.523L52.1736 253.432C71.7066 233.956 103.418 233.956 122.951 253.432L129.06 259.523L122.951 265.614C103.418 285.09 71.7066 285.09 52.1736 265.614L46.0646 259.523Z" stroke="#D4AF37" stroke-width="4" stroke-miterlimit="10"/>
<path d="M87.62 280.234C99.093 280.234 108.394 270.961 108.394 259.521C108.394 248.082 99.093 238.808 87.62 238.808C76.1469 238.808 66.8462 248.082 66.8462 259.521C66.8462 270.961 76.1469 280.234 87.62 280.234Z" stroke="#D4AF37" stroke-width="4" stroke-miterlimit="10"/>
<path d="M80.5718 267.55C85.019 267.55 88.6241 263.955 88.6241 259.521C88.6241 255.087 85.019 251.492 80.5718 251.492C76.1247 251.492 72.5195 255.087 72.5195 259.521C72.5195 263.955 76.1247 267.55 80.5718 267.55Z" stroke="#D4AF37" stroke-width="4" stroke-miterlimit="10"/>
</g>
<g clip-path="url(#clip4_6491_7676)">
<path d="M46.0646 323.944L52.1736 317.853C71.7066 298.377 103.418 298.377 122.951 317.853L129.06 323.944L122.951 330.035C103.418 349.511 71.7066 349.511 52.1736 330.035L46.0646 323.944Z" stroke="#D4AF37" stroke-width="4" stroke-miterlimit="10"/>
<path d="M87.62 344.655C99.093 344.655 108.394 335.382 108.394 323.942C108.394 312.503 99.093 303.229 87.62 303.229C76.1469 303.229 66.8462 312.503 66.8462 323.942C66.8462 335.382 76.1469 344.655 87.62 344.655Z" stroke="#D4AF37" stroke-width="4" stroke-miterlimit="10"/>
<path d="M87.0523 325.971C91.4995 325.971 95.1046 322.376 95.1046 317.942C95.1046 313.508 91.4995 309.913 87.0523 309.913C82.6051 309.913 79 313.508 79 317.942C79 322.376 82.6051 325.971 87.0523 325.971Z" stroke="#D4AF37" stroke-width="4" stroke-miterlimit="10"/>
</g>
<g clip-path="url(#clip5_6491_7676)">
<path d="M46.0646 388.365L52.1736 382.274C71.7066 362.798 103.418 362.798 122.951 382.274L129.06 388.365L122.951 394.456C103.418 413.932 71.7066 413.932 52.1736 394.456L46.0646 388.365Z" stroke="#D4AF37" stroke-width="4" stroke-miterlimit="10"/>
<path d="M87.62 409.076C99.093 409.076 108.394 399.803 108.394 388.363C108.394 376.924 99.093 367.65 87.62 367.65C76.1469 367.65 66.8462 376.924 66.8462 388.363C66.8462 399.803 76.1469 409.076 87.62 409.076Z" stroke="#D4AF37" stroke-width="4" stroke-miterlimit="10"/>
<path d="M87.5718 396.392C92.019 396.392 95.6241 392.797 95.6241 388.363C95.6241 383.929 92.019 380.334 87.5718 380.334C83.1247 380.334 79.5195 383.929 79.5195 388.363C79.5195 392.797 83.1247 396.392 87.5718 396.392Z" stroke="#D4AF37" stroke-width="4" stroke-miterlimit="10"/>
</g>
<g clip-path="url(#clip6_6491_7676)">
<path d="M46.0646 452.786L52.1736 446.695C71.7066 427.219 103.418 427.219 122.951 446.695L129.06 452.786L122.951 458.877C103.418 478.353 71.7066 478.353 52.1736 458.877L46.0646 452.786Z" stroke="#D4AF37" stroke-width="4" stroke-miterlimit="10"/>
<path d="M87.7743 473.426C99.2473 473.426 108.548 464.152 108.548 452.713C108.548 441.273 99.2473 432 87.7743 432C76.3012 432 67.0005 441.273 67.0005 452.713C67.0005 464.152 76.3012 473.426 87.7743 473.426Z" stroke="#D4AF37" stroke-width="4" stroke-miterlimit="10"/>
<path d="M87.5 465C94.4036 465 100 459.403 100 452.5C100 445.596 94.4036 440 87.5 440C80.5965 440 75 445.596 75 452.5C75 459.403 80.5965 465 87.5 465Z" stroke="#D4AF37" stroke-width="4" stroke-miterlimit="10"/>
</g>
<g clip-path="url(#clip7_6491_7676)">
<path d="M46.0646 517.207L52.1736 511.116C71.7066 491.64 103.418 491.64 122.951 511.116L129.06 517.207L122.951 523.298C103.418 542.774 71.7066 542.774 52.1736 523.298L46.0646 517.207Z" stroke="#D4AF37" stroke-width="4" stroke-miterlimit="10"/>
<path d="M87.62 537.918C99.093 537.918 108.394 528.645 108.394 517.205C108.394 505.766 99.093 496.492 87.62 496.492C76.1469 496.492 66.8462 505.766 66.8462 517.205C66.8462 528.645 76.1469 537.918 87.62 537.918Z" stroke="#D4AF37" stroke-width="4" stroke-miterlimit="10"/>
<path d="M87 523C89.7614 523 92 520.762 92 518C92 515.239 89.7614 513 87 513C84.2386 513 82 515.239 82 518C82 520.762 84.2386 523 87 523Z" stroke="#D4AF37" stroke-width="4" stroke-miterlimit="10"/>
</g>
<defs>
<clipPath id="clip0_6491_7676">
<rect width="94" height="54.4211" fill="white" transform="translate(40 40)"/>
</clipPath>
<clipPath id="clip1_6491_7676">
<rect width="94" height="54.4211" fill="white" transform="translate(40 104.421)"/>
</clipPath>
<clipPath id="clip2_6491_7676">
<rect width="94" height="54.4211" fill="white" transform="translate(40 168.842)"/>
</clipPath>
<clipPath id="clip3_6491_7676">
<rect width="94" height="54.4211" fill="white" transform="translate(40 233.263)"/>
</clipPath>
<clipPath id="clip4_6491_7676">
<rect width="94" height="54.4211" fill="white" transform="translate(40 297.684)"/>
</clipPath>
<clipPath id="clip5_6491_7676">
<rect width="94" height="54.4211" fill="white" transform="translate(40 362.105)"/>
</clipPath>
<clipPath id="clip6_6491_7676">
<rect width="94" height="54.4211" fill="white" transform="translate(40 426.526)"/>
</clipPath>
<clipPath id="clip7_6491_7676">
<rect width="94" height="54.4211" fill="white" transform="translate(40 490.947)"/>
</clipPath>
</defs>
</svg>
