<svg width="197" height="23" viewBox="0 0 197 23" fill="none" xmlns="http://www.w3.org/2000/svg">
<g clip-path="url(#clip0_6078_1495)">
<path d="M98.4995 23.0029C104.48 23.0029 109.327 17.8535 109.327 11.5015C109.327 5.14938 104.48 0 98.4995 0C92.5196 0 87.6719 5.14938 87.6719 11.5015C87.6719 17.8535 92.5196 23.0029 98.4995 23.0029Z" fill="#D4AF37"/>
<path d="M131.134 22.9951C131.199 22.9951 131.268 22.9893 131.334 22.9864C131.367 22.9864 131.397 22.9834 131.427 22.9805C131.49 22.9776 131.553 22.9718 131.614 22.966C131.644 22.966 131.674 22.9601 131.704 22.9572C131.767 22.9514 131.831 22.9455 131.894 22.9397C131.921 22.9368 131.951 22.9339 131.979 22.9281C132.045 22.9193 132.108 22.9135 132.174 22.9047C132.201 22.9018 132.226 22.896 132.253 22.8931C132.319 22.8843 132.385 22.8727 132.451 22.861C132.475 22.8581 132.5 22.8523 132.522 22.8494C132.591 22.8377 132.659 22.826 132.725 22.8115C132.747 22.8086 132.766 22.8027 132.788 22.7998C132.86 22.7852 132.928 22.7707 133 22.7561C133.019 22.7532 133.035 22.7473 133.054 22.7444C133.128 22.7269 133.2 22.7095 133.274 22.692C133.29 22.6891 133.304 22.6832 133.321 22.6803C133.395 22.6599 133.471 22.6424 133.546 22.6191C133.559 22.6162 133.57 22.6104 133.584 22.6074C133.661 22.5841 133.738 22.5637 133.814 22.5375C133.825 22.5346 133.834 22.5317 133.845 22.5287C133.924 22.5025 134.004 22.4792 134.081 22.45C134.089 22.45 134.094 22.4442 134.103 22.4413C134.182 22.4122 134.264 22.3859 134.344 22.3539C134.35 22.3539 134.355 22.3509 134.361 22.348C134.443 22.316 134.525 22.2868 134.605 22.2518C134.607 22.2518 134.61 22.2518 134.613 22.2489C134.695 22.214 134.778 22.1819 134.86 22.144C134.86 22.144 134.86 22.144 134.863 22.144C134.945 22.1061 135.03 22.0711 135.112 22.0303C131.301 20.2494 128.637 16.2038 128.637 11.4966C128.637 6.7893 131.298 2.74368 135.112 0.962787C135.03 0.924896 134.948 0.887004 134.863 0.849113C134.863 0.849113 134.863 0.849113 134.86 0.849113C134.778 0.814137 134.695 0.77916 134.613 0.744183C134.61 0.744183 134.607 0.744183 134.605 0.741269C134.522 0.709207 134.443 0.677145 134.361 0.645083C134.355 0.645083 134.35 0.642168 134.344 0.639254C134.264 0.610107 134.185 0.580959 134.103 0.551812C134.094 0.551812 134.089 0.545983 134.081 0.543068C134.001 0.516836 133.924 0.490603 133.845 0.464371C133.834 0.461456 133.825 0.458542 133.814 0.455627C133.738 0.432309 133.661 0.408991 133.584 0.385674C133.57 0.382759 133.559 0.37693 133.546 0.374015C133.471 0.353612 133.397 0.333209 133.321 0.312806C133.304 0.309891 133.29 0.304062 133.274 0.301147C133.203 0.283659 133.128 0.266171 133.057 0.248682C133.038 0.245768 133.021 0.239938 133.002 0.237023C132.931 0.22245 132.862 0.207876 132.791 0.193303C132.769 0.190388 132.75 0.184559 132.728 0.181644C132.659 0.16707 132.591 0.155411 132.525 0.143753C132.5 0.140838 132.478 0.135008 132.453 0.132094C132.388 0.120435 132.322 0.111691 132.256 0.100032C132.228 0.0971172 132.204 0.0912877 132.176 0.088373C132.113 0.0796289 132.047 0.0708847 131.981 0.0650553C131.954 0.0621406 131.924 0.0592259 131.896 0.0533965C131.833 0.047567 131.77 0.0417376 131.707 0.0359082C131.677 0.0359082 131.647 0.0300788 131.617 0.0271641C131.553 0.0213346 131.49 0.0184199 131.43 0.0125905C131.4 0.0125905 131.367 0.00676106 131.337 0.00676106C131.271 0.00384635 131.205 0.000931638 131.136 -0.00198307C131.109 -0.00198307 131.081 -0.00198307 131.054 -0.00489779C130.961 -0.00489779 130.865 -0.0078125 130.769 -0.0078125C130.209 -0.0078125 129.657 0.0388229 129.12 0.12335C128.851 0.16707 128.584 0.22245 128.324 0.286573C127.975 0.3711 127.632 0.47603 127.298 0.595533C127.13 0.656742 126.963 0.720866 126.801 0.787904C126.636 0.857857 126.474 0.930725 126.315 1.00651C126.156 1.08229 125.997 1.1639 125.843 1.24843C125.766 1.29215 125.687 1.33296 125.613 1.37959C125.305 1.55739 125.009 1.74976 124.721 1.9567C124.65 2.00917 124.578 2.06163 124.507 2.1141C124.296 2.27441 124.087 2.44346 123.887 2.61834C123.821 2.67664 123.755 2.73493 123.689 2.79614C123.492 2.97685 123.302 3.16631 123.118 3.35868C122.935 3.55105 122.759 3.75508 122.589 3.96494C122.476 4.10485 122.364 4.24475 122.257 4.39049C121.774 5.04338 121.357 5.75166 121.017 6.50366C120.94 6.66979 120.868 6.84176 120.8 7.01373C120.731 7.1857 120.665 7.36058 120.605 7.53546C120.545 7.71035 120.487 7.89106 120.435 8.06886C120.119 9.15022 119.949 10.2986 119.949 11.4878C119.949 12.677 120.119 13.8283 120.435 14.9068C120.487 15.0875 120.545 15.2653 120.605 15.4402C120.665 15.615 120.731 15.7899 120.8 15.9619C120.868 16.1339 120.94 16.3029 121.017 16.472C121.36 17.2269 121.777 17.9352 122.257 18.5851C122.364 18.7309 122.474 18.8708 122.589 19.0107C122.759 19.2205 122.937 19.4217 123.118 19.6169C123.3 19.8122 123.492 19.9988 123.689 20.1795C123.755 20.2407 123.821 20.299 123.887 20.3573C124.087 20.5322 124.293 20.7012 124.507 20.8615C124.578 20.914 124.65 20.9665 124.721 21.0189C125.009 21.2259 125.305 21.4182 125.613 21.596C125.69 21.6398 125.766 21.6835 125.843 21.7272C126 21.8117 126.156 21.8933 126.315 21.9691C126.474 22.0449 126.636 22.1178 126.801 22.1877C126.966 22.2577 127.13 22.3218 127.298 22.3801C127.632 22.4996 127.975 22.6045 128.324 22.6891C128.584 22.7532 128.851 22.8086 129.12 22.8523C129.657 22.9397 130.209 22.9834 130.769 22.9834C130.865 22.9834 130.958 22.9834 131.054 22.9805C131.081 22.9805 131.109 22.9805 131.136 22.9776L131.134 22.9951Z" fill="#D4AF37"/>
<path d="M163.504 22.9796C163.63 22.9738 163.756 22.965 163.883 22.9563C163.888 22.9563 163.896 22.9563 163.902 22.9563C164.025 22.9446 164.146 22.933 164.269 22.9184C164.291 22.9184 164.313 22.9126 164.335 22.9097C164.464 22.8922 164.591 22.8747 164.719 22.8543C164.722 22.8543 164.728 22.8543 164.73 22.8543C164.859 22.8339 164.986 22.8076 165.112 22.7843C165.123 22.7843 165.134 22.7814 165.145 22.7785C165.277 22.7523 165.405 22.7202 165.537 22.6881C165.672 22.6532 165.803 22.6182 165.935 22.5803C166.067 22.5424 166.198 22.4987 166.327 22.455C161.956 20.9743 158.793 16.6284 158.793 11.4956C158.793 6.36283 161.959 2.01699 166.327 0.536318C166.198 0.492598 166.067 0.451792 165.935 0.410986C165.803 0.373094 165.672 0.335203 165.537 0.303141C165.408 0.271079 165.277 0.241932 165.145 0.212785C165.134 0.212785 165.123 0.206956 165.112 0.206956C164.986 0.180723 164.859 0.157406 164.73 0.137003C164.728 0.137003 164.722 0.137003 164.719 0.137003C164.593 0.1166 164.464 0.0961967 164.335 0.0816231C164.313 0.0816231 164.291 0.0757937 164.269 0.0728789C164.149 0.0583054 164.025 0.0437318 163.902 0.0349877C163.896 0.0349877 163.888 0.0349877 163.883 0.0349877C163.756 0.0233288 163.63 0.0174994 163.504 0.01167C163.474 0.01167 163.446 0.01167 163.416 0.00875526C163.29 0.00292584 163.161 1.11241e-05 163.035 1.11241e-05C157.053 -0.00873301 152.207 5.13865 152.207 11.4927C152.207 17.8468 157.053 22.9942 163.035 22.9942C163.164 22.9942 163.29 22.9913 163.416 22.9854C163.446 22.9854 163.474 22.9854 163.504 22.9825V22.9796Z" fill="#D4AF37"/>
<path d="M195.77 22.9883C195.899 22.9825 196.031 22.9738 196.157 22.965C196.157 22.965 196.16 22.965 196.163 22.965C196.294 22.9534 196.426 22.9388 196.558 22.9242C196.572 22.9242 196.582 22.9213 196.596 22.9184C196.731 22.9009 196.865 22.8805 196.997 22.8601C191.824 21.9944 187.868 17.2376 187.868 11.5015C187.868 5.7653 191.827 1.00558 197 0.139906C196.865 0.116589 196.733 0.0991002 196.599 0.081612C196.585 0.081612 196.574 0.0786972 196.561 0.0757825C196.429 0.0582943 196.297 0.0466354 196.165 0.0349766C196.165 0.0349766 196.163 0.0349766 196.16 0.0349766C196.031 0.0233177 195.902 0.0174883 195.773 0.0116589C195.746 0.0116589 195.718 0.0116589 195.691 0.00874414C195.562 0.00291471 195.433 0 195.304 0C194.744 0 194.193 0.0466354 193.655 0.131162C193.386 0.174883 193.12 0.230262 192.859 0.294386C192.51 0.378913 192.167 0.483842 191.833 0.603346C191.665 0.664555 191.498 0.728678 191.336 0.795717C191.171 0.86567 191.01 0.938538 190.85 1.01432C190.691 1.0901 190.532 1.17171 190.378 1.25624C190.302 1.29996 190.222 1.34077 190.148 1.3874C189.841 1.5652 189.544 1.75757 189.256 1.96452C189.185 2.01698 189.113 2.06945 189.042 2.12191C188.831 2.28222 188.622 2.45127 188.422 2.62616C188.356 2.68445 188.29 2.74274 188.224 2.80395C188.027 2.98467 187.837 3.17412 187.654 3.36649C187.47 3.55886 187.294 3.76289 187.124 3.97275C187.012 4.11266 186.899 4.25257 186.792 4.3983C186.309 5.0512 185.892 5.75947 185.552 6.51147C185.475 6.67761 185.404 6.84958 185.335 7.02154C185.266 7.19351 185.201 7.36839 185.14 7.54328C185.08 7.71816 185.022 7.89887 184.97 8.07667C184.654 9.15803 184.484 10.3064 184.484 11.4956C184.484 12.6848 184.654 13.8361 184.97 14.9146C185.022 15.0953 185.08 15.2731 185.14 15.448C185.201 15.6229 185.266 15.7977 185.335 15.9697C185.404 16.1417 185.475 16.3107 185.552 16.4798C185.895 17.2347 186.312 17.943 186.792 18.593C186.899 18.7387 187.009 18.8786 187.124 19.0185C187.294 19.2284 187.473 19.4295 187.654 19.6248C187.835 19.82 188.027 20.0066 188.224 20.1873C188.29 20.2485 188.356 20.3068 188.422 20.3651C188.622 20.54 188.828 20.709 189.042 20.8693C189.113 20.9218 189.185 20.9743 189.256 21.0267C189.544 21.2337 189.843 21.4261 190.148 21.6039C190.225 21.6476 190.302 21.6913 190.378 21.735C190.535 21.8195 190.691 21.9012 190.85 21.9769C191.01 22.0527 191.171 22.1256 191.336 22.1955C191.501 22.2655 191.665 22.3296 191.833 22.3879C192.167 22.5074 192.51 22.6123 192.859 22.6969C193.12 22.761 193.386 22.8164 193.655 22.8601C194.193 22.9475 194.744 22.9913 195.304 22.9913C195.433 22.9913 195.562 22.9883 195.691 22.9825C195.718 22.9825 195.746 22.9825 195.773 22.9796L195.77 22.9883Z" fill="#D4AF37"/>
<path d="M76.9334 9.74971C76.8923 9.46407 76.8402 9.18134 76.7798 8.90445C76.7002 8.53428 76.6014 8.16994 76.4889 7.81434C76.4313 7.63655 76.3709 7.45875 76.3078 7.28678C76.242 7.1119 76.1734 6.93993 76.102 6.77088C76.0307 6.60182 75.9538 6.43277 75.8743 6.26955C75.8331 6.18793 75.7947 6.10341 75.7508 6.02471C75.5834 5.69826 75.4023 5.38347 75.2075 5.07743C75.1581 5.00165 75.1087 4.92586 75.0593 4.85008C74.9084 4.62565 74.7493 4.40413 74.5846 4.19136C74.5297 4.1214 74.4749 4.05145 74.4172 3.9815C74.2471 3.77164 74.0687 3.57052 73.8876 3.37524C73.7065 3.17995 73.5145 2.99341 73.3169 2.8127C73.1852 2.69319 73.0535 2.57369 72.9163 2.46002C72.3016 1.94703 71.6349 1.50399 70.9269 1.14257C70.7705 1.06096 70.6086 0.985173 70.4467 0.912305C70.2848 0.839437 70.1202 0.769484 69.9555 0.70536C69.7909 0.641237 69.6208 0.580028 69.4534 0.524648C68.4326 0.180712 67.3515 0 66.2292 0C66.1332 0 66.0399 0 65.9439 0.00291471C65.9164 0.00291471 65.889 0.00291471 65.8616 0.00582942C65.7957 0.00582942 65.7271 0.0116589 65.6612 0.0145736C65.6283 0.0145736 65.5981 0.0174883 65.568 0.020403C65.5048 0.0233177 65.4417 0.0291471 65.3814 0.0349765C65.3512 0.0349765 65.321 0.040806 65.2908 0.0437207C65.2277 0.0495501 65.1646 0.0553795 65.1015 0.061209C65.074 0.0641237 65.0439 0.0670384 65.0164 0.0728678C64.9506 0.0816119 64.8875 0.0874414 64.8216 0.0961855C64.7942 0.0991002 64.7695 0.10493 64.742 0.107844C64.6762 0.116588 64.6103 0.128247 64.5445 0.139906C64.5198 0.142821 64.4978 0.14865 64.4731 0.151565C64.4045 0.163224 64.3359 0.174883 64.2673 0.189456C64.2454 0.192371 64.2262 0.1982 64.2042 0.201115C64.1329 0.215689 64.0643 0.230262 63.9929 0.244836C63.9737 0.247751 63.9572 0.25358 63.938 0.256495C63.864 0.273983 63.7926 0.291471 63.7213 0.30896C63.7048 0.311874 63.6911 0.317704 63.6746 0.320618C63.6005 0.341021 63.5237 0.35851 63.4496 0.381827C63.4359 0.384742 63.4249 0.390571 63.4112 0.393486C63.3344 0.416804 63.2575 0.437207 63.1807 0.463439C63.1697 0.466354 63.1615 0.469269 63.1505 0.472183C63.0709 0.498416 62.9914 0.521734 62.9145 0.550881C62.9063 0.550881 62.9008 0.55671 62.8926 0.559625C62.813 0.588772 62.7307 0.615004 62.6511 0.647066C62.6456 0.647066 62.6401 0.649981 62.6347 0.652896C62.5523 0.684957 62.47 0.714105 62.3904 0.749081C62.3877 0.749081 62.385 0.749081 62.3822 0.751996C62.2999 0.786972 62.2176 0.819034 62.1353 0.856925C62.1353 0.856925 62.1353 0.856925 62.1325 0.856925C62.0475 0.894817 61.9651 0.929793 61.8828 0.970599C65.6942 2.75149 68.3586 6.79711 68.3586 11.5044C68.3586 16.2116 65.6969 20.2573 61.8828 22.0381C61.9651 22.076 62.0475 22.1139 62.1325 22.1518C62.1325 22.1518 62.1325 22.1518 62.1353 22.1518C62.2176 22.1868 62.2999 22.2218 62.3822 22.2567C62.385 22.2567 62.3877 22.2567 62.3904 22.2597C62.4728 22.2917 62.5523 22.3238 62.6347 22.3558C62.6401 22.3558 62.6456 22.3588 62.6511 22.3617C62.7307 22.3908 62.8103 22.42 62.8926 22.4491C62.9008 22.4491 62.9063 22.4549 62.9145 22.4579C62.9941 22.4841 63.0709 22.5103 63.1505 22.5366C63.1615 22.5395 63.1697 22.5424 63.1807 22.5453C63.2575 22.5686 63.3344 22.5919 63.4112 22.6153C63.4249 22.6182 63.4359 22.624 63.4496 22.6269C63.5237 22.6473 63.5978 22.6677 63.6746 22.6881C63.6911 22.691 63.7048 22.6969 63.7213 22.6998C63.7926 22.7173 63.8667 22.7348 63.9408 22.7522C63.96 22.7552 63.9765 22.761 63.9957 22.7639C64.067 22.7785 64.1356 22.7931 64.2069 22.8076C64.2289 22.8105 64.2481 22.8164 64.2701 22.8193C64.3387 22.8339 64.4073 22.8455 64.4759 22.8572C64.5006 22.8601 64.5225 22.8659 64.5472 22.8688C64.6131 22.8805 64.6789 22.8892 64.7448 22.9009C64.7722 22.9038 64.7969 22.9096 64.8243 22.9126C64.8875 22.9213 64.9533 22.93 65.0192 22.9359C65.0466 22.9388 65.0768 22.9417 65.1042 22.9475C65.1673 22.9534 65.2304 22.9592 65.2936 22.965C65.3237 22.965 65.3539 22.9708 65.3841 22.9738C65.4472 22.9796 65.5103 22.9825 65.5707 22.9883C65.6009 22.9883 65.6338 22.9942 65.664 22.9942C65.7298 22.9971 65.7957 23 65.8643 23.0029C65.8917 23.0029 65.9192 23.0029 65.9466 23.0058C66.0399 23.0058 66.136 23.0087 66.232 23.0087C67.3543 23.0087 68.4354 22.828 69.4507 22.4928C69.6208 22.4375 69.7882 22.3762 69.9528 22.3121C70.1174 22.248 70.2821 22.178 70.444 22.1052C70.6059 22.0323 70.765 21.9565 70.9242 21.8749C71.6349 21.5106 72.3016 21.0675 72.9135 20.5575C73.0507 20.4438 73.1824 20.3272 73.3142 20.2048C73.5117 20.0241 73.7011 19.8346 73.8849 19.6422C74.0687 19.4499 74.2444 19.2458 74.4145 19.036C74.4721 18.966 74.527 18.8961 74.5819 18.8261C74.7465 18.6134 74.9057 18.3948 75.0566 18.1674C75.106 18.0916 75.1554 18.0158 75.2047 17.9401C75.3996 17.634 75.5807 17.3192 75.7481 16.9928C75.7892 16.9112 75.8304 16.8295 75.8715 16.7479C75.9511 16.5818 76.0279 16.4157 76.0993 16.2466C76.1706 16.0776 76.2392 15.9056 76.3051 15.7307C76.3709 15.5558 76.4313 15.3809 76.4862 15.2031C76.5987 14.8475 76.6975 14.4832 76.777 14.113C76.8374 13.8361 76.8895 13.5534 76.9307 13.2678C77.013 12.6965 77.0542 12.1106 77.0542 11.516C77.0542 10.9214 77.0103 10.3356 76.9307 9.76429L76.9334 9.74971Z" fill="#D4AF37"/>
<path d="M44.6661 9.74971C44.6249 9.46407 44.5728 9.18135 44.5124 8.90445C44.4328 8.53428 44.3341 8.16994 44.2216 7.81435C44.1639 7.63655 44.1036 7.45875 44.0405 7.28678C43.9746 7.1119 43.906 6.93993 43.8347 6.77088C43.7633 6.60182 43.6865 6.43277 43.6069 6.26955C43.5658 6.18794 43.5273 6.10341 43.4834 6.02471C43.3161 5.69826 43.135 5.38347 42.9401 5.07743C42.8907 5.00165 42.8413 4.92586 42.792 4.85008C42.641 4.62565 42.4819 4.40413 42.3172 4.19136C42.2624 4.1214 42.2075 4.05145 42.1499 3.9815C41.9797 3.77164 41.8014 3.57052 41.6203 3.37524C41.4392 3.17995 41.2471 2.99341 41.0495 2.8127C40.9178 2.69319 40.7861 2.57369 40.6489 2.46002C40.0343 1.94703 39.3675 1.50399 38.6595 1.14257C38.5031 1.06096 38.3412 0.985173 38.1794 0.912305C38.0175 0.839437 37.8528 0.769484 37.6882 0.705361C37.5235 0.641237 37.3534 0.580028 37.186 0.524648C36.168 0.180712 35.0869 0 33.9646 0C33.8357 0 33.7094 0.00291471 33.5832 0.00874414C33.553 0.00874414 33.5256 0.00874414 33.4954 0.0116589C33.3692 0.0174883 33.243 0.0262324 33.1167 0.0349766C33.1113 0.0349766 33.103 0.0349766 33.0975 0.0349766C32.9741 0.0466354 32.8533 0.0582943 32.7298 0.0728678C32.7079 0.0728678 32.6859 0.0786972 32.664 0.081612C32.535 0.0991002 32.4088 0.116589 32.2798 0.136992C32.2771 0.136992 32.2716 0.136992 32.2689 0.136992C32.1399 0.157394 32.0137 0.183627 31.8875 0.206945C31.8765 0.206945 31.8655 0.209859 31.8545 0.212774C31.7228 0.239006 31.5938 0.271068 31.4621 0.30313C31.3277 0.338107 31.196 0.373083 31.0643 0.410975C30.9326 0.448866 30.8008 0.492587 30.6719 0.536307C35.043 2.01698 38.2068 6.36282 38.2068 11.4956C38.2068 16.6284 35.0403 20.9743 30.6719 22.455C30.8008 22.4987 30.9326 22.5395 31.0643 22.5803C31.196 22.6182 31.3277 22.6561 31.4621 22.6881C31.5911 22.7202 31.7228 22.7493 31.8545 22.7785C31.8655 22.7785 31.8765 22.7843 31.8875 22.7843C32.0137 22.8105 32.1399 22.8339 32.2689 22.8543C32.2716 22.8543 32.2771 22.8543 32.2798 22.8543C32.4061 22.8747 32.535 22.8951 32.664 22.9096C32.6859 22.9096 32.7079 22.9155 32.7298 22.9184C32.8506 22.933 32.9741 22.9475 33.0975 22.9563C33.103 22.9563 33.1113 22.9563 33.1167 22.9563C33.243 22.9679 33.3692 22.9738 33.4954 22.9796C33.5256 22.9796 33.553 22.9796 33.5832 22.9825C33.7094 22.9883 33.8384 22.9913 33.9646 22.9913C35.0869 22.9913 36.168 22.8105 37.1833 22.4754C37.3534 22.42 37.5208 22.3588 37.6854 22.2946C37.8501 22.2305 38.0147 22.1606 38.1766 22.0877C38.3385 22.0148 38.4977 21.939 38.6568 21.8574C39.3675 21.4931 40.0343 21.0501 40.6462 20.54C40.7834 20.4263 40.9151 20.3097 41.0468 20.1873C41.2444 20.0066 41.4337 19.8171 41.6175 19.6248C41.8014 19.4324 41.977 19.2284 42.1471 19.0185C42.2047 18.9485 42.2596 18.8786 42.3145 18.8086C42.4791 18.5959 42.6383 18.3773 42.7892 18.1499C42.8386 18.0741 42.888 17.9984 42.9374 17.9226C43.1322 17.6165 43.3133 17.3017 43.4807 16.9753C43.5219 16.8937 43.563 16.8121 43.6042 16.7305C43.6837 16.5643 43.7606 16.3982 43.8319 16.2291C43.9033 16.0601 43.9719 15.8881 44.0377 15.7132C44.1036 15.5383 44.1639 15.3635 44.2188 15.1857C44.3313 14.8301 44.4301 14.4657 44.5097 14.0956C44.57 13.8187 44.6222 13.5359 44.6633 13.2503C44.7457 12.679 44.7868 12.0931 44.7868 11.4985C44.7868 10.9039 44.7429 10.3181 44.6633 9.7468L44.6661 9.74971Z" fill="#D4AF37"/>
<path d="M12.4 9.74971C12.3588 9.46407 12.3067 9.18134 12.2463 8.90445C12.1859 8.62755 12.1146 8.35065 12.0378 8.0825C11.9609 7.81434 11.8704 7.54619 11.7743 7.28678C11.7414 7.19934 11.7085 7.1119 11.6756 7.02737C11.574 6.76796 11.4615 6.5173 11.3408 6.26955C11.2996 6.18794 11.2612 6.10341 11.2173 6.02471C11.0499 5.69826 10.8688 5.38347 10.674 5.07743C10.6246 5.00165 10.5752 4.92586 10.5258 4.85008C9.82064 3.79787 8.95355 2.87682 7.96298 2.12774C7.89163 2.07528 7.82029 2.02281 7.74895 1.97035C7.46083 1.7634 7.16448 1.57103 6.85716 1.39323C6.78033 1.34951 6.7035 1.30579 6.62667 1.26207C6.39343 1.13382 6.15471 1.01723 5.91324 0.906476C5.83092 0.871499 5.75134 0.833608 5.66902 0.801546C5.42207 0.699531 5.17237 0.60626 4.91992 0.521734C4.66748 0.437207 4.4068 0.364339 4.14613 0.300215C3.88545 0.236092 3.61929 0.180712 3.35038 0.136992C2.80982 0.0466354 2.25828 0 1.69851 0C1.56955 0 1.44058 0.00291471 1.31161 0.00874414C1.28417 0.00874414 1.25673 0.00874414 1.22929 0.0116589C1.10033 0.0174883 0.968619 0.0262324 0.842396 0.0349766C0.842396 0.0349766 0.839652 0.0349766 0.836908 0.0349766C0.705198 0.0466354 0.573488 0.061209 0.441778 0.0757825C0.428058 0.0757825 0.417082 0.0786972 0.403362 0.081612C0.266164 0.0991002 0.134454 0.119503 0 0.139906C5.17237 1.00558 9.12916 5.76239 9.12916 11.4985C9.12916 17.2347 5.17237 21.9944 0 22.8601C0.134454 22.8834 0.266164 22.9009 0.400618 22.9184C0.414338 22.9184 0.425314 22.9213 0.439034 22.9242C0.570744 22.9417 0.702454 22.9534 0.834164 22.965C0.834164 22.965 0.836908 22.965 0.839652 22.965C0.968619 22.9767 1.09758 22.9825 1.22655 22.9883C1.25399 22.9883 1.28143 22.9883 1.30887 22.9913C1.43784 22.9971 1.5668 23 1.69577 23C2.25554 23 2.80707 22.9534 3.34489 22.8688C3.6138 22.8251 3.87996 22.7697 4.14064 22.7056C4.40131 22.6415 4.66199 22.5657 4.91444 22.4841C5.06261 22.4345 5.20804 22.3821 5.35347 22.3267C5.45774 22.2859 5.56201 22.2451 5.66628 22.2014C5.7486 22.1664 5.83092 22.1314 5.91049 22.0964C6.04769 22.0352 6.18215 21.9711 6.31386 21.9041C6.41813 21.8516 6.5224 21.7991 6.62392 21.7438C6.70075 21.7 6.78033 21.6592 6.85442 21.6126C7.16174 21.4348 7.45809 21.2424 7.7462 21.0355C7.81755 20.983 7.88889 20.9306 7.96023 20.8781C8.1331 20.7469 8.30323 20.6099 8.46787 20.47C8.57214 20.3797 8.67641 20.2893 8.77793 20.196C8.9755 20.0153 9.16483 19.8259 9.34868 19.6335C9.53252 19.4411 9.70814 19.2371 9.87826 19.0272C9.96607 18.9194 10.0511 18.8086 10.1362 18.6979C10.2679 18.523 10.3969 18.3423 10.5203 18.1587C10.5697 18.0829 10.6191 18.0071 10.6685 17.9313C10.8633 17.6253 11.0444 17.3105 11.2118 16.984C11.253 16.9024 11.2941 16.8208 11.3353 16.7392C11.3874 16.6314 11.4368 16.5206 11.4862 16.4098C11.5493 16.267 11.6097 16.1242 11.6673 15.9814C11.7003 15.8939 11.7359 15.8094 11.7661 15.722C11.8073 15.6112 11.8457 15.5004 11.8841 15.3897C11.9362 15.2352 11.9856 15.0807 12.0323 14.9233C12.1118 14.6523 12.1804 14.3783 12.2408 14.1014C12.3012 13.8245 12.3533 13.5418 12.3945 13.2561C12.4768 12.6848 12.518 12.099 12.518 11.5044C12.518 10.9098 12.474 10.3239 12.3945 9.75263L12.4 9.74971Z" fill="#D4AF37"/>
</g>
<defs>
<clipPath id="clip0_6078_1495">
<rect width="197" height="23" fill="white"/>
</clipPath>
</defs>
</svg>
