<?xml version="1.0" encoding="UTF-8" standalone="no"?>
<!-- Created with Inkscape (http://www.inkscape.org/) -->

<svg
   width="55.827084mm"
   height="55.827084mm"
   viewBox="0 0 55.827084 55.827084"
   version="1.1"
   id="svg1"
   xml:space="preserve"
   inkscape:export-batch-path="..\..\codingprojects\TelephoneTestHomePage\testhtml\images\circleAnimation"
   inkscape:export-batch-name="batch"
   inkscape:version="1.4.2 (f4327f4, 2025-05-13)"
   sodipodi:docname="circles.svg"
   xmlns:inkscape="http://www.inkscape.org/namespaces/inkscape"
   xmlns:sodipodi="http://sodipodi.sourceforge.net/DTD/sodipodi-0.dtd"
   xmlns="http://www.w3.org/2000/svg"
   xmlns:svg="http://www.w3.org/2000/svg"><sodipodi:namedview
     id="namedview1"
     pagecolor="#ffffff"
     bordercolor="#000000"
     borderopacity="0.25"
     inkscape:showpageshadow="2"
     inkscape:pageopacity="0.0"
     inkscape:pagecheckerboard="0"
     inkscape:deskcolor="#d1d1d1"
     inkscape:document-units="mm"
     inkscape:zoom="0.53858859"
     inkscape:cx="460.46278"
     inkscape:cy="283.14747"
     inkscape:window-width="1846"
     inkscape:window-height="1057"
     inkscape:window-x="-8"
     inkscape:window-y="-8"
     inkscape:window-maximized="1"
     inkscape:current-layer="layer11" /><defs
     id="defs1"><clipPath
       id="clip1_6491_7746"><rect
         width="211"
         height="211"
         fill="#ffffff"
         transform="translate(20,482)"
         id="rect5"
         x="0"
         y="0" /></clipPath></defs><g
     inkscape:groupmode="layer"
     id="layer11"
     inkscape:label="Layer 3"
     transform="translate(-77.086459,-120.58646)"><g
       clip-path="url(#clip1_6491_7746)"
       id="g2"
       transform="matrix(0.26458333,0,0,0.26458333,71.794792,-6.9427064)"
       style="fill:none"><path
         d="M 221.915,625.21 C 226.489,613.525 229,600.806 229,587.5 229,530.339 182.661,484 125.5,484 c -1.171,0 -2.338,0.022 -3.5,0.061 v -2.001 c 1.162,-0.038 2.329,-0.06 3.5,-0.06 58.266,0 105.5,47.234 105.5,105.5 0,13.723 -2.62,26.834 -7.387,38.859 z M 67.0176,499.683 C 80.4837,490.697 96.1319,484.726 113,482.734 v 2.016 c -16.3903,1.973 -31.6009,7.776 -44.7119,16.489 z m -36.0635,40.955 c 7.798,-15.703 19.3926,-29.186 33.583,-39.25 l 1.2686,1.553 c -13.98,9.888 -25.4005,23.153 -33.0713,38.61 z M 60.876,670.895 C 36.0063,651.595 20,621.417 20,587.5 c 0,-14.699 3.0084,-28.695 8.4395,-41.409 l 1.7841,0.915 C 24.9305,559.444 22,573.13 22,587.5 c 0,33.299 15.7262,62.923 40.1553,81.855 z m 154.547,-32.116 c 1.642,-2.873 3.151,-5.831 4.516,-8.868 l 1.681,1.139 c -1.377,3.034 -2.893,5.991 -4.54,8.863 z M 125.5,693 c -21.831,0 -42.1138,-6.631 -58.9434,-17.989 l 1.2852,-1.547 C 84.3193,684.538 104.155,691 125.5,691 c 35.279,0 66.435,-17.651 85.119,-44.603 l 1.652,1.13 C 193.227,675.005 161.464,693 125.5,693 Z"
         fill="#d4af37"
         id="path2" /></g></g></svg>
