<?xml version="1.0" encoding="UTF-8" standalone="no"?>
<!-- Created with Inkscape (http://www.inkscape.org/) -->

<svg
   version="1.1"
   id="svg1"
   width="88.659882"
   height="45.426666"
   viewBox="0 0 88.659882 45.426668"
   xmlns="http://www.w3.org/2000/svg"
   xmlns:svg="http://www.w3.org/2000/svg">
  <defs
     id="defs1">
    <clipPath
       clipPathUnits="userSpaceOnUse"
       id="clipPath1">
      <path
         d="M 0,0 H 596 V 842 H 0 Z"
         id="path1" />
    </clipPath>
    <clipPath
       clipPathUnits="userSpaceOnUse"
       id="clipPath2">
      <path
         d="M 0,0 H 596 V 842 H 0 Z"
         id="path2" />
    </clipPath>
    <clipPath
       clipPathUnits="userSpaceOnUse"
       id="clipPath3">
      <path
         d="M 0,0 H 596 V 842 H 0 Z"
         id="path3" />
    </clipPath>
    <clipPath
       clipPathUnits="userSpaceOnUse"
       id="clipPath7">
      <path
         d="m 288.578,489.277 h 70.5 v 40.816 h -70.5 z"
         transform="scale(1.3333333)"
         id="path7" />
    </clipPath>
  </defs>
  <g
     id="g1"
     transform="translate(-382.30831,-603.0091)">
    <g
       id="g6"
       clip-path="url(#clipPath7)"
       transform="translate(-5.6924036,-53.709555)">
      <path
         d="m 293.125,509.574 4.582,-4.566 c 14.648,-14.61 38.434,-14.61 53.082,0 l 4.582,4.566 -4.582,4.571 c -14.648,14.605 -38.434,14.605 -53.082,0 z"
         style="fill:#060622;fill-opacity:1;fill-rule:nonzero;stroke:#d4af37;stroke-width:3;stroke-linecap:butt;stroke-linejoin:miter;stroke-miterlimit:10;stroke-dasharray:none;stroke-opacity:1"
         transform="scale(1.3333333)"
         clip-path="url(#clipPath1)"
         id="path4" />
      <path
         d="m 324.25,525.109 c 8.602,0 15.578,-6.953 15.578,-15.535 0,-8.578 -6.976,-15.535 -15.578,-15.535 -8.605,0 -15.582,6.957 -15.582,15.535 0,8.582 6.977,15.535 15.582,15.535 z"
         style="fill:#060622;fill-opacity:1;fill-rule:nonzero;stroke:#d4af37;stroke-width:3;stroke-linecap:butt;stroke-linejoin:miter;stroke-miterlimit:10;stroke-dasharray:none;stroke-opacity:1"
         transform="scale(1.3333333)"
         clip-path="url(#clipPath2)"
         id="path5" />
      <path
         d="m 324.25,515.598 c 3.332,0 6.039,-2.696 6.039,-6.024 0,-3.324 -2.707,-6.019 -6.039,-6.019 -3.336,0 -6.039,2.695 -6.039,6.019 0,3.328 2.703,6.024 6.039,6.024 z"
         style="fill:#060622;fill-opacity:1;fill-rule:nonzero;stroke:#d4af37;stroke-width:3;stroke-linecap:butt;stroke-linejoin:miter;stroke-miterlimit:10;stroke-dasharray:none;stroke-opacity:1"
         transform="scale(1.3333333)"
         clip-path="url(#clipPath3)"
         id="path6" />
    </g>
  </g>
</svg>
