<svg width="146" height="48" viewBox="0 0 146 48" fill="none" xmlns="http://www.w3.org/2000/svg">
<g clip-path="url(#clip0_6707_3873)">
<rect width="146" height="48" rx="8" fill="#D4AF37" fill-opacity="0.25"/>
<path d="M14 2H8C4.78979 2 2.16843 4.52111 2.00781 7.69141L2 8V40C2 43.3137 4.68629 46 8 46H96V48H8L7.58789 47.9893C3.49764 47.7817 0.218304 44.5024 0.0107422 40.4121L0 40V8C4.99297e-07 3.71994 3.36114 0.225231 7.58789 0.0107422L8 0H14V2ZM138.412 0.0107422C142.639 0.225233 146 3.71995 146 8V40L145.989 40.4121C145.782 44.5024 142.502 47.7817 138.412 47.9893L138 48H112V46H138C141.314 46 144 43.3137 144 40V8C144 4.68629 141.314 2 138 2H43V0H138L138.412 0.0107422ZM32 2H19V0H32V2Z" fill="#D4AF37"/>
<path d="M119 24H133M133 24L126 17M133 24L126 31" stroke="#D4AF37" stroke-width="2" stroke-linecap="round" stroke-linejoin="round"/>
<path d="M44.6941 26.464V20.644H44.5261C44.2221 20.644 43.9821 20.664 43.8061 20.704C43.6381 20.736 43.5181 20.8 43.4461 20.896C43.3741 20.984 43.3301 21.1 43.3141 21.244L43.1941 22.936H41.8621V19.48H50.4421V22.936H49.1101L48.9781 21.244C48.9781 21.1 48.9381 20.984 48.8581 20.896C48.7781 20.8 48.6501 20.736 48.4741 20.704C48.3061 20.664 48.0741 20.644 47.7781 20.644H47.6101V26.464C47.6101 26.64 47.6661 26.756 47.7781 26.812C47.8981 26.868 48.0381 26.896 48.1981 26.896H48.4141V28H43.8901V26.896H44.0941C44.2621 26.896 44.4021 26.868 44.5141 26.812C44.6341 26.756 44.6941 26.64 44.6941 26.464ZM54.7549 21.376V25.984C54.7549 26.112 54.7709 26.224 54.8029 26.32C54.8349 26.408 54.8869 26.476 54.9589 26.524C55.0309 26.564 55.1269 26.584 55.2469 26.584C55.3989 26.584 55.5509 26.536 55.7029 26.44C55.8549 26.336 56.0109 26.176 56.1709 25.96C56.3389 25.744 56.5149 25.476 56.6989 25.156L56.6509 26.236C56.4829 26.604 56.2589 26.932 55.9789 27.22C55.7069 27.5 55.3989 27.724 55.0549 27.892C54.7189 28.052 54.3629 28.132 53.9869 28.132C53.5629 28.132 53.2029 28.052 52.9069 27.892C52.6109 27.732 52.3869 27.5 52.2349 27.196C52.0829 26.892 52.0069 26.524 52.0069 26.092V22.804C52.0069 22.708 51.9709 22.64 51.8989 22.6C51.8349 22.56 51.7229 22.524 51.5629 22.492L51.4309 22.468V21.376H54.7549ZM59.0989 21.376V26.608C59.0989 26.672 59.1149 26.724 59.1469 26.764C59.1789 26.796 59.2269 26.824 59.2909 26.848C59.3549 26.864 59.4349 26.888 59.5309 26.92L59.6269 26.944V28H56.6749L56.4349 26.428L56.3389 26.284V22.804C56.3389 22.708 56.2829 22.636 56.1709 22.588C56.0589 22.54 55.9309 22.508 55.7869 22.492L55.6069 22.468V21.376H59.0989ZM60.2622 22.54V21.436H60.3582C60.5342 21.436 60.6862 21.424 60.8142 21.4C60.9502 21.368 61.0542 21.304 61.1262 21.208C61.2062 21.104 61.2462 20.952 61.2462 20.752L62.7822 21.376H65.7222V22.54H60.2622ZM63.9222 25.9C63.9222 26.14 63.9582 26.324 64.0302 26.452C64.1022 26.572 64.2022 26.656 64.3302 26.704C64.4662 26.744 64.6302 26.764 64.8222 26.764C65.0142 26.764 65.1862 26.752 65.3382 26.728C65.4902 26.704 65.5902 26.688 65.6382 26.68V27.928C65.5422 27.952 65.4022 27.98 65.2182 28.012C65.0422 28.052 64.8422 28.08 64.6182 28.096C64.3942 28.12 64.1502 28.132 63.8862 28.132C63.3422 28.132 62.8662 28.076 62.4582 27.964C62.0502 27.844 61.7302 27.632 61.4982 27.328C61.2742 27.024 61.1622 26.608 61.1622 26.08V21.616L61.2462 21.508V19.504H63.9222V25.9ZM74.0262 24.7C74.0262 25.412 73.8782 26.028 73.5822 26.548C73.2862 27.068 72.8542 27.468 72.2862 27.748C71.7262 28.02 71.0342 28.156 70.2102 28.156C69.3942 28.156 68.7022 28.02 68.1342 27.748C67.5662 27.468 67.1342 27.068 66.8382 26.548C66.5422 26.028 66.3942 25.412 66.3942 24.7C66.3942 24.164 66.4782 23.684 66.6462 23.26C66.8142 22.828 67.0582 22.464 67.3782 22.168C67.7062 21.864 68.1062 21.636 68.5782 21.484C69.0502 21.324 69.5942 21.244 70.2102 21.244C70.8262 21.244 71.3702 21.324 71.8422 21.484C72.3142 21.636 72.7102 21.864 73.0302 22.168C73.3582 22.464 73.6062 22.828 73.7742 23.26C73.9422 23.684 74.0262 24.164 74.0262 24.7ZM69.2142 24.7C69.2142 25.268 69.2422 25.72 69.2982 26.056C69.3542 26.384 69.4542 26.62 69.5982 26.764C69.7422 26.908 69.9462 26.98 70.2102 26.98C70.4742 26.98 70.6782 26.908 70.8222 26.764C70.9662 26.62 71.0662 26.384 71.1222 26.056C71.1782 25.72 71.2062 25.268 71.2062 24.7C71.2062 24.132 71.1782 23.684 71.1222 23.356C71.0662 23.028 70.9662 22.792 70.8222 22.648C70.6782 22.504 70.4742 22.432 70.2102 22.432C69.9542 22.432 69.7502 22.504 69.5982 22.648C69.4542 22.792 69.3542 23.028 69.2982 23.356C69.2422 23.684 69.2142 24.132 69.2142 24.7ZM80.6345 21.34V23.764C80.5705 23.756 80.4665 23.748 80.3225 23.74C80.1785 23.732 80.0225 23.724 79.8545 23.716C79.6865 23.708 79.5265 23.704 79.3745 23.704C79.2385 23.704 79.1025 23.708 78.9665 23.716C78.8385 23.724 78.7145 23.74 78.5945 23.764C78.4745 23.78 78.3665 23.804 78.2705 23.836C78.1745 23.868 78.0865 23.916 78.0065 23.98L77.9225 23.68C78.1385 23.16 78.3385 22.72 78.5225 22.36C78.7065 22 78.9185 21.728 79.1585 21.544C79.4065 21.352 79.7225 21.256 80.1065 21.256C80.2425 21.256 80.3545 21.268 80.4425 21.292C80.5385 21.308 80.6025 21.324 80.6345 21.34ZM74.9465 28V27.052H74.9705C75.1305 27.052 75.2545 27.008 75.3425 26.92C75.4305 26.824 75.4745 26.656 75.4745 26.416V22.804C75.4745 22.74 75.4585 22.692 75.4265 22.66C75.3945 22.62 75.3465 22.588 75.2825 22.564C75.2185 22.54 75.1385 22.516 75.0425 22.492L74.9465 22.468V21.376H77.9225L78.1625 23.416L78.2345 23.452V26.956C78.2345 26.98 78.2665 27 78.3305 27.016C78.3945 27.032 78.4825 27.044 78.5945 27.052C78.7145 27.052 78.8465 27.052 78.9905 27.052H79.0385V28H74.9465ZM83.425 20.848C82.961 20.848 82.597 20.748 82.333 20.548C82.069 20.348 81.937 20.044 81.937 19.636C81.937 19.236 82.069 18.936 82.333 18.736C82.597 18.528 82.961 18.424 83.425 18.424C83.889 18.424 84.249 18.528 84.505 18.736C84.761 18.936 84.889 19.236 84.889 19.636C84.889 20.036 84.761 20.34 84.505 20.548C84.249 20.748 83.889 20.848 83.425 20.848ZM84.865 21.376V26.416C84.865 26.656 84.909 26.824 84.997 26.92C85.085 27.008 85.205 27.052 85.357 27.052H85.393V28H81.577V27.052H81.601C81.761 27.052 81.885 27.008 81.973 26.92C82.061 26.824 82.105 26.656 82.105 26.416V22.804C82.105 22.708 82.069 22.644 81.997 22.612C81.933 22.572 81.825 22.532 81.673 22.492L81.577 22.468V21.376H84.865ZM90.3798 24.004V24.892C90.0758 24.956 89.8198 25.028 89.6118 25.108C89.4038 25.18 89.2358 25.26 89.1078 25.348C88.9878 25.428 88.8958 25.516 88.8318 25.612C88.7758 25.708 88.7358 25.808 88.7118 25.912C88.6958 26.016 88.6878 26.124 88.6878 26.236C88.6878 26.444 88.7118 26.604 88.7598 26.716C88.8078 26.82 88.8758 26.892 88.9638 26.932C89.0598 26.972 89.1758 26.992 89.3118 26.992C89.4318 26.992 89.5438 26.968 89.6478 26.92C89.7598 26.872 89.8758 26.788 89.9958 26.668C90.1238 26.54 90.2518 26.364 90.3798 26.14L90.5478 26.584C90.3718 26.976 90.1798 27.284 89.9718 27.508C89.7718 27.732 89.5358 27.892 89.2638 27.988C88.9918 28.084 88.6678 28.132 88.2918 28.132C87.8118 28.132 87.4158 28.076 87.1038 27.964C86.7918 27.844 86.5598 27.66 86.4078 27.412C86.2638 27.156 86.1918 26.824 86.1918 26.416C86.1918 26.064 86.2638 25.764 86.4078 25.516C86.5598 25.26 86.7958 25.04 87.1158 24.856C87.4438 24.672 87.8758 24.512 88.4118 24.376C88.9478 24.24 89.6038 24.116 90.3798 24.004ZM90.5478 28L90.3558 26.68L90.2718 26.752V22.924C90.2718 22.828 90.2518 22.74 90.2118 22.66C90.1798 22.58 90.1078 22.516 89.9958 22.468C89.8838 22.42 89.7078 22.396 89.4678 22.396C89.1398 22.396 88.8638 22.432 88.6398 22.504C88.4238 22.568 88.2838 22.64 88.2198 22.72C88.1318 22.696 88.0758 22.656 88.0518 22.6C88.0358 22.544 88.0478 22.484 88.0878 22.42C88.1278 22.356 88.1958 22.304 88.2918 22.264C88.3958 22.216 88.5278 22.196 88.6878 22.204V23.656H86.5758V22.012C86.7038 21.94 86.9078 21.844 87.1878 21.724C87.4678 21.596 87.8198 21.484 88.2438 21.388C88.6758 21.292 89.1798 21.244 89.7558 21.244C90.2758 21.244 90.7358 21.288 91.1358 21.376C91.5358 21.464 91.8678 21.6 92.1318 21.784C92.4038 21.96 92.6078 22.184 92.7438 22.456C92.8878 22.72 92.9598 23.032 92.9598 23.392V26.608C92.9598 26.672 92.9718 26.724 92.9958 26.764C93.0278 26.796 93.0758 26.824 93.1398 26.848C93.2038 26.864 93.2878 26.888 93.3918 26.92L93.4878 26.944V28H90.5478ZM97.5868 18.82V26.416C97.5868 26.656 97.6308 26.824 97.7188 26.92C97.8068 27.008 97.9308 27.052 98.0908 27.052H98.1148V28H94.2988V27.052H94.3228C94.4908 27.052 94.6148 27.008 94.6948 26.92C94.7828 26.824 94.8268 26.656 94.8268 26.416V20.212C94.8268 20.148 94.8108 20.1 94.7788 20.068C94.7468 20.028 94.6988 19.996 94.6348 19.972C94.5708 19.948 94.4908 19.924 94.3948 19.9L94.2988 19.876V18.82H97.5868ZM101.026 28.264C100.538 28.264 100.15 28.14 99.8617 27.892C99.5817 27.644 99.4417 27.284 99.4417 26.812C99.4417 26.332 99.5817 25.968 99.8617 25.72C100.15 25.472 100.538 25.348 101.026 25.348C101.522 25.348 101.91 25.472 102.19 25.72C102.47 25.968 102.61 26.332 102.61 26.812C102.61 27.284 102.47 27.644 102.19 27.892C101.91 28.14 101.522 28.264 101.026 28.264Z" fill="#D4AF37"/>
</g>
<defs>
<clipPath id="clip0_6707_3873">
<rect width="146" height="48" rx="8" fill="white"/>
</clipPath>
</defs>
</svg>
