<?xml version="1.0" encoding="UTF-8" standalone="no"?>
<!-- Created with Inkscape (http://www.inkscape.org/) -->

<svg
   width="20.299009mm"
   height="20.695829mm"
   viewBox="0 0 76.720667 78.220459"
   version="1.1"
   id="svg1"
   xml:space="preserve"
   xmlns="http://www.w3.org/2000/svg"
   xmlns:svg="http://www.w3.org/2000/svg"><defs
     id="defs1" /><g
     id="layer1"
     style="display:inline"
     transform="translate(-358.26824,-605.35325)"><path
       d="m 396.60255,605.35325 c 0.3643,0 0.65916,0.29512 0.65916,0.65916 v 35.57975 l 10.26797,-22.01888 c 0.15381,-0.32989 0.54623,-0.47257 0.87625,-0.31885 0.32958,0.15384 0.4724,0.54596 0.3186,0.87589 l -10.17614,21.82263 26.77689,-22.98693 c 0.27641,-0.23708 0.69256,-0.20575 0.92986,0.0704 0.23686,0.27619 0.20522,0.69239 -0.0707,0.92951 l -26.85291,23.05223 26.29482,-6.74057 c 0.35287,-0.0905 0.71189,0.12259 0.80242,0.47503 0.0905,0.35286 -0.12217,0.71189 -0.47504,0.80198 l -26.54047,6.8043 35.04628,7.0249 c 0.35684,0.0717 0.58798,0.41878 0.51635,0.77605 -0.0717,0.35682 -0.41879,0.58797 -0.77561,0.51634 l -34.45963,-6.90757 23.61906,17.8848 c 0.29003,0.21973 0.34716,0.63324 0.12744,0.92371 -0.21972,0.29003 -0.63324,0.34759 -0.9237,0.12787 l -24.47466,-18.53297 11.32351,22.22296 c 0.16523,0.32431 0.036,0.72112 -0.28827,0.88679 -0.32431,0.16523 -0.72113,0.036 -0.88635,-0.28827 l -10.97592,-21.54095 v 35.46199 c 0,0.36386 -0.29486,0.65916 -0.65916,0.65916 -0.36385,0 -0.65916,-0.2953 -0.65916,-0.65916 V 647.53913 L 385.69612,669.516 c -0.1538,0.32958 -0.54623,0.47241 -0.87581,0.3186 -0.33001,-0.15381 -0.47284,-0.54622 -0.31903,-0.87624 l 10.27105,-22.02742 -26.93803,23.12733 c -0.27614,0.2373 -0.69234,0.20522 -0.9295,-0.0707 -0.23713,-0.27641 -0.2054,-0.69256 0.0708,-0.92941 l 27.20965,-23.35936 -26.54877,6.80693 c -0.35261,0.0901 -0.71163,-0.12259 -0.80207,-0.47503 -0.0903,-0.35287 0.12207,-0.71189 0.47464,-0.80197 l 26.18145,-6.7129 -34.69258,-6.95371 c -0.35687,-0.0717 -0.58824,-0.41923 -0.5167,-0.77605 0.0716,-0.35684 0.41896,-0.58798 0.77588,-0.51635 l 35.29821,7.075 -24.692,-18.69764 c -0.29017,-0.21976 -0.34721,-0.63332 -0.12744,-0.92353 0.21977,-0.28998 0.63293,-0.34702 0.92309,-0.12743 l 23.84845,18.05851 -10.80804,-21.21229 c -0.16523,-0.32436 -0.0365,-0.72131 0.28783,-0.88662 0.32431,-0.16527 0.72156,-0.0364 0.88679,0.28797 l 11.26946,22.11899 v -35.95021 c 0,-0.36399 0.29531,-0.65908 0.65916,-0.65916 z"
       fill="#d4af37"
       id="path4"
       style="fill:#d4af37;fill-opacity:1;stroke-width:0.44013;stroke-dasharray:none" /><path
       style="fill:#d3b035;fill-opacity:0.113725;stroke-width:0.657478;stroke-dasharray:none"
       d=""
       id="path20" /><path
       style="fill:#d3b035;fill-opacity:0.113725;stroke-width:0.657478;stroke-dasharray:none"
       d=""
       id="path22" /><path
       style="fill:#d3b035;fill-opacity:0.113725;stroke-width:0.657478;stroke-dasharray:none"
       d=""
       id="path23" /><path
       style="fill:#d3b035;fill-opacity:0.113725;stroke-width:0.657478;stroke-dasharray:none"
       d=""
       id="path24" /></g></svg>
