<?xml version="1.0" encoding="UTF-8" standalone="no"?>
<!-- Created with Inkscape (http://www.inkscape.org/) -->

<svg
   width="55.827084mm"
   height="55.827084mm"
   viewBox="0 0 55.827084 55.827084"
   version="1.1"
   id="svg1"
   xml:space="preserve"
   xmlns="http://www.w3.org/2000/svg"
   xmlns:svg="http://www.w3.org/2000/svg"><defs
     id="defs1" /><g
     id="layer4"
     transform="translate(-77.126042,-120.51771)"><g
       style="fill:none"
       id="g4"
       transform="matrix(0.26458333,0,0,0.26458333,77.126042,120.51771)"><path
         d="M 67.79,201.915 C 79.475,206.489 92.194,209 105.5,209 162.661,209 209,162.661 209,105.5 c 0,-1.171 -0.022,-2.338 -0.061,-3.5 h 2.001 c 0.038,1.162 0.06,2.329 0.06,3.5 0,58.266 -47.234,105.5 -105.5,105.5 -13.723,0 -26.8335,-2.62 -38.8594,-7.387 z M 193.317,47.018 C 202.303,60.484 208.274,76.132 210.266,93 H 208.25 C 206.277,76.61 200.474,61.399 191.761,48.288 Z M 152.362,10.954 c 15.703,7.798 29.186,19.393 39.25,33.583 l -1.553,1.269 C 180.171,31.826 166.906,20.405 151.449,12.734 Z M 22.1055,40.876 C 41.4054,16.006 71.5829,0 105.5,0 c 14.699,0 28.695,3.008 41.409,8.439 l -0.915,1.785 C 133.556,4.931 119.87,2 105.5,2 72.2013,2 42.5768,17.726 23.6445,42.155 Z m 32.1152,154.547 c 2.8728,1.642 5.8313,3.151 8.8682,4.516 l -1.1387,1.681 c -3.0338,-1.377 -5.9911,-2.893 -8.8633,-4.54 z M 0,105.5 C 0,83.669 6.6313,63.386 17.9893,46.557 l 1.5468,1.285 C 8.4624,64.319 2,84.155 2,105.5 c 0,35.279 17.6506,66.435 44.6025,85.119 l -1.1298,1.652 C 17.9948,173.227 0,141.464 0,105.5 Z"
         fill="#d4af37"
         id="path1-7" /></g></g></svg>
