<?xml version="1.0" encoding="UTF-8" standalone="no"?>
<!-- Created with Inkscape (http://www.inkscape.org/) -->

<svg
   width="55.827034mm"
   height="55.827072mm"
   viewBox="0 0 55.827034 55.827072"
   version="1.1"
   id="svg1"
   xml:space="preserve"
   xmlns="http://www.w3.org/2000/svg"
   xmlns:svg="http://www.w3.org/2000/svg"><defs
     id="defs1" /><g
     id="layer11"
     transform="translate(-77.126066,-120.51771)"><g
       style="fill:none"
       id="g11"
       transform="matrix(0.26458333,0,0,0.26458333,77.126068,120.51771)"><path
         fill-rule="evenodd"
         clip-rule="evenodd"
         d="m 174.856,182.329 c 9.315,-8.404 17.248,-18.655 23.197,-30.554 25.558,-51.115 4.839,-113.2726 -46.277,-138.8305 -1.047,-0.5236 -2.1,-1.0257 -3.157,-1.5104 l 0.895,-1.78933 c 1.056,0.48553 2.109,0.98773 3.156,1.51123 52.104,26.0519 73.223,89.41 47.171,141.514 -6.135,12.271 -14.34,22.824 -23.98,31.446 z M 92.4671,0.820414 C 108.527,-1.19431 125.19,0.462711 141.164,6.22341 l -0.901,1.80278 C 124.724,2.46223 108.528,0.850366 92.9075,2.77969 Z M 41.9062,21.3191 C 55.9005,10.7635 72.2973,3.89077 89.4866,1.23577 l 0.4401,1.95616 C 73.0042,5.78344 56.8606,12.539 43.09,22.9314 Z M 10.4234,151.179 C -3.18659,122.8 -4.0071,88.6572 11.1578,58.3272 17.73,45.1828 26.6781,34.0119 37.2194,25.0709 l 1.1863,1.6163 C 28.1112,35.4432 19.3714,46.3712 12.9463,59.2215 -1.94213,88.9988 -1.12484,122.521 12.2555,150.374 Z m 152.5606,40.382 c 2.753,-1.835 5.425,-3.806 8.003,-5.911 l 0.995,1.77 c -2.588,2.097 -5.266,4.064 -8.023,5.896 z m -104.6553,8.28 C 38.8067,190.08 23.6341,175.081 13.6628,157.4 l 1.8409,-0.809 c 9.7835,17.27 24.6318,31.918 43.7192,41.461 31.5478,15.774 67.3001,13.921 96.0591,-1.827 l 0.972,1.749 c -29.316,16.057 -65.765,17.947 -97.9253,1.867 z"
         fill="#d4af37"
         id="path1-02" /></g></g></svg>
