<?xml version="1.0" encoding="UTF-8" standalone="no"?>
<!-- Created with Inkscape (http://www.inkscape.org/) -->

<svg
   width="55.827103mm"
   height="55.826992mm"
   viewBox="0 0 55.827103 55.826992"
   version="1.1"
   id="svg1"
   xml:space="preserve"
   xmlns="http://www.w3.org/2000/svg"
   xmlns:svg="http://www.w3.org/2000/svg"><defs
     id="defs1" /><g
     id="layer6"
     transform="translate(-77.126032,-120.51775)"><g
       style="fill:none"
       id="g6"
       transform="matrix(0.26458333,0,0,0.26458333,77.126034,120.51775)"><path
         fill-rule="evenodd"
         clip-rule="evenodd"
         d="M 40.7777,24.7219 C 30.9847,32.5641 22.4626,42.3316 15.8236,53.8606 -12.697,103.388 4.33198,166.659 53.8592,195.179 c 1.0146,0.585 2.0367,1.148 3.0628,1.694 l -0.9984,1.734 C 54.8979,198.06 53.876,197.497 52.8613,196.912 2.37722,167.841 -14.981,103.347 14.0907,52.8627 20.9378,40.9724 29.7492,30.9202 39.8794,22.8787 Z M 112.355,210.77 c -16.1507,1.067 -32.6881,-1.567 -48.2967,-8.257 l 1.0057,-1.747 c 15.1854,6.469 31.2603,9.03 46.968,8.022 z m 51.682,-17.491 c -14.591,9.715 -31.365,15.612 -48.681,17.252 l -0.325,-1.979 c 17.046,-1.592 33.561,-7.387 47.92,-16.952 z M 203.103,65.4889 c 11.919,29.1312 10.73,63.2641 -6.193,92.6521 -7.334,12.736 -16.924,23.362 -27.973,31.668 l -1.09,-1.683 c 10.792,-8.136 20.16,-18.532 27.33,-30.983 16.615,-28.852 17.77,-62.3663 6.05,-90.9591 z M 53.1729,16.2039 c -2.8558,1.6698 -5.6392,3.4803 -8.3382,5.4306 L 43.947,19.8092 c 2.7066,-1.9415 5.4954,-3.7476 8.3558,-5.4144 z M 158.139,14.0914 c 18.916,10.8925 33.181,26.7584 42.095,44.9964 l -1.885,0.699 C 189.598,41.9709 175.636,26.4743 157.141,15.8243 126.575,-1.77814 90.7728,-2.03014 61.1361,11.9999 l -0.868,-1.8031 C 90.4796,-4.10939 126.978,-3.85282 158.139,14.0914 Z"
         fill="#d4af37"
         id="path1-34" /></g></g></svg>
