<svg width="94" height="56" viewBox="0 0 94 56" fill="none" xmlns="http://www.w3.org/2000/svg">
<g clip-path="url(#clip0_6491_7693)">
<path d="M6.06445 26.9438L12.1735 20.8527C31.7065 1.37681 63.4179 1.37681 82.951 20.8527L89.0599 26.9438L82.9509 33.035C63.4179 52.5109 31.7065 52.5109 12.1735 33.035L6.06445 26.9438Z" stroke="#D4AF37" stroke-width="4" stroke-miterlimit="10"/>
<path d="M47.62 47.6551C59.093 47.6551 68.3938 38.3815 68.3938 26.942C68.3938 15.5025 59.093 6.229 47.62 6.229C36.1469 6.229 26.8462 15.5025 26.8462 26.942C26.8462 38.3815 36.1469 47.6551 47.62 47.6551Z" stroke="#D4AF37" stroke-width="4" stroke-miterlimit="10"/>
<path d="M47.0523 28.9706C51.4995 28.9706 55.1046 25.376 55.1046 20.9418C55.1046 16.5077 51.4995 12.9131 47.0523 12.9131C42.6051 12.9131 39 16.5077 39 20.9418C39 25.376 42.6051 28.9706 47.0523 28.9706Z" stroke="#D4AF37" stroke-width="4" stroke-miterlimit="10"/>
</g>
<defs>
<clipPath id="clip0_6491_7693">
<rect width="94" height="54.4211" fill="white" transform="translate(0 0.684082)"/>
</clipPath>
</defs>
</svg>
