<?xml version="1.0" encoding="UTF-8" standalone="no"?>
<!-- Created with Inkscape (http://www.inkscape.org/) -->

<svg
   width="45.508377mm"
   height="39.15826mm"
   viewBox="0 0 45.508377 39.15826"
   version="1.1"
   id="svg1"
   xml:space="preserve"
   xmlns="http://www.w3.org/2000/svg"
   xmlns:svg="http://www.w3.org/2000/svg"><defs
     id="defs1" /><g
     id="layer13"
     transform="translate(-117.49595,-111.80535)"><g
       id="g7"
       transform="translate(30.669008,59.885247)"
       style="fill:#d4af37;fill-opacity:1"><path
         fill-rule="evenodd"
         clip-rule="evenodd"
         d="m 193.095,227.588 c 0.568,0.568 0.568,1.489 0,2.057 l -55.479,55.533 50.344,-18.341 c 0.755,-0.274 1.589,0.115 1.864,0.87 0.274,0.755 -0.115,1.59 -0.869,1.865 l -49.896,18.178 77.597,5.915 c 0.801,0.062 1.4,0.76 1.34,1.561 -0.062,0.801 -0.76,1.401 -1.56,1.341 l -77.816,-5.932 51.511,30.52 c 0.691,0.409 0.919,1.302 0.51,1.994 -0.408,0.692 -1.299,0.92 -1.991,0.51 l -51.993,-30.804 43.693,65.665 c 0.445,0.668 0.263,1.571 -0.405,2.017 -0.668,0.445 -1.57,0.264 -2.015,-0.405 l -42.961,-64.566 8.941,64.78 c 0.11,0.795 -0.446,1.53 -1.241,1.64 -0.795,0.11 -1.53,-0.446 -1.64,-1.242 l -9.265,-67.127 -16.995,52.36 c -0.248,0.764 -1.069,1.182 -1.832,0.934 -0.764,-0.248 -1.181,-1.069 -0.933,-1.833 l 16.474,-50.753 -55.2955,55.35 c -0.5677,0.568 -1.4876,0.568 -2.0557,0 -0.5672,-0.568 -0.5675,-1.49 0,-2.058 L 126.287,292.403 76.0406,310.71 c -0.754,0.275 -1.5886,-0.115 -1.8628,-0.869 -0.2746,-0.756 0.1147,-1.591 0.869,-1.866 l 50.3622,-18.349 -78.0658,-5.948 c -0.8003,-0.061 -1.3997,-0.76 -1.339,-1.561 0.061,-0.802 0.7594,-1.402 1.5598,-1.341 l 78.852,6.01 -52.0114,-30.813 c -0.691,-0.41 -0.9191,-1.302 -0.5099,-1.993 0.4087,-0.692 1.2997,-0.921 1.9906,-0.511 l 51.2907,30.386 -43.2519,-65.001 c -0.4447,-0.669 -0.2642,-1.573 0.4038,-2.018 0.6679,-0.445 1.5708,-0.264 2.0156,0.405 l 44.0075,66.136 -9.347,-67.723 c -0.11,-0.796 0.446,-1.53 1.242,-1.64 0.795,-0.11 1.528,0.447 1.638,1.242 l 9.027,65.409 16.224,-49.978 c 0.248,-0.764 1.068,-1.183 1.831,-0.935 0.764,0.249 1.182,1.07 0.934,1.834 l -16.917,52.113 56.057,-56.111 c 0.567,-0.568 1.487,-0.568 2.055,0 z"
         fill="#d4af37"
         id="path3"
         style="fill:#d4af37;fill-opacity:1"
         transform="matrix(0.26458333,0,0,0.26458333,74.656119,-4.7007632)" /></g></g></svg>
