<?xml version="1.0" encoding="UTF-8" standalone="no"?>
<!-- Created with Inkscape (http://www.inkscape.org/) -->

<svg
   width="46.566643mm"
   height="46.037514mm"
   viewBox="0 0 46.566643 46.037514"
   version="1.1"
   id="svg1"
   xml:space="preserve"
   xmlns="http://www.w3.org/2000/svg"
   xmlns:svg="http://www.w3.org/2000/svg"><defs
     id="defs1" /><g
     id="layer20"
     style="display:inline"
     transform="translate(-116.96682,-108.36573)"><g
       style="fill:none"
       id="g6"
       transform="matrix(0.26458333,0,0,0.26458333,116.96682,108.36573)"><path
         fill-rule="evenodd"
         clip-rule="evenodd"
         d="m 133.836,167.68 c -0.748,0.422 -1.702,0.157 -2.128,-0.593 L 90.0681,93.8058 94.7042,151.071 c 0.0697,0.859 -0.5696,1.607 -1.4289,1.674 -0.8595,0.066 -1.6127,-0.577 -1.6818,-1.434 L 86.9983,94.5546 58.7891,172.972 c -0.2906,0.809 -1.1842,1.227 -1.9953,0.935 -0.8115,-0.295 -1.2331,-1.189 -0.9419,-1.997 L 84.1393,93.2705 37.9094,137.665 c -0.6197,0.596 -1.6086,0.575 -2.2077,-0.047 -0.5983,-0.621 -0.5804,-1.607 0.0392,-2.203 L 82.4031,90.6039 2.05044,116.802 C 1.23249,117.069 0.349481,116.621 0.0791807,115.803 -0.191119,114.985 0.252938,114.105 1.0714,113.839 L 80.0795,88.0802 10.536,78.6513 C 9.68146,78.5341 9.08023,77.7486 9.19292,76.8966 9.30556,76.0442 10.0895,75.4459 10.9438,75.5614 L 83.0071,85.3325 33.693,52.6995 c -0.7196,-0.4751 -0.9194,-1.4435 -0.4455,-2.1599 0.4741,-0.7166 1.4428,-0.9121 2.1624,-0.4359 L 83.2094,81.7354 41.7067,8.69466 C 41.2806,7.94524 41.5433,6.99485 42.2919,6.57212 43.042,6.15106 43.994,6.41546 44.42,7.16488 L 85.8209,80.0261 81.1926,22.8715 c -0.0694,-0.8585 0.57,-1.608 1.4294,-1.6737 0.8593,-0.0661 1.6126,0.5764 1.681,1.4346 l 4.64,57.2875 28.376,-78.89352 c 0.292,-0.807824 1.186,-1.225814 1.996,-0.9327734 0.812,0.2939454 1.234,1.1883334 0.942,1.9975834 L 91.5939,81.7776 138.269,36.9504 c 0.621,-0.5956 1.608,-0.5742 2.208,0.0478 0.597,0.6206 0.581,1.6069 -0.038,2.2026 L 94.4078,83.4068 173.95,57.473 c 0.818,-0.2665 1.7,0.1795 1.97,0.9976 0.272,0.818 -0.173,1.6982 -0.991,1.9652 l -80.9294,26.3867 72.7024,9.8582 c 0.854,0.116 1.455,0.9014 1.343,1.7548 -0.113,0.8523 -0.896,1.4487 -1.75,1.3338 l -70.22,-9.5214 47.072,31.1491 c 0.719,0.477 0.919,1.443 0.444,2.16 -0.475,0.716 -1.442,0.912 -2.161,0.436 l -49.0822,-32.48 42.0742,74.044 c 0.426,0.751 0.164,1.7 -0.586,2.123 z"
         fill="#d4af37"
         id="path1-9" /></g></g></svg>
