<?xml version="1.0" encoding="UTF-8" standalone="no"?>
<!-- Created with Inkscape (http://www.inkscape.org/) -->

<svg
   width="41.804081mm"
   height="43.391605mm"
   viewBox="0 0 41.804081 43.391605"
   version="1.1"
   id="svg1"
   xml:space="preserve"
   xmlns="http://www.w3.org/2000/svg"
   xmlns:svg="http://www.w3.org/2000/svg"><defs
     id="defs1" /><g
     id="layer17"
     style="display:inline"
     transform="translate(-119.3481,-109.68868)"><g
       style="fill:none"
       id="g3"
       transform="matrix(0.26458333,0,0,0.26458333,119.3481,109.68868)"><path
         fill-rule="evenodd"
         clip-rule="evenodd"
         d="m 155.651,43.9575 c 0.356,0.7076 0.067,1.567 -0.645,1.9205 L 85.3812,80.4322 138.515,78.992 c 0.796,-0.0216 1.46,0.602 1.482,1.3923 0.021,0.7896 -0.607,1.4478 -1.402,1.4695 l -52.6617,1.428 71.1817,29.6862 c 0.735,0.306 1.08,1.145 0.772,1.874 -0.309,0.728 -1.154,1.071 -1.888,0.765 L 84.6158,85.8373 123.533,130.365 c 0.522,0.596 0.457,1.502 -0.144,2.02 -0.602,0.518 -1.512,0.454 -2.035,-0.144 L 82.0722,87.2982 102.615,162.193 c 0.21,0.762 -0.244,1.549 -1.013,1.756 -0.768,0.208 -1.561,-0.242 -1.7698,-1.005 L 79.6339,89.3032 67.7451,152.549 c -0.1463,0.777 -0.8997,1.289 -1.6825,1.145 -0.783,-0.145 -1.2999,-0.893 -1.1541,-1.67 L 77.2282,86.4865 44.8198,130.063 c -0.4729,0.636 -1.3761,0.77 -2.017,0.301 -0.6406,-0.469 -0.7767,-1.365 -0.3037,-2.001 L 73.9132,86.1237 4.51861,120.564 c -0.71236,0.353 -1.57839,0.067 -1.93483,-0.641 -0.35584,-0.706 -0.06733,-1.567 0.64494,-1.92 L 72.4531,83.6471 19.4217,85.0866 c -0.7959,0.0214 -1.4592,-0.6021 -1.4809,-1.3917 -0.0217,-0.7904 0.6066,-1.4489 1.4027,-1.4706 L 72.4974,80.7818 0.883753,50.9191 C 0.14955,50.6135 -0.195405,49.774 0.112834,49.0451 0.421375,48.3157 1.26676,47.9739 2.00101,48.2799 L 74.335,78.4447 35.0387,33.4883 c -0.5222,-0.597 -0.4573,-1.5009 0.1448,-2.019 0.6013,-0.5186 1.5116,-0.4541 2.0337,0.1429 L 75.9693,75.9464 55.6333,1.80798 C 55.4243,1.04534 55.8773,0.257944 56.6456,0.0505317 57.4138,-0.156881 58.2069,0.292957 58.416,1.05646 L 79.1072,76.4888 91.5367,10.3692 c 0.1461,-0.77676 0.8994,-1.28936 1.6829,-1.14443 0.7826,0.14515 1.2986,0.89293 1.1525,1.66953 L 82.3676,74.7544 113.303,33.1605 c 0.473,-0.6359 1.375,-0.7713 2.016,-0.302 0.641,0.4694 0.777,1.3662 0.304,2.0021 L 83.3664,78.2314 153.716,43.3174 c 0.712,-0.3535 1.578,-0.0665 1.935,0.6401 z"
         fill="#d4af37"
         id="path1-8" /></g></g></svg>
