<?xml version="1.0" encoding="UTF-8" standalone="no"?>
<!-- Created with Inkscape (http://www.inkscape.org/) -->

<svg
   version="1.1"
   id="svg1"
   width="227.96817"
   height="212.52094"
   viewBox="0 0 227.96817 212.52094"
   xmlns="http://www.w3.org/2000/svg"
   xmlns:svg="http://www.w3.org/2000/svg">
  <defs
     id="defs1" />
  <g
     id="layer26"
     transform="translate(-425.3723,-513.28349)">
    <path
       id="path6"
       d="m 426.6598,617.27856 c -1.77227,-0.057 -1.68747,-2.7151 0.0853,-2.6585 l 106.76013,3.4102 -69.76627,-36.4384 c -1.57586,-0.8117 -0.35826,-3.1756 1.2176,-2.3638 l 69.44854,36.2916 -63.96574,-78.2778 c -1.106,-1.382 0.96694,-3.0409 2.07294,-1.6589 l 64.4844,78.8776 -16.30307,-85.8665 c -0.34547,-1.7368 2.25987,-2.2552 2.60547,-0.5183 l 16.16573,85.2003 22.21227,-98.9636 c 0.4048,-1.7243 2.9912,-1.1172 2.5864,0.607 l -22.28067,99.296 60.0356,-73.2948 c 1.1172,-1.376 3.18133,0.2999 2.06413,1.6759 l -60.08986,73.3389 70.94386,-32.4836 c 1.60867,-0.7425 2.7224,1.6706 1.11373,2.4131 l -71.02586,32.5385 107.02853,3.4054 c 1.77227,0.057 1.68747,2.715 -0.0853,2.6585 l -106.76227,-3.4104 69.768,36.4389 c 1.57587,0.8117 0.35827,3.1756 -1.2176,2.3639 l -69.44933,-36.2916 63.9664,78.2781 c 1.106,1.382 -0.96707,3.0409 -2.07294,1.6589 l -64.48493,-78.8778 16.30347,85.8664 c 0.3456,1.7369 -2.25973,2.2552 -2.60533,0.5182 l -16.1656,-85.1978 -22.21187,98.9613 c -0.4048,1.7243 -2.9912,1.1172 -2.5864,-0.6071 l 22.28053,-99.2967 -60.0356,73.295 c -1.1172,1.376 -3.1812,-0.2997 -2.064,-1.6759 l 60.08907,-73.3383 -70.94333,32.4833 c -1.60867,0.7425 -2.72254,-1.6706 -1.11374,-2.4131 l 71.0264,-32.5388 -107.02893,-3.4053 z"
       style="fill:#d4af37;fill-opacity:1;fill-rule:nonzero;stroke:none;stroke-width:1.33333" />
  </g>
</svg>
