<?xml version="1.0" encoding="UTF-8" standalone="no"?>
<!-- Created with Inkscape (http://www.inkscape.org/) -->

<svg
   version="1.1"
   id="svg1"
   width="91.685455"
   height="85.551407"
   viewBox="0 0 91.685455 85.551407"
   xmlns="http://www.w3.org/2000/svg"
   xmlns:svg="http://www.w3.org/2000/svg">
  <defs
     id="defs1" />
  <g
     id="layer103"
     transform="translate(-362.15727,-485.2243)">
    <path
       id="path3"
       d="m 378.7188,504.52708 27.80907,21.64973 -15.96827,-38.48826 c -0.3,-0.72294 0.7844,-1.1728 1.08427,-0.44987 l 15.62933,37.67133 -0.53067,-33.76826 c -0.0133,-0.78254 1.1616,-0.80107 1.17387,-0.0187 l 0.5472,34.35107 18.94813,-39.90894 c 0.3356,-0.70693 1.39614,-0.20346 1.0604,0.50347 l -18.992,40.00147 27.2656,-20.7556 c 0.62267,-0.474 1.33374,0.46 0.71107,0.93413 l -27.93627,21.266 43.62294,-8.4004 c 0.76853,-0.148 0.99053,1.0048 0.222,1.1528 l -41.75734,8.0412 35.46627,8.76707 c 0.75973,0.18786 0.478,1.32746 -0.28173,1.1396 l -36.34027,-8.98307 27.3784,21.3144 c 0.61747,0.4808 -0.104,1.40707 -0.7212,0.9264 l -27.79267,-21.63707 15.93907,38.41747 c 0.29987,0.72293 -0.7844,1.1728 -1.0844,0.44987 l -15.62053,-37.64974 0.5232,33.75174 c 0.0133,0.78253 -1.16147,0.80093 -1.17374,0.0187 l -0.53893,-34.2908 -18.9448,39.902 c -0.33573,0.70694 -1.39627,0.20347 -1.06053,-0.50346 l 18.99186,-40.00134 -27.26533,20.75534 c -0.62267,0.474 -1.33373,-0.46014 -0.71107,-0.93414 l 26.452,-20.13613 -41.9672,8.0816 c -0.76853,0.148 -0.99053,-1.0048 -0.222,-1.1528 l 43.50507,-8.37773 -37.38533,-9.2416 c -0.75987,-0.18774 -0.47814,-1.32747 0.2816,-1.1396 l 36.3404,8.9832 -27.37854,-21.31467 c -0.6176,-0.4808 0.104,-1.40707 0.72107,-0.92627 z"
       style="fill:#d4af37;fill-opacity:1;fill-rule:nonzero;stroke:none;stroke-width:1.33333" />
  </g>
</svg>
