<?xml version="1.0" encoding="UTF-8" standalone="no"?>
<!-- Created with Inkscape (http://www.inkscape.org/) -->

<svg
   version="1.1"
   id="svg1"
   width="101.01541"
   height="93.96579"
   viewBox="0 0 101.01541 93.96579"
   xmlns="http://www.w3.org/2000/svg"
   xmlns:svg="http://www.w3.org/2000/svg">
  <defs
     id="defs1" />
  <g
     id="layer113"
     transform="translate(-357.49228,-481.01711)">
    <path
       id="path13"
       d="m 431.17242,558.24931 -22.1532,-27.98725 8.17814,44.02545 c 0.14293,0.7695 -1.01134,0.9839 -1.15427,0.2144 l -8.10253,-43.61851 -7.7508,33.62931 c -0.17573,0.7627 -1.31973,0.4991 -1.144,-0.2636 l 7.78453,-33.77585 -28.4716,36.24655 c -0.48346,0.6155 -1.40666,-0.1093 -0.9232,-0.7252 l 28.57547,-36.37868 -33.06187,15.54198 c -0.70826,0.333 -1.20773,-0.7294 -0.49946,-1.0624 l 32.06026,-15.07118 -46.436,-0.39613 c -0.78266,0 -0.77266,-1.18067 0.0133,-1.174 l 48.26013,0.41186 -36.48693,-18.04773 c -0.70147,-0.34693 -0.18107,-1.3992 0.5204,-1.05227 l 35.54239,17.5804 -22.00853,-27.80479 c -0.48573,-0.6136 0.43467,-1.34214 0.9204,-0.72854 l 22.16813,28.00613 -8.19319,-44.10679 c -0.14294,-0.76947 1.01133,-0.98387 1.15426,-0.2144 l 8.10307,43.62239 7.75053,-33.62799 c 0.17573,-0.76267 1.31973,-0.49907 1.144,0.2636 l -7.79827,33.85053 28.4852,-36.26387 c 0.48347,-0.61546 1.40667,0.10934 0.9232,0.7252 l -28.57546,36.3788 33.062,-15.54213 c 0.70826,-0.33294 1.20773,0.72946 0.49946,1.0624 l -33.88173,15.92746 48.24987,0.4116 c 0.78266,0.0133 0.77253,1.18054 -0.0133,1.17387 l -46.4596,-0.3964 34.694,17.16068 c 0.70147,0.3471 0.18107,1.3993 -0.52053,1.0523 l -35.5424,-17.58045 22.00853,27.80455 c 0.48574,0.6137 -0.43466,1.3423 -0.9204,0.7287 z"
       style="fill:#d4af37;fill-opacity:1;fill-rule:nonzero;stroke:none;stroke-width:1.33333" />
  </g>
</svg>
