<?xml version="1.0" encoding="UTF-8" standalone="no"?>
<!-- Created with Inkscape (http://www.inkscape.org/) -->

<svg
   version="1.1"
   id="svg1"
   width="73.815773"
   height="74.57933"
   viewBox="0 0 73.815773 74.57933"
   xmlns="http://www.w3.org/2000/svg"
   xmlns:svg="http://www.w3.org/2000/svg">
  <defs
     id="defs1" />
  <g
     id="layer112"
     transform="translate(-371.09213,-490.71033)">
    <path
       id="path12"
       d="m 414.77928,557.69645 -6.91413,-27.26746 -8.33213,34.41 c -0.18427,0.76053 -1.3252,0.48426 -1.14093,-0.2764 l 8.22173,-33.95414 -16.32133,21.57 c -0.47227,0.62414 -1.4084,-0.084 -0.93627,-0.70826 l 16.41173,-21.68934 -32.16053,16.8956 c -0.69293,0.364 -1.23893,-0.67533 -0.546,-1.0392 l 32.33333,-16.9864 -28.7352,0.5228 c -0.7824,0.0147 -0.80373,-1.15946 -0.0213,-1.17373 l 28.21533,-0.51347 -33.4136,-15.3148 c -0.71146,-0.32613 -0.2224,-1.39333 0.48907,-1.0672 l 34.1136,15.6356 -20.17027,-24.42826 c -0.4984,-0.60347 0.40694,-1.35094 0.9052,-0.74747 l 19.8708,24.0656 -6.84613,-27.00027 c -0.1924,-0.75866 0.9456,-1.0472 1.138,-0.28853 l 6.8988,27.20787 8.3268,-34.38787 c 0.18426,-0.76067 1.3252,-0.4844 1.14106,0.27627 l -8.224,33.96253 16.32547,-21.57533 c 0.47227,-0.62414 1.4084,0.084 0.93613,0.7084 l -16.4676,21.7632 32.2352,-16.93494 c 0.6928,-0.364 1.2388,0.67534 0.546,1.03934 l -32.3332,16.9864 28.73494,-0.52307 c 0.78253,-0.0147 0.80386,1.15947 0.0213,1.17373 l -29.05387,0.5288 34.5328,15.82774 c 0.71147,0.32613 0.22227,1.39333 -0.4892,1.0672 l -33.86346,-15.52094 19.6396,23.78547 c 0.4984,0.60347 -0.4068,1.35093 -0.9052,0.74733 l -19.87107,-24.0656 6.84627,27.00027 c 0.1924,0.75867 -0.9456,1.0472 -1.13787,0.28853 z"
       style="fill:#d4af37;fill-opacity:1;fill-rule:nonzero;stroke:none;stroke-width:1.33333" />
  </g>
</svg>
