<?xml version="1.0" encoding="UTF-8" standalone="no"?>
<!-- Created with Inkscape (http://www.inkscape.org/) -->

<svg
   version="1.1"
   id="svg1"
   width="226.34927"
   height="205.40598"
   viewBox="0 0 226.34927 205.40598"
   xmlns="http://www.w3.org/2000/svg"
   xmlns:svg="http://www.w3.org/2000/svg">
  <defs
     id="defs1" />
  <g
     id="layer49"
     transform="translate(-427.63553,-433.63048)">
    <path
       id="path9"
       d="m 428.82237,525.6738 c -1.7596,-0.1884 -1.47693,-2.82786 0.28267,-2.63946 L 535.1573,534.40007 463.5617,489.101 c -1.50346,-0.9316 -0.10533,-3.18693 1.39747,-2.25533 l 71.46173,45.2476 -50.15586,-73.6728 c -0.9624,-1.4784 1.2552,-2.92187 2.21746,-1.44347 l 50.4468,74.0208 -8.69507,-95.904 c -0.1844,-1.756 2.4496,-2.0324 2.63387,-0.2764 l 8.622,95.286 26.46653,-85.1268 c 0.5576,-1.6756 3.07094,-0.83933 2.51347,0.83627 l -26.52053,85.34293 69.6704,-71.82013 c 1.222,-1.27813 3.13933,0.5548 1.91733,1.83293 l -69.8688,71.99093 76.17987,-27.08559 c 1.662,-0.60067 2.56306,1.89226 0.90106,2.49293 l -76.07453,27.07693 106.12306,11.34907 c 1.7596,0.1884 1.47694,2.82786 -0.28266,2.63946 L 546.46223,538.26647 618.0585,583.5658 c 1.50347,0.9316 0.10533,3.18693 -1.39747,2.25533 l -71.46213,-45.24773 50.15627,73.67307 c 0.96226,1.4784 -1.2552,2.92186 -2.2176,1.44346 l -50.44707,-74.02106 8.69533,95.90426 c 0.18427,1.756 -2.4496,2.0324 -2.634,0.2764 l -8.62186,-95.28466 -26.46627,85.12546 c -0.55746,1.6756 -3.0708,0.8392 -2.51333,-0.8364 L 537.6709,541.5106 468.00024,613.331 c -1.22187,1.27827 -3.1392,-0.5548 -1.9172,-1.83293 l 69.86853,-71.9908 -76.17973,27.0856 c -1.662,0.60066 -2.56307,-1.8924 -0.90107,-2.49307 l 76.07466,-27.07693 z"
       style="fill:#d4af37;fill-opacity:1;fill-rule:nonzero;stroke:none;stroke-width:1.33333" />
  </g>
</svg>
