<?xml version="1.0" encoding="UTF-8" standalone="no"?>
<!-- Created with Inkscape (http://www.inkscape.org/) -->

<svg
   version="1.1"
   id="svg1"
   width="101.0154"
   height="93.965721"
   viewBox="0 0 101.0154 93.965721"
   xmlns="http://www.w3.org/2000/svg"
   xmlns:svg="http://www.w3.org/2000/svg">
  <defs
     id="defs1" />
  <g
     id="g1"
     transform="translate(-357.49231,-481.01714)">
    <path
       id="path1"
       d="m 384.83513,497.81324 22.16814,28.00627 -8.1932,-44.10694 c -0.14294,-0.7696 1.01133,-0.98387 1.15413,-0.21453 l 8.1032,43.6224 7.75053,-33.628 c 0.17574,-0.76254 1.31974,-0.49894 1.14387,0.26373 l -7.79813,33.85054 28.4852,-36.26387 c 0.48346,-0.61547 1.40666,0.10933 0.9232,0.7252 l -28.57547,36.37867 33.06187,-15.54214 c 0.70826,-0.33293 1.20773,0.72947 0.49946,1.06254 l -33.88173,15.92733 48.25,0.4116 c 0.78253,0.0133 0.77253,1.18067 -0.0133,1.174 l -46.45934,-0.3964 34.69374,17.16067 c 0.70146,0.34693 0.18093,1.3992 -0.52054,1.05226 l -35.5424,-17.5804 22.00854,27.80454 c 0.48573,0.6136 -0.4348,1.34226 -0.92054,0.72853 l -22.1532,-27.9872 8.17814,44.02546 c 0.14293,0.76947 -1.0112,0.98387 -1.15414,0.2144 l -8.10106,-43.60999 -7.75227,33.62093 c -0.17573,0.76267 -1.31973,0.49907 -1.144,-0.2636 l 7.78453,-33.776 -28.47173,36.24667 c -0.48347,0.61546 -1.40667,-0.10934 -0.9232,-0.7252 l 28.5756,-36.3788 -33.06187,15.542 c -0.70826,0.33306 -1.20773,-0.72947 -0.49946,-1.0624 l 32.06,-15.07107 -46.43587,-0.39627 c -0.78253,-0.0133 -0.77253,-1.18053 0.0133,-1.17386 l 48.2604,0.41186 -36.48706,-18.04773 c -0.7016,-0.34693 -0.18107,-1.3992 0.5204,-1.05227 l 35.5424,17.5804 -22.00867,-27.8048 c -0.48573,-0.6136 0.4348,-1.34227 0.92053,-0.72853 z"
       style="fill:#d4af37;fill-opacity:1;fill-rule:nonzero;stroke:none;stroke-width:1.33333" />
  </g>
</svg>
