<svg width="168" height="40" viewBox="0 0 168 40" fill="none" xmlns="http://www.w3.org/2000/svg">
<g clip-path="url(#clip0_5684_1036)">
<path d="M68.6937 15.48V16.416H68.4897C68.2417 16.416 68.0417 16.444 67.8897 16.5C67.7377 16.556 67.6617 16.672 67.6617 16.848V23.028H69.0897C69.4097 23.028 69.6697 23.016 69.8697 22.992C70.0777 22.96 70.2297 22.908 70.3257 22.836C70.4217 22.756 70.4777 22.644 70.4937 22.5L70.6617 20.952H71.7537V24H64.5897V23.064H64.7217C64.9377 23.064 65.1137 23.036 65.2497 22.98C65.3937 22.924 65.4657 22.808 65.4657 22.632V16.848C65.4657 16.672 65.3937 16.556 65.2497 16.5C65.1137 16.444 64.9377 16.416 64.7217 16.416H64.5897V15.48H68.6937ZM75.5235 20.808C75.5235 21.232 75.5635 21.592 75.6435 21.888C75.7235 22.176 75.8395 22.408 75.9915 22.584C76.1515 22.76 76.3435 22.888 76.5675 22.968C76.7915 23.048 77.0515 23.088 77.3475 23.088C77.6195 23.088 77.8675 23.048 78.0915 22.968C78.3155 22.88 78.5075 22.748 78.6675 22.572C78.8275 22.388 78.9515 22.152 79.0395 21.864C79.1275 21.568 79.1715 21.216 79.1715 20.808V16.644C79.1715 16.604 79.1475 16.572 79.0995 16.548C79.0515 16.516 78.9875 16.492 78.9075 16.476C78.8355 16.46 78.7515 16.448 78.6555 16.44C78.5675 16.424 78.4755 16.416 78.3795 16.416H78.2475V15.48H81.0555V16.416H80.9355C80.7915 16.416 80.6635 16.432 80.5515 16.464C80.4395 16.488 80.3515 16.536 80.2875 16.608C80.2235 16.672 80.1915 16.768 80.1915 16.896V20.796C80.1915 21.412 80.1075 21.94 79.9395 22.38C79.7715 22.812 79.5355 23.168 79.2315 23.448C78.9275 23.72 78.5715 23.92 78.1635 24.048C77.7635 24.176 77.3315 24.24 76.8675 24.24C76.3395 24.24 75.8555 24.172 75.4155 24.036C74.9835 23.908 74.6115 23.708 74.2995 23.436C73.9875 23.156 73.7475 22.8 73.5795 22.368C73.4115 21.928 73.3275 21.408 73.3275 20.808V16.848C73.3275 16.672 73.2555 16.556 73.1115 16.5C72.9755 16.444 72.7995 16.416 72.5835 16.416H72.4515V15.48H76.4115V16.416H76.2795C76.1995 16.416 76.1155 16.42 76.0275 16.428C75.9395 16.428 75.8555 16.436 75.7755 16.452C75.7035 16.46 75.6435 16.472 75.5955 16.488C75.5475 16.496 75.5235 16.512 75.5235 16.536V20.808ZM86.4097 16.272C86.0497 16.272 85.7337 16.344 85.4617 16.488C85.1977 16.624 84.9777 16.832 84.8017 17.112C84.6257 17.392 84.4937 17.752 84.4057 18.192C84.3177 18.624 84.2737 19.14 84.2737 19.74C84.2737 20.356 84.3177 20.884 84.4057 21.324C84.5017 21.764 84.6417 22.124 84.8257 22.404C85.0097 22.676 85.2417 22.88 85.5217 23.016C85.8097 23.144 86.1457 23.208 86.5297 23.208C87.0177 23.208 87.4217 23.112 87.7417 22.92C88.0697 22.728 88.3337 22.464 88.5337 22.128C88.7417 21.784 88.9057 21.392 89.0257 20.952L89.9377 21.36C89.7777 21.96 89.5417 22.476 89.2297 22.908C88.9177 23.332 88.5217 23.66 88.0417 23.892C87.5617 24.124 86.9737 24.24 86.2777 24.24C85.6297 24.24 85.0417 24.144 84.5137 23.952C83.9937 23.76 83.5417 23.472 83.1577 23.088C82.7817 22.704 82.4897 22.232 82.2817 21.672C82.0737 21.112 81.9697 20.468 81.9697 19.74C81.9697 18.996 82.0737 18.344 82.2817 17.784C82.4977 17.224 82.7937 16.756 83.1697 16.38C83.5457 16.004 83.9857 15.72 84.4897 15.528C85.0017 15.336 85.5497 15.24 86.1337 15.24C86.7257 15.24 87.2177 15.352 87.6097 15.576C88.0097 15.8 88.3257 16.116 88.5577 16.524C88.7897 16.932 88.9497 17.416 89.0377 17.976L88.5697 17.532L88.7977 15.396H89.8057V18.384H88.6297C88.5097 17.952 88.3497 17.58 88.1497 17.268C87.9497 16.948 87.7057 16.704 87.4177 16.536C87.1377 16.36 86.8017 16.272 86.4097 16.272ZM90.992 24V23.064H91.124C91.34 23.064 91.516 23.036 91.652 22.98C91.796 22.924 91.868 22.808 91.868 22.632V16.848C91.868 16.672 91.796 16.556 91.652 16.5C91.516 16.444 91.34 16.416 91.124 16.416H90.992V15.48H94.988V16.416H94.856C94.76 16.416 94.664 16.42 94.568 16.428C94.472 16.428 94.384 16.436 94.304 16.452C94.232 16.46 94.172 16.472 94.124 16.488C94.084 16.496 94.064 16.512 94.064 16.536V22.944C94.064 22.968 94.084 22.988 94.124 23.004C94.164 23.012 94.216 23.024 94.28 23.04C94.352 23.048 94.428 23.056 94.508 23.064C94.588 23.064 94.664 23.064 94.736 23.064H94.832V24H90.992ZM95.972 24V23.064H96.068C96.188 23.064 96.304 23.06 96.416 23.052C96.528 23.044 96.62 23.032 96.692 23.016C96.764 22.992 96.8 22.968 96.8 22.944L94.448 19.872V19.572L97.448 16.536C97.448 16.504 97.4 16.48 97.304 16.464C97.208 16.448 97.088 16.436 96.944 16.428C96.8 16.42 96.66 16.416 96.524 16.416H96.368V15.48H99.728V16.416H99.452C99.316 16.416 99.196 16.428 99.092 16.452C98.988 16.468 98.888 16.504 98.792 16.56C98.704 16.608 98.612 16.684 98.516 16.788L95.552 19.764L96.116 18.6L99.296 22.764C99.36 22.844 99.424 22.908 99.488 22.956C99.56 22.996 99.636 23.024 99.716 23.04C99.796 23.056 99.888 23.064 99.992 23.064H100.136V24H95.972ZM102.68 24.204C102.28 24.204 101.956 24.096 101.708 23.88C101.468 23.664 101.348 23.36 101.348 22.968C101.348 22.576 101.468 22.272 101.708 22.056C101.956 21.84 102.28 21.732 102.68 21.732C103.096 21.732 103.424 21.84 103.664 22.056C103.904 22.272 104.024 22.576 104.024 22.968C104.024 23.36 103.904 23.664 103.664 23.88C103.424 24.096 103.096 24.204 102.68 24.204Z" fill="#D4AF37"/>
<path fill-rule="evenodd" clip-rule="evenodd" d="M4 2H164C165.105 2 166 2.89543 166 4V36C166 37.1046 165.105 38 164 38H49.4118V40H164C166.209 40 168 38.2091 168 36V4C168 1.79086 166.209 0 164 0H4C1.79086 0 0 1.79086 0 4V36C0 38.2091 1.79087 40 4 40H36.4887V38H4C2.89543 38 2 37.1046 2 36V4C2 2.89543 2.89543 2 4 2ZM38.7692 38V40H41.81V38H38.7692ZM47.1312 40H44.0905V38H47.1312V40Z" fill="#D4AF37"/>
</g>
<defs>
<clipPath id="clip0_5684_1036">
<rect width="168" height="40" rx="4" fill="white"/>
</clipPath>
</defs>
</svg>
