<svg width="263" height="14" viewBox="0 0 263 14" fill="none" xmlns="http://www.w3.org/2000/svg">
<path d="M0.492188 11L4.05371 1.13574H5.29102V2.86523H4.82617L2.10547 11H0.492188ZM2.20801 8.33398L2.63867 7.10352H7.12988L7.56055 8.33398H2.20801ZM7.65625 11L4.94238 2.86523V1.13574H5.71484L9.26953 11H7.65625ZM16.7666 13.6182C16.1377 13.6182 15.5908 13.5316 15.126 13.3584C14.6657 13.1852 14.3011 12.9437 14.0322 12.6338C13.7633 12.3239 13.5993 11.9639 13.54 11.5537L13.5469 11.54H15.0508L15.0576 11.5537C15.1214 11.8089 15.3014 12.0186 15.5977 12.1826C15.8939 12.3467 16.2904 12.4287 16.7871 12.4287C17.3978 12.4287 17.874 12.2897 18.2158 12.0117C18.5622 11.7337 18.7354 11.3441 18.7354 10.8428V9.38672H18.6191C18.4733 9.65104 18.2865 9.87891 18.0586 10.0703C17.8307 10.2572 17.571 10.3984 17.2793 10.4941C16.9876 10.5898 16.6709 10.6377 16.3291 10.6377C15.7002 10.6377 15.1533 10.4873 14.6885 10.1865C14.2282 9.88118 13.8727 9.46191 13.6221 8.92871C13.376 8.39095 13.2529 7.77344 13.2529 7.07617V7.0625C13.2529 6.35612 13.3783 5.73177 13.6289 5.18945C13.8796 4.64258 14.2373 4.21647 14.7021 3.91113C15.167 3.60124 15.7207 3.44629 16.3633 3.44629C16.7096 3.44629 17.0264 3.50098 17.3135 3.61035C17.6051 3.71973 17.8626 3.87467 18.0859 4.0752C18.3092 4.27572 18.4938 4.51497 18.6396 4.79297H18.7285V3.57617H20.2119V10.8496C20.2119 11.4102 20.0706 11.8978 19.7881 12.3125C19.5101 12.7272 19.1136 13.0485 18.5986 13.2764C18.0837 13.5042 17.473 13.6182 16.7666 13.6182ZM16.7461 9.40723C17.1654 9.40723 17.5254 9.30924 17.8262 9.11328C18.127 8.91276 18.3571 8.63704 18.5166 8.28613C18.6807 7.93522 18.7627 7.52962 18.7627 7.06934V7.05566C18.7627 6.59993 18.6807 6.19434 18.5166 5.83887C18.3571 5.4834 18.127 5.2054 17.8262 5.00488C17.5254 4.80436 17.1654 4.7041 16.7461 4.7041C16.3268 4.7041 15.9691 4.80436 15.6729 5.00488C15.3812 5.2054 15.1579 5.4834 15.0029 5.83887C14.848 6.18978 14.7705 6.59538 14.7705 7.05566V7.06934C14.7705 7.52962 14.848 7.93522 15.0029 8.28613C15.1579 8.63704 15.3812 8.91276 15.6729 9.11328C15.9691 9.30924 16.3268 9.40723 16.7461 9.40723ZM23.8887 11.123C23.4193 11.123 22.9977 11.0342 22.624 10.8564C22.2549 10.6742 21.9632 10.4167 21.749 10.084C21.5348 9.7513 21.4277 9.36165 21.4277 8.91504V8.90137C21.4277 8.45475 21.5348 8.07422 21.749 7.75977C21.9678 7.44531 22.2822 7.19922 22.6924 7.02148C23.1071 6.83919 23.6084 6.72982 24.1963 6.69336L26.9375 6.5293V7.5752L24.4014 7.73926C23.891 7.77116 23.515 7.88053 23.2734 8.06738C23.0319 8.24967 22.9111 8.50716 22.9111 8.83984V8.85352C22.9111 9.19076 23.041 9.45736 23.3008 9.65332C23.5605 9.84473 23.8887 9.94043 24.2852 9.94043C24.6543 9.94043 24.9824 9.86751 25.2695 9.72168C25.5612 9.57129 25.7891 9.37077 25.9531 9.12012C26.1172 8.86491 26.1992 8.5778 26.1992 8.25879V5.9209C26.1992 5.51074 26.0716 5.19857 25.8164 4.98438C25.5658 4.76562 25.1921 4.65625 24.6953 4.65625C24.2806 4.65625 23.9411 4.72917 23.6768 4.875C23.417 5.02083 23.2438 5.22591 23.1572 5.49023L23.1436 5.51074H21.7148L21.7217 5.46289C21.7809 5.05273 21.9427 4.69727 22.207 4.39648C22.4759 4.09115 22.8268 3.85417 23.2598 3.68555C23.6973 3.51693 24.1963 3.43262 24.7568 3.43262C25.3812 3.43262 25.9098 3.53288 26.3428 3.7334C26.7803 3.92936 27.1107 4.21419 27.334 4.58789C27.5618 4.95703 27.6758 5.40137 27.6758 5.9209V11H26.1992V9.94727H26.0898C25.944 10.1979 25.7617 10.4121 25.543 10.5898C25.3242 10.763 25.0758 10.8952 24.7979 10.9863C24.5199 11.0775 24.2168 11.123 23.8887 11.123ZM29.2676 11V3.57617H30.751V4.71777H30.8672C31.0312 4.30762 31.2865 3.99089 31.6328 3.76758C31.9837 3.54427 32.403 3.43262 32.8906 3.43262C33.2279 3.43262 33.5309 3.4873 33.7998 3.59668C34.0687 3.70605 34.2988 3.861 34.4902 4.06152C34.6862 4.25749 34.8389 4.48991 34.9482 4.75879H35.0645C35.1875 4.48991 35.3607 4.25749 35.584 4.06152C35.8073 3.861 36.0671 3.70605 36.3633 3.59668C36.6641 3.4873 36.9831 3.43262 37.3203 3.43262C37.8216 3.43262 38.25 3.5306 38.6055 3.72656C38.9609 3.91797 39.2321 4.19596 39.4189 4.56055C39.6058 4.92513 39.6992 5.36491 39.6992 5.87988V11H38.2158V6.23535C38.2158 5.89355 38.1634 5.611 38.0586 5.3877C37.9538 5.15983 37.7943 4.98893 37.5801 4.875C37.3704 4.76107 37.1061 4.7041 36.7871 4.7041C36.4727 4.7041 36.1969 4.77702 35.96 4.92285C35.7275 5.06413 35.5452 5.25553 35.4131 5.49707C35.2855 5.73405 35.2217 6.00293 35.2217 6.30371V11H33.7383V6.08496C33.7383 5.80241 33.679 5.55859 33.5605 5.35352C33.4466 5.14388 33.2826 4.98438 33.0684 4.875C32.8542 4.76107 32.6012 4.7041 32.3096 4.7041C32.0133 4.7041 31.7467 4.78158 31.5098 4.93652C31.2773 5.09147 31.0928 5.30111 30.9561 5.56543C30.8193 5.8252 30.751 6.11686 30.751 6.44043V11H29.2676ZM44.3945 11.1436C43.6699 11.1436 43.0479 10.9886 42.5283 10.6787C42.0088 10.3643 41.6077 9.91992 41.3252 9.3457C41.0472 8.77148 40.9082 8.09245 40.9082 7.30859V7.30176C40.9082 6.52702 41.0472 5.85026 41.3252 5.27148C41.6077 4.69271 42.0042 4.24154 42.5146 3.91797C43.0296 3.5944 43.6312 3.43262 44.3193 3.43262C45.012 3.43262 45.6068 3.58757 46.1035 3.89746C46.6048 4.20736 46.9899 4.64258 47.2588 5.20312C47.5277 5.75911 47.6621 6.41081 47.6621 7.1582V7.67773H41.6602V6.61816H46.9238L46.2129 7.60254V7.00781C46.2129 6.47917 46.1309 6.04167 45.9668 5.69531C45.8073 5.3444 45.5863 5.08236 45.3037 4.90918C45.0212 4.736 44.6953 4.64941 44.3262 4.64941C43.957 4.64941 43.6266 4.74056 43.335 4.92285C43.0479 5.10059 42.82 5.36491 42.6514 5.71582C42.4873 6.06673 42.4053 6.4974 42.4053 7.00781V7.60254C42.4053 8.09017 42.4873 8.50716 42.6514 8.85352C42.8154 9.19987 43.0479 9.46419 43.3486 9.64648C43.654 9.82878 44.014 9.91992 44.4287 9.91992C44.7477 9.91992 45.0212 9.87663 45.249 9.79004C45.4814 9.69889 45.6706 9.58724 45.8164 9.45508C45.9668 9.32292 46.0693 9.19303 46.124 9.06543L46.1514 9.01074H47.5869L47.5732 9.07227C47.5094 9.31836 47.3978 9.56445 47.2383 9.81055C47.0788 10.0521 46.8669 10.2731 46.6025 10.4736C46.3428 10.6742 46.0283 10.8359 45.6592 10.959C45.2946 11.082 44.873 11.1436 44.3945 11.1436ZM55.3848 11.1436C54.6602 11.1436 54.0335 10.9886 53.5049 10.6787C52.9808 10.3688 52.5775 9.92676 52.2949 9.35254C52.0124 8.77376 51.8711 8.08789 51.8711 7.29492V7.28125C51.8711 6.48372 52.0124 5.79785 52.2949 5.22363C52.582 4.64941 52.9876 4.20736 53.5117 3.89746C54.0404 3.58757 54.6647 3.43262 55.3848 3.43262C56.1094 3.43262 56.7337 3.58757 57.2578 3.89746C57.7819 4.2028 58.1852 4.64486 58.4678 5.22363C58.7549 5.79785 58.8984 6.48372 58.8984 7.28125V7.29492C58.8984 8.08789 58.7549 8.77376 58.4678 9.35254C58.1852 9.92676 57.7819 10.3688 57.2578 10.6787C56.7383 10.9886 56.1139 11.1436 55.3848 11.1436ZM55.3848 9.89941C55.8086 9.89941 56.1686 9.79688 56.4648 9.5918C56.7611 9.38216 56.9867 9.08366 57.1416 8.69629C57.2965 8.30892 57.374 7.8418 57.374 7.29492V7.28125C57.374 6.72982 57.2965 6.26042 57.1416 5.87305C56.9867 5.48568 56.7611 5.18945 56.4648 4.98438C56.1686 4.77474 55.8086 4.66992 55.3848 4.66992C54.9609 4.66992 54.6009 4.77474 54.3047 4.98438C54.0085 5.18945 53.7806 5.48568 53.6211 5.87305C53.4661 6.26042 53.3887 6.72982 53.3887 7.28125V7.29492C53.3887 7.8418 53.4661 8.30892 53.6211 8.69629C53.7806 9.08366 54.0085 9.38216 54.3047 9.5918C54.6009 9.79688 54.9609 9.89941 55.3848 9.89941ZM60.6885 11V4.74512H59.4648V3.57617H60.6885V2.79688C60.6885 2.30013 60.7705 1.88997 60.9346 1.56641C61.1032 1.23828 61.3584 0.994466 61.7002 0.834961C62.042 0.675456 62.4727 0.595703 62.9922 0.595703C63.1562 0.595703 63.3089 0.602539 63.4502 0.616211C63.596 0.625326 63.735 0.641276 63.8672 0.664062V1.75781C63.7988 1.74414 63.7145 1.73503 63.6143 1.73047C63.5186 1.72135 63.4137 1.7168 63.2998 1.7168C62.8896 1.7168 62.5957 1.81478 62.418 2.01074C62.2448 2.20671 62.1582 2.49154 62.1582 2.86523V3.57617H63.7988V4.74512H62.1719V11H60.6885ZM70.3184 11.123C69.849 11.123 69.4274 11.0342 69.0537 10.8564C68.6846 10.6742 68.3929 10.4167 68.1787 10.084C67.9645 9.7513 67.8574 9.36165 67.8574 8.91504V8.90137C67.8574 8.45475 67.9645 8.07422 68.1787 7.75977C68.3975 7.44531 68.7119 7.19922 69.1221 7.02148C69.5368 6.83919 70.0381 6.72982 70.626 6.69336L73.3672 6.5293V7.5752L70.8311 7.73926C70.3206 7.77116 69.9447 7.88053 69.7031 8.06738C69.4616 8.24967 69.3408 8.50716 69.3408 8.83984V8.85352C69.3408 9.19076 69.4707 9.45736 69.7305 9.65332C69.9902 9.84473 70.3184 9.94043 70.7148 9.94043C71.084 9.94043 71.4121 9.86751 71.6992 9.72168C71.9909 9.57129 72.2188 9.37077 72.3828 9.12012C72.5469 8.86491 72.6289 8.5778 72.6289 8.25879V5.9209C72.6289 5.51074 72.5013 5.19857 72.2461 4.98438C71.9954 4.76562 71.6217 4.65625 71.125 4.65625C70.7103 4.65625 70.3708 4.72917 70.1064 4.875C69.8467 5.02083 69.6735 5.22591 69.5869 5.49023L69.5732 5.51074H68.1445L68.1514 5.46289C68.2106 5.05273 68.3724 4.69727 68.6367 4.39648C68.9056 4.09115 69.2565 3.85417 69.6895 3.68555C70.127 3.51693 70.626 3.43262 71.1865 3.43262C71.8109 3.43262 72.3395 3.53288 72.7725 3.7334C73.21 3.92936 73.5404 4.21419 73.7637 4.58789C73.9915 4.95703 74.1055 5.40137 74.1055 5.9209V11H72.6289V9.94727H72.5195C72.3737 10.1979 72.1914 10.4121 71.9727 10.5898C71.7539 10.763 71.5055 10.8952 71.2275 10.9863C70.9495 11.0775 70.6465 11.123 70.3184 11.123ZM75.6973 11V3.57617H77.1807V4.69727H77.2969C77.429 4.30078 77.6615 3.99316 77.9941 3.77441C78.3314 3.55566 78.7461 3.44629 79.2383 3.44629C79.3613 3.44629 79.4821 3.45312 79.6006 3.4668C79.7191 3.48047 79.8148 3.49642 79.8877 3.51465V4.88184C79.7555 4.85449 79.6234 4.83398 79.4912 4.82031C79.3636 4.80664 79.2292 4.7998 79.0879 4.7998C78.7096 4.7998 78.377 4.87272 78.0898 5.01855C77.8073 5.16439 77.584 5.36947 77.4199 5.63379C77.2604 5.89355 77.1807 6.20345 77.1807 6.56348V11H75.6973ZM83.7695 11.0479C82.9583 11.0479 82.3704 10.8929 82.0059 10.583C81.6458 10.2686 81.4658 9.75586 81.4658 9.04492V4.74512H80.3037V3.57617H81.4658V1.70312H82.9834V3.57617H84.5762V4.74512H82.9834V8.68262C82.9834 9.08366 83.0632 9.37305 83.2227 9.55078C83.3822 9.72396 83.6465 9.81055 84.0156 9.81055C84.125 9.81055 84.2184 9.80827 84.2959 9.80371C84.3779 9.79915 84.4714 9.79232 84.5762 9.7832V10.9727C84.4577 10.9909 84.3301 11.0068 84.1934 11.0205C84.0566 11.0387 83.9154 11.0479 83.7695 11.0479ZM90.5488 11L88.5049 3.57617H90.002L91.3281 9.30469H91.4443L92.9688 3.57617H94.3838L95.915 9.30469H96.0244L97.3574 3.57617H98.8271L96.79 11H95.252L93.7139 5.46289H93.5977L92.0732 11H90.5488ZM99.9199 11V0.664062H101.403V4.69727H101.52C101.702 4.30078 101.971 3.99089 102.326 3.76758C102.682 3.54427 103.131 3.43262 103.673 3.43262C104.224 3.43262 104.691 3.53971 105.074 3.75391C105.457 3.9681 105.749 4.28255 105.949 4.69727C106.15 5.10742 106.25 5.60645 106.25 6.19434V11H104.76V6.54297C104.76 5.92318 104.63 5.46289 104.37 5.16211C104.115 4.85677 103.714 4.7041 103.167 4.7041C102.807 4.7041 102.495 4.78385 102.23 4.94336C101.966 5.09831 101.761 5.32161 101.615 5.61328C101.474 5.90039 101.403 6.24447 101.403 6.64551V11H99.9199ZM107.835 11V3.57617H109.325V11H107.835ZM108.587 2.25C108.332 2.25 108.113 2.15885 107.931 1.97656C107.748 1.79427 107.657 1.57552 107.657 1.32031C107.657 1.0651 107.748 0.848633 107.931 0.670898C108.113 0.488607 108.332 0.397461 108.587 0.397461C108.842 0.397461 109.061 0.488607 109.243 0.670898C109.425 0.848633 109.517 1.0651 109.517 1.32031C109.517 1.57552 109.425 1.79427 109.243 1.97656C109.061 2.15885 108.842 2.25 108.587 2.25ZM113.679 11.1436C113.082 11.1436 112.562 11.057 112.12 10.8838C111.678 10.7061 111.327 10.4622 111.067 10.1523C110.808 9.83789 110.655 9.47331 110.609 9.05859V9.04492H112.1V9.05859C112.195 9.33659 112.378 9.56217 112.646 9.73535C112.915 9.90853 113.271 9.99512 113.713 9.99512C114.018 9.99512 114.285 9.95182 114.513 9.86523C114.745 9.77865 114.927 9.65788 115.06 9.50293C115.192 9.34798 115.258 9.17025 115.258 8.96973V8.95605C115.258 8.72363 115.164 8.52767 114.978 8.36816C114.791 8.20866 114.483 8.07878 114.055 7.97852L112.865 7.70508C112.4 7.60026 112.015 7.45671 111.71 7.27441C111.405 7.09212 111.179 6.86882 111.033 6.60449C110.887 6.33561 110.814 6.02116 110.814 5.66113V5.6543C110.814 5.22135 110.938 4.83854 111.184 4.50586C111.43 4.16862 111.769 3.90658 112.202 3.71973C112.64 3.52832 113.139 3.43262 113.699 3.43262C114.264 3.43262 114.757 3.52148 115.176 3.69922C115.6 3.8724 115.935 4.11393 116.181 4.42383C116.427 4.72917 116.573 5.08464 116.618 5.49023V5.49707H115.196V5.4834C115.128 5.22363 114.964 5.00716 114.704 4.83398C114.449 4.66081 114.112 4.57422 113.692 4.57422C113.424 4.57422 113.184 4.61751 112.975 4.7041C112.765 4.78613 112.599 4.90234 112.476 5.05273C112.357 5.19857 112.298 5.37174 112.298 5.57227V5.58594C112.298 5.74089 112.337 5.8776 112.414 5.99609C112.496 6.11003 112.624 6.21257 112.797 6.30371C112.97 6.3903 113.193 6.46777 113.467 6.53613L114.649 6.80273C115.36 6.97135 115.889 7.21517 116.235 7.53418C116.586 7.85319 116.762 8.28158 116.762 8.81934V8.83301C116.762 9.28874 116.627 9.69206 116.358 10.043C116.09 10.3893 115.723 10.6605 115.258 10.8564C114.798 11.0479 114.271 11.1436 113.679 11.1436ZM118.025 13.4746V3.57617H119.509V4.74512H119.625C119.766 4.47168 119.949 4.23926 120.172 4.04785C120.4 3.85645 120.66 3.70833 120.951 3.60352C121.243 3.4987 121.562 3.44629 121.908 3.44629C122.533 3.44629 123.075 3.60579 123.535 3.9248C123.995 4.23926 124.351 4.68359 124.602 5.25781C124.857 5.82747 124.984 6.50195 124.984 7.28125V7.29492C124.984 8.07878 124.859 8.75781 124.608 9.33203C124.358 9.90169 124.002 10.3438 123.542 10.6582C123.082 10.9681 122.537 11.123 121.908 11.123C121.566 11.123 121.247 11.0706 120.951 10.9658C120.655 10.8564 120.393 10.7061 120.165 10.5146C119.937 10.3232 119.757 10.0931 119.625 9.82422H119.509V13.4746H118.025ZM121.484 9.85156C121.899 9.85156 122.255 9.74902 122.551 9.54395C122.847 9.33887 123.073 9.04492 123.228 8.66211C123.387 8.2793 123.467 7.82357 123.467 7.29492V7.28125C123.467 6.74805 123.387 6.29004 123.228 5.90723C123.073 5.52441 122.847 5.23047 122.551 5.02539C122.255 4.82031 121.899 4.71777 121.484 4.71777C121.074 4.71777 120.719 4.82259 120.418 5.03223C120.117 5.2373 119.887 5.53125 119.728 5.91406C119.568 6.29232 119.488 6.74805 119.488 7.28125V7.29492C119.488 7.81901 119.568 8.27246 119.728 8.65527C119.887 9.03809 120.117 9.33431 120.418 9.54395C120.719 9.74902 121.074 9.85156 121.484 9.85156ZM129.379 11.1436C128.654 11.1436 128.032 10.9886 127.513 10.6787C126.993 10.3643 126.592 9.91992 126.31 9.3457C126.032 8.77148 125.893 8.09245 125.893 7.30859V7.30176C125.893 6.52702 126.032 5.85026 126.31 5.27148C126.592 4.69271 126.989 4.24154 127.499 3.91797C128.014 3.5944 128.616 3.43262 129.304 3.43262C129.996 3.43262 130.591 3.58757 131.088 3.89746C131.589 4.20736 131.974 4.64258 132.243 5.20312C132.512 5.75911 132.646 6.41081 132.646 7.1582V7.67773H126.645V6.61816H131.908L131.197 7.60254V7.00781C131.197 6.47917 131.115 6.04167 130.951 5.69531C130.792 5.3444 130.571 5.08236 130.288 4.90918C130.006 4.736 129.68 4.64941 129.311 4.64941C128.941 4.64941 128.611 4.74056 128.319 4.92285C128.032 5.10059 127.804 5.36491 127.636 5.71582C127.472 6.06673 127.39 6.4974 127.39 7.00781V7.60254C127.39 8.09017 127.472 8.50716 127.636 8.85352C127.8 9.19987 128.032 9.46419 128.333 9.64648C128.638 9.82878 128.998 9.91992 129.413 9.91992C129.732 9.91992 130.006 9.87663 130.233 9.79004C130.466 9.69889 130.655 9.58724 130.801 9.45508C130.951 9.32292 131.054 9.19303 131.108 9.06543L131.136 9.01074H132.571L132.558 9.07227C132.494 9.31836 132.382 9.56445 132.223 9.81055C132.063 10.0521 131.851 10.2731 131.587 10.4736C131.327 10.6742 131.013 10.8359 130.644 10.959C130.279 11.082 129.857 11.1436 129.379 11.1436ZM133.91 11V3.57617H135.394V4.69727H135.51C135.642 4.30078 135.874 3.99316 136.207 3.77441C136.544 3.55566 136.959 3.44629 137.451 3.44629C137.574 3.44629 137.695 3.45312 137.813 3.4668C137.932 3.48047 138.028 3.49642 138.101 3.51465V4.88184C137.968 4.85449 137.836 4.83398 137.704 4.82031C137.576 4.80664 137.442 4.7998 137.301 4.7998C136.923 4.7998 136.59 4.87272 136.303 5.01855C136.02 5.16439 135.797 5.36947 135.633 5.63379C135.473 5.89355 135.394 6.20345 135.394 6.56348V11H133.91ZM141.955 11.1436C141.23 11.1436 140.608 10.9886 140.089 10.6787C139.569 10.3643 139.168 9.91992 138.886 9.3457C138.608 8.77148 138.469 8.09245 138.469 7.30859V7.30176C138.469 6.52702 138.608 5.85026 138.886 5.27148C139.168 4.69271 139.565 4.24154 140.075 3.91797C140.59 3.5944 141.192 3.43262 141.88 3.43262C142.573 3.43262 143.167 3.58757 143.664 3.89746C144.165 4.20736 144.55 4.64258 144.819 5.20312C145.088 5.75911 145.223 6.41081 145.223 7.1582V7.67773H139.221V6.61816H144.484L143.773 7.60254V7.00781C143.773 6.47917 143.691 6.04167 143.527 5.69531C143.368 5.3444 143.147 5.08236 142.864 4.90918C142.582 4.736 142.256 4.64941 141.887 4.64941C141.518 4.64941 141.187 4.74056 140.896 4.92285C140.608 5.10059 140.381 5.36491 140.212 5.71582C140.048 6.06673 139.966 6.4974 139.966 7.00781V7.60254C139.966 8.09017 140.048 8.50716 140.212 8.85352C140.376 9.19987 140.608 9.46419 140.909 9.64648C141.215 9.82878 141.575 9.91992 141.989 9.91992C142.308 9.91992 142.582 9.87663 142.81 9.79004C143.042 9.69889 143.231 9.58724 143.377 9.45508C143.527 9.32292 143.63 9.19303 143.685 9.06543L143.712 9.01074H145.147L145.134 9.07227C145.07 9.31836 144.958 9.56445 144.799 9.81055C144.639 10.0521 144.427 10.2731 144.163 10.4736C143.903 10.6742 143.589 10.8359 143.22 10.959C142.855 11.082 142.434 11.1436 141.955 11.1436ZM149.193 11.123C148.574 11.123 148.031 10.9681 147.566 10.6582C147.106 10.3438 146.748 9.89941 146.493 9.3252C146.243 8.75098 146.117 8.07422 146.117 7.29492V7.28125C146.117 6.4974 146.243 5.81836 146.493 5.24414C146.744 4.66992 147.099 4.22786 147.56 3.91797C148.02 3.60352 148.564 3.44629 149.193 3.44629C149.535 3.44629 149.854 3.50098 150.15 3.61035C150.447 3.71517 150.709 3.86556 150.937 4.06152C151.164 4.25293 151.344 4.48307 151.477 4.75195H151.586V0.664062H153.076V11H151.586V9.83105H151.477C151.331 10.0999 151.146 10.3324 150.923 10.5283C150.7 10.7197 150.442 10.8678 150.15 10.9727C149.859 11.0729 149.54 11.123 149.193 11.123ZM149.617 9.85156C150.027 9.85156 150.383 9.74902 150.684 9.54395C150.984 9.33887 151.215 9.04492 151.374 8.66211C151.534 8.27474 151.613 7.81901 151.613 7.29492V7.28125C151.613 6.7526 151.531 6.29688 151.367 5.91406C151.208 5.53125 150.978 5.2373 150.677 5.03223C150.381 4.82259 150.027 4.71777 149.617 4.71777C149.207 4.71777 148.852 4.82259 148.551 5.03223C148.255 5.2373 148.027 5.53125 147.867 5.91406C147.712 6.29232 147.635 6.74805 147.635 7.28125V7.29492C147.635 7.82357 147.712 8.2793 147.867 8.66211C148.027 9.04492 148.255 9.33887 148.551 9.54395C148.852 9.74902 149.207 9.85156 149.617 9.85156ZM160.129 11.123C159.66 11.123 159.238 11.0342 158.864 10.8564C158.495 10.6742 158.203 10.4167 157.989 10.084C157.775 9.7513 157.668 9.36165 157.668 8.91504V8.90137C157.668 8.45475 157.775 8.07422 157.989 7.75977C158.208 7.44531 158.522 7.19922 158.933 7.02148C159.347 6.83919 159.849 6.72982 160.437 6.69336L163.178 6.5293V7.5752L160.642 7.73926C160.131 7.77116 159.755 7.88053 159.514 8.06738C159.272 8.24967 159.151 8.50716 159.151 8.83984V8.85352C159.151 9.19076 159.281 9.45736 159.541 9.65332C159.801 9.84473 160.129 9.94043 160.525 9.94043C160.895 9.94043 161.223 9.86751 161.51 9.72168C161.801 9.57129 162.029 9.37077 162.193 9.12012C162.357 8.86491 162.439 8.5778 162.439 8.25879V5.9209C162.439 5.51074 162.312 5.19857 162.057 4.98438C161.806 4.76562 161.432 4.65625 160.936 4.65625C160.521 4.65625 160.181 4.72917 159.917 4.875C159.657 5.02083 159.484 5.22591 159.397 5.49023L159.384 5.51074H157.955L157.962 5.46289C158.021 5.05273 158.183 4.69727 158.447 4.39648C158.716 4.09115 159.067 3.85417 159.5 3.68555C159.938 3.51693 160.437 3.43262 160.997 3.43262C161.621 3.43262 162.15 3.53288 162.583 3.7334C163.021 3.92936 163.351 4.21419 163.574 4.58789C163.802 4.95703 163.916 5.40137 163.916 5.9209V11H162.439V9.94727H162.33C162.184 10.1979 162.002 10.4121 161.783 10.5898C161.564 10.763 161.316 10.8952 161.038 10.9863C160.76 11.0775 160.457 11.123 160.129 11.123ZM165.508 11V3.57617H166.991V4.69727H167.107C167.24 4.30078 167.472 3.99316 167.805 3.77441C168.142 3.55566 168.557 3.44629 169.049 3.44629C169.172 3.44629 169.293 3.45312 169.411 3.4668C169.53 3.48047 169.625 3.49642 169.698 3.51465V4.88184C169.566 4.85449 169.434 4.83398 169.302 4.82031C169.174 4.80664 169.04 4.7998 168.898 4.7998C168.52 4.7998 168.188 4.87272 167.9 5.01855C167.618 5.16439 167.395 5.36947 167.23 5.63379C167.071 5.89355 166.991 6.20345 166.991 6.56348V11H165.508ZM173.58 11.1436C172.855 11.1436 172.229 10.9886 171.7 10.6787C171.176 10.3688 170.773 9.92676 170.49 9.35254C170.208 8.77376 170.066 8.08789 170.066 7.29492V7.28125C170.066 6.48372 170.208 5.79785 170.49 5.22363C170.777 4.64941 171.183 4.20736 171.707 3.89746C172.236 3.58757 172.86 3.43262 173.58 3.43262C174.305 3.43262 174.929 3.58757 175.453 3.89746C175.977 4.2028 176.381 4.64486 176.663 5.22363C176.95 5.79785 177.094 6.48372 177.094 7.28125V7.29492C177.094 8.08789 176.95 8.77376 176.663 9.35254C176.381 9.92676 175.977 10.3688 175.453 10.6787C174.934 10.9886 174.309 11.1436 173.58 11.1436ZM173.58 9.89941C174.004 9.89941 174.364 9.79688 174.66 9.5918C174.956 9.38216 175.182 9.08366 175.337 8.69629C175.492 8.30892 175.569 7.8418 175.569 7.29492V7.28125C175.569 6.72982 175.492 6.26042 175.337 5.87305C175.182 5.48568 174.956 5.18945 174.66 4.98438C174.364 4.77474 174.004 4.66992 173.58 4.66992C173.156 4.66992 172.796 4.77474 172.5 4.98438C172.204 5.18945 171.976 5.48568 171.816 5.87305C171.661 6.26042 171.584 6.72982 171.584 7.28125V7.29492C171.584 7.8418 171.661 8.30892 171.816 8.69629C171.976 9.08366 172.204 9.38216 172.5 9.5918C172.796 9.79688 173.156 9.89941 173.58 9.89941ZM180.832 11.1436C180.276 11.1436 179.807 11.0365 179.424 10.8223C179.046 10.6035 178.761 10.2891 178.569 9.87891C178.382 9.46419 178.289 8.96517 178.289 8.38184V3.57617H179.772V8.0332C179.772 8.64388 179.893 9.10189 180.135 9.40723C180.376 9.71257 180.771 9.86523 181.317 9.86523C181.609 9.86523 181.869 9.82194 182.097 9.73535C182.325 9.64421 182.516 9.51432 182.671 9.3457C182.826 9.17708 182.94 8.97428 183.013 8.7373C183.09 8.50033 183.129 8.23145 183.129 7.93066V3.57617H184.619V11H183.129V9.87891H183.02C182.901 10.1432 182.739 10.3711 182.534 10.5625C182.329 10.7493 182.083 10.8929 181.796 10.9932C181.513 11.0934 181.192 11.1436 180.832 11.1436ZM186.252 11V3.57617H187.735V4.69727H187.852C188.034 4.30078 188.303 3.99089 188.658 3.76758C189.014 3.54427 189.463 3.43262 190.005 3.43262C190.839 3.43262 191.477 3.67188 191.919 4.15039C192.361 4.62891 192.582 5.31022 192.582 6.19434V11H191.092V6.54297C191.092 5.92318 190.962 5.46289 190.702 5.16211C190.447 4.85677 190.046 4.7041 189.499 4.7041C189.139 4.7041 188.827 4.78385 188.562 4.94336C188.298 5.09831 188.093 5.32161 187.947 5.61328C187.806 5.90039 187.735 6.24447 187.735 6.64551V11H186.252ZM196.854 11.123C196.234 11.123 195.691 10.9681 195.227 10.6582C194.766 10.3438 194.409 9.89941 194.153 9.3252C193.903 8.75098 193.777 8.07422 193.777 7.29492V7.28125C193.777 6.4974 193.903 5.81836 194.153 5.24414C194.404 4.66992 194.759 4.22786 195.22 3.91797C195.68 3.60352 196.225 3.44629 196.854 3.44629C197.195 3.44629 197.514 3.50098 197.811 3.61035C198.107 3.71517 198.369 3.86556 198.597 4.06152C198.825 4.25293 199.005 4.48307 199.137 4.75195H199.246V0.664062H200.736V11H199.246V9.83105H199.137C198.991 10.0999 198.806 10.3324 198.583 10.5283C198.36 10.7197 198.102 10.8678 197.811 10.9727C197.519 11.0729 197.2 11.123 196.854 11.123ZM197.277 9.85156C197.688 9.85156 198.043 9.74902 198.344 9.54395C198.645 9.33887 198.875 9.04492 199.034 8.66211C199.194 8.27474 199.273 7.81901 199.273 7.29492V7.28125C199.273 6.7526 199.191 6.29688 199.027 5.91406C198.868 5.53125 198.638 5.2373 198.337 5.03223C198.041 4.82259 197.688 4.71777 197.277 4.71777C196.867 4.71777 196.512 4.82259 196.211 5.03223C195.915 5.2373 195.687 5.53125 195.527 5.91406C195.372 6.29232 195.295 6.74805 195.295 7.28125V7.29492C195.295 7.82357 195.372 8.2793 195.527 8.66211C195.687 9.04492 195.915 9.33887 196.211 9.54395C196.512 9.74902 196.867 9.85156 197.277 9.85156ZM208.555 11.0479C207.743 11.0479 207.156 10.8929 206.791 10.583C206.431 10.2686 206.251 9.75586 206.251 9.04492V4.74512H205.089V3.57617H206.251V1.70312H207.769V3.57617H209.361V4.74512H207.769V8.68262C207.769 9.08366 207.848 9.37305 208.008 9.55078C208.167 9.72396 208.432 9.81055 208.801 9.81055C208.91 9.81055 209.004 9.80827 209.081 9.80371C209.163 9.79915 209.257 9.79232 209.361 9.7832V10.9727C209.243 10.9909 209.115 11.0068 208.979 11.0205C208.842 11.0387 208.701 11.0479 208.555 11.0479ZM210.666 11V0.664062H212.149V4.69727H212.266C212.448 4.30078 212.717 3.99089 213.072 3.76758C213.428 3.54427 213.877 3.43262 214.419 3.43262C214.97 3.43262 215.438 3.53971 215.82 3.75391C216.203 3.9681 216.495 4.28255 216.695 4.69727C216.896 5.10742 216.996 5.60645 216.996 6.19434V11H215.506V6.54297C215.506 5.92318 215.376 5.46289 215.116 5.16211C214.861 4.85677 214.46 4.7041 213.913 4.7041C213.553 4.7041 213.241 4.78385 212.977 4.94336C212.712 5.09831 212.507 5.32161 212.361 5.61328C212.22 5.90039 212.149 6.24447 212.149 6.64551V11H210.666ZM221.678 11.1436C220.953 11.1436 220.331 10.9886 219.812 10.6787C219.292 10.3643 218.891 9.91992 218.608 9.3457C218.33 8.77148 218.191 8.09245 218.191 7.30859V7.30176C218.191 6.52702 218.33 5.85026 218.608 5.27148C218.891 4.69271 219.287 4.24154 219.798 3.91797C220.313 3.5944 220.914 3.43262 221.603 3.43262C222.295 3.43262 222.89 3.58757 223.387 3.89746C223.888 4.20736 224.273 4.64258 224.542 5.20312C224.811 5.75911 224.945 6.41081 224.945 7.1582V7.67773H218.943V6.61816H224.207L223.496 7.60254V7.00781C223.496 6.47917 223.414 6.04167 223.25 5.69531C223.09 5.3444 222.869 5.08236 222.587 4.90918C222.304 4.736 221.979 4.64941 221.609 4.64941C221.24 4.64941 220.91 4.74056 220.618 4.92285C220.331 5.10059 220.103 5.36491 219.935 5.71582C219.771 6.06673 219.688 6.4974 219.688 7.00781V7.60254C219.688 8.09017 219.771 8.50716 219.935 8.85352C220.099 9.19987 220.331 9.46419 220.632 9.64648C220.937 9.82878 221.297 9.91992 221.712 9.91992C222.031 9.91992 222.304 9.87663 222.532 9.79004C222.765 9.69889 222.954 9.58724 223.1 9.45508C223.25 9.32292 223.353 9.19303 223.407 9.06543L223.435 9.01074H224.87L224.856 9.07227C224.793 9.31836 224.681 9.56445 224.521 9.81055C224.362 10.0521 224.15 10.2731 223.886 10.4736C223.626 10.6742 223.312 10.8359 222.942 10.959C222.578 11.082 222.156 11.1436 221.678 11.1436ZM230.945 11L228.901 3.57617H230.398L231.725 9.30469H231.841L233.365 3.57617H234.78L236.312 9.30469H236.421L237.754 3.57617H239.224L237.187 11H235.648L234.11 5.46289H233.994L232.47 11H230.945ZM243.105 11.1436C242.381 11.1436 241.754 10.9886 241.226 10.6787C240.701 10.3688 240.298 9.92676 240.016 9.35254C239.733 8.77376 239.592 8.08789 239.592 7.29492V7.28125C239.592 6.48372 239.733 5.79785 240.016 5.22363C240.303 4.64941 240.708 4.20736 241.232 3.89746C241.761 3.58757 242.385 3.43262 243.105 3.43262C243.83 3.43262 244.454 3.58757 244.979 3.89746C245.503 4.2028 245.906 4.64486 246.188 5.22363C246.476 5.79785 246.619 6.48372 246.619 7.28125V7.29492C246.619 8.08789 246.476 8.77376 246.188 9.35254C245.906 9.92676 245.503 10.3688 244.979 10.6787C244.459 10.9886 243.835 11.1436 243.105 11.1436ZM243.105 9.89941C243.529 9.89941 243.889 9.79688 244.186 9.5918C244.482 9.38216 244.707 9.08366 244.862 8.69629C245.017 8.30892 245.095 7.8418 245.095 7.29492V7.28125C245.095 6.72982 245.017 6.26042 244.862 5.87305C244.707 5.48568 244.482 5.18945 244.186 4.98438C243.889 4.77474 243.529 4.66992 243.105 4.66992C242.682 4.66992 242.322 4.77474 242.025 4.98438C241.729 5.18945 241.501 5.48568 241.342 5.87305C241.187 6.26042 241.109 6.72982 241.109 7.28125V7.29492C241.109 7.8418 241.187 8.30892 241.342 8.69629C241.501 9.08366 241.729 9.38216 242.025 9.5918C242.322 9.79688 242.682 9.89941 243.105 9.89941ZM247.883 11V3.57617H249.366V4.69727H249.482C249.615 4.30078 249.847 3.99316 250.18 3.77441C250.517 3.55566 250.932 3.44629 251.424 3.44629C251.547 3.44629 251.668 3.45312 251.786 3.4668C251.905 3.48047 252 3.49642 252.073 3.51465V4.88184C251.941 4.85449 251.809 4.83398 251.677 4.82031C251.549 4.80664 251.415 4.7998 251.273 4.7998C250.895 4.7998 250.562 4.87272 250.275 5.01855C249.993 5.16439 249.77 5.36947 249.605 5.63379C249.446 5.89355 249.366 6.20345 249.366 6.56348V11H247.883ZM253.07 11V0.664062H254.554V11H253.07ZM258.969 11.123C258.349 11.123 257.807 10.9681 257.342 10.6582C256.882 10.3438 256.524 9.89941 256.269 9.3252C256.018 8.75098 255.893 8.07422 255.893 7.29492V7.28125C255.893 6.4974 256.018 5.81836 256.269 5.24414C256.519 4.66992 256.875 4.22786 257.335 3.91797C257.795 3.60352 258.34 3.44629 258.969 3.44629C259.311 3.44629 259.63 3.50098 259.926 3.61035C260.222 3.71517 260.484 3.86556 260.712 4.06152C260.94 4.25293 261.12 4.48307 261.252 4.75195H261.361V0.664062H262.852V11H261.361V9.83105H261.252C261.106 10.0999 260.922 10.3324 260.698 10.5283C260.475 10.7197 260.217 10.8678 259.926 10.9727C259.634 11.0729 259.315 11.123 258.969 11.123ZM259.393 9.85156C259.803 9.85156 260.158 9.74902 260.459 9.54395C260.76 9.33887 260.99 9.04492 261.149 8.66211C261.309 8.27474 261.389 7.81901 261.389 7.29492V7.28125C261.389 6.7526 261.307 6.29688 261.143 5.91406C260.983 5.53125 260.753 5.2373 260.452 5.03223C260.156 4.82259 259.803 4.71777 259.393 4.71777C258.982 4.71777 258.627 4.82259 258.326 5.03223C258.03 5.2373 257.802 5.53125 257.643 5.91406C257.488 6.29232 257.41 6.74805 257.41 7.28125V7.29492C257.41 7.82357 257.488 8.2793 257.643 8.66211C257.802 9.04492 258.03 9.33887 258.326 9.54395C258.627 9.74902 258.982 9.85156 259.393 9.85156Z" fill="white"/>
</svg>
