<svg width="299" height="48" viewBox="0 0 299 48" fill="none" xmlns="http://www.w3.org/2000/svg">
<g clip-path="url(#clip0_6707_4076)">
<rect width="299" height="48" rx="8" fill="#D4AF37" fill-opacity="0.25"/>
<path d="M14 2H8C4.78979 2 2.16843 4.52111 2.00781 7.69141L2 8V40C2 43.3137 4.68629 46 8 46H249V48H8L7.58789 47.9893C3.49764 47.7817 0.218304 44.5024 0.0107422 40.4121L0 40V8C4.99297e-07 3.71994 3.36114 0.225231 7.58789 0.0107422L8 0H14V2ZM291.412 0.0107422C295.639 0.225233 299 3.71995 299 8V40L298.989 40.4121C298.782 44.5024 295.502 47.7817 291.412 47.9893L291 48H265V46H291C294.314 46 297 43.3137 297 40V8C297 4.6863 294.314 2 291 2H43V0H291L291.412 0.0107422ZM32 2H19V0H32V2Z" fill="#D4AF37"/>
<path d="M272 24H286M286 24L279 17M286 24L279 31" stroke="#D4AF37" stroke-width="2" stroke-linecap="round" stroke-linejoin="round"/>
<path d="M117.767 27.236V20.404H117.599C117.253 20.404 116.978 20.4227 116.773 20.46C116.577 20.4973 116.432 20.5673 116.339 20.67C116.255 20.7727 116.208 20.908 116.199 21.076L116.059 22.966H114.505V19.06H124.501V22.966H122.947L122.807 21.076C122.797 20.908 122.746 20.7727 122.653 20.67C122.569 20.5673 122.424 20.4973 122.219 20.46C122.023 20.4227 121.752 20.404 121.407 20.404H121.239V27.236C121.239 27.4413 121.299 27.5767 121.421 27.642C121.551 27.7073 121.71 27.74 121.897 27.74H122.135V29H116.871V27.74H117.095C117.291 27.74 117.449 27.7073 117.571 27.642C117.701 27.5767 117.767 27.4413 117.767 27.236ZM129.48 21.398V26.648C129.48 26.7973 129.494 26.928 129.522 27.04C129.56 27.1427 129.62 27.222 129.704 27.278C129.788 27.334 129.896 27.362 130.026 27.362C130.194 27.362 130.358 27.306 130.516 27.194C130.684 27.0727 130.857 26.886 131.034 26.634C131.221 26.382 131.412 26.06 131.608 25.668L131.552 27.04C131.375 27.46 131.132 27.8287 130.824 28.146C130.516 28.454 130.166 28.6967 129.774 28.874C129.392 29.0513 128.986 29.14 128.556 29.14C128.062 29.14 127.637 29.0467 127.282 28.86C126.937 28.6733 126.671 28.4027 126.484 28.048C126.298 27.684 126.204 27.2453 126.204 26.732V23.036C126.204 22.924 126.167 22.8447 126.092 22.798C126.027 22.742 125.906 22.7 125.728 22.672L125.588 22.644V21.398H129.48ZM134.478 21.398V27.404C134.478 27.4787 134.492 27.5393 134.52 27.586C134.558 27.6233 134.609 27.656 134.674 27.684C134.749 27.7027 134.842 27.7307 134.954 27.768L135.052 27.796V29H131.538L131.328 27.194L131.202 27.124V23.036C131.202 22.924 131.137 22.84 131.006 22.784C130.885 22.728 130.74 22.686 130.572 22.658L130.39 22.63V21.398H134.478ZM135.661 22.714V21.468H135.745C135.941 21.468 136.109 21.454 136.249 21.426C136.399 21.3887 136.515 21.3187 136.599 21.216C136.683 21.1133 136.725 20.9547 136.725 20.74L138.545 21.398H141.877V22.714H135.661ZM139.903 26.522C139.903 26.8113 139.941 27.0353 140.015 27.194C140.099 27.3433 140.211 27.446 140.351 27.502C140.501 27.558 140.683 27.586 140.897 27.586C141.103 27.586 141.289 27.572 141.457 27.544C141.635 27.5067 141.751 27.488 141.807 27.488V28.902C141.705 28.93 141.555 28.9627 141.359 29C141.163 29.0467 140.935 29.084 140.673 29.112C140.412 29.14 140.127 29.154 139.819 29.154C139.185 29.154 138.629 29.084 138.153 28.944C137.677 28.7947 137.304 28.5427 137.033 28.188C136.763 27.824 136.627 27.3293 136.627 26.704V21.692L136.725 21.566V19.27H139.903V26.522ZM151.406 25.22C151.406 26.0227 151.233 26.7227 150.888 27.32C150.552 27.908 150.053 28.3653 149.39 28.692C148.737 29.0093 147.934 29.168 146.982 29.168C146.039 29.168 145.237 29.0093 144.574 28.692C143.921 28.3653 143.421 27.908 143.076 27.32C142.731 26.7227 142.558 26.0227 142.558 25.22C142.558 24.604 142.656 24.0533 142.852 23.568C143.048 23.0733 143.333 22.6533 143.706 22.308C144.089 21.9627 144.551 21.7013 145.092 21.524C145.643 21.3373 146.273 21.244 146.982 21.244C147.691 21.244 148.321 21.3373 148.872 21.524C149.423 21.7013 149.885 21.9673 150.258 22.322C150.641 22.6673 150.925 23.0827 151.112 23.568C151.308 24.0533 151.406 24.604 151.406 25.22ZM145.904 25.206C145.904 25.8407 145.937 26.3493 146.002 26.732C146.067 27.1147 146.175 27.3947 146.324 27.572C146.483 27.74 146.702 27.824 146.982 27.824C147.262 27.824 147.481 27.74 147.64 27.572C147.799 27.3947 147.911 27.1147 147.976 26.732C148.041 26.3493 148.074 25.8407 148.074 25.206C148.074 24.5713 148.041 24.0673 147.976 23.694C147.911 23.3113 147.799 23.0407 147.64 22.882C147.481 22.714 147.262 22.63 146.982 22.63C146.711 22.63 146.497 22.714 146.338 22.882C146.179 23.0407 146.067 23.3113 146.002 23.694C145.937 24.0673 145.904 24.5713 145.904 25.206ZM158.911 21.384V24.198C158.837 24.1887 158.725 24.1793 158.575 24.17C158.426 24.1513 158.263 24.1373 158.085 24.128C157.917 24.1187 157.754 24.114 157.595 24.114C157.427 24.114 157.259 24.1233 157.091 24.142C156.933 24.1513 156.783 24.1747 156.643 24.212C156.503 24.24 156.373 24.282 156.251 24.338C156.139 24.394 156.037 24.4687 155.943 24.562L155.873 24.1C156.097 23.512 156.307 23.008 156.503 22.588C156.699 22.168 156.937 21.846 157.217 21.622C157.497 21.398 157.861 21.286 158.309 21.286C158.459 21.286 158.585 21.3 158.687 21.328C158.799 21.3467 158.874 21.3653 158.911 21.384ZM152.373 29V27.894H152.401C152.579 27.894 152.714 27.852 152.807 27.768C152.91 27.6747 152.961 27.502 152.961 27.25V23.036C152.961 22.9613 152.943 22.9053 152.905 22.868C152.877 22.8213 152.826 22.784 152.751 22.756C152.686 22.728 152.597 22.7 152.485 22.672L152.373 22.644V21.398H155.915L156.125 23.792L156.223 23.764V27.782C156.223 27.81 156.261 27.8333 156.335 27.852C156.419 27.8707 156.527 27.8847 156.657 27.894C156.788 27.894 156.928 27.894 157.077 27.894H157.133V29H152.373ZM162.049 20.796C161.507 20.796 161.083 20.6793 160.775 20.446C160.476 20.2033 160.327 19.8533 160.327 19.396C160.327 18.9387 160.476 18.5933 160.775 18.36C161.083 18.1173 161.507 17.996 162.049 17.996C162.599 17.996 163.024 18.1173 163.323 18.36C163.621 18.5933 163.771 18.9387 163.771 19.396C163.771 19.8533 163.621 20.2033 163.323 20.446C163.024 20.6793 162.599 20.796 162.049 20.796ZM163.743 21.398V27.25C163.743 27.502 163.794 27.6747 163.897 27.768C163.999 27.852 164.135 27.894 164.303 27.894H164.331V29H159.893V27.894H159.921C160.098 27.894 160.233 27.852 160.327 27.768C160.429 27.6747 160.481 27.502 160.481 27.25V23.036C160.481 22.924 160.443 22.8447 160.369 22.798C160.294 22.7513 160.173 22.7093 160.005 22.672L159.893 22.644V21.398H163.743ZM170.014 24.422V25.444C169.687 25.5093 169.412 25.584 169.188 25.668C168.964 25.7427 168.782 25.8313 168.642 25.934C168.502 26.0273 168.395 26.13 168.32 26.242C168.245 26.3447 168.194 26.4613 168.166 26.592C168.138 26.7133 168.124 26.8393 168.124 26.97C168.124 27.194 168.147 27.3713 168.194 27.502C168.25 27.6233 168.329 27.712 168.432 27.768C168.544 27.8147 168.675 27.838 168.824 27.838C168.964 27.838 169.095 27.8053 169.216 27.74C169.347 27.6653 169.477 27.5533 169.608 27.404C169.739 27.2547 169.874 27.054 170.014 26.802L170.154 27.46C169.967 27.88 169.757 28.2113 169.524 28.454C169.3 28.6967 169.029 28.874 168.712 28.986C168.404 29.098 168.035 29.154 167.606 29.154C167.055 29.154 166.598 29.084 166.234 28.944C165.87 28.804 165.599 28.5893 165.422 28.3C165.254 28.0107 165.17 27.6327 165.17 27.166C165.17 26.7553 165.259 26.4053 165.436 26.116C165.613 25.8267 165.893 25.5793 166.276 25.374C166.659 25.1687 167.158 24.9913 167.774 24.842C168.39 24.6833 169.137 24.5433 170.014 24.422ZM170.14 29L169.972 27.516L169.846 27.586V23.232C169.846 23.1107 169.823 22.9987 169.776 22.896C169.729 22.7933 169.641 22.714 169.51 22.658C169.389 22.602 169.202 22.574 168.95 22.574C168.595 22.574 168.301 22.6207 168.068 22.714C167.835 22.8073 167.681 22.91 167.606 23.022C167.503 22.9847 167.433 22.9333 167.396 22.868C167.368 22.7933 167.377 22.7187 167.424 22.644C167.471 22.56 167.55 22.4947 167.662 22.448C167.774 22.392 167.923 22.3687 168.11 22.378V24.002H165.632V22.182C165.781 22.0887 166.015 21.9673 166.332 21.818C166.649 21.6687 167.055 21.538 167.55 21.426C168.045 21.3047 168.628 21.244 169.3 21.244C169.897 21.244 170.425 21.3 170.882 21.412C171.349 21.5147 171.741 21.6733 172.058 21.888C172.375 22.0933 172.613 22.3547 172.772 22.672C172.94 22.9893 173.024 23.3627 173.024 23.792V27.404C173.024 27.4787 173.038 27.5393 173.066 27.586C173.103 27.6233 173.155 27.656 173.22 27.684C173.295 27.7027 173.388 27.7307 173.5 27.768L173.612 27.796V29H170.14ZM178.289 18.388V27.25C178.289 27.502 178.34 27.6747 178.443 27.768C178.545 27.852 178.681 27.894 178.849 27.894H178.877V29H174.439V27.894H174.467C174.644 27.894 174.779 27.852 174.873 27.768C174.975 27.6747 175.027 27.502 175.027 27.25V19.984C175.027 19.9093 175.008 19.8533 174.971 19.816C174.943 19.7693 174.891 19.732 174.817 19.704C174.742 19.676 174.653 19.648 174.551 19.62L174.439 19.592V18.388H178.289ZM182.11 29.28C181.541 29.28 181.093 29.1353 180.766 28.846C180.439 28.5567 180.276 28.1413 180.276 27.6C180.276 27.068 180.439 26.6573 180.766 26.368C181.093 26.0693 181.541 25.92 182.11 25.92C182.689 25.92 183.137 26.0693 183.454 26.368C183.781 26.6573 183.944 27.068 183.944 27.6C183.944 28.1413 183.781 28.5567 183.454 28.846C183.137 29.1353 182.689 29.28 182.11 29.28Z" fill="#D4AF37"/>
</g>
<defs>
<clipPath id="clip0_6707_4076">
<rect width="299" height="48" rx="8" fill="white"/>
</clipPath>
</defs>
</svg>
