<svg width="299" height="48" viewBox="0 0 299 48" fill="none" xmlns="http://www.w3.org/2000/svg">
<g clip-path="url(#clip0_6707_4088)">
<rect width="299" height="48" rx="8" fill="#D4AF37" fill-opacity="0.25"/>
<path d="M14 2H8C4.78979 2 2.16843 4.52111 2.00781 7.69141L2 8V40C2 43.3137 4.68629 46 8 46H249V48H8L7.58789 47.9893C3.49764 47.7817 0.218304 44.5024 0.0107422 40.4121L0 40V8C4.99297e-07 3.71994 3.36114 0.225231 7.58789 0.0107422L8 0H14V2ZM291.412 0.0107422C295.639 0.225233 299 3.71995 299 8V40L298.989 40.4121C298.782 44.5024 295.502 47.7817 291.412 47.9893L291 48H265V46H291C294.314 46 297 43.3137 297 40V8C297 4.6863 294.314 2 291 2H43V0H291L291.412 0.0107422ZM32 2H19V0H32V2Z" fill="#D4AF37"/>
<path d="M272 24H286M286 24L279 17M286 24L279 31" stroke="#D4AF37" stroke-width="2" stroke-linecap="round" stroke-linejoin="round"/>
<path d="M99.8203 20.306V19.06H105.322C106.097 19.06 106.806 19.1627 107.45 19.368C108.104 19.564 108.668 19.8673 109.144 20.278C109.62 20.6793 109.989 21.1927 110.25 21.818C110.512 22.434 110.642 23.1573 110.642 23.988C110.642 24.8093 110.512 25.5327 110.25 26.158C109.989 26.7833 109.62 27.306 109.144 27.726C108.668 28.146 108.104 28.4633 107.45 28.678C106.806 28.8927 106.097 29 105.322 29H99.8203V27.74H99.9883C100.166 27.74 100.315 27.7073 100.436 27.642C100.558 27.5767 100.618 27.4413 100.618 27.236V20.81C100.618 20.614 100.558 20.4833 100.436 20.418C100.315 20.3433 100.166 20.306 99.9883 20.306H99.8203ZM104.986 20.376H104.076V27.67H104.986C105.313 27.67 105.602 27.5953 105.854 27.446C106.116 27.2967 106.33 27.068 106.498 26.76C106.676 26.452 106.811 26.0693 106.904 25.612C106.998 25.1453 107.044 24.604 107.044 23.988C107.044 23.372 106.998 22.84 106.904 22.392C106.811 21.9347 106.676 21.5567 106.498 21.258C106.33 20.9593 106.116 20.74 105.854 20.6C105.602 20.4507 105.313 20.376 104.986 20.376ZM115.03 25.234C115.03 25.6913 115.058 26.0833 115.114 26.41C115.17 26.7273 115.264 26.984 115.394 27.18C115.534 27.376 115.721 27.5207 115.954 27.614C116.188 27.698 116.472 27.74 116.808 27.74C117.144 27.74 117.429 27.6933 117.662 27.6C117.896 27.5067 118.101 27.376 118.278 27.208C118.456 27.0307 118.614 26.83 118.754 26.606L119.874 27.334C119.669 27.7353 119.408 28.076 119.09 28.356C118.773 28.6267 118.386 28.832 117.928 28.972C117.48 29.1027 116.944 29.168 116.318 29.168C115.366 29.168 114.55 29.0187 113.868 28.72C113.196 28.4213 112.683 27.9827 112.328 27.404C111.983 26.816 111.81 26.0973 111.81 25.248C111.81 24.436 111.983 23.7313 112.328 23.134C112.683 22.5367 113.178 22.0747 113.812 21.748C114.456 21.412 115.203 21.244 116.052 21.244C116.734 21.244 117.322 21.3373 117.816 21.524C118.311 21.7107 118.717 21.9907 119.034 22.364C119.361 22.7373 119.604 23.204 119.762 23.764C119.93 24.3147 120.019 24.9633 120.028 25.71H114.246V24.59H117.34L117.088 25.038C117.079 24.506 117.056 24.0767 117.018 23.75C116.981 23.4233 116.925 23.176 116.85 23.008C116.785 22.8307 116.687 22.7093 116.556 22.644C116.435 22.5787 116.29 22.546 116.122 22.546C115.936 22.546 115.772 22.5833 115.632 22.658C115.502 22.7327 115.39 22.868 115.296 23.064C115.203 23.26 115.133 23.5353 115.086 23.89C115.049 24.2353 115.03 24.6833 115.03 25.234ZM125.422 27.18C125.422 27.012 125.376 26.8813 125.282 26.788C125.198 26.6853 125.077 26.6013 124.918 26.536C124.76 26.4707 124.578 26.4193 124.372 26.382C124.176 26.3353 123.966 26.284 123.742 26.228C123.425 26.1533 123.108 26.0647 122.79 25.962C122.482 25.8593 122.198 25.724 121.936 25.556C121.675 25.388 121.465 25.164 121.306 24.884C121.157 24.5947 121.082 24.2353 121.082 23.806C121.082 23.1807 121.241 22.6813 121.558 22.308C121.876 21.9253 122.314 21.65 122.874 21.482C123.434 21.3047 124.078 21.216 124.806 21.216C125.413 21.216 125.931 21.2533 126.36 21.328C126.79 21.4027 127.135 21.4867 127.396 21.58C127.658 21.664 127.83 21.7293 127.914 21.776V23.456H125.786V22.168C125.954 22.1493 126.08 22.1633 126.164 22.21C126.248 22.2473 126.295 22.2987 126.304 22.364C126.323 22.4293 126.323 22.4993 126.304 22.574C126.286 22.6393 126.262 22.6953 126.234 22.742C126.122 22.686 125.996 22.6393 125.856 22.602C125.716 22.5553 125.562 22.5227 125.394 22.504C125.226 22.476 125.035 22.462 124.82 22.462C124.484 22.462 124.232 22.504 124.064 22.588C123.906 22.672 123.826 22.8213 123.826 23.036C123.826 23.1853 123.868 23.3067 123.952 23.4C124.036 23.484 124.158 23.554 124.316 23.61C124.475 23.666 124.657 23.7173 124.862 23.764C125.077 23.8107 125.31 23.8667 125.562 23.932C125.889 24.016 126.216 24.114 126.542 24.226C126.878 24.3287 127.186 24.4687 127.466 24.646C127.746 24.8233 127.97 25.052 128.138 25.332C128.306 25.612 128.39 25.9573 128.39 26.368C128.39 27.0307 128.241 27.5673 127.942 27.978C127.653 28.3887 127.2 28.692 126.584 28.888C125.978 29.0747 125.212 29.168 124.288 29.168C123.728 29.168 123.22 29.1307 122.762 29.056C122.314 28.9813 121.941 28.8927 121.642 28.79C121.344 28.6873 121.129 28.6033 120.998 28.538V26.676H123.168V28.37C122.972 28.314 122.818 28.2347 122.706 28.132C122.594 28.0293 122.52 27.9313 122.482 27.838C122.445 27.7353 122.445 27.6607 122.482 27.614C122.52 27.558 122.59 27.558 122.692 27.614C122.804 27.6607 122.94 27.712 123.098 27.768C123.257 27.8147 123.439 27.852 123.644 27.88C123.85 27.908 124.078 27.922 124.33 27.922C124.592 27.922 124.802 27.8987 124.96 27.852C125.119 27.8053 125.236 27.726 125.31 27.614C125.385 27.502 125.422 27.3573 125.422 27.18ZM134.336 27.726C134.606 27.726 134.849 27.6653 135.064 27.544C135.278 27.4133 135.465 27.2453 135.624 27.04C135.792 26.8347 135.936 26.62 136.058 26.396L137.122 27.04C136.935 27.4693 136.688 27.8427 136.38 28.16C136.081 28.4773 135.712 28.7247 135.274 28.902C134.835 29.07 134.322 29.154 133.734 29.154C132.866 29.154 132.1 29.0093 131.438 28.72C130.775 28.4213 130.252 27.978 129.87 27.39C129.496 26.802 129.31 26.0693 129.31 25.192C129.31 24.3333 129.487 23.6147 129.842 23.036C130.206 22.448 130.719 22.0047 131.382 21.706C132.054 21.4073 132.861 21.258 133.804 21.258C134.354 21.258 134.835 21.2953 135.246 21.37C135.666 21.4353 136.011 21.5147 136.282 21.608C136.562 21.7013 136.762 21.7853 136.884 21.86V24.31H134.518V22.07C134.658 22.0607 134.76 22.098 134.826 22.182C134.891 22.266 134.933 22.364 134.952 22.476C134.97 22.588 134.966 22.6953 134.938 22.798C134.919 22.8913 134.891 22.9473 134.854 22.966C134.732 22.8633 134.606 22.784 134.476 22.728C134.354 22.6627 134.191 22.63 133.986 22.63C133.668 22.63 133.412 22.7187 133.216 22.896C133.02 23.0733 132.875 23.3533 132.782 23.736C132.698 24.1093 132.656 24.5947 132.656 25.192C132.656 25.6493 132.688 26.0413 132.754 26.368C132.819 26.6853 132.917 26.9467 133.048 27.152C133.188 27.348 133.36 27.4927 133.566 27.586C133.78 27.6793 134.037 27.726 134.336 27.726ZM144.597 21.384V24.198C144.522 24.1887 144.41 24.1793 144.261 24.17C144.111 24.1513 143.948 24.1373 143.771 24.128C143.603 24.1187 143.439 24.114 143.281 24.114C143.113 24.114 142.945 24.1233 142.777 24.142C142.618 24.1513 142.469 24.1747 142.329 24.212C142.189 24.24 142.058 24.282 141.937 24.338C141.825 24.394 141.722 24.4687 141.629 24.562L141.559 24.1C141.783 23.512 141.993 23.008 142.189 22.588C142.385 22.168 142.623 21.846 142.903 21.622C143.183 21.398 143.547 21.286 143.995 21.286C144.144 21.286 144.27 21.3 144.373 21.328C144.485 21.3467 144.559 21.3653 144.597 21.384ZM138.059 29V27.894H138.087C138.264 27.894 138.399 27.852 138.493 27.768C138.595 27.6747 138.647 27.502 138.647 27.25V23.036C138.647 22.9613 138.628 22.9053 138.591 22.868C138.563 22.8213 138.511 22.784 138.437 22.756C138.371 22.728 138.283 22.7 138.171 22.672L138.059 22.644V21.398H141.601L141.811 23.792L141.909 23.764V27.782C141.909 27.81 141.946 27.8333 142.021 27.852C142.105 27.8707 142.212 27.8847 142.343 27.894C142.473 27.894 142.613 27.894 142.763 27.894H142.819V29H138.059ZM147.734 20.796C147.192 20.796 146.768 20.6793 146.46 20.446C146.161 20.2033 146.012 19.8533 146.012 19.396C146.012 18.9387 146.161 18.5933 146.46 18.36C146.768 18.1173 147.192 17.996 147.734 17.996C148.284 17.996 148.709 18.1173 149.008 18.36C149.306 18.5933 149.456 18.9387 149.456 19.396C149.456 19.8533 149.306 20.2033 149.008 20.446C148.709 20.6793 148.284 20.796 147.734 20.796ZM149.428 21.398V27.25C149.428 27.502 149.479 27.6747 149.582 27.768C149.684 27.852 149.82 27.894 149.988 27.894H150.016V29H145.578V27.894H145.606C145.783 27.894 145.918 27.852 146.012 27.768C146.114 27.6747 146.166 27.502 146.166 27.25V23.036C146.166 22.924 146.128 22.8447 146.054 22.798C145.979 22.7513 145.858 22.7093 145.69 22.672L145.578 22.644V21.398H149.428ZM155.601 32.122H150.841V31.016H150.869C150.99 31.016 151.088 30.9973 151.163 30.96C151.247 30.9227 151.312 30.8573 151.359 30.764C151.406 30.6707 151.429 30.54 151.429 30.372V23.036C151.429 22.9613 151.41 22.9053 151.373 22.868C151.345 22.8213 151.294 22.784 151.219 22.756C151.154 22.728 151.065 22.7 150.953 22.672L150.841 22.644V21.398H154.383L154.593 23.582L154.691 23.568V30.904C154.691 30.932 154.728 30.9507 154.803 30.96C154.887 30.9787 154.994 30.9927 155.125 31.002C155.256 31.0113 155.396 31.016 155.545 31.016H155.601V32.122ZM156.819 29.154C156.399 29.154 156.021 29.084 155.685 28.944C155.358 28.7947 155.069 28.5847 154.817 28.314C154.565 28.034 154.355 27.698 154.187 27.306V25.99C154.374 26.2887 154.542 26.55 154.691 26.774C154.84 26.998 154.994 27.1707 155.153 27.292C155.312 27.4133 155.508 27.474 155.741 27.474C155.946 27.474 156.119 27.4273 156.259 27.334C156.408 27.2313 156.525 27.082 156.609 26.886C156.702 26.6807 156.768 26.4333 156.805 26.144C156.842 25.8453 156.861 25.5 156.861 25.108C156.861 24.7253 156.847 24.3987 156.819 24.128C156.791 23.848 156.74 23.6193 156.665 23.442C156.59 23.2647 156.488 23.134 156.357 23.05C156.236 22.966 156.077 22.924 155.881 22.924C155.666 22.924 155.475 22.9847 155.307 23.106C155.139 23.2273 154.966 23.4187 154.789 23.68C154.621 23.932 154.42 24.2587 154.187 24.66V23.484C154.402 23.008 154.635 22.6067 154.887 22.28C155.139 21.944 155.433 21.692 155.769 21.524C156.105 21.3467 156.502 21.258 156.959 21.258C157.659 21.258 158.252 21.4213 158.737 21.748C159.222 22.0653 159.586 22.5133 159.829 23.092C160.081 23.6707 160.207 24.3427 160.207 25.108C160.207 25.8827 160.067 26.578 159.787 27.194C159.516 27.8007 159.129 28.2813 158.625 28.636C158.121 28.9813 157.519 29.154 156.819 29.154ZM160.911 22.714V21.468H160.995C161.191 21.468 161.359 21.454 161.499 21.426C161.648 21.3887 161.765 21.3187 161.849 21.216C161.933 21.1133 161.975 20.9547 161.975 20.74L163.795 21.398H167.127V22.714H160.911ZM165.153 26.522C165.153 26.8113 165.19 27.0353 165.265 27.194C165.349 27.3433 165.461 27.446 165.601 27.502C165.75 27.558 165.932 27.586 166.147 27.586C166.352 27.586 166.539 27.572 166.707 27.544C166.884 27.5067 167.001 27.488 167.057 27.488V28.902C166.954 28.93 166.805 28.9627 166.609 29C166.413 29.0467 166.184 29.084 165.923 29.112C165.662 29.14 165.377 29.154 165.069 29.154C164.434 29.154 163.879 29.084 163.403 28.944C162.927 28.7947 162.554 28.5427 162.283 28.188C162.012 27.824 161.877 27.3293 161.877 26.704V21.692L161.975 21.566V19.27H165.153V26.522ZM170.113 20.796C169.572 20.796 169.147 20.6793 168.839 20.446C168.541 20.2033 168.391 19.8533 168.391 19.396C168.391 18.9387 168.541 18.5933 168.839 18.36C169.147 18.1173 169.572 17.996 170.113 17.996C170.664 17.996 171.089 18.1173 171.387 18.36C171.686 18.5933 171.835 18.9387 171.835 19.396C171.835 19.8533 171.686 20.2033 171.387 20.446C171.089 20.6793 170.664 20.796 170.113 20.796ZM171.807 21.398V27.25C171.807 27.502 171.859 27.6747 171.961 27.768C172.064 27.852 172.199 27.894 172.367 27.894H172.395V29H167.957V27.894H167.985C168.163 27.894 168.298 27.852 168.391 27.768C168.494 27.6747 168.545 27.502 168.545 27.25V23.036C168.545 22.924 168.508 22.8447 168.433 22.798C168.359 22.7513 168.237 22.7093 168.069 22.672L167.957 22.644V21.398H171.807ZM182.097 25.22C182.097 26.0227 181.924 26.7227 181.579 27.32C181.243 27.908 180.743 28.3653 180.081 28.692C179.427 29.0093 178.625 29.168 177.673 29.168C176.73 29.168 175.927 29.0093 175.265 28.692C174.611 28.3653 174.112 27.908 173.767 27.32C173.421 26.7227 173.249 26.0227 173.249 25.22C173.249 24.604 173.347 24.0533 173.543 23.568C173.739 23.0733 174.023 22.6533 174.397 22.308C174.779 21.9627 175.241 21.7013 175.783 21.524C176.333 21.3373 176.963 21.244 177.673 21.244C178.382 21.244 179.012 21.3373 179.563 21.524C180.113 21.7013 180.575 21.9673 180.949 22.322C181.331 22.6673 181.616 23.0827 181.803 23.568C181.999 24.0533 182.097 24.604 182.097 25.22ZM176.595 25.206C176.595 25.8407 176.627 26.3493 176.693 26.732C176.758 27.1147 176.865 27.3947 177.015 27.572C177.173 27.74 177.393 27.824 177.673 27.824C177.953 27.824 178.172 27.74 178.331 27.572C178.489 27.3947 178.601 27.1147 178.667 26.732C178.732 26.3493 178.765 25.8407 178.765 25.206C178.765 24.5713 178.732 24.0673 178.667 23.694C178.601 23.3113 178.489 23.0407 178.331 22.882C178.172 22.714 177.953 22.63 177.673 22.63C177.402 22.63 177.187 22.714 177.029 22.882C176.87 23.0407 176.758 23.3113 176.693 23.694C176.627 24.0673 176.595 24.5713 176.595 25.206ZM183.064 29V27.894H183.092C183.213 27.894 183.311 27.8753 183.386 27.838C183.47 27.8007 183.535 27.7353 183.582 27.642C183.629 27.5487 183.652 27.418 183.652 27.25V23.036C183.652 22.9613 183.633 22.9053 183.596 22.868C183.568 22.8213 183.517 22.784 183.442 22.756C183.377 22.728 183.288 22.7 183.176 22.672L183.064 22.644V21.398H186.62L186.802 23.19L186.914 23.204V27.796C186.914 27.8147 186.937 27.8333 186.984 27.852C187.04 27.8707 187.101 27.8847 187.166 27.894C187.231 27.894 187.292 27.894 187.348 27.894H187.404V29H183.064ZM192.556 29H188.23V27.894H188.258C188.323 27.894 188.389 27.894 188.454 27.894C188.529 27.8847 188.589 27.8707 188.636 27.852C188.683 27.8333 188.706 27.81 188.706 27.782V23.708C188.706 23.5587 188.687 23.4373 188.65 23.344C188.613 23.2413 188.552 23.162 188.468 23.106C188.393 23.05 188.286 23.022 188.146 23.022C187.969 23.022 187.791 23.0873 187.614 23.218C187.437 23.3487 187.259 23.5353 187.082 23.778C186.905 24.0207 186.718 24.3333 186.522 24.716L186.564 23.372C186.741 22.9613 186.979 22.5973 187.278 22.28C187.586 21.9627 187.941 21.7107 188.342 21.524C188.743 21.3373 189.163 21.244 189.602 21.244C190.106 21.244 190.535 21.3373 190.89 21.524C191.245 21.7107 191.515 21.9813 191.702 22.336C191.889 22.6907 191.982 23.1293 191.982 23.652V27.25C191.982 27.418 192.001 27.5487 192.038 27.642C192.085 27.7353 192.145 27.8007 192.22 27.838C192.304 27.8753 192.402 27.894 192.514 27.894H192.556V29ZM195.78 29.28C195.211 29.28 194.763 29.1353 194.436 28.846C194.11 28.5567 193.946 28.1413 193.946 27.6C193.946 27.068 194.11 26.6573 194.436 26.368C194.763 26.0693 195.211 25.92 195.78 25.92C196.359 25.92 196.807 26.0693 197.124 26.368C197.451 26.6573 197.614 27.068 197.614 27.6C197.614 28.1413 197.451 28.5567 197.124 28.846C196.807 29.1353 196.359 29.28 195.78 29.28Z" fill="#D4AF37"/>
</g>
<defs>
<clipPath id="clip0_6707_4088">
<rect width="299" height="48" rx="8" fill="white"/>
</clipPath>
</defs>
</svg>
