<?xml version="1.0" encoding="UTF-8" standalone="no"?>
<!-- Created with Inkscape (http://www.inkscape.org/) -->

<svg
   width="46.192711mm"
   height="47.095833mm"
   viewBox="0 0 46.192711 47.095833"
   version="1.1"
   id="svg1"
   xml:space="preserve"
   xmlns="http://www.w3.org/2000/svg"
   xmlns:svg="http://www.w3.org/2000/svg"><defs
     id="defs1" /><g
     id="layer16"
     style="display:inline"
     transform="translate(-117.15379,-107.83657)"><g
       style="fill:none"
       id="g2"
       transform="matrix(0.26458333,0,0,0.26458333,117.15379,107.83657)"><path
         d="m 87.3524,178 c -0.828,0 -1.5,-0.671 -1.5,-1.5 V 95.535 l -23.366,50.106 c -0.35,0.751 -1.242,1.075 -1.993,0.726 -0.751,-0.35 -1.076,-1.243 -0.726,-1.993 l 23.158,-49.661 -60.9349,52.31 c -0.6285,0.539 -1.5756,0.468 -2.1153,-0.16 -0.5395,-0.629 -0.4672,-1.576 0.1612,-2.115 L 81.1424,92.29 21.3059,107.628 c -0.8025,0.206 -1.6204,-0.278 -1.8262,-1.081 -0.2056,-0.802 0.2787,-1.619 1.0811,-1.825 L 80.9574,89.239 1.20528,73.252 C 0.393077,73.09 -0.133324,72.299 0.029576,71.487 0.192476,70.675 0.982978,70.148 1.79518,70.311 L 80.2124,86.031 26.4641,45.332 c -0.6604,-0.501 -0.7901,-1.442 -0.29,-2.102 0.5001,-0.66 1.4411,-0.791 2.1015,-0.291 L 83.9714,85.113 58.2034,34.541 c -0.376,-0.737 -0.083,-1.641 0.655,-2.017 0.738,-0.376 1.642,-0.083 2.018,0.655 l 24.976,49.02 V 1.5 c 0,-0.828 0.672,-1.5 1.5,-1.5 0.829,0.001 1.5,0.672 1.5,1.5 v 80.501 l 23.3196,-50.01 c 0.35,-0.751 1.242,-1.076 1.993,-0.726 0.751,0.35 1.076,1.243 0.725,1.994 L 91.5174,83.385 152.818,30.756 c 0.629,-0.539 1.576,-0.467 2.115,0.161 0.54,0.629 0.468,1.576 -0.161,2.116 L 92.8534,86.19 153.268,70.7 c 0.803,-0.206 1.62,0.278 1.826,1.081 0.205,0.802 -0.278,1.619 -1.08,1.825 l -59.5796,15.275 78.9476,15.825 c 0.812,0.163 1.338,0.953 1.175,1.765 -0.162,0.812 -0.953,1.339 -1.765,1.176 L 92.4674,91.546 148.656,134.095 c 0.66,0.5 0.79,1.441 0.29,2.102 -0.5,0.66 -1.44,0.789 -2.1,0.29 L 92.5754,95.392 117.171,143.664 c 0.376,0.738 0.083,1.641 -0.656,2.017 -0.738,0.376 -1.641,0.083 -2.017,-0.655 L 88.8524,94.692 V 176.5 c 0,0.829 -0.671,1.5 -1.5,1.5 z"
         fill="#d4af37"
         id="path1-0" /></g></g></svg>
