<?xml version="1.0" encoding="UTF-8" standalone="no"?>
<!-- Created with Inkscape (http://www.inkscape.org/) -->

<svg
   width="43.127052mm"
   height="51.064648mm"
   viewBox="0 0 43.127052 51.064648"
   version="1.1"
   id="svg1"
   xml:space="preserve"
   xmlns="http://www.w3.org/2000/svg"
   xmlns:svg="http://www.w3.org/2000/svg"><defs
     id="defs1" /><g
     id="layer19"
     style="display:inline"
     transform="translate(-118.68662,-105.85216)"><g
       style="fill:none"
       id="g5"
       transform="matrix(0.26458333,0,0,0.26458333,118.44968,105.85216)"><path
         fill-rule="evenodd"
         clip-rule="evenodd"
         d="m 163.622,150.784 c -0.5,0.752 -1.521,0.952 -2.276,0.447 l -73.8946,-49.28 31.5936,51.674 c 0.473,0.775 0.231,1.781 -0.543,2.249 -0.774,0.467 -1.786,0.218 -2.259,-0.556 l -31.3121,-51.214 10.8754,87.064 c 0.1128,0.898 -0.5259,1.713 -1.4254,1.821 -0.9007,0.105 -1.7211,-0.537 -1.8327,-1.433 l -10.9079,-87.311 -22.202,63.566 c -0.2973,0.852 -1.2343,1.299 -2.0916,0.997 -0.8561,-0.301 -1.3086,-1.237 -1.0115,-2.091 l 22.4092,-64.161 -62.8401,62.549 c -0.6394,0.638 -1.6799,0.633 -2.3225,-0.009 -0.6426,-0.642 -0.6451,-1.679 -0.0048,-2.316 l 61.7889,-61.501 -69.66205,23.94 c -0.85614,0.293 -1.79337,-0.162 -2.09349,-1.016 -0.3002,-0.855 0.14991,-1.788 1.0056,-2.082 L 76.8022,97.3133 15.0584,89.8856 c -0.901,-0.1073 -1.5486,-0.9245 -1.4456,-1.8218 0.1034,-0.8977 0.9184,-1.5382 1.8194,-1.4298 l 59.8481,7.2 L 1.63033,44.7155 C 0.874285,44.2115 0.668357,43.1943 1.16883,42.443 1.67101,41.6936 2.68935,41.4926 3.44531,41.9965 L 76.9146,90.9941 45.3812,39.4214 c -0.4732,-0.7748 -0.2305,-1.782 0.5436,-2.2487 0.7739,-0.4676 1.7857,-0.2186 2.2582,0.5558 L 79.79,89.4212 68.845,1.83042 c -0.1117,-0.896781 0.5273,-1.711698 1.4265,-1.818868 0.9006,-0.1065611 1.7214,0.536043 1.8331,1.434338 L 83.1582,89.9181 105.572,25.7353 c 0.298,-0.8527 1.234,-1.2986 2.092,-0.996 0.855,0.3009 1.309,1.2369 1.012,2.0896 L 86.5707,90.1227 148.777,28.2047 c 0.64,-0.6367 1.679,-0.6339 2.321,0.008 0.644,0.642 0.646,1.6792 0.006,2.3169 L 87.8133,93.5284 160.64,68.5008 c 0.855,-0.2939 1.793,0.161 2.093,1.0167 0.3,0.8549 -0.15,1.7859 -1.005,2.0807 l -70.3397,24.1723 58.9367,7.0905 c 0.901,0.109 1.548,0.924 1.443,1.821 -0.103,0.898 -0.916,1.539 -1.817,1.431 L 88.4971,98.7191 163.16,148.512 c 0.756,0.505 0.963,1.522 0.462,2.272 z"
         fill="#d4af37"
         id="path1-6" /></g></g></svg>
