<?xml version="1.0" encoding="UTF-8" standalone="no"?>
<!-- Created with Inkscape (http://www.inkscape.org/) -->

<svg
   width="46.566566mm"
   height="44.449986mm"
   viewBox="0 0 46.566566 44.449986"
   version="1.1"
   id="svg1"
   xml:space="preserve"
   xmlns="http://www.w3.org/2000/svg"
   xmlns:svg="http://www.w3.org/2000/svg"><defs
     id="defs1" /><g
     id="layer18"
     style="display:inline"
     transform="translate(-116.96686,-109.1595)"><g
       style="fill:none"
       id="g4"
       transform="matrix(0.26458333,0,0,0.26458333,116.73225,109.0918)"><path
         fill-rule="evenodd"
         clip-rule="evenodd"
         d="m 176.879,93.2341 c -0.08,0.8143 -0.81,1.4055 -1.629,1.321 L 95.2006,86.337 142.458,114.372 c 0.709,0.42 0.943,1.33 0.524,2.033 -0.42,0.701 -1.335,0.929 -2.042,0.51 L 94.1026,89.1288 139.871,154.287 c 0.473,0.672 0.309,1.595 -0.364,2.062 -0.675,0.465 -1.604,0.298 -2.075,-0.373 L 91.5325,90.6336 100.856,150.96 c 0.125,0.809 -0.434,1.564 -1.2476,1.684 -0.8128,0.122 -1.5732,-0.437 -1.6988,-1.247 L 88.4984,90.5066 64.9065,167.214 c -0.2395,0.781 -1.0732,1.217 -1.8601,0.975 -0.787,-0.243 -1.2306,-1.072 -0.99,-1.853 L 85.254,90.9126 39.768,139.571 c -0.5591,0.597 -1.5021,0.629 -2.1061,0.072 -0.6042,-0.558 -0.6414,-1.496 -0.0828,-2.094 L 84.7134,87.1274 32.1988,107.302 c -0.7664,0.295 -1.6314,-0.086 -1.9314,-0.848 -0.2996,-0.763 0.0791,-1.621 0.8454,-1.915 L 82.0155,84.9832 2.23054,76.791 C 1.41151,76.707 0.813614,75.9797 0.893954,75.1655 0.975578,74.3529 1.70449,73.7605 2.52341,73.8445 L 82.1126,82.0161 34.9456,54.0368 c -0.7079,-0.4205 -0.9425,-1.3306 -0.5228,-2.0317 0.4195,-0.7021 1.3343,-0.9306 2.0419,-0.5106 L 83.7412,79.5391 37.693,13.9885 c -0.4718,-0.6711 -0.3078,-1.5944 0.3657,-2.061 0.6744,-0.4665 1.6037,-0.2987 2.0755,0.3734 L 86.6448,78.5121 77.2283,17.6017 c -0.125,-0.8091 0.4333,-1.5624 1.2474,-1.6828 0.8127,-0.1214 1.5734,0.4369 1.699,1.246 L 89.4597,77.232 112.813,1.29909 c 0.241,-0.78098 1.073,-1.2188708 1.86,-0.976351 0.787,0.24252 1.231,1.072461 0.99,1.854421 L 91.903,79.4354 139.456,28.5663 c 0.558,-0.5975 1.501,-0.6298 2.106,-0.0713 0.604,0.5581 0.641,1.4951 0.082,2.093 L 95.7155,79.7188 145.843,60.4626 c 0.766,-0.2944 1.63,0.085 1.929,0.8479 0.3,0.7629 -0.077,1.6212 -0.844,1.9156 l -52.268,20.0787 80.883,8.3038 c 0.819,0.0845 1.417,0.8124 1.336,1.6255 z"
         fill="#d4af37"
         id="path1-4" /></g></g></svg>
