<?xml version="1.0" encoding="UTF-8" standalone="no"?>
<!-- Created with Inkscape (http://www.inkscape.org/) -->

<svg
   version="1.1"
   id="svg1"
   width="88.97802"
   height="99.343597"
   viewBox="0 0 88.97802 99.343597"
   xmlns="http://www.w3.org/2000/svg"
   xmlns:svg="http://www.w3.org/2000/svg">
  <defs
     id="defs1" />
  <g
     id="layer110"
     transform="translate(-363.51099,-478.3282)">
    <path
       id="path10"
       d="m 382.78909,556.59007 23.262,-27.1048 -41.73347,16.4588 c -0.728,0.28706 -1.15867,-0.80494 -0.43067,-1.09214 l 41.2748,-16.27786 -34.48906,-1.1916 c -0.78214,-0.0267 -0.7416,-1.20027 0.04,-1.1732 l 34.7164,1.19586 -41.03267,-21.04226 c -0.6964,-0.3572 -0.16067,-1.40174 0.53573,-1.04467 l 41.1628,21.10907 -21.56506,-29.48893 c -0.462,-0.63174 0.4856,-1.3248 0.9476,-0.69307 l 22.09973,30.22026 -8.80253,-47.44213 c -0.1428,-0.76946 1.01146,-0.9836 1.15426,-0.21413 l 8.47587,45.68133 10.22547,-37.3308 c 0.20666,-0.7548 1.33893,-0.44466 1.13226,0.31027 l -10.47573,38.244 23.0944,-26.90973 c 0.50973,-0.59387 1.40053,0.17066 0.89093,0.76453 l -23.24613,27.08653 41.65627,-16.4284 c 0.72813,-0.2872 1.1588,0.80493 0.43066,1.09213 l -41.26293,16.27334 34.4824,1.19466 c 0.78213,0.0267 0.7416,1.20027 -0.04,1.17334 l -34.64093,-1.1968 41.0136,21.0324 c 0.6964,0.3572 0.16066,1.40173 -0.53574,1.04466 l -41.16306,-21.1092 21.5652,29.48894 c 0.46186,0.63173 -0.48574,1.3248 -0.9476,0.69306 l -20.91187,-28.59546 8.47173,45.65853 c 0.1428,0.76947 -1.01146,0.9836 -1.15426,0.21413 l -8.80454,-47.45213 -10.75386,39.26027 c -0.20667,0.75493 -1.33894,0.4448 -1.13214,-0.31014 l 10.47547,-38.24386 -23.0944,26.90973 c -0.50973,0.59387 -1.40053,-0.17067 -0.89093,-0.76453 z"
       style="fill:#d4af37;fill-opacity:1;fill-rule:nonzero;stroke:none;stroke-width:1.33333" />
  </g>
</svg>
