<?xml version="1.0" encoding="UTF-8" standalone="no"?>
<!-- Created with Inkscape (http://www.inkscape.org/) -->

<svg
   version="1.1"
   id="svg1"
   width="226.81004"
   height="199.59627"
   viewBox="0 0 226.81004 199.59627"
   xmlns="http://www.w3.org/2000/svg"
   xmlns:svg="http://www.w3.org/2000/svg">
  <defs
     id="defs1" />
  <g
     id="layer93"
     transform="translate(-232.5402,-400.74406)">
    <path
       id="path6"
       d="m 233.75496,492.28092 c -1.7632,-0.1508 -1.53707,-2.79573 0.22613,-2.64493 l 106.25413,9.0928 -71.07253,-42.76747 c -1.52427,-0.89733 -0.17813,-3.1836 1.346,-2.28627 l 70.88653,42.6888 -54.10147,-74.98853 c -1.00333,-1.4508 1.17294,-2.95587 2.17627,-1.50507 l 54.4576,75.40867 -10.86893,-93.03653 c -0.23027,-1.75053 2.39546,-2.096 2.62586,-0.34547 l 10.77734,92.40427 25.25093,-89.07987 c 0.51387,-1.68947 3.04813,-0.91867 2.53427,0.7708 l -25.3092,89.3296 66.91786,-72.24173 c 1.192,-1.30614 3.1512,0.482 1.9592,1.78813 l -67.07493,72.37613 74.68386,-28.62786 c 1.6468,-0.6412 2.60867,1.82893 0.96187,2.47013 l -74.632,28.63733 106.38173,9.07947 c 1.7632,0.15067 1.53707,2.7956 -0.22613,2.6448 l -106.25613,-9.0928 71.07426,42.76786 c 1.52414,0.89734 0.17814,3.18374 -1.346,2.28627 l -70.88719,-42.6888 54.102,74.98867 c 1.00333,1.45093 -1.17294,2.956 -2.17627,1.50506 l -54.45773,-75.40839 10.86906,93.03599 c 0.2304,1.75054 -2.39546,2.096 -2.62573,0.34547 l -10.7772,-92.4028 -25.25093,89.07867 c -0.51374,1.68946 -3.048,0.91853 -2.53414,-0.77094 l 25.30907,-89.32986 -66.91773,72.2416 c -1.192,1.30613 -3.1512,-0.48187 -1.95907,-1.788 l 67.07427,-72.37587 -74.6836,28.62774 c -1.6468,0.6412 -2.60853,-1.82894 -0.96173,-2.47014 l 74.63239,-28.63746 z"
       style="fill:#d4af37;fill-opacity:1;fill-rule:nonzero;stroke:none;stroke-width:1.33333" />
  </g>
</svg>
