<?xml version="1.0" encoding="UTF-8" standalone="no"?>
<!-- Created with Inkscape (http://www.inkscape.org/) -->

<svg
   version="1.1"
   id="svg1"
   width="228.04807"
   height="219.16785"
   viewBox="0 0 228.04807 219.16785"
   xmlns="http://www.w3.org/2000/svg"
   xmlns:svg="http://www.w3.org/2000/svg">
  <defs
     id="defs1" />
  <g
     id="layer96"
     transform="translate(-231.92119,-390.95826)">
    <path
       id="path9"
       d="m 275.74724,424.17759 66.92266,71.0932 -26.6816,-79.0112 c -0.5688,-1.68426 1.95774,-2.53746 2.52654,-0.8532 l 26.73733,79.176 12.7148,-102.45373 c 0.21893,-1.76427 2.86533,-1.43587 2.6464,0.3284 l -12.69827,102.36373 48.29787,-77.05426 c 0.94427,-1.50627 3.20373,-0.0893 2.2596,1.41626 l -48.61187,77.5548 61.93734,-36.03613 c 1.53653,-0.89414 2.8776,1.4108 1.34106,2.30493 l -63.47506,36.93106 108.85866,-9.22666 c 1.77147,-0.15014 1.99667,2.50706 0.2252,2.6572 l -104.8636,8.888 81.85587,31.3968 c 1.65986,0.63666 0.7048,3.12653 -0.95494,2.48986 l -83.95333,-32.20146 67.0864,71.26666 c 1.21854,1.29453 -0.7232,3.12227 -1.94173,1.82787 l -66.8688,-71.03547 26.61467,78.81227 c 0.5688,1.6844 -1.95774,2.5376 -2.52654,0.8532 l -26.73133,-79.15733 -12.7196,102.44733 c -0.21893,1.76426 -2.86533,1.43586 -2.6464,-0.3284 l 12.68213,-102.19 -48.27,77.01 c -0.94426,1.5064 -3.20373,0.0907 -2.25946,-1.41627 l 48.61173,-77.5548 -61.93693,36.03587 c -1.53667,0.894 -2.87773,-1.41093 -1.34107,-2.30493 l 59.4876,-34.61107 -104.70493,8.8744 c -1.77133,0.15013 -1.99653,-2.50707 -0.2252,-2.6572 l 108.92853,-9.23227 -86.08706,-33.02026 c -1.65987,-0.63667 -0.7048,-3.1264 0.95506,-2.48973 l 83.95307,32.20159 -67.08653,-71.26719 c -1.21854,-1.29453 0.7232,-3.12227 1.94173,-1.82787 z"
       style="fill:#d4af37;fill-opacity:1;fill-rule:nonzero;stroke:none;stroke-width:1.33333" />
  </g>
</svg>
