<?xml version="1.0" encoding="UTF-8" standalone="no"?>
<!-- Created with Inkscape (http://www.inkscape.org/) -->

<svg
   version="1.1"
   id="svg1"
   width="225.43173"
   height="217.03247"
   viewBox="0 0 225.43173 217.03247"
   xmlns="http://www.w3.org/2000/svg"
   xmlns:svg="http://www.w3.org/2000/svg">
  <defs
     id="defs1" />
  <g
     id="layer51"
     transform="translate(-428.0943,-427.81722)">
    <path
       id="path11"
       d="m 429.2273,520.87679 c -1.7524,-0.26387 -1.35653,-2.8924 0.39574,-2.62853 l 105.64799,15.912 -72.64119,-50.3628 c -1.46214,-1.00014 0.0387,-3.19334 1.50013,-2.1932 l 72.6124,50.3656 -42.26413,-71.0412 c -0.88027,-1.53333 1.41986,-2.85373 2.30013,-1.32027 l 42.42466,71.24507 -4.34746,-101.64 c -0.092,-1.7668 2.55813,-1.90507 2.65026,-0.13813 l 4.31094,101.04973 28.89786,-77.2196 c 0.6448,-1.64773 3.11654,-0.6804 2.4716,0.96733 l -28.94346,77.36907 75.17653,-70.97733 c 1.28173,-1.22227 3.1152,0.70053 1.83333,1.9228 l -75.4572,71.22053 79.17227,-24.0008 c 1.6924,-0.5196 2.47187,2.01893 0.77947,2.53866 l -78.95974,23.9556 105.6056,15.88867 c 1.7524,0.26387 1.35653,2.8924 -0.39573,2.62853 l -105.6476,-15.912 72.64093,50.36267 c 1.46214,1.00013 -0.0387,3.19333 -1.50013,2.1932 l -72.61253,-50.36573 42.26426,71.04146 c 0.88014,1.53347 -1.42,2.85373 -2.30026,1.3204 l -42.42494,-71.24586 4.34747,101.64079 c 0.092,1.7668 -2.55813,1.90507 -2.65027,0.13814 l -4.3108,-101.04867 -28.89746,77.2184 c -0.64493,1.64773 -3.11653,0.6804 -2.4716,-0.96733 l 28.9436,-77.36947 -75.17693,70.97773 c -1.28187,1.22227 -3.1152,-0.70053 -1.83334,-1.92266 l 75.4572,-71.2208 -79.17226,24.00093 c -1.6924,0.5196 -2.47174,-2.01893 -0.77934,-2.53866 l 78.95947,-23.95574 z"
       style="fill:#d4af37;fill-opacity:1;fill-rule:nonzero;stroke:none;stroke-width:1.33333" />
  </g>
</svg>
