<?xml version="1.0" encoding="UTF-8" standalone="no"?>
<!-- Created with Inkscape (http://www.inkscape.org/) -->

<svg
   version="1.1"
   id="svg1"
   width="224.97498"
   height="222.84866"
   viewBox="0 0 224.97498 222.84866"
   xmlns="http://www.w3.org/2000/svg"
   xmlns:svg="http://www.w3.org/2000/svg">
  <defs
     id="defs1" />
  <g
     id="layer76"
     transform="translate(-422.66238,-432.91992)">
    <path
       id="path2"
       d="m 423.76954,526.48922 c -1.7488,-0.3016 -1.29654,-2.92467 0.45226,-2.62307 l 105.4444,18.18507 -73.16293,-52.89427 c -1.44147,-1.0344 0.11067,-3.19653 1.5516,-2.16213 l 73.18746,52.9248 -38.31813,-69.7256 c -0.8392,-1.56093 1.5024,-2.81986 2.3416,-1.2588 l 38.41387,69.85813 -2.1736,-104.50906 c -0.0453,-1.7724 2.6124,-1.84147 2.65853,-0.0693 l 2.15533,103.93106 30.11307,-73.2652 c 0.68853,-1.63386 3.13933,-0.60106 2.4508,1.03294 l -30.1552,73.38239 77.93,-70.55653 c 1.31173,-1.19426 3.1032,0.77347 1.79147,1.96774 l -78.2516,70.83559 80.6684,-22.45853 c 1.70773,-0.47907 2.42626,2.0824 0.71866,2.56147 l -80.40186,22.39506 105.34653,18.15827 c 1.7488,0.3016 1.29653,2.92467 -0.45227,2.6232 l -105.44613,-18.1852 73.1644,52.8948 c 1.44133,1.0344 -0.11067,3.19653 -1.5516,2.16213 l -73.18773,-52.9248 38.31826,69.72547 c 0.8392,1.56093 -1.50226,2.81986 -2.34146,1.2588 l -38.41374,-69.85733 2.17374,104.50799 c 0.0467,1.77227 -2.6124,1.84134 -2.65854,0.0693 l -2.15533,-103.93133 -30.11333,73.26573 c -0.68854,1.63386 -3.13934,0.60106 -2.4508,-1.03294 l 30.15493,-73.38226 -77.92946,70.556 c -1.31174,1.19426 -3.1032,-0.77334 -1.79134,-1.9676 l 78.2512,-70.83547 -80.6684,22.45854 c -1.7076,0.47906 -2.42626,-2.0824 -0.71866,-2.56147 l 80.40239,-22.39507 z"
       style="display:inline;fill:#d4af37;fill-opacity:1;fill-rule:nonzero;stroke:none;stroke-width:1.33333" />
  </g>
</svg>
