<?xml version="1.0" encoding="UTF-8" standalone="no"?>
<!-- Created with Inkscape (http://www.inkscape.org/) -->

<svg
   version="1.1"
   id="svg1"
   width="224.51953"
   height="228.66658"
   viewBox="0 0 224.51953 228.66658"
   xmlns="http://www.w3.org/2000/svg"
   xmlns:svg="http://www.w3.org/2000/svg">
  <defs
     id="defs1" />
  <g
     id="layer53"
     transform="translate(-428.5504,-422.00017)">
    <path
       id="path13"
       d="m 575.90237,461.93227 -31.36627,69.3956 80.68213,-70.13453 c 1.34174,-1.1664 3.0912,0.84626 1.74947,2.01253 L 545.9225,533.65613 628.0869,512.74 c 1.7228,-0.43866 2.38067,2.1456 0.65787,2.58427 l -81.8448,20.83453 105.08813,20.42813 c 1.74506,0.3392 1.23626,2.95695 -0.5088,2.6176 l -105.24213,-20.458 73.6856,55.42585 c 1.4208,1.0686 -0.18227,3.1998 -1.60294,2.1311 l -73.7628,-55.48375 34.37254,68.41005 c 0.79813,1.5885 -1.58467,2.7858 -2.3828,1.1973 l -34.40334,-68.47055 v 107.37695 c 0,1.7777 -2.66666,1.7777 -2.66666,0 V 542.5208 l -31.3284,69.31178 c -0.73227,1.62 -3.16227,0.5217 -2.43,-1.0983 l 31.36653,-69.39601 -80.6828,70.13531 c -1.34173,1.1663 -3.0912,-0.8462 -1.74946,-2.0126 l 81.04546,-70.45058 -82.1644,20.91628 c -1.72293,0.4387 -2.38066,-2.14561 -0.65786,-2.58415 L 534.7201,536.50773 429.63224,516.08 c -1.74507,-0.33933 -1.23627,-2.95693 0.5088,-2.61773 L 535.38463,533.9204 461.69797,478.494 c -1.4208,-1.06853 0.18227,-3.19973 1.60293,-2.13106 l 73.7628,55.48346 -34.37266,-68.4096 c -0.79814,-1.58853 1.58466,-2.78586 2.3828,-1.19733 l 34.40293,68.4696 v -107.3756 c 0,-1.77773 2.66666,-1.77773 2.66666,0 V 530.1468 l 31.32894,-69.31293 c 0.73226,-1.61987 3.16226,-0.5216 2.43,1.0984 z"
       style="fill:#d4af37;fill-opacity:1;fill-rule:nonzero;stroke:none;stroke-width:1.33333" />
  </g>
</svg>
