<?xml version="1.0" encoding="UTF-8" standalone="no"?>
<!-- Created with Inkscape (http://www.inkscape.org/) -->

<svg
   version="1.1"
   id="svg1"
   width="225.88977"
   height="211.21866"
   viewBox="0 0 225.88977 211.21866"
   xmlns="http://www.w3.org/2000/svg"
   xmlns:svg="http://www.w3.org/2000/svg">
  <defs
     id="defs1" />
  <g
     id="layer29"
     transform="translate(-426.41151,-513.93462)">
    <path
       id="path3-9"
       d="m 651.14178,606.48568 c 1.75587,-0.22613 1.41667,-2.86026 -0.33933,-2.634 l -105.8492,13.63894 72.11773,-47.83094 c 1.4828,-0.96586 0.0333,-3.19 -1.4488,-2.22413 l -72.03706,47.80693 46.20973,-72.35706 c 0.92133,-1.506 -1.3376,-2.88787 -2.25893,-1.382 l -46.4356,72.63333 6.5212,-98.7728 c 0.13813,-1.76146 -2.504,-1.9688 -2.64213,-0.20733 l -6.46627,98.16773 -27.68213,-81.1724 c -0.6012,-1.66173 -3.09374,-0.75986 -2.49254,0.90187 l 27.73227,81.35586 -72.424,-71.39906 c -1.25187,-1.25014 -3.1272,0.62773 -1.87533,1.87786 l 72.66333,71.606 -77.67627,-25.54333 c -1.6772,-0.56013 -2.51733,1.95573 -0.84013,2.51587 l 77.51693,25.51613 -105.86413,13.61893 c -1.756,0.22614 -1.4168,2.86014 0.3392,2.634 l 105.85107,-13.63906 -72.11934,47.83146 c -1.48266,0.96587 -0.0333,3.19 1.44894,2.22413 l 72.03733,-47.80679 -46.21,72.35706 c -0.9212,1.50587 1.3376,2.88787 2.25893,1.38187 l 46.4356,-72.6328 -6.52133,98.772 c -0.13827,1.76146 2.50387,1.9688 2.64213,0.20733 l 6.46614,-98.1672 27.68213,81.17213 c 0.60133,1.6616 3.09386,0.75987 2.49253,-0.90186 l -27.732,-81.356 72.4236,71.3988 c 1.25187,1.25013 3.1272,-0.62774 1.87533,-1.87787 l -72.66293,-71.6056 77.67613,25.54307 c 1.6772,0.56013 2.51734,-1.9556 0.84014,-2.51573 l -77.51747,-25.51627 z"
       style="fill:#d4af37;fill-opacity:1;fill-rule:nonzero;stroke:none;stroke-width:1.33333" />
  </g>
</svg>
