<?xml version="1.0" encoding="UTF-8" standalone="no"?>
<!-- Created with Inkscape (http://www.inkscape.org/) -->

<svg
   version="1.1"
   id="svg1"
   width="225.43172"
   height="217.03247"
   viewBox="0 0 225.43172 217.03247"
   xmlns="http://www.w3.org/2000/svg"
   xmlns:svg="http://www.w3.org/2000/svg">
  <defs
     id="defs1" />
  <g
     id="layer77"
     transform="translate(-422.43401,-435.82801)">
    <path
       id="path3"
       d="m 423.56695,528.88765 c -1.75227,-0.26387 -1.35654,-2.8924 0.39586,-2.62853 l 105.6468,15.912 -72.6404,-50.36254 c -1.462,-1.00013 0.0387,-3.19333 1.50027,-2.1932 l 72.61227,50.36574 -42.264,-71.04134 c -0.88027,-1.53346 1.41986,-2.85386 2.30013,-1.32039 l 42.42493,71.24573 -4.34746,-101.6408 c -0.092,-1.76693 2.55813,-1.90507 2.65026,-0.13827 l 4.31094,101.04933 28.89746,-77.21893 c 0.64493,-1.64773 3.11667,-0.6804 2.47173,0.96734 l -28.94359,77.36933 75.17679,-70.97773 c 1.28187,-1.22227 3.1152,0.70053 1.83334,1.92266 l -75.45733,71.22093 79.17239,-24.00093 c 1.6924,-0.51973 2.47174,2.01893 0.77934,2.53853 l -78.95933,23.95574 105.60533,15.88853 c 1.7524,0.26387 1.35666,2.8924 -0.39574,2.62853 l -105.64853,-15.912 72.64173,50.36294 c 1.46214,1.00013 -0.0387,3.19333 -1.50026,2.1932 l -72.61253,-50.36574 42.26439,71.04133 c 0.88014,1.53347 -1.42,2.85387 -2.30026,1.3204 l -42.4248,-71.24519 4.3476,101.63986 c 0.092,1.76693 -2.55813,1.90507 -2.65027,0.13827 l -4.3108,-101.0492 -28.89773,77.21906 c -0.64493,1.64787 -3.11667,0.6804 -2.47173,-0.96733 l 28.94346,-77.3692 -75.1764,70.97733 c -1.28186,1.22227 -3.1152,-0.70053 -1.83333,-1.9228 l 75.45693,-71.22053 -79.17213,24.0008 c -1.6924,0.51974 -2.47187,-2.01893 -0.77947,-2.53853 l 78.95987,-23.95573 z"
       style="display:inline;fill:#d4af37;fill-opacity:1;fill-rule:nonzero;stroke:none;stroke-width:1.33333" />
  </g>
</svg>
