<?xml version="1.0" encoding="UTF-8" standalone="no"?>
<!-- Created with Inkscape (http://www.inkscape.org/) -->

<svg
   version="1.1"
   id="svg1"
   width="224.51958"
   height="228.6667"
   viewBox="0 0 224.51958 228.6667"
   xmlns="http://www.w3.org/2000/svg"
   xmlns:svg="http://www.w3.org/2000/svg">
  <defs
     id="defs1" />
  <g
     id="g1"
     transform="translate(-416.74741,-422.10833)">
    <path
       id="path1"
       d="m 493.91503,610.84283 31.36627,-69.3956 -80.68213,70.13467 c -1.34173,1.16626 -3.0912,-0.84627 -1.74947,-2.01267 l 81.0452,-70.45027 -82.1644,20.91614 c -1.7228,0.43867 -2.38066,-2.1456 -0.65786,-2.58413 L 522.91743,536.6163 417.8293,516.1883 c -1.7452,-0.33934 -1.23626,-2.95694 0.5088,-2.61774 l 105.242,20.458 -73.68546,-55.42573 c -1.4208,-1.06866 0.18226,-3.19973 1.60293,-2.1312 l 73.7628,55.48373 -34.37254,-68.40999 c -0.79826,-1.58854 1.58454,-2.78574 2.3828,-1.19734 l 34.40334,68.47067 V 423.44163 c 0,-1.77773 2.66666,-1.77773 2.66666,0 V 530.2543 l 31.3284,-69.31173 c 0.73227,-1.62 3.16227,-0.5216 2.43,1.0984 l -31.36653,69.39586 80.6828,-70.1352 c 1.34173,-1.1664 3.0912,0.84627 1.74946,2.01254 l -81.04559,70.45066 82.16453,-20.9164 c 1.7228,-0.43853 2.38066,2.1456 0.65786,2.58427 l -81.84426,20.83466 105.08786,20.42787 c 1.74507,0.3392 1.23627,2.9568 -0.5088,2.6176 l -105.24373,-20.458 73.6868,55.42627 c 1.4208,1.06867 -0.18226,3.19973 -1.60293,2.13107 l -73.7628,-55.48347 34.37267,68.40973 c 0.79813,1.5884 -1.58467,2.78573 -2.3828,1.1972 l -34.40294,-68.4696 v 107.3756 c 0,1.77787 -2.66666,1.77787 -2.66666,0 v -106.8132 l -31.32907,69.3128 c -0.73213,1.62 -3.16213,0.5216 -2.42987,-1.0984 z"
       style="fill:#d4af37;fill-opacity:1;fill-rule:nonzero;stroke:none;stroke-width:1.33333" />
  </g>
</svg>
