<?xml version="1.0" encoding="UTF-8" standalone="no"?>
<!-- Created with Inkscape (http://www.inkscape.org/) -->

<svg
   version="1.1"
   id="svg1"
   width="225.95258"
   height="214.52769"
   viewBox="0 0 225.95258 214.52769"
   xmlns="http://www.w3.org/2000/svg"
   xmlns:svg="http://www.w3.org/2000/svg">
  <defs
     id="defs1" />
  <g
     id="layer97"
     transform="translate(-232.96893,-393.27834)">
    <path
       id="path10"
       d="m 276.78595,434.61659 65.35933,60.7816 -32.54253,-76.63053 c -0.69493,-1.6364 1.7596,-2.6788 2.45453,-1.0424 l 32.66653,76.9232 4.7908,-100.1004 c 0.0853,-1.77573 2.74867,-1.64826 2.6636,0.128 l -4.78826,100.01693 42.32053,-80.50693 c 0.82733,-1.5736 3.1876,-0.3328 2.3604,1.2408 l -42.6288,81.09307 56.4396,-38.23734 c 1.47173,-0.99706 2.96747,1.21067 1.49573,2.20774 l -57.78706,39.15 107.78279,-17.44614 c 1.7548,-0.284 2.18094,2.3484 0.426,2.6324 l -103.88693,16.81574 84.00094,25.09813 c 1.70333,0.50893 0.94,3.06387 -0.76347,2.55493 l -86.2728,-25.7768 65.72813,61.12413 c 1.30187,1.21067 -0.51413,3.16347 -1.816,1.9528 l -65.30013,-60.72626 32.4596,76.43546 c 0.69493,1.63627 -1.7596,2.67867 -2.4544,1.04227 l -32.66573,-76.92013 -4.78947,100.10946 c -0.0853,1.77574 -2.74867,1.64827 -2.6636,-0.128 l 4.77747,-99.82693 -42.28827,80.44507 c -0.8272,1.5736 -3.1876,0.3328 -2.3604,-1.2408 l 42.62907,-81.09347 -56.4396,38.23734 c -1.47173,0.99706 -2.96747,-1.21054 -1.49573,-2.20774 l 53.90653,-36.5212 -103.58693,16.7668 c -1.75494,0.28414 -2.18107,-2.34826 -0.42614,-2.6324 l 107.9148,-17.46746 -88.34386,-26.3956 c -1.70334,-0.50894 -0.93987,-3.064 0.76346,-2.55507 l 86.27213,25.77667 -65.72786,-61.12427 c -1.30187,-1.21067 0.51413,-3.16333 1.816,-1.95267 z"
       style="fill:#d4af37;fill-opacity:1;fill-rule:nonzero;stroke:none;stroke-width:1.33333" />
  </g>
</svg>
