<?xml version="1.0" encoding="UTF-8" standalone="no"?>
<!-- Created with Inkscape (http://www.inkscape.org/) -->

<svg
   width="23.458122mm"
   height="12.018962mm"
   viewBox="0 0 88.660622 45.425998"
   version="1.1"
   id="svg1"
   xml:space="preserve"
   xmlns="http://www.w3.org/2000/svg"
   xmlns:svg="http://www.w3.org/2000/svg"><defs
     id="defs1"><clipPath
       id="clip5_6491_7676-4-9"><rect
         width="94"
         height="54.421101"
         fill="#ffffff"
         transform="translate(40,362.105)"
         id="rect29-1-9"
         x="0"
         y="0" /></clipPath></defs><g
     id="layer16"
     style="display:inline"
     transform="translate(-388.00077,-656.72108)"><g
       clip-path="url(#clip5_6491_7676-4-9)"
       id="g18-0-1"
       transform="translate(344.76878,291.07108)"
       style="display:inline;fill:#060622;fill-opacity:1"><path
         d="m 46.0646,388.365 6.109,-6.091 c 19.533,-19.476 51.2444,-19.476 70.7774,0 l 6.109,6.091 -6.109,6.091 c -19.533,19.476 -51.2444,19.476 -70.7774,0 z"
         stroke="#d4af37"
         stroke-width="4"
         stroke-miterlimit="10"
         id="path16-0-8"
         style="fill:#060622;fill-opacity:1" /><path
         d="m 87.62,409.076 c 11.473,0 20.774,-9.273 20.774,-20.713 0,-11.439 -9.301,-20.713 -20.774,-20.713 -11.4731,0 -20.7738,9.274 -20.7738,20.713 0,11.44 9.3007,20.713 20.7738,20.713 z"
         stroke="#d4af37"
         stroke-width="4"
         stroke-miterlimit="10"
         id="path17-1-2"
         style="fill:#060622;fill-opacity:1" /><path
         d="m 87.5718,394.68148 c 3.499759,0 6.336821,-2.82911 6.336821,-6.31848 0,-3.48937 -2.837062,-6.31848 -6.336821,-6.31848 -3.49968,0 -6.336821,2.82911 -6.336821,6.31848 0,3.48937 2.837141,6.31848 6.336821,6.31848 z"
         stroke="#d4af37"
         stroke-width="3.14783"
         stroke-miterlimit="10"
         id="path18-4-6"
         style="fill:#060622;fill-opacity:1" /></g></g></svg>
