<?xml version="1.0" encoding="UTF-8" standalone="no"?>
<!-- Created with Inkscape (http://www.inkscape.org/) -->

<svg
   width="20.11714mm"
   height="17.293163mm"
   viewBox="0 0 76.033287 65.359988"
   version="1.1"
   id="svg1"
   xml:space="preserve"
   xmlns="http://www.w3.org/2000/svg"
   xmlns:svg="http://www.w3.org/2000/svg"><defs
     id="defs1" /><g
     id="layer3"
     style="display:inline"
     transform="translate(-358.61188,-611.78348)"><path
       d="m 423.63514,617.78314 c 0.25081,0.25081 0.25081,0.65793 0,0.90873 h -4.3e-4 c -0.0951,0 -24.52464,24.52524 -24.52464,24.52524 v 0 c 0.0587,0.0273 22.25525,-8.10036 22.25525,-8.10036 v 4.4e-4 c 0.3332,-0.12116 0.70214,0.0503 0.82391,0.38408 h -4.4e-4 c 0.12116,0.3332 -0.0508,0.70153 -0.38348,0.8233 h -4.4e-4 c -0.0582,-0.0273 -22.05654,8.02767 -22.05654,8.02767 v 0 c 0.0715,-0.0618 34.3025,2.61289 34.3025,2.61289 v -4.4e-4 c 0.3538,0.0273 0.61914,0.33622 0.59249,0.69002 v 0 c -0.0278,0.3538 -0.33623,0.61854 -0.68942,0.59188 h -4.4e-4 c -0.0721,0.0618 -34.39943,-2.62015 -34.39943,-2.62015 v 0 c 0.0709,-0.0182 22.7714,13.47879 22.7714,13.47879 v 4.5e-4 c 0.30533,0.17992 0.4059,0.57491 0.22536,0.88024 v 0 c -0.18052,0.30534 -0.57491,0.40651 -0.88024,0.22536 v -4.3e-4 c -0.0181,-0.0709 -22.98405,-13.6036 -22.98405,-13.6036 h -4.4e-4 c -0.0188,0.0939 19.31522,28.9998 19.31522,28.9998 v 0 c 0.19629,0.29504 0.11632,0.69366 -0.17871,0.89055 h -4.4e-4 c -0.29503,0.19629 -0.69366,0.11692 -0.88994,-0.17872 v 0 c 0.0181,-0.0927 -18.99173,-28.51454 -18.99173,-28.51454 v 4.5e-4 c -0.0478,0.063 3.95235,28.60844 3.95235,28.60844 v 0 c 0.0485,0.35137 -0.19689,0.67548 -0.54827,0.72455 l -4.4e-4,-4.4e-4 c -0.35137,0.0485 -0.67548,-0.19628 -0.72455,-0.54826 v 0 c 0.0497,-0.0654 -4.09532,-29.64499 -4.09532,-29.64499 h -4.4e-4 c -0.0594,0.0303 -7.51272,23.12338 -7.51272,23.12338 l -4.4e-4,4.4e-4 c -0.10965,0.33684 -0.47193,0.52161 -0.80936,0.41196 v 0 c -0.33744,-0.10965 -0.52222,-0.47193 -0.41257,-0.80937 v 0 c 0.0582,-0.0297 7.28312,-22.41397 7.28312,-22.41397 h -4.4e-4 c -0.0951,0 -24.44405,24.44406 -24.44405,24.44406 v 0 c -0.25082,0.25081 -0.65732,0.25081 -0.90873,0 v 0 c -0.25081,-0.25141 -0.25081,-0.65792 0,-0.90873 v -4.3e-4 c 0,-0.0945 24.38469,-24.38409 24.38469,-24.38409 h -4.4e-4 c -0.0587,-0.0273 -22.21162,8.08522 -22.21162,8.08522 h -4.5e-4 c -0.3332,0.12116 -0.70154,-0.0509 -0.8227,-0.38409 v 0 c -0.12116,-0.3332 0.0503,-0.70214 0.38409,-0.82391 v 0 c 0.0587,0.0278 22.26313,-8.1034 22.26313,-8.1034 v -4.3e-4 c -0.0624,-0.0721 -34.5103,-2.62622 -34.5103,-2.62622 v -4.4e-4 c -0.35319,-0.0266 -0.61793,-0.33501 -0.59127,-0.68881 v -4.4e-4 c 0.0266,-0.3538 0.33562,-0.61854 0.68881,-0.59127 h 4.4e-4 c 0.0624,0.0733 34.85742,2.65407 34.85742,2.65407 l -4.4e-4,-4.4e-4 c -0.0182,-0.0709 -22.99191,-13.60783 -22.99191,-13.60783 v 0 c -0.30534,-0.18114 -0.4059,-0.57492 -0.22537,-0.88025 h 4.4e-4 c 0.18053,-0.30533 0.57371,-0.4065 0.87965,-0.22537 v 0 c 0.0176,0.0703 22.67386,13.41943 22.67386,13.41943 v 0 c 0.0182,-0.0933 -19.12075,-28.70658 -19.12075,-28.70658 l 4.3e-4,-4.4e-4 c -0.19628,-0.29503 -0.11692,-0.69366 0.17812,-0.88995 l 4.3e-4,-4.3e-4 c 0.29504,-0.19629 0.69366,-0.11632 0.89055,0.17871 v 4.4e-4 c -0.0194,0.0945 19.45395,29.20759 19.45395,29.20759 v -4.4e-4 c 0.0503,-0.0661 -4.13165,-29.90852 -4.13165,-29.90852 v 0 c -0.0485,-0.35137 0.19688,-0.67549 0.54886,-0.72395 v 0 c 0.35138,-0.0485 0.67549,0.19689 0.72395,0.54826 v 0 c 0.0642,0.0485 3.99111,28.88652 3.99111,28.88652 h -4.3e-4 c -0.0285,-0.057 7.05836,-22.01354 7.17164,-22.07109 v -0.002 c 0.11026,-0.33744 0.47254,-0.52161 0.80997,-0.41195 h 4.5e-4 c 0.33683,0.10966 0.52221,0.47253 0.41255,0.80997 v 0 c 0.0303,0.0594 -7.47879,23.01434 -7.47879,23.01434 v 0 c 0,-0.0963 24.7809,-24.78029 24.7809,-24.78029 v -4.4e-4 c 0.2508,-0.2508 0.65731,-0.2502 0.90872,4.4e-4 z"
       id="path18"
       style="display:inline;fill:#d4af37;fill-opacity:1;stroke-width:0.605818" /></g></svg>
