<?xml version="1.0" encoding="UTF-8" standalone="no"?>
<!-- Created with Inkscape (http://www.inkscape.org/) -->

<svg
   version="1.1"
   id="svg1"
   width="96.34903"
   height="88.081207"
   viewBox="0 0 96.34903 88.081207"
   xmlns="http://www.w3.org/2000/svg"
   xmlns:svg="http://www.w3.org/2000/svg">
  <defs
     id="defs1" />
  <g
     id="layer102"
     transform="translate(-359.82549,-483.9594)">
    <path
       id="path2"
       d="m 381.77997,501.18206 24.98347,24.83214 -12.08267,-41.30027 c -0.21986,-0.7512 0.90694,-1.0808 1.12667,-0.32973 l 11.87973,40.6068 3.58854,-33.66 c 0.0827,-0.77827 1.25026,-0.65387 1.16733,0.124 l -3.62987,34.0932 23.7144,-38.0828 c 0.41374,-0.66427 1.41027,-0.044 0.99654,0.62067 l -23.77654,38.18253 30.154,-18.14827 c 0.67067,-0.4036 1.276,0.60227 0.60547,1.00587 l -30.89653,18.59506 45.92586,-3.9996 c 0.77974,-0.068 0.8816,1.10174 0.10134,1.1696 l -44.08587,3.83934 35.06227,12.9412 c 0.73413,0.27093 0.3276,1.37226 -0.40654,1.10133 l -35.92293,-13.25893 24.68093,24.53133 c 0.5552,0.55173 -0.2724,1.38427 -0.8276,0.83253 l -24.9676,-24.81626 12.0604,41.2244 c 0.21974,0.75106 -0.90706,1.08066 -1.1268,0.3296 l -11.8752,-40.59134 -3.59213,33.64974 c -0.0827,0.77826 -1.25027,0.65373 -1.16733,-0.124 l 3.62733,-34.02494 -23.70627,38.06974 c -0.41373,0.6644 -1.41026,0.044 -0.99653,-0.62054 l 23.77653,-38.18266 -30.15386,18.14813 c -0.67067,0.4036 -1.276,-0.60227 -0.60547,-1.00573 l 29.24813,-17.60294 -44.1956,3.8488 c -0.77973,0.068 -0.88146,-1.10173 -0.10133,-1.1696 l 45.86373,-3.994 -36.92186,-13.62773 c -0.73427,-0.27107 -0.32774,-1.3724 0.4064,-1.10133 l 35.92293,13.2588 -24.68107,-24.53147 c -0.55506,-0.55173 0.27254,-1.38427 0.8276,-0.83267 z"
       style="fill:#d4af37;fill-opacity:1;fill-rule:nonzero;stroke:none;stroke-width:1.33333" />
  </g>
</svg>
