<?xml version="1.0" encoding="UTF-8" standalone="no"?>
<!-- Created with Inkscape (http://www.inkscape.org/) -->

<svg
   version="1.1"
   id="svg1"
   width="225.20314"
   height="219.93964"
   viewBox="0 0 225.20314 219.93964"
   xmlns="http://www.w3.org/2000/svg"
   xmlns:svg="http://www.w3.org/2000/svg">
  <defs
     id="defs1" />
  <g
     id="layer41"
     transform="translate(-416.40564,-426.47187)">
    <path
       id="path11"
       d="m 417.52561,519.78617 c -1.75053,-0.2826 -1.32653,-2.9085 0.424,-2.6258 l 105.54573,17.0484 -72.90173,-51.6283 c -1.45173,-1.0172 0.0747,-3.1949 1.526,-2.1776 l 72.89973,51.6451 -40.29133,-70.3836 c -0.85973,-1.5472 1.46107,-2.8368 2.3208,-1.2896 l 40.41973,70.552 -3.26066,-103.07471 c -0.0693,-1.7696 2.58533,-1.8732 2.6544,-0.104 l 3.23333,102.49001 29.5052,-75.2424 c 0.66667,-1.6409 3.12787,-0.6408 2.4612,1 l -29.54933,75.3763 76.5532,-70.7672 c 1.2968,-1.2083 3.1092,0.7369 1.8124,1.9452 l -76.85427,71.0282 79.92027,-23.2298 c 1.70013,-0.4994 2.44906,2.0506 0.74906,2.55 l -79.68053,23.1756 105.476,17.0232 c 1.75053,0.2826 1.32653,2.9085 -0.424,2.6258 l -105.54733,-17.0484 72.90293,51.6287 c 1.45173,1.0172 -0.0747,3.1949 -1.52587,2.1776 l -72.90013,-51.6449 40.29173,70.3834 c 0.8596,1.5472 -1.4612,2.8368 -2.32093,1.2896 l -40.41947,-70.5513 3.2608,103.0736 c 0.0693,1.7696 -2.58533,1.8733 -2.6544,0.104 l -3.23333,-102.4901 -29.50546,75.2427 c -0.66667,1.6408 -3.12787,0.6407 -2.4612,-1.0001 l 29.54919,-75.3761 -76.55279,70.7668 c -1.2968,1.2082 -3.1092,-0.737 -1.8124,-1.9452 l 76.85386,-71.028 -79.92013,23.2297 c -1.7,0.4994 -2.44907,-2.0506 -0.74907,-2.55 l 79.68107,-23.1754 -105.47627,-17.0235 z"
       style="fill:#d4af37;fill-opacity:1;fill-rule:nonzero;stroke:none;stroke-width:1.33333" />
  </g>
</svg>
