<?xml version="1.0" encoding="UTF-8" standalone="no"?>
<!-- Created with Inkscape (http://www.inkscape.org/) -->

<svg
   version="1.1"
   id="svg1"
   width="82.362335"
   height="93.257141"
   viewBox="0 0 82.362335 93.257141"
   xmlns="http://www.w3.org/2000/svg"
   xmlns:svg="http://www.w3.org/2000/svg">
  <defs
     id="defs1" />
  <g
     id="layer105"
     transform="translate(-366.81883,-481.37143)">
    <path
       id="path5"
       d="m 372.58633,511.30035 33.4752,15.25133 -23.71986,-32.85466 c -0.45814,-0.63454 0.4936,-1.32174 0.95173,-0.68707 l 23.18373,32.11186 -8.77546,-34.30453 c -0.194,-0.75813 0.94333,-1.04906 1.13733,-0.29093 l 8.93507,34.92866 9.4268,-43.61906 c 0.16533,-0.76493 1.3128,-0.51693 1.14746,0.248 l -9.4424,43.69106 21.53774,-25.99079 c 0.49933,-0.60267 1.4032,0.1464 0.90386,0.74906 l -22.0768,26.64147 39.082,-17.19267 c 0.7164,-0.31506 1.18907,0.75947 0.47267,1.07467 l -37.29613,16.40706 36.4572,0.5004 c 0.78253,0.0133 0.7664,1.18454 -0.016,1.17387 l -37.35734,-0.5128 32.93667,15.00573 c 0.71213,0.32454 0.22547,1.3928 -0.4868,1.06827 l -33.45587,-15.2424 23.67494,32.79227 c 0.45813,0.63453 -0.49374,1.32173 -0.95187,0.6872 l -23.18173,-32.10894 8.776,34.30587 c 0.194,0.75827 -0.94334,1.0492 -1.13734,0.29093 l -8.9168,-34.8564 -9.42173,43.59614 c -0.16533,0.76506 -1.3128,0.51706 -1.14747,-0.24787 l 9.44227,-43.6912 -21.53747,25.99067 c -0.49946,0.60266 -1.40333,-0.1464 -0.904,-0.74907 l 20.8972,-25.21787 -37.55186,16.51947 c -0.7164,0.31507 -1.18907,-0.75947 -0.47267,-1.07453 l 38.93947,-17.13 -38.45094,-0.52787 c -0.78253,-0.0133 -0.76653,-1.18467 0.016,-1.17387 l 37.3572,0.5128 -32.93666,-15.00599 c -0.71227,-0.3244 -0.2256,-1.39267 0.48666,-1.06827 z"
       style="fill:#d4af37;fill-opacity:1;fill-rule:nonzero;stroke:none;stroke-width:1.33333" />
  </g>
</svg>
