<?xml version="1.0" encoding="UTF-8" standalone="no"?>
<!-- Created with Inkscape (http://www.inkscape.org/) -->

<svg
   version="1.1"
   id="svg1"
   width="227.27213"
   height="200.52727"
   viewBox="0 0 227.27213 200.52727"
   xmlns="http://www.w3.org/2000/svg"
   xmlns:svg="http://www.w3.org/2000/svg">
  <defs
     id="defs1" />
  <g
     id="layer94"
     transform="translate(-232.30916,-400.27855)">
    <path
       id="path7"
       d="m 233.55251,494.6793 c -1.7668,-0.11333 -1.5972,-2.76333 0.1696,-2.65027 l 106.45666,6.81974 -70.55013,-40.23574 c -1.5448,-0.8632 -0.25013,-3.1804 1.2948,-2.31733 l 70.3112,40.12973 -58.04747,-76.30426 c -1.0444,-1.42334 1.09054,-2.98987 2.13494,-1.56667 l 58.46853,76.7964 -13.04254,-90.1684 c -0.27653,-1.74507 2.34107,-2.15973 2.6176,-0.41467 l 12.9328,89.52254 24.03547,-93.0336 c 0.47013,-1.70347 3.02533,-0.99813 2.55507,0.70533 l -24.09774,93.3164 64.1648,-72.66293 c 1.16214,-1.33414 3.1632,0.40906 2.0012,1.7432 l -64.2808,72.7612 73.18787,-30.17027 c 1.6316,-0.68173 2.65413,1.7656 1.02253,2.44733 l -73.18933,30.19787 106.64026,6.80973 c 1.76694,0.11334 1.59734,2.76347 -0.1696,2.6504 l -106.45853,-6.81986 70.55173,40.23626 c 1.54494,0.86307 0.25027,3.1804 -1.29466,2.31733 l -70.31187,-40.12986 58.048,76.30451 c 1.04427,1.4234 -1.09066,2.99 -2.13506,1.5667 l -58.4688,-76.79628 13.04293,90.16798 c 0.27653,1.7451 -2.34107,2.1598 -2.6176,0.4146 L 345.5917,506.7957 321.5565,599.82771 c -0.47013,1.7033 -3.02533,0.998 -2.55506,-0.7053 l 24.0976,-93.31698 -64.16467,72.66308 c -1.16213,1.3341 -3.1632,-0.4091 -2.0012,-1.7432 l 64.28013,-72.76081 -73.18733,30.17 c -1.6316,0.68173 -2.65426,-1.7656 -1.02266,-2.44733 l 73.18999,-30.19814 z"
       style="fill:#d4af37;fill-opacity:1;fill-rule:nonzero;stroke:none;stroke-width:1.33333" />
  </g>
</svg>
