<?xml version="1.0" encoding="UTF-8" standalone="no"?>
<!-- Created with Inkscape (http://www.inkscape.org/) -->

<svg
   width="55.760632mm"
   height="55.760506mm"
   viewBox="0 0 55.760632 55.760506"
   version="1.1"
   id="svg1"
   xml:space="preserve"
   xmlns="http://www.w3.org/2000/svg"
   xmlns:svg="http://www.w3.org/2000/svg"><defs
     id="defs1" /><g
     id="layer8"
     transform="translate(-77.159268,-120.551)"><g
       style="fill:none"
       id="g8"
       transform="matrix(0.25815059,0,0,0.25815059,77.159268,120.551)"><path
         fill-rule="evenodd"
         clip-rule="evenodd"
         d="m 2.47924,117.61 c 1.16149,12.79 4.68423,25.582 10.77456,37.763 26.1633,52.326 89.7932,73.536 142.1202,47.373 1.072,-0.536 2.13,-1.09 3.176,-1.658 l 0.916,1.832 c -1.047,0.567 -2.105,1.121 -3.177,1.657 C 102.951,231.246 38.0921,209.626 11.4229,156.288 5.14175,143.726 1.53905,130.525 0.398474,117.335 Z M 201.731,161.622 c -8.214,14.389 -19.805,27.017 -34.335,36.562 l -0.923,-1.846 c 14.101,-9.308 25.369,-21.582 33.384,-35.559 z M 216,107.624 c 0.049,17.944 -4.394,35.594 -12.778,51.301 l -1.872,-0.841 c 8.271,-15.45 12.655,-32.821 12.602,-50.481 z M 128.988,2.07945 c 31.601,6.28429 60.066,26.58335 75.59,57.63185 6.728,13.4558 10.38,27.6448 11.228,41.7697 l -2.053,-0.021 C 212.905,87.6514 209.324,73.7813 202.747,60.6267 187.506,30.1443 159.55,10.2233 128.522,4.0737 Z M 2.21143,102.216 c -0.18794,3.382 -0.21517,6.781 -0.07553,10.186 L 0.0762448,112.129 C -0.0520978,108.721 -0.0180011,105.32 0.175428,101.937 Z M 59.7117,11.4227 C 79.6963,1.43042 101.299,-1.7829 121.904,0.911648 L 121.435,2.91578 C 101.283,0.320377 80.1669,3.48371 60.6271,13.2536 28.3321,29.4012 7.88996,59.8194 3.122,93.0437 L 1.09223,92.7656 C 5.94934,58.895 26.789,27.8839 59.7117,11.4227 Z"
         fill="#d4af37"
         id="path1-77" /></g></g></svg>
