<?xml version="1.0" encoding="UTF-8" standalone="no"?>
<!-- Created with Inkscape (http://www.inkscape.org/) -->

<svg
   width="55.827099mm"
   height="55.827137mm"
   viewBox="0 0 55.827099 55.827137"
   version="1.1"
   id="svg1"
   xml:space="preserve"
   xmlns="http://www.w3.org/2000/svg"
   xmlns:svg="http://www.w3.org/2000/svg"><defs
     id="defs1" /><g
     id="layer7"
     transform="translate(-77.126034,-120.51768)"><g
       style="fill:none"
       id="g7"
       transform="matrix(0.26458333,0,0,0.26458333,77.126034,120.51768)"><path
         fill-rule="evenodd"
         clip-rule="evenodd"
         d="M 137.452,7.03002 C 125.518,3.15393 112.673,1.39819 99.3904,2.18368 42.3304,5.55806 -1.1908,54.5504 2.18367,111.61 c 0.06913,1.169 0.15987,2.332 0.267,3.49 l -1.997351,0.118 C 0.346894,114.061 0.256343,112.897 0.18722,111.728 -3.2522,53.5654 41.1098,3.62684 99.2724,0.187231 112.971,-0.622876 126.213,1.2188 138.498,5.26697 Z M 21.2904,169.062 C 11.5258,156.151 4.64151,140.883 1.65819,124.163 l 2.01202,-0.12 c 2.93694,16.245 9.62769,31.086 19.09939,43.66 z m 43.0115,33.583 C 48.167,195.788 34.0231,185.009 23.1392,171.438 l 1.4758,-1.358 c 10.6949,13.371 24.6113,23.989 40.4935,30.734 z M 192.562,165.087 c -17.798,25.965 -46.978,43.724 -80.834,45.726 -14.6733,0.868 -28.8222,-1.309 -41.834,-5.98 l 0.8077,-1.836 c 12.7283,4.55 26.5634,6.668 40.9083,5.819 33.239,-1.965 61.883,-19.412 79.339,-44.916 z M 151.38,12.7093 c -2.965,-1.4696 -6.007,-2.80106 -9.119,-3.98441 l 1.038,-1.74507 c 3.109,1.19556 6.151,2.53414 9.115,4.00858 z m 59.433,86.5628 c 1.288,21.7919 -4.133,42.4309 -14.478,59.9009 l -1.62,-1.192 C 204.797,140.88 210.076,120.697 208.816,99.3902 206.734,64.1737 187.275,34.1148 159.268,17.0549 l 1.03,-1.7156 c 28.554,17.3881 48.392,48.0326 50.515,83.9328 z"
         fill="#d4af37"
         id="path1-8" /></g></g></svg>
