<?xml version="1.0" encoding="UTF-8" standalone="no"?>
<!-- Created with Inkscape (http://www.inkscape.org/) -->

<svg
   width="55.827038mm"
   height="55.827084mm"
   viewBox="0 0 55.827038 55.827084"
   version="1.1"
   id="svg1"
   xml:space="preserve"
   xmlns="http://www.w3.org/2000/svg"
   xmlns:svg="http://www.w3.org/2000/svg"><defs
     id="defs1" /><g
     id="layer10"
     transform="translate(-77.126063,-120.51771)"><g
       style="fill:none"
       id="g10"
       transform="matrix(0.26458333,0,0,0.26458333,77.126063,120.51771)"><path
         fill-rule="evenodd"
         clip-rule="evenodd"
         d="m 114.887,208.578 c 12.494,-1.134 24.991,-4.575 36.889,-10.525 51.116,-25.558 71.835,-87.715 46.277,-138.83 -0.524,-1.0472 -1.065,-2.0809 -1.62,-3.1026 l 1.79,-0.8947 c 0.553,1.0222 1.095,2.0559 1.618,3.103 26.052,52.1033 4.933,115.4613 -47.17,141.5133 -12.272,6.135 -25.167,9.655 -38.053,10.769 z M 157.88,13.9384 c 14.057,8.024 26.393,19.3473 35.716,33.5406 l -1.803,0.9014 C 182.701,34.606 170.71,23.5984 157.057,15.7698 Z M 105.132,3.91297e-4 C 122.661,-0.0474505 139.902,4.29271 155.247,12.4821 l -0.822,1.8292 C 139.332,6.23098 122.364,1.94894 105.112,2.00036 Z M 2.03136,84.998 C 8.17031,54.129 27.9993,26.3227 58.3291,11.1578 71.4734,4.58558 85.3342,1.01757 99.1318,0.189511 L 99.1113,2.19483 C 85.6222,3.02289 72.0735,6.52115 59.2233,12.9462 29.4466,27.8348 9.98682,55.143 3.97958,85.4532 Z M 99.8503,208.84 c 3.3027,0.184 6.6237,0.211 9.9497,0.073 l -0.267,2.013 c -3.329,0.125 -6.651,0.091 -9.9557,-0.097 z M 11.1583,152.671 C 1.39735,133.149 -1.74149,112.046 0.890413,91.9185 l 1.957827,0.4574 c -2.535101,19.6861 0.55488,40.3131 10.09856,59.4001 15.7738,31.548 45.4879,51.517 77.9431,56.174 l -0.2717,1.983 C 57.5317,205.189 27.2384,184.831 11.1583,152.671 Z"
         fill="#d4af37"
         id="path1-0" /></g></g></svg>
