<?xml version="1.0" encoding="UTF-8" standalone="no"?>
<!-- Created with Inkscape (http://www.inkscape.org/) -->

<svg
   version="1.1"
   id="svg1"
   width="225.88983"
   height="211.21826"
   viewBox="0 0 225.88983 211.21826"
   xmlns="http://www.w3.org/2000/svg"
   xmlns:svg="http://www.w3.org/2000/svg">
  <defs
     id="defs1" />
  <g
     id="layer62"
     transform="translate(-410.53172,-454.98821)">
    <path
       id="path10"
       d="m 635.26199,547.53914 c 1.756,-0.22613 1.41667,-2.86013 -0.33933,-2.634 l -105.8492,13.63893 72.11773,-47.8308 c 1.4828,-0.96586 0.0333,-3.19 -1.4488,-2.22413 l -72.03706,47.80667 46.21,-72.3572 c 0.92133,-1.50587 -1.3376,-2.88774 -2.2588,-1.38187 l -46.436,72.63347 6.52133,-98.77267 c 0.13827,-1.76146 -2.50386,-1.9688 -2.64213,-0.20733 l -6.4664,98.1676 -27.682,-81.1728 c -0.6012,-1.6616 -3.09373,-0.75973 -2.49253,0.90187 l 27.73213,81.35613 -72.42373,-71.39907 c -1.252,-1.25013 -3.1272,0.62773 -1.87533,1.87787 l 72.66306,71.606 -77.67613,-25.54334 c -1.6772,-0.56013 -2.51733,1.9556 -0.84027,2.51587 l 77.51693,25.51627 -105.86413,13.61866 c -1.756,0.22627 -1.4168,2.86027 0.3392,2.634 l 105.85107,-13.63893 -72.1192,47.83133 c -1.4828,0.96587 -0.0333,3.19013 1.4488,2.22414 l 72.03733,-47.80667 -46.21027,72.3572 c -0.92133,1.50586 1.3376,2.88786 2.25894,1.38186 l 46.43586,-72.63293 -6.52146,98.77187 c -0.13827,1.76146 2.50386,1.9688 2.64213,0.20733 l 6.46627,-98.16706 27.68213,81.17239 c 0.6012,1.66174 3.09373,0.75987 2.49253,-0.90186 l -27.732,-81.35613 72.42347,71.39879 c 1.25186,1.25014 3.1272,-0.62773 1.8752,-1.87786 l -72.66267,-71.6056 77.676,25.54307 c 1.6772,0.56013 2.51733,-1.9556 0.84013,-2.51574 l -77.51733,-25.5164 z"
       style="fill:#d4af37;fill-opacity:1;fill-rule:nonzero;stroke:none;stroke-width:1.33333" />
  </g>
</svg>
