<?xml version="1.0" encoding="UTF-8" standalone="no"?>
<!-- Created with Inkscape (http://www.inkscape.org/) -->

<svg
   version="1.1"
   id="svg1"
   width="226.81004"
   height="199.59575"
   viewBox="0 0 226.81004 199.59575"
   xmlns="http://www.w3.org/2000/svg"
   xmlns:svg="http://www.w3.org/2000/svg">
  <defs
     id="defs1" />
  <g
     id="layer48"
     transform="translate(-427.40515,-436.53558)">
    <path
       id="path8"
       d="m 428.6199,528.0724 c -1.7632,-0.1508 -1.53706,-2.79573 0.22614,-2.64493 l 106.25439,9.09266 -71.07279,-42.76733 c -1.52414,-0.89747 -0.17814,-3.18374 1.34613,-2.28627 l 70.88653,42.68854 -54.102,-74.98867 c -1.00333,-1.4508 1.17294,-2.95587 2.17627,-1.50507 L 538.79243,531.07 527.9235,438.034 c -0.2304,-1.75054 2.39533,-2.09614 2.62573,-0.3456 l 10.77747,92.40413 25.25093,-89.0804 c 0.51387,-1.68947 3.04814,-0.91867 2.53427,0.7708 l -25.30907,89.32987 66.9176,-72.2416 c 1.192,-1.30614 3.1512,0.482 1.9592,1.78813 l -67.07466,72.37614 74.68386,-28.628 c 1.64667,-0.6412 2.60854,1.82893 0.96174,2.47013 l -74.63187,28.63747 106.38173,9.0792 c 1.7632,0.1508 1.53707,2.79573 -0.22613,2.64493 l -106.25587,-9.09267 71.074,42.7676 c 1.52414,0.89733 0.17814,3.18373 -1.346,2.28627 l -70.88706,-42.68853 54.10226,74.98879 c 1.00334,1.4508 -1.17293,2.95587 -2.17626,1.50507 l -54.45814,-75.4088 10.86934,93.036 c 0.23026,1.75053 -2.39547,2.09613 -2.62587,0.3456 L 540.29337,542.576 515.0427,631.6548 c -0.51387,1.68946 -3.04813,0.91866 -2.53426,-0.7708 l 25.30906,-89.3304 -66.9176,72.24186 c -1.192,1.30614 -3.1512,-0.482 -1.9592,-1.78813 l 67.07413,-72.37586 -74.68346,28.62786 c -1.64667,0.64133 -2.60853,-1.82893 -0.96173,-2.47013 l 74.63226,-28.6376 z"
       style="fill:#d4af37;fill-opacity:1;fill-rule:nonzero;stroke:none;stroke-width:1.33333" />
  </g>
</svg>
