<?xml version="1.0" encoding="UTF-8" standalone="no"?>
<!-- Created with Inkscape (http://www.inkscape.org/) -->

<svg
   version="1.1"
   id="svg1"
   width="224.97498"
   height="222.84866"
   viewBox="0 0 224.97498 222.84866"
   xmlns="http://www.w3.org/2000/svg"
   xmlns:svg="http://www.w3.org/2000/svg">
  <defs
     id="defs1" />
  <g
     id="layer65"
     transform="translate(-404.32248,-456.62751)">
    <path
       id="path2"
       d="m 405.42964,550.19681 c -1.7488,-0.3016 -1.29653,-2.92467 0.45227,-2.62307 l 105.4444,18.18507 -73.16293,-52.89427 c -1.44147,-1.0344 0.11066,-3.19653 1.5516,-2.16213 l 73.18746,52.9248 -38.31813,-69.7256 c -0.8392,-1.56093 1.5024,-2.81987 2.3416,-1.2588 l 38.41386,69.85813 -2.1736,-104.50906 c -0.0453,-1.7724 2.6124,-1.84147 2.65854,-0.0693 l 2.15533,103.93107 30.11307,-73.2652 c 0.68853,-1.63387 3.13933,-0.60107 2.4508,1.03293 l -30.1552,73.3824 77.93,-70.55653 c 1.31173,-1.19427 3.1032,0.77346 1.79146,1.96773 l -78.2516,70.8356 80.6684,-22.45853 c 1.70774,-0.47907 2.42627,2.0824 0.71867,2.56146 l -80.40187,22.39507 105.34653,18.15827 c 1.7488,0.3016 1.29654,2.92466 -0.45226,2.6232 l -105.44613,-18.1852 73.1644,52.8948 c 1.44133,1.0344 -0.11067,3.19653 -1.5516,2.16213 l -73.18774,-52.9248 38.31827,69.72546 c 0.8392,1.56094 -1.50227,2.81987 -2.34147,1.2588 l -38.41373,-69.85733 2.17373,104.508 c 0.0467,1.77227 -2.6124,1.84133 -2.65853,0.0693 l -2.15533,-103.93133 -30.11334,73.26573 c -0.68853,1.63387 -3.13933,0.60107 -2.4508,-1.03293 l 30.15494,-73.38226 -77.92947,70.55599 c -1.31173,1.19427 -3.1032,-0.77333 -1.79133,-1.9676 l 78.2512,-70.83546 -80.6684,22.45853 c -1.7076,0.47907 -2.42627,-2.0824 -0.71867,-2.56146 l 80.4024,-22.39507 z"
       style="fill:#d4af37;fill-opacity:1;fill-rule:nonzero;stroke:none;stroke-width:1.33333" />
  </g>
</svg>
