<?xml version="1.0" encoding="UTF-8" standalone="no"?>
<!-- Created with Inkscape (http://www.inkscape.org/) -->

<svg
   version="1.1"
   id="svg1"
   width="226.57941"
   height="202.50108"
   viewBox="0 0 226.57941 202.50108"
   xmlns="http://www.w3.org/2000/svg"
   xmlns:svg="http://www.w3.org/2000/svg">
  <defs
     id="defs1" />
  <g
     id="layer28"
     transform="translate(-426.06669,-518.29341)">
    <path
       id="path4-3"
       d="m 651.44545,610.08332 c 1.76133,-0.1696 1.50693,-2.81174 -0.25453,-2.64214 l -106.15293,10.22934 71.33399,-44.0332 c 1.51387,-0.91453 0.142,-3.18533 -1.37173,-2.2708 l -71.17426,43.96826 52.12866,-74.33066 c 0.9828,-1.46453 -1.21413,-2.9388 -2.19693,-1.47427 l -52.45213,74.7148 9.782,-94.47053 c 0.20733,-1.7532 -2.42267,-2.06427 -2.63,-0.31093 l -9.69947,93.84506 -25.8588,-87.10306 c -0.53573,-1.68254 -3.05947,-0.87894 -2.52373,0.8036 l 25.91493,87.33613 -68.2944,-72.03093 c -1.20707,-1.29214 -3.1452,0.5184 -1.93827,1.81053 l 68.472,72.1836 -75.432,-27.8568 c -1.6544,-0.62093 -2.58573,1.86067 -0.93133,2.4816 l 75.35307,27.85706 -106.25213,10.21427 c -1.76147,0.1696 -1.50707,2.81173 0.2544,2.64213 l 106.15479,-10.22933 -71.33546,44.03373 c -1.51387,0.91454 -0.14214,3.18534 1.37173,2.2708 l 71.17467,-43.96826 -52.12907,74.33065 c -0.9828,1.46468 1.21413,2.93895 2.19693,1.47428 l 52.45227,-74.71453 -9.78213,94.47 c -0.20734,1.75333 2.42253,2.06426 2.62986,0.31106 l 9.69947,-93.844 25.85867,87.102 c 0.5356,1.68254 3.05946,0.87894 2.52373,-0.8036 l -25.9148,-87.3364 68.29413,72.03093 c 1.20707,1.29213 3.1452,-0.5184 1.93827,-1.81054 l -68.47147,-72.18319 75.4316,27.85654 c 1.6544,0.62093 2.58587,-1.86067 0.93147,-2.4816 l -75.35373,-27.8572 z"
       style="fill:#d4af37;fill-opacity:1;fill-rule:nonzero;stroke:none;stroke-width:1.33333" />
  </g>
</svg>
