<?xml version="1.0" encoding="UTF-8" standalone="no"?>
<!-- Created with Inkscape (http://www.inkscape.org/) -->

<svg
   version="1.1"
   id="svg1"
   width="87.023407"
   height="89.403755"
   viewBox="0 0 87.023407 89.403755"
   xmlns="http://www.w3.org/2000/svg"
   xmlns:svg="http://www.w3.org/2000/svg">
  <defs
     id="defs1" />
  <g
     id="layer104"
     transform="translate(-364.4883,-483.29812)">
    <path
       id="path4"
       d="m 375.6536,507.90961 30.64093,18.45653 -19.84773,-35.67213 c -0.38053,-0.684 0.64533,-1.25467 1.02587,-0.5708 l 19.38453,34.83973 -4.6388,-33.98133 c -0.10533,-0.77547 1.05733,-0.93427 1.16307,-0.1588 l 4.7292,34.6428 14.19186,-41.76587 c 0.25187,-0.74108 1.36334,-0.36333 1.1116,0.3776 l -14.216,41.83706 24.39427,-23.36799 c 0.5652,-0.54147 1.37733,0.30626 0.81213,0.84773 l -24.99813,23.9464 41.34187,-12.79613 c 0.7476,-0.23147 1.09466,0.88999 0.34706,1.12146 l -39.4912,12.22334 35.9268,4.62693 c 0.77627,0.1 0.62627,1.26427 -0.14986,1.16427 l -36.8148,-4.7412 30.12493,18.14533 c 0.6704,0.40387 0.064,1.40947 -0.60573,1.00573 l -30.62334,-18.44573 19.8108,35.60559 c 0.38054,0.68387 -0.64533,1.25467 -1.02586,0.57067 l -19.38294,-34.83639 4.63907,33.98279 c 0.10533,0.77534 -1.05733,0.93414 -1.1632,0.1588 l -4.7192,-34.56959 -14.1844,41.74386 c -0.25173,0.74106 -1.36333,0.36332 -1.11147,-0.3776 l 14.216,-41.8372 -24.39426,23.368 c -0.5652,0.54147 -1.37734,-0.3064 -0.81214,-0.84773 l 23.66934,-22.6736 -39.75214,12.30399 c -0.7476,0.23148 -1.09466,-0.89 -0.34706,-1.12146 l 41.1804,-12.75267 -37.87694,-4.87813 c -0.77626,-0.1 -0.62626,-1.26427 0.14987,-1.1644 l 36.8148,4.74146 -30.12493,-18.14572 c -0.67054,-0.40387 -0.0653,-1.40947 0.60573,-1.0056 z"
       style="fill:#d4af37;fill-opacity:1;fill-rule:nonzero;stroke:none;stroke-width:1.33333" />
  </g>
</svg>
