<?xml version="1.0" encoding="UTF-8" standalone="no"?>
<!-- Created with Inkscape (http://www.inkscape.org/) -->

<svg
   version="1.1"
   id="svg1"
   width="224.97498"
   height="222.84898"
   viewBox="0 0 224.97498 222.84898"
   xmlns="http://www.w3.org/2000/svg"
   xmlns:svg="http://www.w3.org/2000/svg">
  <defs
     id="defs1" />
  <g
     id="layer75"
     transform="translate(-404.32248,-456.62735)">
    <path
       id="path12"
       d="m 628.1903,585.9071 c 1.7488,0.3016 1.29653,2.9247 -0.45227,2.6231 l -105.4444,-18.1851 73.16294,52.8943 c 1.44146,1.0344 -0.11067,3.1965 -1.5516,2.1621 l -73.18747,-52.9248 38.31813,69.7256 c 0.8392,1.5611 -1.5024,2.8199 -2.3416,1.2588 l -38.41386,-69.8581 2.1736,104.509 c 0.0467,1.7724 -2.6124,1.8415 -2.65854,0.069 l -2.15533,-103.9311 -30.11306,73.2652 c -0.68854,1.6339 -3.13934,0.6011 -2.4508,-1.0329 l 30.1552,-73.3824 -77.93,70.5565 c -1.31174,1.1943 -3.1032,-0.7735 -1.79147,-1.9677 l 78.2516,-70.8356 -80.6684,22.4585 c -1.70773,0.4791 -2.42627,-2.0823 -0.71867,-2.5615 l 80.40187,-22.395 -105.34653,-18.1583 c -1.7488,-0.3016 -1.29654,-2.9247 0.45226,-2.6232 l 105.44614,18.1852 -73.1644,-52.89481 c -1.44134,-1.0344 0.11066,-3.19654 1.5516,-2.16214 l 73.18773,52.92485 -38.31827,-69.72551 c -0.8392,-1.56093 1.50227,-2.81973 2.34147,-1.2588 l 38.41373,69.85731 -2.17373,-104.50798 c -0.0467,-1.77226 2.6124,-1.84133 2.65853,-0.0693 l 2.15533,103.93148 30.11334,-73.26588 c 0.68853,-1.63387 3.13933,-0.60093 2.4508,1.03293 l -30.15494,73.38225 77.92947,-70.55598 c 1.31173,-1.19427 3.1032,0.77333 1.79133,1.9676 l -78.2512,70.83548 80.6684,-22.4586 c 1.7076,-0.479 2.42627,2.0824 0.71867,2.5615 l -80.4024,22.3951 z"
       style="fill:#d4af37;fill-opacity:1;fill-rule:nonzero;stroke:none;stroke-width:1.33333" />
  </g>
</svg>
