<?xml version="1.0" encoding="UTF-8" standalone="no"?>
<!-- Created with Inkscape (http://www.inkscape.org/) -->

<svg
   version="1.1"
   id="svg1"
   width="227.27213"
   height="200.5273"
   viewBox="0 0 227.27213 200.5273"
   xmlns="http://www.w3.org/2000/svg"
   xmlns:svg="http://www.w3.org/2000/svg">
  <defs
     id="defs1" />
  <g
     id="layer27"
     transform="translate(-425.72033,-519.2803)">
    <path
       id="path5-9"
       d="m 651.74911,613.68106 c 1.7668,-0.11334 1.5972,-2.76334 -0.1696,-2.65027 l -106.45666,6.81973 70.55013,-40.23573 c 1.5448,-0.8632 0.25013,-3.1804 -1.2948,-2.31733 l -70.3112,40.12973 58.04746,-76.30427 c 1.0444,-1.42333 -1.09053,-2.98986 -2.13493,-1.56666 l -58.46853,76.7964 13.04253,-90.1684 c 0.27654,-1.74507 -2.34106,-2.15974 -2.6176,-0.41467 l -12.9328,89.52253 -24.03546,-93.0336 c -0.47014,-1.70346 -3.02534,-0.99813 -2.55507,0.70534 l 24.09773,93.3164 -64.1648,-72.66294 c -1.16213,-1.33413 -3.1632,0.40907 -2.0012,1.7432 l 64.2808,72.7612 -73.18786,-30.17026 c -1.6316,-0.68174 -2.65414,1.7656 -1.02254,2.44733 l 73.18934,30.19787 -106.64027,6.80973 c -1.76693,0.11333 -1.59733,2.76347 0.1696,2.6504 l 106.45853,-6.81987 -70.55173,40.23627 c -1.54493,0.86306 -0.25027,3.1804 1.29467,2.31733 l 70.31186,-40.12986 -58.048,76.30454 c -1.04426,1.4233 1.09067,2.99 2.13507,1.5667 l 58.4688,-76.79631 -13.04293,90.16801 c -0.27654,1.7451 2.34106,2.1597 2.6176,0.4145 l 12.93266,-89.52064 24.0352,93.03204 c 0.47014,1.7033 3.02534,0.998 2.55507,-0.7054 l -24.0976,-93.31691 64.16466,72.66311 c 1.16214,1.3341 3.1632,-0.4091 2.0012,-1.7432 l -64.28013,-72.76084 73.18733,30.16999 c 1.6316,0.68174 2.65427,-1.7656 1.02267,-2.44733 l -73.19,-30.19813 z"
       style="fill:#d4af37;fill-opacity:1;fill-rule:nonzero;stroke:none;stroke-width:1.33333" />
  </g>
</svg>
