<?xml version="1.0" encoding="UTF-8" standalone="no"?>
<!-- Created with Inkscape (http://www.inkscape.org/) -->

<svg
   version="1.1"
   id="svg1"
   width="223.85852"
   height="209.88828"
   viewBox="0 0 223.85852 209.88828"
   xmlns="http://www.w3.org/2000/svg"
   xmlns:svg="http://www.w3.org/2000/svg">
  <defs
     id="defs1" />
  <g
     id="layer98"
     transform="translate(-234.01596,-395.59805)">
    <path
       id="path11"
       d="m 277.80799,445.0509 63.90214,50.67854 -38.4864,-74.45654 c -0.8164,-1.5792 1.55253,-2.80373 2.36893,-1.2244 l 38.5848,74.64734 -3.10773,-97.72187 c -0.056,-1.77693 2.6088,-1.86173 2.6652,-0.0853 l 3.11613,97.7308 36.36373,-84.01174 c 0.70613,-1.63146 3.15333,-0.57226 2.4472,1.0592 l -36.61453,84.59174 50.91413,-40.38507 c 1.3928,-1.1048 3.05,0.9844 1.6572,2.0892 l -52.194,41.40013 106.80027,-25.67906 c 1.72853,-0.4156 2.352,2.1772 0.62346,2.5928 l -102.94333,24.7516 86.1792,18.80613 c 1.73693,0.37893 1.1684,2.9844 -0.5684,2.60533 l -88.4684,-19.3056 64.22747,50.9364 c 1.39293,1.10467 -0.264,3.194 -1.65694,2.08933 l -63.83933,-50.62866 38.38933,74.26826 c 0.81627,1.5792 -1.55266,2.80374 -2.36893,1.2244 l -38.5736,-74.62413 3.09973,97.71067 c 0.056,1.77693 -2.60893,1.86173 -2.66533,0.0853 l -3.09213,-97.58746 -36.3564,83.99533 c -0.70613,1.6316 -3.15347,0.57226 -2.4472,-1.0592 l 36.61467,-84.592 -50.91414,40.38493 c -1.3928,1.1048 -3.05,-0.98453 -1.6572,-2.0892 l 48.49827,-38.46866 -102.64053,24.6788 c -1.72854,0.4156 -2.35187,-2.1772 -0.62347,-2.5928 l 106.9328,-25.71067 -90.63253,-19.77813 c -1.73694,-0.37894 -1.1684,-2.98427 0.56853,-2.60534 l 88.46827,19.30574 -64.22787,-50.9368 c -1.39293,-1.10467 0.26413,-3.194 1.65693,-2.08934 z"
       style="fill:#d4af37;fill-opacity:1;fill-rule:nonzero;stroke:none;stroke-width:1.33333" />
  </g>
</svg>
