<?xml version="1.0" encoding="UTF-8" standalone="no"?>
<!-- Created with Inkscape (http://www.inkscape.org/) -->

<svg
   version="1.1"
   id="svg1"
   width="226.81004"
   height="199.59627"
   viewBox="0 0 226.81004 199.59627"
   xmlns="http://www.w3.org/2000/svg"
   xmlns:svg="http://www.w3.org/2000/svg">
  <defs
     id="defs1" />
  <g
     id="layer60"
     transform="translate(-410.07161,-460.79921)">
    <path
       id="path8"
       d="m 635.6669,552.33607 c 1.7632,-0.1508 1.53707,-2.79573 -0.22613,-2.64493 l -106.25414,9.0928 71.07254,-42.76747 c 1.52426,-0.89733 0.17813,-3.1836 -1.346,-2.28626 l -70.88654,42.6888 54.10147,-74.98854 c 1.00333,-1.4508 -1.17293,-2.95586 -2.17627,-1.50506 l -54.4576,75.40866 10.86894,-93.03653 c 0.23026,-1.75053 -2.39547,-2.096 -2.62587,-0.34547 l -10.77733,92.40427 -25.25093,-89.07987 c -0.51387,-1.68946 -3.04814,-0.91866 -2.53427,0.7708 l 25.3092,89.3296 -66.91787,-72.24173 c -1.192,-1.30613 -3.1512,0.482 -1.9592,1.78813 l 67.07493,72.37614 -74.68386,-28.62787 c -1.6468,-0.6412 -2.60867,1.82893 -0.96187,2.47013 l 74.632,28.63734 -106.38173,9.07946 c -1.7632,0.15067 -1.53707,2.7956 0.22613,2.6448 l 106.25613,-9.0928 -71.07426,42.76787 c -1.52413,0.89733 -0.17813,3.18373 1.346,2.28626 l 70.8872,-42.68879 -54.102,74.98866 c -1.00333,1.45093 1.17293,2.956 2.17627,1.50507 l 54.45773,-75.4084 -10.86907,93.03599 c -0.2304,1.75054 2.39547,2.096 2.62574,0.34547 l 10.77719,-92.40279 25.25094,89.07866 c 0.51373,1.68946 3.048,0.91853 2.53413,-0.77094 l -25.30907,-89.32986 66.91774,72.2416 c 1.192,1.30613 3.1512,-0.48187 1.95906,-1.788 l -67.07426,-72.37586 74.6836,28.62773 c 1.6468,0.6412 2.60853,-1.82894 0.96173,-2.47014 l -74.6324,-28.63746 z"
       style="fill:#d4af37;fill-opacity:1;fill-rule:nonzero;stroke:none;stroke-width:1.33333" />
  </g>
</svg>
