<?xml version="1.0" encoding="UTF-8" standalone="no"?>
<!-- Created with Inkscape (http://www.inkscape.org/) -->

<svg
   version="1.1"
   id="svg1"
   width="225.88979"
   height="211.21855"
   viewBox="0 0 225.88979 211.21855"
   xmlns="http://www.w3.org/2000/svg"
   xmlns:svg="http://www.w3.org/2000/svg">
  <defs
     id="defs1" />
  <g
     id="layer40"
     transform="translate(-416.06231,-430.83241)">
    <path
       id="path10"
       d="m 417.22188,523.38333 c -1.756,-0.22613 -1.41667,-2.86013 0.3392,-2.634 l 105.84933,13.63907 -72.11774,-47.83093 c -1.48293,-0.96587 -0.0347,-3.19013 1.4488,-2.22413 l 72.03707,47.80679 -46.20973,-72.35706 c -0.92134,-1.50587 1.3376,-2.88787 2.2588,-1.38187 l 46.43573,72.63333 -6.5212,-98.77279 c -0.13827,-1.76147 2.50387,-1.9688 2.64213,-0.20734 l 6.46627,98.16773 27.682,-81.17239 c 0.60133,-1.66174 3.09386,-0.75987 2.49253,0.90186 l -27.73213,81.35587 72.424,-71.39907 c 1.25186,-1.25026 3.1272,0.6276 1.8752,1.87787 l -72.6632,71.60586 77.67626,-25.5432 c 1.67707,-0.56013 2.51734,1.9556 0.84014,2.51587 l -77.51693,25.51613 105.86413,13.61894 c 1.756,0.22613 1.41666,2.86013 -0.3392,2.634 l -105.85107,-13.63907 72.1192,47.83133 c 1.4828,0.966 0.0347,3.19014 -1.4488,2.22427 l -72.03746,-47.8068 46.21013,72.35693 c 0.9212,1.506 -1.33774,2.88787 -2.25894,1.382 l -46.43559,-72.6328 6.52133,98.772 c 0.13827,1.76133 -2.50387,1.96867 -2.64213,0.20733 l -6.46627,-98.16719 -27.68213,81.17199 c -0.6012,1.66174 -3.09374,0.75987 -2.49254,-0.90173 l 27.73214,-81.356 -72.4236,71.3988 c -1.252,1.25014 -3.12734,-0.62773 -1.87534,-1.87786 l 72.6628,-71.6056 -77.676,25.54306 c -1.6772,0.56014 -2.51733,-1.95573 -0.84013,-2.51586 l 77.51733,-25.51627 z"
       style="fill:#d4af37;fill-opacity:1;fill-rule:nonzero;stroke:none;stroke-width:1.33333" />
  </g>
</svg>
