<svg width="251" height="944" viewBox="0 0 251 944" fill="none" xmlns="http://www.w3.org/2000/svg">
<rect x="0.5" y="0.5" width="250" height="943" rx="4.5" stroke="#9747FF" stroke-dasharray="10 5"/>
<g clip-path="url(#clip0_6491_7746)">
<path d="M163.21 722.085C151.525 717.511 138.806 715 125.5 715C68.3385 715 22 761.339 22 818.5C22 819.671 22.0219 820.838 22.0605 822H20.0596C20.0217 820.838 20 819.671 20 818.5C20 760.234 67.234 713 125.5 713C139.223 713 152.334 715.62 164.359 720.387L163.21 722.085ZM37.6826 876.982C28.6969 863.516 22.7256 847.868 20.7344 831H22.75C24.7231 847.39 30.526 862.601 39.2393 875.712L37.6826 876.982ZM78.6377 913.046C62.9352 905.248 49.452 893.653 39.3877 879.463L40.9414 878.194C50.8286 892.174 64.0941 903.595 79.5508 911.266L78.6377 913.046ZM208.895 883.124C189.595 907.994 159.417 924 125.5 924C110.801 924 96.8046 920.992 84.0908 915.561L85.0059 913.776C97.4439 919.069 111.13 922 125.5 922C158.799 922 188.423 906.274 207.355 881.845L208.895 883.124ZM176.779 728.577C173.906 726.935 170.948 725.426 167.911 724.061L169.05 722.38C172.084 723.757 175.041 725.273 177.913 726.92L176.779 728.577ZM231 818.5C231 840.331 224.369 860.614 213.011 877.443L211.464 876.158C222.538 859.681 229 839.845 229 818.5C229 783.221 211.349 752.065 184.397 733.381L185.527 731.729C213.005 750.773 231 782.536 231 818.5Z" fill="#D4AF37"/>
</g>
<g clip-path="url(#clip1_6491_7746)">
<path d="M221.915 625.21C226.489 613.525 229 600.806 229 587.5C229 530.339 182.661 484 125.5 484C124.329 484 123.162 484.022 122 484.061L122 482.06C123.162 482.022 124.329 482 125.5 482C183.766 482 231 529.234 231 587.5C231 601.223 228.38 614.334 223.613 626.359L221.915 625.21ZM67.0176 499.683C80.4837 490.697 96.1319 484.726 113 482.734L113 484.75C96.6097 486.723 81.3991 492.526 68.2881 501.239L67.0176 499.683ZM30.9541 540.638C38.7521 524.935 50.3467 511.452 64.5371 501.388L65.8057 502.941C51.8257 512.829 40.4052 526.094 32.7344 541.551L30.9541 540.638ZM60.876 670.895C36.0063 651.595 20 621.417 20 587.5C20 572.801 23.0084 558.805 28.4395 546.091L30.2236 547.006C24.9305 559.444 22 573.13 22 587.5C22 620.799 37.7262 650.423 62.1553 669.355L60.876 670.895ZM215.423 638.779C217.065 635.906 218.574 632.948 219.939 629.911L221.62 631.05C220.243 634.084 218.727 637.041 217.08 639.913L215.423 638.779ZM125.5 693C103.669 693 83.3862 686.369 66.5566 675.011L67.8418 673.464C84.3193 684.538 104.155 691 125.5 691C160.779 691 191.935 673.349 210.619 646.397L212.271 647.527C193.227 675.005 161.464 693 125.5 693Z" fill="#D4AF37"/>
</g>
<g clip-path="url(#clip2_6491_7746)">
<path d="M87.79 452.915C99.475 457.489 112.194 460 125.5 460C182.661 460 229 413.661 229 356.5C229 355.329 228.978 354.162 228.939 353H230.94C230.978 354.162 231 355.329 231 356.5C231 414.766 183.766 462 125.5 462C111.777 462 98.6665 459.38 86.6406 454.613L87.79 452.915ZM213.317 298.018C222.303 311.484 228.274 327.132 230.266 344H228.25C226.277 327.61 220.474 312.399 211.761 299.288L213.317 298.018ZM172.362 261.954C188.065 269.752 201.548 281.347 211.612 295.537L210.059 296.806C200.171 282.826 186.906 271.405 171.449 263.734L172.362 261.954ZM42.1055 291.876C61.4054 267.006 91.5829 251 125.5 251C140.199 251 154.195 254.008 166.909 259.439L165.994 261.224C153.556 255.931 139.87 253 125.5 253C92.2013 253 62.5768 268.726 43.6445 293.155L42.1055 291.876ZM74.2207 446.423C77.0935 448.065 80.052 449.574 83.0889 450.939L81.9502 452.62C78.9164 451.243 75.9591 449.727 73.0869 448.08L74.2207 446.423ZM20 356.5C20 334.669 26.6313 314.386 37.9893 297.557L39.5361 298.842C28.4624 315.319 22 335.155 22 356.5C22 391.779 39.6506 422.935 66.6025 441.619L65.4727 443.271C37.9948 424.227 20 392.464 20 356.5Z" fill="#D4AF37"/>
</g>
<g clip-path="url(#clip3_6491_7746)">
<path d="M29.085 87.79C24.5113 99.475 22 112.194 22 125.5C22 182.661 68.3385 229 125.5 229C126.671 229 127.838 228.978 129 228.939V230.94C127.838 230.978 126.671 231 125.5 231C67.234 231 20 183.766 20 125.5C20 111.777 22.6197 98.6665 27.3867 86.6406L29.085 87.79ZM183.982 213.317C170.516 222.303 154.868 228.274 138 230.266V228.25C154.39 226.277 169.601 220.474 182.712 211.761L183.982 213.317ZM220.046 172.362C212.248 188.065 200.653 201.548 186.463 211.612L185.194 210.059C199.174 200.171 210.595 186.906 218.266 171.449L220.046 172.362ZM190.124 42.1055C214.994 61.4054 231 91.5829 231 125.5C231 140.199 227.992 154.195 222.561 166.909L220.776 165.994C226.069 153.556 229 139.87 229 125.5C229 92.2013 213.274 62.5768 188.845 43.6445L190.124 42.1055ZM35.5771 74.2207C33.9354 77.0935 32.4264 80.052 31.0605 83.0889L29.3799 81.9502C30.7566 78.9164 32.2725 75.9591 33.9199 73.0869L35.5771 74.2207ZM125.5 20C147.331 20 167.614 26.6313 184.443 37.9893L183.158 39.5361C166.681 28.4624 146.845 22 125.5 22C90.2214 22 59.0653 39.6506 40.3809 66.6025L38.7285 65.4727C57.7733 37.9948 89.5357 20 125.5 20Z" fill="#D4AF37"/>
</g>
<defs>
<clipPath id="clip0_6491_7746">
<rect width="211" height="211" fill="white" transform="translate(20 713)"/>
</clipPath>
<clipPath id="clip1_6491_7746">
<rect width="211" height="211" fill="white" transform="translate(20 482)"/>
</clipPath>
<clipPath id="clip2_6491_7746">
<rect width="211" height="211" fill="white" transform="translate(20 251)"/>
</clipPath>
<clipPath id="clip3_6491_7746">
<rect width="211" height="211" fill="white" transform="translate(20 20)"/>
</clipPath>
</defs>
</svg>
