<svg width="260" height="944" viewBox="0 0 260 944" fill="none" xmlns="http://www.w3.org/2000/svg">
<path d="M218.001 645.235C218.001 646.064 217.329 646.735 216.501 646.735H135.535L185.641 670.101C186.392 670.451 186.717 671.344 186.367 672.095C186.017 672.845 185.123 673.17 184.373 672.82L134.712 649.663L187.022 710.597C187.562 711.226 187.491 712.173 186.863 712.713C186.234 713.252 185.286 713.18 184.747 712.552L132.289 651.445L147.628 711.282C147.834 712.084 147.349 712.902 146.546 713.108C145.744 713.314 144.927 712.83 144.721 712.027L129.238 651.631L113.251 731.383C113.089 732.195 112.298 732.721 111.486 732.558C110.674 732.395 110.148 731.605 110.311 730.793L126.031 652.376L85.3311 706.124C84.831 706.784 83.8899 706.914 83.2295 706.414C82.569 705.914 82.4384 704.973 82.9385 704.312L125.113 648.617L74.541 674.385C73.803 674.761 72.8997 674.467 72.5234 673.729C72.1474 672.991 72.4407 672.088 73.1787 671.712L122.199 646.735H41.5C40.6716 646.735 40 646.064 40 645.235C40.0002 644.407 40.6717 643.735 41.5 643.735H122.001L71.9902 620.416C71.2397 620.066 70.9148 619.173 71.2646 618.423C71.6148 617.672 72.508 617.347 73.2588 617.697L123.385 641.07L70.7559 579.769C70.2163 579.141 70.2887 578.194 70.917 577.654C71.5456 577.114 72.4926 577.187 73.0322 577.815L126.189 639.734L110.699 579.319C110.493 578.517 110.978 577.7 111.781 577.494C112.583 577.288 113.399 577.772 113.605 578.574L128.88 638.153L144.705 559.206C144.868 558.394 145.658 557.867 146.47 558.03C147.282 558.193 147.809 558.983 147.646 559.796L131.546 640.121L174.094 583.931C174.594 583.271 175.536 583.141 176.197 583.641C176.857 584.141 176.986 585.082 176.486 585.742L135.391 640.012L183.663 615.417C184.401 615.041 185.304 615.334 185.68 616.072C186.056 616.81 185.763 617.714 185.025 618.09L134.691 643.735H216.501C217.329 643.735 218 644.407 218.001 645.235Z" fill="#D4AF37"/>
<path d="M130.232 36C131.061 36 131.732 36.6716 131.732 37.5V118.466L155.098 68.3594C155.448 67.6087 156.341 67.284 157.092 67.6338C157.842 67.9839 158.167 68.8762 157.817 69.627L134.66 119.287L195.594 66.9775C196.223 66.438 197.17 66.5093 197.71 67.1377C198.249 67.7662 198.177 68.7133 197.549 69.2529L136.442 121.711L196.279 106.372C197.082 106.166 197.899 106.651 198.105 107.453C198.311 108.256 197.827 109.073 197.024 109.278L136.628 124.762L216.38 140.748C217.192 140.911 217.718 141.701 217.555 142.514C217.392 143.326 216.602 143.852 215.79 143.689L137.373 127.97L191.121 168.669C191.781 169.169 191.911 170.11 191.411 170.771C190.911 171.431 189.97 171.562 189.309 171.062L133.614 128.888L159.382 179.459C159.758 180.197 159.464 181.1 158.726 181.477C157.988 181.853 157.085 181.559 156.709 180.821L131.732 131.802V212.5C131.732 213.328 131.061 214 130.232 214C129.404 214 128.732 213.328 128.732 212.5V131.999L105.413 182.01C105.063 182.76 104.17 183.085 103.42 182.735C102.669 182.385 102.344 181.492 102.694 180.741L126.067 130.615L64.7663 183.244C64.1379 183.784 63.1908 183.711 62.6511 183.083C62.1115 182.454 62.1837 181.507 62.8122 180.968L124.731 127.811L64.3161 143.301C63.5137 143.506 62.6967 143.022 62.4909 142.22C62.2854 141.417 62.7687 140.6 63.571 140.395L123.15 125.119L44.2029 109.295C43.3908 109.132 42.8643 108.341 43.0271 107.529C43.1899 106.717 43.9805 106.191 44.7927 106.354L125.118 122.454L68.9284 79.9053C68.2681 79.4052 68.1383 78.4641 68.6384 77.8037C69.1385 77.1438 70.0787 77.014 70.739 77.5137L125.009 118.608L100.414 70.3369C100.038 69.5988 100.331 68.6955 101.069 68.3193C101.807 67.9432 102.711 68.2365 103.087 68.9746L128.732 119.309V37.5C128.732 36.6717 129.404 36.0002 130.232 36Z" fill="#D4AF37"/>
<path fill-rule="evenodd" clip-rule="evenodd" d="M193.095 227.588C193.663 228.156 193.663 229.077 193.095 229.645L137.616 285.178L187.96 266.837C188.715 266.563 189.549 266.952 189.824 267.707C190.098 268.462 189.709 269.297 188.955 269.572L139.059 287.75L216.656 293.665C217.457 293.727 218.056 294.425 217.996 295.226C217.934 296.027 217.236 296.627 216.436 296.567L138.62 290.635L190.131 321.155C190.822 321.564 191.05 322.457 190.641 323.149C190.233 323.841 189.342 324.069 188.65 323.659L136.657 292.855L180.35 358.52C180.795 359.188 180.613 360.091 179.945 360.537C179.277 360.982 178.375 360.801 177.93 360.132L134.969 295.566L143.91 360.346C144.02 361.141 143.464 361.876 142.669 361.986C141.874 362.096 141.139 361.54 141.029 360.744L131.764 293.617L114.769 345.977C114.521 346.741 113.7 347.159 112.937 346.911C112.173 346.663 111.756 345.842 112.004 345.078L128.478 294.325L73.1825 349.675C72.6148 350.243 71.6949 350.243 71.1268 349.675C70.5596 349.107 70.5593 348.185 71.1268 347.617L126.287 292.403L76.0406 310.71C75.2866 310.985 74.452 310.595 74.1778 309.841C73.9032 309.085 74.2925 308.25 75.0468 307.975L125.409 289.626L47.3432 283.678C46.5429 283.617 45.9435 282.918 46.0042 282.117C46.0652 281.315 46.7636 280.715 47.564 280.776L126.416 286.786L74.4046 255.973C73.7136 255.563 73.4855 254.671 73.8947 253.98C74.3034 253.288 75.1944 253.059 75.8853 253.469L127.176 283.855L83.9241 218.854C83.4794 218.185 83.6599 217.281 84.3279 216.836C84.9958 216.391 85.8987 216.572 86.3435 217.241L130.351 283.377L121.004 215.654C120.894 214.858 121.45 214.124 122.246 214.014C123.041 213.904 123.774 214.461 123.884 215.256L132.911 280.665L149.135 230.687C149.383 229.923 150.203 229.504 150.966 229.752C151.73 230.001 152.148 230.822 151.9 231.586L134.983 283.699L191.04 227.588C191.607 227.02 192.527 227.02 193.095 227.588Z" fill="#D4AF37"/>
<path fill-rule="evenodd" clip-rule="evenodd" d="M150.193 369.031C151.043 369.2 151.593 370.024 151.423 370.87L134.821 453.628L169.051 407.189C169.564 406.493 170.546 406.344 171.244 406.855C171.941 407.366 172.091 408.345 171.579 409.041L137.655 455.066L210.852 414.055C211.607 413.632 212.564 413.899 212.988 414.652C213.412 415.404 213.144 416.357 212.39 416.781L138.985 457.908L203.476 454.461C204.342 454.415 205.08 455.078 205.127 455.94C205.174 456.803 204.51 457.539 203.644 457.584L138.55 461.064L217.036 493.707C217.835 494.04 218.212 494.955 217.879 495.753C217.545 496.549 216.627 496.925 215.828 496.593L138.656 464.495L185.415 517.083C185.989 517.729 185.929 518.717 185.281 519.29C184.633 519.863 183.642 519.804 183.066 519.158L134.614 464.665L150.663 521.623C150.897 522.454 150.41 523.317 149.576 523.552C148.743 523.785 147.877 523.3 147.643 522.469L132.087 467.259L115.54 549.743C115.37 550.589 114.545 551.139 113.695 550.969C112.846 550.8 112.295 549.976 112.464 549.129L128.971 466.847L94.8091 513.198C94.2964 513.893 93.3142 514.042 92.617 513.531C91.9189 513.02 91.7688 512.041 92.2816 511.345L126.522 464.888L52.8839 506.15C52.129 506.573 51.1729 506.305 50.7484 505.553C50.3241 504.8 50.5923 503.847 51.3473 503.424L125.728 461.749L60.6126 465.231C59.7477 465.277 59.0094 464.615 58.963 463.753C58.9168 462.89 59.5798 462.154 60.4446 462.108L124.659 458.674L46.9648 426.361C46.1656 426.028 45.7878 425.112 46.1213 424.315C46.4547 423.519 47.3733 423.143 48.1725 423.475L127.223 456.352L78.3401 401.375C77.7657 400.729 77.8256 399.741 78.4738 399.168C79.1218 398.596 80.1124 398.655 80.6869 399.301L127.9 452.399L112.582 398.032C112.348 397.2 112.833 396.337 113.667 396.103C114.501 395.87 115.368 396.354 115.602 397.186L131.573 453.876L148.347 370.257C148.517 369.411 149.344 368.862 150.193 369.031Z" fill="#D4AF37"/>
</svg>
