<svg width="175" height="178" viewBox="0 0 175 178" fill="none" xmlns="http://www.w3.org/2000/svg">
<path d="M87.3524 178C86.5244 178 85.8524 177.329 85.8524 176.5V95.535L62.4864 145.641C62.1364 146.392 61.2444 146.716 60.4934 146.367C59.7424 146.017 59.4174 145.124 59.7674 144.374L82.9254 94.713L21.9905 147.023C21.362 147.562 20.4149 147.491 19.8752 146.863C19.3357 146.234 19.408 145.287 20.0364 144.748L81.1424 92.29L21.3059 107.628C20.5034 107.834 19.6855 107.35 19.4797 106.547C19.2741 105.745 19.7584 104.928 20.5608 104.722L80.9574 89.239L1.20528 73.252C0.393077 73.09 -0.133324 72.299 0.029576 71.487C0.192476 70.675 0.982978 70.148 1.79518 70.311L80.2124 86.031L26.4641 45.332C25.8037 44.831 25.674 43.89 26.1741 43.23C26.6742 42.57 27.6152 42.439 28.2756 42.939L83.9714 85.113L58.2034 34.541C57.8274 33.804 58.1204 32.9 58.8584 32.524C59.5964 32.148 60.5004 32.441 60.8764 33.179L85.8524 82.199V1.5C85.8524 0.672 86.5244 0 87.3524 0C88.1814 0.001 88.8524 0.672 88.8524 1.5V82.001L112.172 31.991C112.522 31.24 113.414 30.915 114.165 31.265C114.916 31.615 115.241 32.508 114.89 33.259L91.5174 83.385L152.818 30.756C153.447 30.217 154.394 30.289 154.933 30.917C155.473 31.546 155.401 32.493 154.772 33.033L92.8534 86.19L153.268 70.7C154.071 70.494 154.888 70.978 155.094 71.781C155.299 72.583 154.816 73.4 154.014 73.606L94.4344 88.881L173.382 104.706C174.194 104.869 174.72 105.659 174.557 106.471C174.395 107.283 173.604 107.81 172.792 107.647L92.4674 91.546L148.656 134.095C149.316 134.595 149.446 135.536 148.946 136.197C148.446 136.857 147.506 136.986 146.846 136.487L92.5754 95.392L117.171 143.664C117.547 144.402 117.254 145.305 116.515 145.681C115.777 146.057 114.874 145.764 114.498 145.026L88.8524 94.692V176.5C88.8524 177.329 88.1814 178 87.3524 178Z" fill="#D4AF37"/>
</svg>
