<svg width="176" height="174" viewBox="0 0 176 174" fill="none" xmlns="http://www.w3.org/2000/svg">
<path fill-rule="evenodd" clip-rule="evenodd" d="M133.836 167.68C133.088 168.102 132.134 167.837 131.708 167.087L90.0681 93.8058L94.7042 151.071C94.7739 151.93 94.1346 152.678 93.2753 152.745C92.4158 152.811 91.6626 152.168 91.5935 151.311L86.9983 94.5546L58.7891 172.972C58.4985 173.781 57.6049 174.199 56.7938 173.907C55.9823 173.612 55.5607 172.718 55.8519 171.91L84.1393 93.2705L37.9094 137.665C37.2897 138.261 36.3008 138.24 35.7017 137.618C35.1034 136.997 35.1213 136.011 35.7409 135.415L82.4031 90.6039L2.05044 116.802C1.23249 117.069 0.349481 116.621 0.0791807 115.803C-0.191119 114.985 0.252938 114.105 1.0714 113.839L80.0795 88.0802L10.536 78.6513C9.68146 78.5341 9.08023 77.7486 9.19292 76.8966C9.30556 76.0442 10.0895 75.4459 10.9438 75.5614L83.0071 85.3325L33.693 52.6995C32.9734 52.2244 32.7736 51.256 33.2475 50.5396C33.7216 49.823 34.6903 49.6275 35.4099 50.1037L83.2094 81.7354L41.7067 8.69466C41.2806 7.94524 41.5433 6.99485 42.2919 6.57212C43.042 6.15106 43.994 6.41546 44.42 7.16488L85.8209 80.0261L81.1926 22.8715C81.1232 22.013 81.7626 21.2635 82.622 21.1978C83.4813 21.1317 84.2346 21.7742 84.303 22.6324L88.943 79.9199L117.319 1.02638C117.611 0.218556 118.505 -0.199434 119.315 0.0936066C120.127 0.387552 120.549 1.28194 120.257 2.09119L91.5939 81.7776L138.269 36.9504C138.89 36.3548 139.877 36.3762 140.477 36.9982C141.074 37.6188 141.058 38.6051 140.439 39.2008L94.4078 83.4068L173.95 57.473C174.768 57.2065 175.65 57.6525 175.92 58.4706C176.192 59.2886 175.747 60.1688 174.929 60.4358L93.9996 86.8225L166.702 96.6807C167.556 96.7967 168.157 97.5821 168.045 98.4355C167.932 99.2878 167.149 99.8842 166.295 99.7693L96.075 90.2479L143.147 121.397C143.866 121.874 144.066 122.84 143.591 123.557C143.116 124.273 142.149 124.469 141.43 123.993L92.3478 91.513L134.422 165.557C134.848 166.308 134.586 167.257 133.836 167.68Z" fill="#D4AF37"/>
</svg>
