<svg width="158" height="164" viewBox="0 0 158 164" fill="none" xmlns="http://www.w3.org/2000/svg">
<path fill-rule="evenodd" clip-rule="evenodd" d="M155.651 43.9575C156.007 44.6651 155.718 45.5245 155.006 45.878L85.3812 80.4322L138.515 78.992C139.311 78.9704 139.975 79.594 139.997 80.3843C140.018 81.1739 139.39 81.8321 138.595 81.8538L85.9333 83.2818L157.115 112.968C157.85 113.274 158.195 114.113 157.887 114.842C157.578 115.57 156.733 115.913 155.999 115.607L84.6158 85.8373L123.533 130.365C124.055 130.961 123.99 131.867 123.389 132.385C122.787 132.903 121.877 132.839 121.354 132.241L82.0722 87.2982L102.615 162.193C102.825 162.955 102.371 163.742 101.602 163.949C100.834 164.157 100.041 163.707 99.8322 162.944L79.6339 89.3032L67.7451 152.549C67.5988 153.326 66.8454 153.838 66.0626 153.694C65.2796 153.549 64.7627 152.801 64.9085 152.024L77.2282 86.4865L44.8198 130.063C44.3469 130.699 43.4437 130.833 42.8028 130.364C42.1622 129.895 42.0261 128.999 42.4991 128.363L73.9132 86.1237L4.51861 120.564C3.80625 120.917 2.94022 120.631 2.58378 119.923C2.22794 119.217 2.51645 118.356 3.22872 118.003L72.4531 83.6471L19.4217 85.0866C18.6258 85.108 17.9625 84.4845 17.9408 83.6949C17.9191 82.9045 18.5474 82.246 19.3435 82.2243L72.4974 80.7818L0.883753 50.9191C0.14955 50.6135 -0.195405 49.774 0.112834 49.0451C0.421375 48.3157 1.26676 47.9739 2.00101 48.2799L74.335 78.4447L35.0387 33.4883C34.5165 32.8913 34.5814 31.9874 35.1835 31.4693C35.7848 30.9507 36.6951 31.0152 37.2172 31.6122L75.9693 75.9464L55.6333 1.80798C55.4243 1.04534 55.8773 0.257944 56.6456 0.0505317C57.4138 -0.156881 58.2069 0.292957 58.416 1.05646L79.1072 76.4888L91.5367 10.3692C91.6828 9.59244 92.4361 9.07984 93.2196 9.22477C94.0022 9.36992 94.5182 10.1177 94.3721 10.8943L82.3676 74.7544L113.303 33.1605C113.776 32.5246 114.678 32.3892 115.319 32.8585C115.96 33.3279 116.096 34.2247 115.623 34.8606L83.3664 78.2314L153.716 43.3174C154.428 42.9639 155.294 43.2509 155.651 43.9575Z" fill="#D4AF37"/>
</svg>
