<svg width="164" height="193" viewBox="0 0 164 193" fill="none" xmlns="http://www.w3.org/2000/svg">
<path fill-rule="evenodd" clip-rule="evenodd" d="M163.622 150.784C163.122 151.536 162.101 151.736 161.346 151.231L87.4514 101.951L119.045 153.625C119.518 154.4 119.276 155.406 118.502 155.874C117.728 156.341 116.716 156.092 116.243 155.318L84.9309 104.104L95.8063 191.168C95.9191 192.066 95.2804 192.881 94.3809 192.989C93.4802 193.094 92.6598 192.452 92.5482 191.556L81.6403 104.245L59.4383 167.811C59.141 168.663 58.204 169.11 57.3467 168.808C56.4906 168.507 56.0381 167.571 56.3352 166.717L78.7444 102.556L15.9043 165.105C15.2649 165.743 14.2244 165.738 13.5818 165.096C12.9392 164.454 12.9367 163.417 13.577 162.78L75.3659 101.279L5.70385 125.219C4.84771 125.512 3.91048 125.057 3.61036 124.203C3.31016 123.348 3.76027 122.415 4.61596 122.121L76.8022 97.3133L15.0584 89.8856C14.1574 89.7783 13.5098 88.9611 13.6128 88.0638C13.7162 87.1661 14.5312 86.5256 15.4322 86.634L75.2803 93.834L1.63033 44.7155C0.874285 44.2115 0.668357 43.1943 1.16883 42.443C1.67101 41.6936 2.68935 41.4926 3.44531 41.9965L76.9146 90.9941L45.3812 39.4214C44.908 38.6466 45.1507 37.6394 45.9248 37.1727C46.6987 36.7051 47.7105 36.9541 48.183 37.7285L79.79 89.4212L68.845 1.83042C68.7333 0.933639 69.3723 0.118722 70.2715 0.011552C71.1721 -0.0950091 71.9929 0.547595 72.1046 1.44589L83.1582 89.9181L105.572 25.7353C105.87 24.8826 106.806 24.4367 107.664 24.7393C108.519 25.0402 108.973 25.9762 108.676 26.8289L86.5707 90.1227L148.777 28.2047C149.417 27.568 150.456 27.5708 151.098 28.2127C151.742 28.8547 151.744 29.8919 151.104 30.5296L87.8133 93.5284L160.64 68.5008C161.495 68.2069 162.433 68.6618 162.733 69.5175C163.033 70.3724 162.583 71.3034 161.728 71.5982L91.3883 95.7705L150.325 102.861C151.226 102.97 151.873 103.785 151.768 104.682C151.665 105.58 150.852 106.221 149.951 106.113L88.4971 98.7191L163.16 148.512C163.916 149.017 164.123 150.034 163.622 150.784Z" fill="#D4AF37"/>
</svg>
