<svg width="177" height="169" viewBox="0 0 177 169" fill="none" xmlns="http://www.w3.org/2000/svg">
<path fill-rule="evenodd" clip-rule="evenodd" d="M176.879 93.2341C176.799 94.0484 176.069 94.6396 175.25 94.5551L95.2006 86.337L142.458 114.372C143.167 114.792 143.401 115.702 142.982 116.405C142.562 117.106 141.647 117.334 140.94 116.915L94.1026 89.1288L139.871 154.287C140.344 154.959 140.18 155.882 139.507 156.349C138.832 156.814 137.903 156.647 137.432 155.976L91.5325 90.6336L100.856 150.96C100.981 151.769 100.422 152.524 99.6084 152.644C98.7956 152.766 98.0352 152.207 97.9096 151.397L88.4984 90.5066L64.9065 167.214C64.667 167.995 63.8333 168.431 63.0464 168.189C62.2594 167.946 61.8158 167.117 62.0564 166.336L85.254 90.9126L39.768 139.571C39.2089 140.168 38.2659 140.2 37.6619 139.643C37.0577 139.085 37.0205 138.147 37.5791 137.549L84.7134 87.1274L32.1988 107.302C31.4324 107.597 30.5674 107.216 30.2674 106.454C29.9678 105.691 30.3465 104.833 31.1128 104.539L82.0155 84.9832L2.23054 76.791C1.41151 76.707 0.813614 75.9797 0.893954 75.1655C0.975578 74.3529 1.70449 73.7605 2.52341 73.8445L82.1126 82.0161L34.9456 54.0368C34.2377 53.6163 34.0031 52.7062 34.4228 52.0051C34.8423 51.303 35.7571 51.0745 36.4647 51.4945L83.7412 79.5391L37.693 13.9885C37.2212 13.3174 37.3852 12.3941 38.0587 11.9275C38.7331 11.461 39.6624 11.6288 40.1342 12.3009L86.6448 78.5121L77.2283 17.6017C77.1033 16.7926 77.6616 16.0393 78.4757 15.9189C79.2884 15.7975 80.0491 16.3558 80.1747 17.1649L89.4597 77.232L112.813 1.29909C113.054 0.51811 113.886 0.0802192 114.673 0.322739C115.46 0.565259 115.904 1.3952 115.663 2.17716L91.903 79.4354L139.456 28.5663C140.014 27.9688 140.957 27.9365 141.562 28.495C142.166 29.0531 142.203 29.9901 141.644 30.588L95.7155 79.7188L145.843 60.4626C146.609 60.1682 147.473 60.5476 147.772 61.3105C148.072 62.0734 147.695 62.9317 146.928 63.2261L94.66 83.3048L175.543 91.6086C176.362 91.6931 176.96 92.421 176.879 93.2341Z" fill="#D4AF37"/>
</svg>
