<svg width="556" height="704" viewBox="0 0 556 704" fill="none" xmlns="http://www.w3.org/2000/svg">
<g filter="url(#filter0_d_5687_8309)">
<path fill-rule="evenodd" clip-rule="evenodd" d="M134.954 6H445.225V4H134.954V6ZM124.881 4H58.3926V6H124.881V4ZM548 6H461.342V4H548C550.209 4 552 5.79086 552 8V388.372H550V8C550 6.89542 549.105 6 548 6ZM550 394.786H552V509.748H550V394.786ZM550 522.577V536.465H552V522.577H550ZM550 542.88H552V548.507H550V542.88ZM550 554.921V696C550 697.105 549.105 698 548 698H541.928V700H548C550.209 700 552 698.209 552 696V554.921H550ZM533.869 700V698H92.9554V700H533.869ZM47.5461 698H53.2422V700H47.5461V698ZM41.502 698V700H7.99999C5.79085 700 4 698.209 4 696V143.52H6V696C6 697.105 6.89543 698 7.99999 698H41.502ZM73.8945 698H65.9494V700H73.8945V698ZM24.1426 6L24.1426 4H8C5.79086 4 4 5.79087 4 8.00001V27.9656H6V8.00001C6 6.89543 6.89544 6 8 6H24.1426ZM4 37.9512V34.9555H6V37.9512H4ZM6 40.9469H4V119.465H6V40.9469ZM4 137.106V125.88H6V137.106H4Z" fill="#D4AF37"/>
</g>
<defs>
<filter id="filter0_d_5687_8309" x="0" y="0" width="556" height="704" filterUnits="userSpaceOnUse" color-interpolation-filters="sRGB">
<feFlood flood-opacity="0" result="BackgroundImageFix"/>
<feColorMatrix in="SourceAlpha" type="matrix" values="0 0 0 0 0 0 0 0 0 0 0 0 0 0 0 0 0 0 127 0" result="hardAlpha"/>
<feOffset/>
<feGaussianBlur stdDeviation="2"/>
<feComposite in2="hardAlpha" operator="out"/>
<feColorMatrix type="matrix" values="0 0 0 0 0 0 0 0 0 0 0 0 0 0 0 0 0 0 0.15 0"/>
<feBlend mode="normal" in2="BackgroundImageFix" result="effect1_dropShadow_5687_8309"/>
<feBlend mode="normal" in="SourceGraphic" in2="effect1_dropShadow_5687_8309" result="shape"/>
</filter>
</defs>
</svg>
