<svg width="260" height="944" viewBox="0 0 260 944" fill="none" xmlns="http://www.w3.org/2000/svg">
<rect x="0.498047" y="0.5" width="259" height="943" rx="4.5" stroke="#9747FF" stroke-dasharray="10 5"/>
<path d="M47.9976 818.059C47.9976 817.231 48.6691 816.559 49.4976 816.559L130.463 816.559L80.3569 793.193C79.6063 792.843 79.2816 791.951 79.6314 791.2C79.9814 790.449 80.8737 790.124 81.6245 790.474L131.285 813.632L78.9751 752.697C78.4356 752.069 78.5069 751.121 79.1353 750.582C79.7638 750.042 80.7109 750.115 81.2505 750.743L133.709 811.849L118.37 752.012C118.164 751.21 118.648 750.392 119.451 750.186C120.253 749.981 121.07 750.465 121.276 751.267L136.759 811.664L152.746 731.912C152.908 731.1 153.699 730.573 154.511 730.736C155.323 730.899 155.85 731.69 155.687 732.502L139.967 810.919L180.667 757.171C181.167 756.51 182.108 756.381 182.768 756.881C183.429 757.381 183.559 758.322 183.059 758.982L140.885 814.678L191.457 788.91C192.195 788.534 193.098 788.827 193.474 789.565C193.85 790.303 193.557 791.207 192.819 791.583L143.799 816.559L224.498 816.559C225.326 816.559 225.998 817.231 225.998 818.059C225.997 818.888 225.326 819.559 224.498 819.559L143.997 819.559L194.007 842.879C194.758 843.229 195.083 844.121 194.733 844.872C194.383 845.623 193.49 845.948 192.739 845.597L142.613 822.224L195.242 883.525C195.781 884.154 195.709 885.101 195.081 885.64C194.452 886.18 193.505 886.108 192.965 885.479L139.808 823.56L155.298 883.975C155.504 884.778 155.02 885.595 154.217 885.801C153.415 886.006 152.598 885.523 152.392 884.72L137.117 825.141L121.292 904.089C121.13 904.901 120.339 905.427 119.527 905.264C118.715 905.102 118.188 904.311 118.351 903.499L134.452 823.174L91.9028 879.363C91.4027 880.023 90.4617 880.153 89.8013 879.653C89.1413 879.153 89.0115 878.213 89.5112 877.553L130.606 823.282L82.3345 847.878C81.5964 848.254 80.693 847.96 80.3169 847.222C79.9408 846.484 80.234 845.581 80.9722 845.205L131.306 819.559L49.4976 819.559C48.6693 819.559 47.9978 818.888 47.9976 818.059Z" fill="#D4AF37"/>
<path d="M133.703 672.646C132.875 672.646 132.203 671.975 132.203 671.146L132.203 590.181L108.837 640.287C108.487 641.038 107.595 641.362 106.844 641.013C106.093 640.663 105.768 639.77 106.118 639.02L129.276 589.359L68.3411 641.669C67.7126 642.208 66.7655 642.137 66.2258 641.509C65.6863 640.88 65.7586 639.933 66.387 639.394L127.493 586.936L67.6565 602.274C66.854 602.48 66.0361 601.996 65.8303 601.193C65.6247 600.391 66.109 599.574 66.9114 599.368L127.308 583.885L47.5559 567.898C46.7437 567.736 46.2173 566.945 46.3802 566.133C46.5431 565.321 47.3336 564.794 48.1458 564.957L126.563 580.677L72.8147 539.978C72.1543 539.477 72.0246 538.536 72.5247 537.876C73.0248 537.216 73.9658 537.085 74.6262 537.585L130.322 579.759L104.554 529.187C104.178 528.45 104.471 527.546 105.209 527.17C105.947 526.794 106.851 527.087 107.227 527.825L132.203 576.845L132.203 496.146C132.203 495.318 132.875 494.646 133.703 494.646C134.532 494.647 135.203 495.318 135.203 496.146L135.203 576.647L158.523 526.637C158.873 525.886 159.765 525.561 160.516 525.911C161.267 526.261 161.592 527.154 161.241 527.905L137.868 578.031L199.169 525.402C199.798 524.863 200.745 524.935 201.284 525.563C201.824 526.192 201.752 527.139 201.123 527.679L139.204 580.836L199.619 565.346C200.422 565.14 201.239 565.624 201.445 566.427C201.65 567.229 201.167 568.046 200.365 568.252L140.785 583.527L219.733 599.352C220.545 599.515 221.071 600.305 220.908 601.117C220.746 601.929 219.955 602.456 219.143 602.293L138.818 586.192L195.007 628.741C195.667 629.241 195.797 630.182 195.297 630.843C194.797 631.503 193.857 631.632 193.197 631.133L138.926 590.038L163.522 638.31C163.898 639.048 163.605 639.951 162.866 640.327C162.128 640.703 161.225 640.41 160.849 639.672L135.203 589.338L135.203 671.146C135.203 671.975 134.532 672.646 133.703 672.646Z" fill="#D4AF37"/>
<path d="M219.292 355.941C219.292 356.77 218.62 357.441 217.792 357.441L136.826 357.441L186.932 380.807C187.683 381.157 188.008 382.05 187.658 382.801C187.308 383.551 186.415 383.876 185.665 383.526L136.004 360.369L188.314 421.303C188.854 421.932 188.782 422.879 188.154 423.419C187.525 423.958 186.578 423.886 186.039 423.258L133.581 362.151L148.919 421.988C149.125 422.79 148.641 423.608 147.838 423.814C147.036 424.02 146.219 423.536 146.013 422.733L130.53 362.337L114.543 442.089C114.381 442.901 113.59 443.427 112.778 443.264C111.966 443.101 111.439 442.311 111.602 441.499L127.322 363.082L86.6226 416.83C86.1225 417.49 85.1814 417.62 84.521 417.12C83.8605 416.62 83.7299 415.679 84.23 415.018L126.404 359.323L75.8325 385.091C75.0945 385.467 74.1912 385.173 73.8149 384.435C73.4389 383.697 73.7322 382.794 74.4702 382.418L123.49 357.441L42.7915 357.441C41.9631 357.441 41.2915 356.77 41.2915 355.941C41.2917 355.113 41.9632 354.441 42.7915 354.441L123.292 354.441L73.2817 331.122C72.5312 330.772 72.2063 329.879 72.5561 329.129C72.9063 328.378 73.7995 328.053 74.5503 328.403L124.676 351.776L72.0474 290.475C71.5078 289.847 71.5802 288.9 72.2085 288.36C72.8371 287.82 73.7841 287.893 74.3237 288.521L127.481 350.44L111.991 290.025C111.785 289.223 112.269 288.406 113.072 288.2C113.874 287.994 114.691 288.478 114.897 289.28L130.172 348.859L145.997 269.912C146.16 269.1 146.95 268.573 147.762 268.736C148.574 268.899 149.101 269.689 148.938 270.502L132.837 350.827L175.386 294.637C175.886 293.977 176.827 293.847 177.488 294.347C178.148 294.847 178.278 295.788 177.778 296.448L136.683 350.718L184.955 326.123C185.693 325.747 186.596 326.04 186.972 326.778C187.348 327.516 187.055 328.42 186.317 328.796L135.983 354.441L217.792 354.441C218.62 354.441 219.291 355.113 219.292 355.941Z" fill="#D4AF37"/>
<path d="M130.232 36C131.061 36 131.732 36.6716 131.732 37.5V118.466L155.098 68.3594C155.448 67.6087 156.341 67.284 157.092 67.6338C157.842 67.9839 158.167 68.8762 157.817 69.627L134.66 119.287L195.594 66.9775C196.223 66.438 197.17 66.5093 197.71 67.1377C198.249 67.7662 198.177 68.7133 197.549 69.2529L136.442 121.711L196.279 106.372C197.082 106.166 197.899 106.651 198.105 107.453C198.311 108.256 197.827 109.073 197.024 109.278L136.628 124.762L216.38 140.748C217.192 140.911 217.718 141.701 217.555 142.514C217.392 143.326 216.602 143.852 215.79 143.689L137.373 127.97L191.121 168.669C191.781 169.169 191.911 170.11 191.411 170.771C190.911 171.431 189.97 171.562 189.309 171.062L133.614 128.888L159.382 179.459C159.758 180.197 159.464 181.1 158.726 181.477C157.988 181.853 157.085 181.559 156.709 180.821L131.732 131.802L131.732 212.5C131.732 213.328 131.061 214 130.232 214C129.404 214 128.732 213.328 128.732 212.5L128.732 131.999L105.413 182.01C105.063 182.76 104.17 183.085 103.42 182.735C102.669 182.385 102.344 181.492 102.694 180.741L126.067 130.615L64.7663 183.244C64.1379 183.784 63.1908 183.711 62.6511 183.083C62.1115 182.454 62.1837 181.507 62.8122 180.968L124.731 127.811L64.3161 143.301C63.5137 143.506 62.6967 143.022 62.4909 142.22C62.2854 141.417 62.7687 140.6 63.571 140.395L123.15 125.119L44.2029 109.295C43.3908 109.132 42.8643 108.341 43.0271 107.529C43.1899 106.717 43.9805 106.191 44.7927 106.354L125.118 122.454L68.9284 79.9053C68.2681 79.4052 68.1383 78.4641 68.6384 77.8037C69.1385 77.1438 70.0787 77.014 70.739 77.5137L125.009 118.608L100.414 70.3369C100.038 69.5988 100.331 68.6955 101.069 68.3193C101.807 67.9432 102.711 68.2365 103.087 68.9746L128.732 119.309V37.5C128.732 36.6717 129.404 36.0002 130.232 36Z" fill="#D4AF37"/>
</svg>
