<?xml version="1.0" encoding="UTF-8" standalone="no"?>
<!-- Created with Inkscape (http://www.inkscape.org/) -->

<svg
   width="55.827084mm"
   height="55.827084mm"
   viewBox="0 0 55.827084 55.827084"
   version="1.1"
   id="svg1"
   xml:space="preserve"
   xmlns="http://www.w3.org/2000/svg"
   xmlns:svg="http://www.w3.org/2000/svg"><defs
     id="defs1" /><g
     id="layer5"
     transform="translate(-77.126042,-120.51771)"><g
       style="fill:none"
       id="g5"
       transform="matrix(0.26458333,0,0,0.26458333,77.126042,120.51771)"><path
         d="M 9.085,67.79 C 4.5113,79.475 2,92.194 2,105.5 2,162.661 48.3385,209 105.5,209 c 1.171,0 2.338,-0.022 3.5,-0.061 v 2.001 c -1.162,0.038 -2.329,0.06 -3.5,0.06 C 47.234,211 0,163.766 0,105.5 0,91.777 2.6197,78.6665 7.3867,66.6406 Z m 154.897,125.527 c -13.466,8.986 -29.114,14.957 -45.982,16.949 v -2.016 c 16.39,-1.973 31.601,-7.776 44.712,-16.489 z m 36.064,-40.955 c -7.798,15.703 -19.393,29.186 -33.583,39.25 l -1.269,-1.553 c 13.98,-9.888 25.401,-23.153 33.072,-38.61 z M 170.124,22.1055 C 194.994,41.4054 211,71.5829 211,105.5 c 0,14.699 -3.008,28.695 -8.439,41.409 l -1.785,-0.915 C 206.069,133.556 209,119.87 209,105.5 209,72.2013 193.274,42.5768 168.845,23.6445 Z M 15.5771,54.2207 c -1.6417,2.8728 -3.1507,5.8313 -4.5166,8.8682 L 9.3799,61.9502 c 1.3767,-3.0338 2.8926,-5.9911 4.54,-8.8633 z M 105.5,0 c 21.831,0 42.114,6.6313 58.943,17.9893 l -1.285,1.5468 C 146.681,8.4624 126.845,2 105.5,2 70.2214,2 39.0653,19.6506 20.3809,46.6025 L 18.7285,45.4727 C 37.7733,17.9948 69.5357,0 105.5,0 Z"
         fill="#d4af37"
         id="path1-3" /></g></g></svg>
