<svg width="94" height="55" viewBox="0 0 94 55" fill="none" xmlns="http://www.w3.org/2000/svg">
<g clip-path="url(#clip0_6491_7697)">
<path d="M6.06445 26.3652L12.1735 20.2741C31.7065 0.798195 63.4179 0.798193 82.951 20.2741L89.0599 26.3652L82.9509 32.4564C63.4179 51.9323 31.7065 51.9323 12.1735 32.4564L6.06445 26.3652Z" stroke="#D4AF37" stroke-width="4" stroke-miterlimit="10"/>
<path d="M47.62 47.0765C59.093 47.0765 68.3938 37.8029 68.3938 26.3634C68.3938 14.9239 59.093 5.65039 47.62 5.65039C36.1469 5.65039 26.8462 14.9239 26.8462 26.3634C26.8462 37.8029 36.1469 47.0765 47.62 47.0765Z" stroke="#D4AF37" stroke-width="4" stroke-miterlimit="10"/>
<path d="M47.5718 34.392C52.019 34.392 55.6241 30.7974 55.6241 26.3632C55.6241 21.9291 52.019 18.3345 47.5718 18.3345C43.1247 18.3345 39.5195 21.9291 39.5195 26.3632C39.5195 30.7974 43.1247 34.392 47.5718 34.392Z" stroke="#D4AF37" stroke-width="4" stroke-miterlimit="10"/>
</g>
<defs>
<clipPath id="clip0_6491_7697">
<rect width="94" height="54.4211" fill="white" transform="translate(0 0.105469)"/>
</clipPath>
</defs>
</svg>
