<svg width="94" height="55" viewBox="0 0 94 55" fill="none" xmlns="http://www.w3.org/2000/svg">
<g clip-path="url(#clip0_6491_7689)">
<path d="M6.06445 26.5229L12.1735 20.4318C31.7065 0.955909 63.4179 0.955908 82.951 20.4318L89.0599 26.5229L82.9509 32.6141C63.4179 52.09 31.7065 52.09 12.1735 32.6141L6.06445 26.5229Z" stroke="#D4AF37" stroke-width="4" stroke-miterlimit="10"/>
<path d="M47.62 47.2342C59.093 47.2342 68.3938 37.9606 68.3938 26.5211C68.3938 15.0816 59.093 5.80811 47.62 5.80811C36.1469 5.80811 26.8462 15.0816 26.8462 26.5211C26.8462 37.9606 36.1469 47.2342 47.62 47.2342Z" stroke="#D4AF37" stroke-width="4" stroke-miterlimit="10"/>
<path d="M40.5718 34.5497C45.019 34.5497 48.6241 30.9551 48.6241 26.5209C48.6241 22.0868 45.019 18.4922 40.5718 18.4922C36.1247 18.4922 32.5195 22.0868 32.5195 26.5209C32.5195 30.9551 36.1247 34.5497 40.5718 34.5497Z" stroke="#D4AF37" stroke-width="4" stroke-miterlimit="10"/>
</g>
<defs>
<clipPath id="clip0_6491_7689">
<rect width="94" height="54.4211" fill="white" transform="translate(0 0.263184)"/>
</clipPath>
</defs>
</svg>
