<svg width="211" height="211" viewBox="0 0 211 211" fill="none" xmlns="http://www.w3.org/2000/svg">
<path d="M201.915 143.21C206.489 131.525 209 118.806 209 105.5C209 48.339 162.661 2 105.5 2C104.329 2 103.162 2.022 102 2.061V0.0599976C103.162 0.0219976 104.329 0 105.5 0C163.766 0 211 47.234 211 105.5C211 119.223 208.38 132.334 203.613 144.359L201.915 143.21ZM47.0176 17.683C60.4837 8.69701 76.1319 2.72601 93 0.734009V2.75C76.6097 4.723 61.3991 10.526 48.2881 19.239L47.0176 17.683ZM10.9541 58.638C18.7521 42.935 30.3467 29.452 44.5371 19.388L45.8057 20.941C31.8257 30.829 20.4052 44.094 12.7344 59.551L10.9541 58.638ZM40.876 188.895C16.0063 169.595 0 139.417 0 105.5C0 90.801 3.0084 76.805 8.4395 64.091L10.2236 65.006C4.9305 77.444 2 91.13 2 105.5C2 138.799 17.7262 168.423 42.1553 187.355L40.876 188.895ZM195.423 156.779C197.065 153.906 198.574 150.948 199.939 147.911L201.62 149.05C200.243 152.084 198.727 155.041 197.08 157.913L195.423 156.779ZM105.5 211C83.669 211 63.3862 204.369 46.5566 193.011L47.8418 191.464C64.3193 202.538 84.155 209 105.5 209C140.779 209 171.935 191.349 190.619 164.397L192.271 165.527C173.227 193.005 141.464 211 105.5 211Z" fill="#D4AF37"/>
</svg>
