<svg width="211" height="211" viewBox="0 0 211 211" fill="none" xmlns="http://www.w3.org/2000/svg">
<path d="M143.21 9.08502C131.525 4.51102 118.806 2 105.5 2C48.3385 2 2 48.339 2 105.5C2 106.671 2.0219 107.838 2.0605 109H0.0596008C0.0217008 107.838 0 106.671 0 105.5C0 47.234 47.234 0 105.5 0C119.223 0 132.334 2.62002 144.359 7.38702L143.21 9.08502ZM17.6826 163.982C8.6969 150.516 2.7256 134.868 0.7344 118H2.75C4.7231 134.39 10.526 149.601 19.2393 162.712L17.6826 163.982ZM58.6377 200.046C42.9352 192.248 29.452 180.653 19.3877 166.463L20.9414 165.194C30.8286 179.174 44.0941 190.595 59.5508 198.266L58.6377 200.046ZM188.895 170.124C169.595 194.994 139.417 211 105.5 211C90.801 211 76.8046 207.992 64.0908 202.561L65.0059 200.776C77.4439 206.069 91.13 209 105.5 209C138.799 209 168.423 193.274 187.355 168.845L188.895 170.124ZM156.779 15.577C153.906 13.935 150.948 12.426 147.911 11.061L149.05 9.38C152.084 10.757 155.041 12.273 157.913 13.92L156.779 15.577ZM211 105.5C211 127.331 204.369 147.614 193.011 164.443L191.464 163.158C202.538 146.681 209 126.845 209 105.5C209 70.221 191.349 39.065 164.397 20.381L165.527 18.729C193.005 37.773 211 69.536 211 105.5Z" fill="#D4AF37"/>
</svg>
