<svg width="211" height="211" viewBox="0 0 211 211" fill="none" xmlns="http://www.w3.org/2000/svg">
<path d="M67.79 201.915C79.475 206.489 92.194 209 105.5 209C162.661 209 209 162.661 209 105.5C209 104.329 208.978 103.162 208.939 102H210.94C210.978 103.162 211 104.329 211 105.5C211 163.766 163.766 211 105.5 211C91.777 211 78.6665 208.38 66.6406 203.613L67.79 201.915ZM193.317 47.018C202.303 60.484 208.274 76.132 210.266 93H208.25C206.277 76.61 200.474 61.399 191.761 48.288L193.317 47.018ZM152.362 10.954C168.065 18.752 181.548 30.347 191.612 44.537L190.059 45.806C180.171 31.826 166.906 20.405 151.449 12.734L152.362 10.954ZM22.1055 40.876C41.4054 16.006 71.5829 0 105.5 0C120.199 0 134.195 3.008 146.909 8.439L145.994 10.224C133.556 4.931 119.87 2 105.5 2C72.2013 2 42.5768 17.726 23.6445 42.155L22.1055 40.876ZM54.2207 195.423C57.0935 197.065 60.052 198.574 63.0889 199.939L61.9502 201.62C58.9164 200.243 55.9591 198.727 53.0869 197.08L54.2207 195.423ZM0 105.5C0 83.669 6.6313 63.386 17.9893 46.557L19.5361 47.842C8.4624 64.319 2 84.155 2 105.5C2 140.779 19.6506 171.935 46.6025 190.619L45.4727 192.271C17.9948 173.227 0 141.464 0 105.5Z" fill="#D4AF37"/>
</svg>
