<svg width="211" height="211" viewBox="0 0 211 211" fill="none" xmlns="http://www.w3.org/2000/svg">
<path d="M9.085 67.79C4.5113 79.475 2 92.194 2 105.5C2 162.661 48.3385 209 105.5 209C106.671 209 107.838 208.978 109 208.939V210.94C107.838 210.978 106.671 211 105.5 211C47.234 211 0 163.766 0 105.5C0 91.777 2.6197 78.6665 7.3867 66.6406L9.085 67.79ZM163.982 193.317C150.516 202.303 134.868 208.274 118 210.266V208.25C134.39 206.277 149.601 200.474 162.712 191.761L163.982 193.317ZM200.046 152.362C192.248 168.065 180.653 181.548 166.463 191.612L165.194 190.059C179.174 180.171 190.595 166.906 198.266 151.449L200.046 152.362ZM170.124 22.1055C194.994 41.4054 211 71.5829 211 105.5C211 120.199 207.992 134.195 202.561 146.909L200.776 145.994C206.069 133.556 209 119.87 209 105.5C209 72.2013 193.274 42.5768 168.845 23.6445L170.124 22.1055ZM15.5771 54.2207C13.9354 57.0935 12.4264 60.052 11.0605 63.0889L9.3799 61.9502C10.7566 58.9164 12.2725 55.9591 13.9199 53.0869L15.5771 54.2207ZM105.5 0C127.331 0 147.614 6.6313 164.443 17.9893L163.158 19.5361C146.681 8.4624 126.845 2 105.5 2C70.2214 2 39.0653 19.6506 20.3809 46.6025L18.7285 45.4727C37.7733 17.9948 69.5357 0 105.5 0Z" fill="#D4AF37"/>
</svg>
