<svg width="211" height="211" viewBox="0 0 211 211" fill="none" xmlns="http://www.w3.org/2000/svg">
<path fill-rule="evenodd" clip-rule="evenodd" d="M40.7777 24.7219C30.9847 32.5641 22.4626 42.3316 15.8236 53.8606C-12.697 103.388 4.33198 166.659 53.8592 195.179C54.8738 195.764 55.8959 196.327 56.922 196.873L55.9236 198.607C54.8979 198.06 53.876 197.497 52.8613 196.912C2.37722 167.841 -14.981 103.347 14.0907 52.8627C20.9378 40.9724 29.7492 30.9202 39.8794 22.8787L40.7777 24.7219ZM112.355 210.77C96.2043 211.837 79.6669 209.203 64.0583 202.513L65.064 200.766C80.2494 207.235 96.3243 209.796 112.032 208.788L112.355 210.77ZM164.037 193.279C149.446 202.994 132.672 208.891 115.356 210.531L115.031 208.552C132.077 206.96 148.592 201.165 162.951 191.6L164.037 193.279ZM203.103 65.4889C215.022 94.6201 213.833 128.753 196.91 158.141C189.576 170.877 179.986 181.503 168.937 189.809L167.847 188.126C178.639 179.99 188.007 169.594 195.177 157.143C211.792 128.291 212.947 94.7767 201.227 66.1839L203.103 65.4889ZM53.1729 16.2039C50.3171 17.8737 47.5337 19.6842 44.8347 21.6345L43.947 19.8092C46.6536 17.8677 49.4424 16.0616 52.3028 14.3948L53.1729 16.2039ZM158.139 14.0914C177.055 24.9839 191.32 40.8498 200.234 59.0878L198.349 59.7868C189.598 41.9709 175.636 26.4743 157.141 15.8243C126.575 -1.77814 90.7728 -2.03014 61.1361 11.9999L60.2681 10.1968C90.4796 -4.10939 126.978 -3.85282 158.139 14.0914Z" fill="#D4AF37"/>
</svg>
