<svg width="211" height="211" viewBox="0 0 211 211" fill="none" xmlns="http://www.w3.org/2000/svg">
<path fill-rule="evenodd" clip-rule="evenodd" d="M114.887 208.578C127.381 207.444 139.878 204.003 151.776 198.053C202.892 172.495 223.611 110.338 198.053 59.223C197.529 58.1758 196.988 57.1421 196.433 56.1204L198.223 55.2257C198.776 56.2479 199.318 57.2816 199.841 58.3287C225.893 110.432 204.774 173.79 152.671 199.842C140.399 205.977 127.504 209.497 114.618 210.611L114.887 208.578ZM157.88 13.9384C171.937 21.9624 184.273 33.2857 193.596 47.479L191.793 48.3804C182.701 34.606 170.71 23.5984 157.057 15.7698L157.88 13.9384ZM105.132 0.000391297C122.661 -0.0474505 139.902 4.29271 155.247 12.4821L154.425 14.3113C139.332 6.23098 122.364 1.94894 105.112 2.00036L105.132 0.000391297ZM2.03136 84.998C8.17031 54.129 27.9993 26.3227 58.3291 11.1578C71.4734 4.58558 85.3342 1.01757 99.1318 0.189511L99.1113 2.19483C85.6222 3.02289 72.0735 6.52115 59.2233 12.9462C29.4466 27.8348 9.98682 55.143 3.97958 85.4532L2.03136 84.998ZM99.8503 208.84C103.153 209.024 106.474 209.051 109.8 208.913L109.533 210.926C106.204 211.051 102.882 211.017 99.5773 210.829L99.8503 208.84ZM11.1583 152.671C1.39735 133.149 -1.74149 112.046 0.890413 91.9185L2.84824 92.3759C0.313139 112.062 3.40312 132.689 12.9468 151.776C28.7206 183.324 58.4347 203.293 90.8899 207.95L90.6182 209.933C57.5317 205.189 27.2384 184.831 11.1583 152.671Z" fill="#D4AF37"/>
</svg>
