<svg width="211" height="211" viewBox="0 0 211 211" fill="none" xmlns="http://www.w3.org/2000/svg">
<path fill-rule="evenodd" clip-rule="evenodd" d="M208.578 96.1129C207.444 83.6187 204.003 71.1222 198.053 59.2235C172.495 8.10836 110.338 -12.6105 59.223 12.9471C58.1759 13.4706 57.1421 14.0121 56.1202 14.5665L55.2256 12.7771C56.2478 12.2236 57.2816 11.6822 58.3288 11.1586C110.432 -14.8931 173.79 6.22601 199.842 58.3293C205.977 70.6009 209.497 83.4966 210.611 96.3811L208.578 96.1129ZM13.9379 53.1195C21.9621 39.0631 33.2854 26.7272 47.4792 17.4039L48.3804 19.2067C34.6058 28.2992 23.5985 40.2895 15.7701 53.9431L13.9379 53.1195ZM0.000387708 105.868C-0.0472307 88.3388 4.2925 71.0976 12.4821 55.7535L14.3113 56.5748C6.23058 71.6677 1.9492 88.6362 2.00066 105.888L0.000387708 105.868ZM84.998 208.969C54.1293 202.83 26.3227 183 11.1578 152.671C4.58563 139.526 1.0178 125.666 0.18992 111.868L2.19448 111.888C3.02246 125.377 6.5212 138.926 12.9463 151.777C27.8349 181.554 55.1432 201.013 85.4535 207.02L84.998 208.969ZM208.84 111.149C209.024 107.846 209.051 104.526 208.913 101.2L210.926 101.467C211.051 104.796 211.017 108.118 210.829 111.423L208.84 111.149ZM152.671 199.841C133.149 209.602 112.046 212.742 91.9182 210.109L92.3758 208.152C112.062 210.687 132.689 207.597 151.776 198.053C183.324 182.279 203.293 152.565 207.95 120.11L209.933 120.381C205.189 153.468 184.831 183.761 152.671 199.841Z" fill="#D4AF37"/>
</svg>
