<svg width="211" height="211" viewBox="0 0 211 211" fill="none" xmlns="http://www.w3.org/2000/svg">
<path fill-rule="evenodd" clip-rule="evenodd" d="M28.6707 174.856C37.0749 184.171 47.3259 192.104 59.2247 198.053C110.34 223.611 172.497 202.892 198.055 151.776C198.579 150.729 199.081 149.676 199.566 148.619L201.355 149.514C200.87 150.57 200.368 151.623 199.844 152.671C173.792 204.774 110.434 225.893 58.3305 199.841C46.0588 193.706 35.5062 185.501 26.8836 175.861L28.6707 174.856ZM210.18 92.4675C212.194 108.527 210.537 125.19 204.777 141.164L202.974 140.263C208.538 124.724 210.15 108.528 208.22 92.9075L210.18 92.4675ZM189.681 41.9062C200.237 55.9005 207.109 72.2976 209.764 89.4866L207.808 89.927C205.217 73.0045 198.461 56.8605 188.069 43.0897L189.681 41.9062ZM59.8216 10.4235C88.2002 -3.18676 122.343 -4.007 152.673 11.1579C165.817 17.7301 176.988 26.6778 185.929 37.219L184.313 38.4061C175.557 28.1117 164.629 19.3715 151.779 12.9464C122.002 -1.94203 88.4787 -1.12493 60.626 12.2554L59.8216 10.4235ZM19.4393 162.984C21.2742 165.737 23.2451 168.409 25.3501 170.988L23.5804 171.982C21.483 169.394 19.5163 166.716 17.6844 163.959L19.4393 162.984ZM11.1593 58.3288C20.9204 38.8068 35.9193 23.634 53.6006 13.6633L54.4093 15.504C37.1396 25.287 22.4915 40.1356 12.9478 59.223C-2.82601 90.7707 -0.97265 126.523 14.7747 155.282L13.0255 156.254C-3.03101 126.938 -4.92108 90.489 11.1593 58.3288Z" fill="#D4AF37"/>
</svg>
