<svg width="211" height="211" viewBox="0 0 211 211" fill="none" xmlns="http://www.w3.org/2000/svg">
<path fill-rule="evenodd" clip-rule="evenodd" d="M174.856 182.329C184.171 173.925 192.104 163.674 198.053 151.775C223.611 100.66 202.892 38.5024 151.776 12.9445C150.729 12.4209 149.676 11.9188 148.619 11.4341L149.514 9.64477C150.57 10.1303 151.623 10.6325 152.67 11.156C204.774 37.2079 225.893 100.566 199.841 152.67C193.706 164.941 185.501 175.494 175.861 184.116L174.856 182.329ZM92.4671 0.820414C108.527 -1.19431 125.19 0.462711 141.164 6.22341L140.263 8.02619C124.724 2.46223 108.528 0.850366 92.9075 2.77969L92.4671 0.820414ZM41.9062 21.3191C55.9005 10.7635 72.2973 3.89077 89.4866 1.23577L89.9267 3.19193C73.0042 5.78344 56.8606 12.539 43.09 22.9314L41.9062 21.3191ZM10.4234 151.179C-3.18659 122.8 -4.0071 88.6572 11.1578 58.3272C17.73 45.1828 26.6781 34.0119 37.2194 25.0709L38.4057 26.6872C28.1112 35.4432 19.3714 46.3712 12.9463 59.2215C-1.94213 88.9988 -1.12484 122.521 12.2555 150.374L10.4234 151.179ZM162.984 191.561C165.737 189.726 168.409 187.755 170.987 185.65L171.982 187.42C169.394 189.517 166.716 191.484 163.959 193.316L162.984 191.561ZM58.3287 199.841C38.8067 190.08 23.6341 175.081 13.6628 157.4L15.5037 156.591C25.2872 173.861 40.1355 188.509 59.2229 198.052C90.7707 213.826 126.523 211.973 155.282 196.225L156.254 197.974C126.938 214.031 90.489 215.921 58.3287 199.841Z" fill="#D4AF37"/>
</svg>
