<svg width="216" height="216" viewBox="0 0 216 216" fill="none" xmlns="http://www.w3.org/2000/svg">
<path fill-rule="evenodd" clip-rule="evenodd" d="M2.47924 117.61C3.64073 130.4 7.16347 143.192 13.2538 155.373C39.4171 207.699 103.047 228.909 155.374 202.746C156.446 202.21 157.504 201.656 158.55 201.088L159.466 202.92C158.419 203.487 157.361 204.041 156.289 204.577C102.951 231.246 38.0921 209.626 11.4229 156.288C5.14175 143.726 1.53905 130.525 0.398474 117.335L2.47924 117.61ZM201.731 161.622C193.517 176.011 181.926 188.639 167.396 198.184L166.473 196.338C180.574 187.03 191.842 174.756 199.857 160.779L201.731 161.622ZM216 107.624C216.049 125.568 211.606 143.218 203.222 158.925L201.35 158.084C209.621 142.634 214.005 125.263 213.952 107.603L216 107.624ZM128.988 2.07945C160.589 8.36374 189.054 28.6628 204.578 59.7113C211.306 73.1671 214.958 87.3561 215.806 101.481L213.753 101.46C212.905 87.6514 209.324 73.7813 202.747 60.6267C187.506 30.1443 159.55 10.2233 128.522 4.0737L128.988 2.07945ZM2.21143 102.216C2.02349 105.598 1.99626 108.997 2.1359 112.402L0.0762448 112.129C-0.0520978 108.721 -0.0180011 105.32 0.175428 101.937L2.21143 102.216ZM59.7117 11.4227C79.6963 1.43042 101.299 -1.7829 121.904 0.911648L121.435 2.91578C101.283 0.320377 80.1669 3.48371 60.6271 13.2536C28.3321 29.4012 7.88996 59.8194 3.122 93.0437L1.09223 92.7656C5.94934 58.895 26.789 27.8839 59.7117 11.4227Z" fill="#D4AF37"/>
</svg>
