<svg width="211" height="211" viewBox="0 0 211 211" fill="none" xmlns="http://www.w3.org/2000/svg">
<path fill-rule="evenodd" clip-rule="evenodd" d="M182.329 36.1435C173.925 26.8288 163.674 18.8964 151.776 12.9471C100.659 -12.6106 38.5027 8.10838 12.9449 59.2237C12.4213 60.2708 11.9191 61.3243 11.4341 62.3808L9.64477 61.4861C10.1304 60.43 10.6328 59.3766 11.1564 58.3295C37.2083 6.22602 100.566 -14.8931 152.67 11.1586C164.941 17.2944 175.494 25.4995 184.116 35.1389L182.329 36.1435ZM0.820237 118.532C-1.19417 102.473 0.462677 85.8102 6.22413 69.8356L8.02655 70.737C2.46255 86.2756 0.850777 102.472 2.78037 118.092L0.820237 118.532ZM21.3192 169.094C10.764 155.099 3.89101 138.702 1.23593 121.513L3.19252 121.073C5.78331 137.995 12.5395 154.139 22.9317 167.91L21.3192 169.094ZM151.179 200.577C122.801 214.187 88.6574 215.007 58.3275 199.842C45.1831 193.27 34.0121 184.322 25.0712 173.781L26.6873 172.594C35.4432 182.888 46.3715 191.628 59.2217 198.054C88.999 212.942 122.521 212.125 150.374 198.744L151.179 200.577ZM191.561 48.0158C189.726 45.2629 187.755 42.5909 185.65 40.0124L187.42 39.0185C189.517 41.6064 191.484 44.2842 193.316 47.0411L191.561 48.0158ZM199.841 152.671C190.08 172.193 175.081 187.366 157.4 197.337L156.591 195.496C173.861 185.713 188.509 170.864 198.052 151.777C213.826 120.229 211.973 84.4764 196.225 55.7178L197.974 54.7458C214.031 84.0615 215.921 120.511 199.841 152.671Z" fill="#D4AF37"/>
</svg>
