<svg width="211" height="211" viewBox="0 0 211 211" fill="none" xmlns="http://www.w3.org/2000/svg">
<path fill-rule="evenodd" clip-rule="evenodd" d="M137.452 7.03002C125.518 3.15393 112.673 1.39819 99.3904 2.18368C42.3304 5.55806 -1.1908 54.5504 2.18367 111.61C2.2528 112.779 2.34354 113.942 2.45067 115.1L0.453319 115.218C0.346894 114.061 0.256343 112.897 0.18722 111.728C-3.2522 53.5654 41.1098 3.62684 99.2724 0.187231C112.971 -0.622876 126.213 1.2188 138.498 5.26697L137.452 7.03002ZM21.2904 169.062C11.5258 156.151 4.64151 140.883 1.65819 124.163L3.67021 124.043C6.60715 140.288 13.2979 155.129 22.7696 167.703L21.2904 169.062ZM64.3019 202.645C48.167 195.788 34.0231 185.009 23.1392 171.438L24.615 170.08C35.3099 183.451 49.2263 194.069 65.1085 200.814L64.3019 202.645ZM192.562 165.087C174.764 191.052 145.584 208.811 111.728 210.813C97.0547 211.681 82.9058 209.504 69.894 204.833L70.7017 202.997C83.43 207.547 97.2651 209.665 111.61 208.816C144.849 206.851 173.493 189.404 190.949 163.9L192.562 165.087ZM151.38 12.7093C148.415 11.2397 145.373 9.90824 142.261 8.72489L143.299 6.97982C146.408 8.17538 149.45 9.51396 152.414 10.9884L151.38 12.7093ZM210.813 99.2721C212.101 121.064 206.68 141.703 196.335 159.173L194.715 157.981C204.797 140.88 210.076 120.697 208.816 99.3902C206.734 64.1737 187.275 34.1148 159.268 17.0549L160.298 15.3393C188.852 32.7274 208.69 63.3719 210.813 99.2721Z" fill="#D4AF37"/>
</svg>
