<svg width="94" height="55" viewBox="0 0 94 55" fill="none" xmlns="http://www.w3.org/2000/svg">
<g clip-path="url(#clip0_6491_7677)">
<path d="M6.06445 26.2598L12.1735 20.1686C31.7065 0.692726 63.4179 0.692724 82.951 20.1686L89.0599 26.2597L82.9509 32.3509C63.4179 51.8268 31.7065 51.8268 12.1735 32.3509L6.06445 26.2598Z" stroke="#D4AF37" stroke-width="4" stroke-miterlimit="10"/>
<path d="M47.62 46.971C59.093 46.971 68.3938 37.6975 68.3938 26.258C68.3938 14.8185 59.093 5.54492 47.62 5.54492C36.1469 5.54492 26.8462 14.8185 26.8462 26.258C26.8462 37.6975 36.1469 46.971 47.62 46.971Z" stroke="#D4AF37" stroke-width="4" stroke-miterlimit="10"/>
<path d="M47.5723 34.2865C52.0195 34.2865 55.6246 30.6919 55.6246 26.2577C55.6246 21.8236 52.0195 18.229 47.5723 18.229C43.1252 18.229 39.52 21.8236 39.52 26.2577C39.52 30.6919 43.1252 34.2865 47.5723 34.2865Z" stroke="#D4AF37" stroke-width="4" stroke-miterlimit="10"/>
</g>
<defs>
<clipPath id="clip0_6491_7677">
<rect width="94" height="54.4211" fill="white"/>
</clipPath>
</defs>
</svg>
